%TF.GenerationSoftware,KiCad,Pcbnew,8.0.5*%
%TF.CreationDate,2024-11-23T09:58:25+09:00*%
%TF.ProjectId,voice4017,766f6963-6534-4303-9137-2e6b69636164,rev?*%
%TF.SameCoordinates,Original*%
%TF.FileFunction,Soldermask,Top*%
%TF.FilePolarity,Negative*%
%FSLAX46Y46*%
G04 Gerber Fmt 4.6, Leading zero omitted, Abs format (unit mm)*
G04 Created by KiCad (PCBNEW 8.0.5) date 2024-11-23 09:58:25*
%MOMM*%
%LPD*%
G01*
G04 APERTURE LIST*
G04 Aperture macros list*
%AMRoundRect*
0 Rectangle with rounded corners*
0 $1 Rounding radius*
0 $2 $3 $4 $5 $6 $7 $8 $9 X,Y pos of 4 corners*
0 Add a 4 corners polygon primitive as box body*
4,1,4,$2,$3,$4,$5,$6,$7,$8,$9,$2,$3,0*
0 Add four circle primitives for the rounded corners*
1,1,$1+$1,$2,$3*
1,1,$1+$1,$4,$5*
1,1,$1+$1,$6,$7*
1,1,$1+$1,$8,$9*
0 Add four rect primitives between the rounded corners*
20,1,$1+$1,$2,$3,$4,$5,0*
20,1,$1+$1,$4,$5,$6,$7,0*
20,1,$1+$1,$6,$7,$8,$9,0*
20,1,$1+$1,$8,$9,$2,$3,0*%
G04 Aperture macros list end*
%ADD10R,1.600000X1.600000*%
%ADD11C,1.600000*%
%ADD12C,1.400000*%
%ADD13C,1.500000*%
%ADD14RoundRect,0.350000X-0.350000X-0.350000X0.350000X-0.350000X0.350000X0.350000X-0.350000X0.350000X0*%
%ADD15C,2.000000*%
%ADD16R,1.400000X1.400000*%
%ADD17C,2.700000*%
%ADD18O,1.400000X1.400000*%
%ADD19R,2.400000X1.600000*%
%ADD20O,2.400000X1.600000*%
G04 APERTURE END LIST*
D10*
%TO.C,D10*%
X129540000Y-76200000D03*
D11*
X132080000Y-76200000D03*
%TD*%
D10*
%TO.C,D9*%
X133350000Y-88900000D03*
D11*
X135890000Y-88900000D03*
%TD*%
D10*
%TO.C,D8*%
X144145000Y-96520000D03*
D11*
X146685000Y-96520000D03*
%TD*%
D10*
%TO.C,D7*%
X158110000Y-96520000D03*
D11*
X160650000Y-96520000D03*
%TD*%
D10*
%TO.C,D6*%
X168910000Y-88900000D03*
D11*
X171450000Y-88900000D03*
%TD*%
D10*
%TO.C,D5*%
X172720000Y-76200000D03*
D11*
X175260000Y-76200000D03*
%TD*%
D10*
%TO.C,D4*%
X168910000Y-63500000D03*
D11*
X171450000Y-63500000D03*
%TD*%
D10*
%TO.C,D3*%
X158115000Y-55880000D03*
D11*
X160655000Y-55880000D03*
%TD*%
D10*
%TO.C,D2*%
X144140000Y-55880000D03*
D11*
X146680000Y-55880000D03*
%TD*%
D10*
%TO.C,D1*%
X133350000Y-63500000D03*
D11*
X135890000Y-63500000D03*
%TD*%
D12*
%TO.C,*%
X161897500Y-74447500D03*
%TD*%
D13*
%TO.C,Q1*%
X154998000Y-64760000D03*
X154998000Y-67300000D03*
X154998000Y-69840000D03*
%TD*%
D14*
%TO.C,U2*%
X153790000Y-84995000D03*
D12*
X156290000Y-84995000D03*
%TD*%
D15*
%TO.C,J1*%
X167400000Y-93980000D03*
%TD*%
D11*
%TO.C,C3*%
X150495000Y-67270000D03*
X150495000Y-62270000D03*
%TD*%
D16*
%TO.C,C2*%
X161897500Y-79527500D03*
D12*
X159897500Y-79527500D03*
%TD*%
D17*
%TO.C,H3*%
X171450000Y-54610000D03*
%TD*%
D12*
%TO.C,R4*%
X165100000Y-62230000D03*
D18*
X157480000Y-62230000D03*
%TD*%
D12*
%TO.C,R1*%
X169545000Y-83820000D03*
D18*
X161925000Y-83820000D03*
%TD*%
D17*
%TO.C,H2*%
X152400000Y-54610000D03*
%TD*%
D19*
%TO.C,U1*%
X139700000Y-67310000D03*
D20*
X139700000Y-69850000D03*
X139700000Y-72390000D03*
X139700000Y-74930000D03*
X139700000Y-77470000D03*
X139700000Y-80010000D03*
X139700000Y-82550000D03*
X139700000Y-85090000D03*
X147320000Y-85090000D03*
X147320000Y-82550000D03*
X147320000Y-80010000D03*
X147320000Y-77470000D03*
X147320000Y-74930000D03*
X147320000Y-72390000D03*
X147320000Y-69850000D03*
X147320000Y-67310000D03*
%TD*%
D17*
%TO.C,H1*%
X133350000Y-54610000D03*
%TD*%
D12*
%TO.C,R2*%
X154940000Y-80010000D03*
D18*
X154940000Y-72390000D03*
%TD*%
D15*
%TO.C,J2*%
X137400000Y-93980000D03*
%TD*%
D16*
%TO.C,C1*%
X167612500Y-79527500D03*
D12*
X165612500Y-79527500D03*
%TD*%
%TO.C,R3*%
X152400000Y-80010000D03*
D18*
X152400000Y-72390000D03*
%TD*%
M02*
