%TF.GenerationSoftware,KiCad,Pcbnew,8.0.5*%
%TF.CreationDate,2024-11-23T09:58:24+09:00*%
%TF.ProjectId,voice4017,766f6963-6534-4303-9137-2e6b69636164,rev?*%
%TF.SameCoordinates,Original*%
%TF.FileFunction,Copper,L1,Top*%
%TF.FilePolarity,Positive*%
%FSLAX46Y46*%
G04 Gerber Fmt 4.6, Leading zero omitted, Abs format (unit mm)*
G04 Created by KiCad (PCBNEW 8.0.5) date 2024-11-23 09:58:24*
%MOMM*%
%LPD*%
G01*
G04 APERTURE LIST*
G04 Aperture macros list*
%AMRoundRect*
0 Rectangle with rounded corners*
0 $1 Rounding radius*
0 $2 $3 $4 $5 $6 $7 $8 $9 X,Y pos of 4 corners*
0 Add a 4 corners polygon primitive as box body*
4,1,4,$2,$3,$4,$5,$6,$7,$8,$9,$2,$3,0*
0 Add four circle primitives for the rounded corners*
1,1,$1+$1,$2,$3*
1,1,$1+$1,$4,$5*
1,1,$1+$1,$6,$7*
1,1,$1+$1,$8,$9*
0 Add four rect primitives between the rounded corners*
20,1,$1+$1,$2,$3,$4,$5,0*
20,1,$1+$1,$4,$5,$6,$7,0*
20,1,$1+$1,$6,$7,$8,$9,0*
20,1,$1+$1,$8,$9,$2,$3,0*%
G04 Aperture macros list end*
%TA.AperFunction,ComponentPad*%
%ADD10R,1.600000X1.600000*%
%TD*%
%TA.AperFunction,ComponentPad*%
%ADD11C,1.600000*%
%TD*%
%TA.AperFunction,ComponentPad*%
%ADD12C,1.400000*%
%TD*%
%TA.AperFunction,ComponentPad*%
%ADD13C,1.500000*%
%TD*%
%TA.AperFunction,ComponentPad*%
%ADD14RoundRect,0.350000X-0.350000X-0.350000X0.350000X-0.350000X0.350000X0.350000X-0.350000X0.350000X0*%
%TD*%
%TA.AperFunction,ComponentPad*%
%ADD15C,2.000000*%
%TD*%
%TA.AperFunction,ComponentPad*%
%ADD16R,1.400000X1.400000*%
%TD*%
%TA.AperFunction,ComponentPad*%
%ADD17O,1.400000X1.400000*%
%TD*%
%TA.AperFunction,ComponentPad*%
%ADD18R,2.400000X1.600000*%
%TD*%
%TA.AperFunction,ComponentPad*%
%ADD19O,2.400000X1.600000*%
%TD*%
%TA.AperFunction,ViaPad*%
%ADD20C,0.600000*%
%TD*%
%TA.AperFunction,Conductor*%
%ADD21C,1.000000*%
%TD*%
%TA.AperFunction,Conductor*%
%ADD22C,0.200000*%
%TD*%
%TA.AperFunction,Conductor*%
%ADD23C,0.500000*%
%TD*%
G04 APERTURE END LIST*
D10*
%TO.P,D10,1,K*%
%TO.N,Net-(D1-K)*%
X129540000Y-76200000D03*
D11*
%TO.P,D10,2,A*%
%TO.N,Net-(D10-A)*%
X132080000Y-76200000D03*
%TD*%
D10*
%TO.P,D9,1,K*%
%TO.N,Net-(D1-K)*%
X133350000Y-88900000D03*
D11*
%TO.P,D9,2,A*%
%TO.N,Net-(D9-A)*%
X135890000Y-88900000D03*
%TD*%
D10*
%TO.P,D8,1,K*%
%TO.N,Net-(D1-K)*%
X144145000Y-96520000D03*
D11*
%TO.P,D8,2,A*%
%TO.N,Net-(D8-A)*%
X146685000Y-96520000D03*
%TD*%
D10*
%TO.P,D7,1,K*%
%TO.N,Net-(D1-K)*%
X158110000Y-96520000D03*
D11*
%TO.P,D7,2,A*%
%TO.N,Net-(D7-A)*%
X160650000Y-96520000D03*
%TD*%
D10*
%TO.P,D6,1,K*%
%TO.N,Net-(D1-K)*%
X168910000Y-88900000D03*
D11*
%TO.P,D6,2,A*%
%TO.N,Net-(D6-A)*%
X171450000Y-88900000D03*
%TD*%
D10*
%TO.P,D5,1,K*%
%TO.N,Net-(D1-K)*%
X172720000Y-76200000D03*
D11*
%TO.P,D5,2,A*%
%TO.N,Net-(D5-A)*%
X175260000Y-76200000D03*
%TD*%
D10*
%TO.P,D4,1,K*%
%TO.N,Net-(D1-K)*%
X168910000Y-63500000D03*
D11*
%TO.P,D4,2,A*%
%TO.N,Net-(D4-A)*%
X171450000Y-63500000D03*
%TD*%
D10*
%TO.P,D3,1,K*%
%TO.N,Net-(D1-K)*%
X158115000Y-55880000D03*
D11*
%TO.P,D3,2,A*%
%TO.N,Net-(D3-A)*%
X160655000Y-55880000D03*
%TD*%
D10*
%TO.P,D2,1,K*%
%TO.N,Net-(D1-K)*%
X144140000Y-55880000D03*
D11*
%TO.P,D2,2,A*%
%TO.N,Net-(D2-A)*%
X146680000Y-55880000D03*
%TD*%
D10*
%TO.P,D1,1,K*%
%TO.N,Net-(D1-K)*%
X133350000Y-63500000D03*
D11*
%TO.P,D1,2,A*%
%TO.N,Net-(D1-A)*%
X135890000Y-63500000D03*
%TD*%
D12*
%TO.P,,2*%
%TO.N,Net-(Q1-B)*%
X161897500Y-74447500D03*
%TD*%
D13*
%TO.P,Q1,1,E*%
%TO.N,GND*%
X154998000Y-64760000D03*
%TO.P,Q1,2,C*%
%TO.N,Net-(Q1-C)*%
X154998000Y-67300000D03*
%TO.P,Q1,3,B*%
%TO.N,Net-(Q1-B)*%
X154998000Y-69840000D03*
%TD*%
D14*
%TO.P,U2,1,-*%
%TO.N,GND*%
X153790000Y-84995000D03*
D12*
%TO.P,U2,2,+*%
%TO.N,Net-(U2-+)*%
X156290000Y-84995000D03*
%TD*%
D15*
%TO.P,J1,1,1*%
%TO.N,VCC*%
X167400000Y-93980000D03*
%TD*%
D11*
%TO.P,C3,1*%
%TO.N,VCC*%
X150495000Y-67270000D03*
%TO.P,C3,2*%
%TO.N,GND*%
X150495000Y-62270000D03*
%TD*%
D16*
%TO.P,C2,1*%
%TO.N,Net-(U2-+)*%
X161897500Y-79527500D03*
D12*
%TO.P,C2,2*%
%TO.N,Net-(Q1-B)*%
X159897500Y-79527500D03*
%TD*%
%TO.P,R4,1*%
%TO.N,Net-(D1-K)*%
X165100000Y-62230000D03*
D17*
%TO.P,R4,2*%
%TO.N,GND*%
X157480000Y-62230000D03*
%TD*%
D12*
%TO.P,R1,1*%
%TO.N,VCC*%
X169545000Y-83820000D03*
D17*
%TO.P,R1,2*%
%TO.N,Net-(U2-+)*%
X161925000Y-83820000D03*
%TD*%
D18*
%TO.P,U1,1,Q5*%
%TO.N,Net-(D3-A)*%
X139700000Y-67310000D03*
D19*
%TO.P,U1,2,Q1*%
%TO.N,Net-(D2-A)*%
X139700000Y-69850000D03*
%TO.P,U1,3,Q0*%
%TO.N,Net-(D1-A)*%
X139700000Y-72390000D03*
%TO.P,U1,4,Q2*%
%TO.N,Net-(D10-A)*%
X139700000Y-74930000D03*
%TO.P,U1,5,Q6*%
%TO.N,Net-(D9-A)*%
X139700000Y-77470000D03*
%TO.P,U1,6,Q7*%
%TO.N,Net-(D8-A)*%
X139700000Y-80010000D03*
%TO.P,U1,7,Q3*%
%TO.N,Net-(D7-A)*%
X139700000Y-82550000D03*
%TO.P,U1,8,VSS*%
%TO.N,GND*%
X139700000Y-85090000D03*
%TO.P,U1,9,Q8*%
%TO.N,Net-(D6-A)*%
X147320000Y-85090000D03*
%TO.P,U1,10,Q4*%
%TO.N,Net-(D5-A)*%
X147320000Y-82550000D03*
%TO.P,U1,11,Q9*%
%TO.N,Net-(D4-A)*%
X147320000Y-80010000D03*
%TO.P,U1,12,Cout*%
%TO.N,unconnected-(U1-Cout-Pad12)*%
X147320000Y-77470000D03*
%TO.P,U1,13,CKEN*%
%TO.N,GND*%
X147320000Y-74930000D03*
%TO.P,U1,14,CLK*%
%TO.N,Net-(Q1-C)*%
X147320000Y-72390000D03*
%TO.P,U1,15,Reset*%
%TO.N,GND*%
X147320000Y-69850000D03*
%TO.P,U1,16,VDD*%
%TO.N,VCC*%
X147320000Y-67310000D03*
%TD*%
D12*
%TO.P,R2,1*%
%TO.N,VCC*%
X154940000Y-80010000D03*
D17*
%TO.P,R2,2*%
%TO.N,Net-(Q1-B)*%
X154940000Y-72390000D03*
%TD*%
D15*
%TO.P,J2,1,1*%
%TO.N,GND*%
X137400000Y-93980000D03*
%TD*%
D16*
%TO.P,C1,1*%
%TO.N,VCC*%
X167612500Y-79527500D03*
D12*
%TO.P,C1,2*%
%TO.N,GND*%
X165612500Y-79527500D03*
%TD*%
%TO.P,R3,1*%
%TO.N,VCC*%
X152400000Y-80010000D03*
D17*
%TO.P,R3,2*%
%TO.N,Net-(Q1-C)*%
X152400000Y-72390000D03*
%TD*%
D20*
%TO.N,GND*%
X153035000Y-76200000D03*
X149860000Y-80010000D03*
X160655000Y-68580000D03*
X167640000Y-53340000D03*
X132080000Y-83820000D03*
X160655000Y-59055000D03*
X164465000Y-87630000D03*
X141605000Y-63500000D03*
X154305000Y-78105000D03*
X169545000Y-81915000D03*
X152400000Y-96520000D03*
X129540000Y-88900000D03*
X152400000Y-69850000D03*
X143510000Y-81280000D03*
X143510000Y-68580000D03*
X170815000Y-99060000D03*
X167640000Y-66675000D03*
X175260000Y-88900000D03*
X161290000Y-78105000D03*
X168910000Y-86995000D03*
X137160000Y-76835000D03*
X158750000Y-91440000D03*
X166370000Y-59690000D03*
X165100000Y-83820000D03*
X133985000Y-99060000D03*
X158750000Y-88900000D03*
X137160000Y-53340000D03*
X147320000Y-92710000D03*
X158115000Y-75565000D03*
X153670000Y-73660000D03*
X175260000Y-63500000D03*
X152400000Y-91440000D03*
X151130000Y-82550000D03*
X157480000Y-93980000D03*
X147320000Y-87630000D03*
X164465000Y-91440000D03*
X155575000Y-59055000D03*
X160655000Y-71120000D03*
X137160000Y-73025000D03*
X147320000Y-59055000D03*
X156845000Y-71120000D03*
X132080000Y-68580000D03*
X129540000Y-63500000D03*
X139700000Y-59690000D03*
X158115000Y-80010000D03*
X141605000Y-89535000D03*
X173990000Y-82550000D03*
X169545000Y-78105000D03*
X170180000Y-68580000D03*
X163830000Y-75565000D03*
%TD*%
D21*
%TO.N,VCC*%
X167400000Y-93980000D02*
X166370000Y-92950000D01*
X166370000Y-92950000D02*
X166370000Y-85090000D01*
X166370000Y-85090000D02*
X167640000Y-83820000D01*
X167640000Y-83820000D02*
X167640000Y-79555000D01*
X167640000Y-79555000D02*
X167612500Y-79527500D01*
D22*
%TO.N,Net-(Q1-B)*%
X154940000Y-72390000D02*
X156997500Y-74447500D01*
X156997500Y-74447500D02*
X161897500Y-74447500D01*
X159897500Y-79527500D02*
X159897500Y-76447500D01*
X159897500Y-76447500D02*
X161897500Y-74447500D01*
D23*
%TO.N,Net-(D1-K)*%
X158115000Y-55880000D02*
X160020000Y-57785000D01*
X160020000Y-57785000D02*
X161925000Y-57785000D01*
X165100000Y-60960000D02*
X165100000Y-62230000D01*
X161925000Y-57785000D02*
X165100000Y-60960000D01*
X166370000Y-63500000D02*
X168910000Y-63500000D01*
X165100000Y-62230000D02*
X166370000Y-63500000D01*
%TO.N,VCC*%
X169545000Y-83820000D02*
X170815000Y-82550000D01*
X170815000Y-82550000D02*
X170815000Y-80962500D01*
X170815000Y-80962500D02*
X169392500Y-79540000D01*
X169392500Y-79540000D02*
X169392500Y-79527500D01*
X169392500Y-79527500D02*
X167612500Y-79527500D01*
D21*
X167612500Y-79527500D02*
X167612500Y-78077500D01*
X167612500Y-78077500D02*
X167005000Y-77470000D01*
X167005000Y-77470000D02*
X164465000Y-77470000D01*
X164465000Y-77470000D02*
X163830000Y-78105000D01*
X163830000Y-78105000D02*
X163830000Y-80195000D01*
X163830000Y-80195000D02*
X163197500Y-80827500D01*
D22*
X149900000Y-67270000D02*
X149860000Y-67310000D01*
X150495000Y-67270000D02*
X149900000Y-67270000D01*
D21*
X150495000Y-78105000D02*
X150495000Y-67270000D01*
X154940000Y-80010000D02*
X152400000Y-80010000D01*
X156845000Y-81915000D02*
X154940000Y-80010000D01*
X162110000Y-81915000D02*
X156845000Y-81915000D01*
X152400000Y-80010000D02*
X150495000Y-78105000D01*
X149860000Y-67310000D02*
X147320000Y-67310000D01*
X163197500Y-80827500D02*
X162110000Y-81915000D01*
D22*
%TO.N,Net-(U2-+)*%
X161925000Y-83820000D02*
X160750000Y-84995000D01*
X160750000Y-84995000D02*
X156290000Y-84995000D01*
%TO.N,Net-(Q1-B)*%
X154998000Y-72332000D02*
X154940000Y-72390000D01*
X154998000Y-69840000D02*
X154998000Y-72332000D01*
D23*
%TO.N,Net-(D1-K)*%
X168910000Y-88900000D02*
X172720000Y-85090000D01*
X135255000Y-90805000D02*
X138430000Y-90805000D01*
X146050000Y-57785000D02*
X144145000Y-55880000D01*
D22*
X168910000Y-63500000D02*
X168910000Y-62865000D01*
D23*
X144145000Y-55880000D02*
X140970000Y-55880000D01*
X129540000Y-67310000D02*
X129540000Y-76200000D01*
X133350000Y-88900000D02*
X135255000Y-90805000D01*
X172720000Y-76200000D02*
X172720000Y-67310000D01*
X129540000Y-85090000D02*
X133350000Y-88900000D01*
X129540000Y-76200000D02*
X129540000Y-85090000D01*
X133350000Y-63500000D02*
X129540000Y-67310000D01*
X146050000Y-94615000D02*
X156210000Y-94615000D01*
X172720000Y-67310000D02*
X168910000Y-63500000D01*
X144145000Y-96520000D02*
X146050000Y-94615000D01*
X158115000Y-55880000D02*
X156210000Y-57785000D01*
X156210000Y-94615000D02*
X158115000Y-96520000D01*
X156210000Y-57785000D02*
X146050000Y-57785000D01*
X138430000Y-90805000D02*
X144145000Y-96520000D01*
X140970000Y-55880000D02*
X133350000Y-63500000D01*
X172720000Y-85090000D02*
X172720000Y-76200000D01*
D22*
%TO.N,Net-(Q1-C)*%
X153670000Y-68755000D02*
X155125000Y-67300000D01*
X152400000Y-72390000D02*
X153670000Y-71120000D01*
X153670000Y-71120000D02*
X153670000Y-68755000D01*
%TD*%
%TA.AperFunction,Conductor*%
%TO.N,GND*%
G36*
X142404250Y-56650185D02*
G01*
X142407451Y-56652312D01*
X143043562Y-57089639D01*
X143043580Y-57089652D01*
X143043611Y-57089673D01*
X143045645Y-57091071D01*
X143051964Y-57095345D01*
X143061972Y-57100109D01*
X143082988Y-57112806D01*
X143097669Y-57123796D01*
X143157556Y-57146131D01*
X143167495Y-57150342D01*
X143181875Y-57157188D01*
X143188496Y-57159247D01*
X143193769Y-57160539D01*
X143207590Y-57164794D01*
X143232511Y-57174089D01*
X143232517Y-57174091D01*
X143292127Y-57180500D01*
X143654491Y-57180499D01*
X143708635Y-57192944D01*
X144356559Y-57507419D01*
X145026596Y-57832627D01*
X145060132Y-57856500D01*
X145571586Y-58367954D01*
X145601058Y-58387645D01*
X145645270Y-58417186D01*
X145694505Y-58450084D01*
X145694506Y-58450084D01*
X145694507Y-58450085D01*
X145694509Y-58450086D01*
X145831082Y-58506656D01*
X145831087Y-58506658D01*
X145831091Y-58506658D01*
X145831092Y-58506659D01*
X145976079Y-58535500D01*
X145976082Y-58535500D01*
X156283920Y-58535500D01*
X156381462Y-58516096D01*
X156428913Y-58506658D01*
X156565495Y-58450084D01*
X156614729Y-58417186D01*
X156614734Y-58417183D01*
X156639071Y-58400921D01*
X156688416Y-58367952D01*
X157195348Y-57861018D01*
X157228605Y-57837283D01*
X158060584Y-57430967D01*
X158129460Y-57419236D01*
X158169415Y-57430968D01*
X159001391Y-57837282D01*
X159034654Y-57861022D01*
X159541586Y-58367954D01*
X159571058Y-58387645D01*
X159615270Y-58417186D01*
X159664505Y-58450084D01*
X159664506Y-58450084D01*
X159664507Y-58450085D01*
X159664509Y-58450086D01*
X159801082Y-58506656D01*
X159801087Y-58506658D01*
X159801091Y-58506658D01*
X159801092Y-58506659D01*
X159946079Y-58535500D01*
X159946082Y-58535500D01*
X159946083Y-58535500D01*
X160093918Y-58535500D01*
X161562770Y-58535500D01*
X161629809Y-58555185D01*
X161650451Y-58571819D01*
X164179076Y-61100444D01*
X164212561Y-61161767D01*
X164207577Y-61231459D01*
X164206041Y-61235372D01*
X163990363Y-61758722D01*
X163985212Y-61773376D01*
X163979237Y-61787508D01*
X163975774Y-61794463D01*
X163975768Y-61794479D01*
X163914885Y-62008461D01*
X163914884Y-62008464D01*
X163894357Y-62229999D01*
X163894357Y-62230000D01*
X163914884Y-62451535D01*
X163914885Y-62451537D01*
X163975769Y-62665523D01*
X163975775Y-62665538D01*
X164074938Y-62864683D01*
X164074943Y-62864691D01*
X164209020Y-63042238D01*
X164373437Y-63192123D01*
X164373439Y-63192125D01*
X164481632Y-63259114D01*
X164562599Y-63309247D01*
X164594541Y-63321621D01*
X164618855Y-63334290D01*
X164622957Y-63337044D01*
X165611159Y-63812391D01*
X165645087Y-63836454D01*
X165891580Y-64082948D01*
X165891584Y-64082951D01*
X166014498Y-64165080D01*
X166014511Y-64165087D01*
X166151082Y-64221656D01*
X166151087Y-64221658D01*
X166151091Y-64221658D01*
X166151092Y-64221659D01*
X166296079Y-64250500D01*
X166296082Y-64250500D01*
X166443917Y-64250500D01*
X167107211Y-64250500D01*
X167174250Y-64270185D01*
X167177451Y-64272312D01*
X167813562Y-64709639D01*
X167813580Y-64709652D01*
X167813611Y-64709673D01*
X167815645Y-64711071D01*
X167821964Y-64715345D01*
X167831972Y-64720109D01*
X167852988Y-64732806D01*
X167867669Y-64743796D01*
X167927556Y-64766131D01*
X167937495Y-64770342D01*
X167951875Y-64777188D01*
X167958496Y-64779247D01*
X167963769Y-64780539D01*
X167977590Y-64784794D01*
X168002511Y-64794089D01*
X168002517Y-64794091D01*
X168062127Y-64800500D01*
X168422889Y-64800499D01*
X168477304Y-64813076D01*
X169796391Y-65457282D01*
X169829654Y-65481022D01*
X171933181Y-67584548D01*
X171966666Y-67645871D01*
X171969500Y-67672229D01*
X171969500Y-74397209D01*
X171949815Y-74464248D01*
X171947681Y-74467459D01*
X171508958Y-75105601D01*
X171504611Y-75112029D01*
X171504606Y-75112038D01*
X171499859Y-75122011D01*
X171487167Y-75143023D01*
X171476204Y-75157668D01*
X171453844Y-75217616D01*
X171449636Y-75227554D01*
X171442787Y-75241948D01*
X171442783Y-75241957D01*
X171440733Y-75248554D01*
X171439449Y-75253797D01*
X171435191Y-75267628D01*
X171425909Y-75292514D01*
X171425908Y-75292516D01*
X171419501Y-75352116D01*
X171419500Y-75352135D01*
X171419500Y-77047870D01*
X171419501Y-77047872D01*
X171425909Y-77107483D01*
X171435203Y-77132403D01*
X171436928Y-77137028D01*
X171440476Y-77148103D01*
X171445143Y-77165428D01*
X171445145Y-77165432D01*
X171445146Y-77165435D01*
X171451985Y-77179258D01*
X171457022Y-77190903D01*
X171476204Y-77242331D01*
X171490003Y-77260764D01*
X171501873Y-77280079D01*
X171508955Y-77294392D01*
X171907819Y-77874557D01*
X171947681Y-77932538D01*
X171969440Y-77998934D01*
X171969500Y-78002788D01*
X171969500Y-84727769D01*
X171949815Y-84794808D01*
X171933181Y-84815450D01*
X169829659Y-86918971D01*
X169796394Y-86942712D01*
X168477300Y-87586922D01*
X168422884Y-87599500D01*
X168062130Y-87599500D01*
X168062123Y-87599501D01*
X168002516Y-87605908D01*
X167867671Y-87656202D01*
X167867664Y-87656206D01*
X167752455Y-87742452D01*
X167752452Y-87742455D01*
X167666206Y-87857664D01*
X167666202Y-87857671D01*
X167615909Y-87992515D01*
X167615177Y-87995615D01*
X167613948Y-87997771D01*
X167613198Y-87999785D01*
X167612871Y-87999663D01*
X167580604Y-88056331D01*
X167518693Y-88088717D01*
X167449102Y-88082491D01*
X167393924Y-88039628D01*
X167370678Y-87973739D01*
X167370500Y-87967100D01*
X167370500Y-85555781D01*
X167390185Y-85488742D01*
X167406815Y-85468104D01*
X168270713Y-84604205D01*
X168270720Y-84604200D01*
X168277780Y-84597139D01*
X168277782Y-84597139D01*
X168376280Y-84498641D01*
X168437603Y-84465156D01*
X168507295Y-84470140D01*
X168562915Y-84511595D01*
X168654020Y-84632238D01*
X168818437Y-84782123D01*
X168818439Y-84782125D01*
X169007595Y-84899245D01*
X169007596Y-84899245D01*
X169007599Y-84899247D01*
X169215060Y-84979618D01*
X169433757Y-85020500D01*
X169433759Y-85020500D01*
X169656241Y-85020500D01*
X169656243Y-85020500D01*
X169874940Y-84979618D01*
X170082401Y-84899247D01*
X170271562Y-84782124D01*
X170435981Y-84632236D01*
X170570058Y-84454689D01*
X170634967Y-84324331D01*
X170643005Y-84310506D01*
X170652044Y-84297042D01*
X171127391Y-83308839D01*
X171151446Y-83274919D01*
X171397951Y-83028416D01*
X171480084Y-82905495D01*
X171536658Y-82768913D01*
X171565500Y-82623918D01*
X171565500Y-82476083D01*
X171565500Y-80888582D01*
X171565500Y-80888579D01*
X171536659Y-80743592D01*
X171536658Y-80743591D01*
X171536658Y-80743587D01*
X171480084Y-80607005D01*
X171422968Y-80521524D01*
X171422968Y-80521523D01*
X171408997Y-80500615D01*
X171397952Y-80484084D01*
X170009256Y-79095388D01*
X169993835Y-79076598D01*
X169975449Y-79049081D01*
X169870919Y-78944551D01*
X169870915Y-78944548D01*
X169748001Y-78862419D01*
X169747988Y-78862412D01*
X169611417Y-78805843D01*
X169611407Y-78805840D01*
X169466420Y-78777000D01*
X169466418Y-78777000D01*
X169205164Y-78777000D01*
X169138125Y-78757315D01*
X169138110Y-78757306D01*
X168785515Y-78530637D01*
X168739767Y-78477827D01*
X168733340Y-78460396D01*
X168617771Y-78055900D01*
X168613000Y-78021835D01*
X168613000Y-77978956D01*
X168612999Y-77978954D01*
X168574553Y-77785673D01*
X168574552Y-77785670D01*
X168574551Y-77785665D01*
X168569940Y-77774534D01*
X168545631Y-77715846D01*
X168499132Y-77603586D01*
X168478262Y-77572352D01*
X168389640Y-77439719D01*
X168376659Y-77426738D01*
X168250282Y-77300361D01*
X168250281Y-77300360D01*
X167789208Y-76839288D01*
X167789206Y-76839285D01*
X167789206Y-76839286D01*
X167782139Y-76832219D01*
X167782139Y-76832218D01*
X167642782Y-76692861D01*
X167642781Y-76692860D01*
X167642780Y-76692859D01*
X167478920Y-76583371D01*
X167478907Y-76583364D01*
X167341759Y-76526557D01*
X167296834Y-76507948D01*
X167296829Y-76507946D01*
X167200188Y-76488724D01*
X167103544Y-76469500D01*
X167103541Y-76469500D01*
X164569675Y-76469500D01*
X164569655Y-76469499D01*
X164563541Y-76469499D01*
X164366460Y-76469499D01*
X164366457Y-76469499D01*
X164173172Y-76507946D01*
X164173164Y-76507948D01*
X163991088Y-76583366D01*
X163991079Y-76583371D01*
X163827219Y-76692859D01*
X163827215Y-76692862D01*
X163347595Y-77172484D01*
X163192220Y-77327859D01*
X163192218Y-77327861D01*
X163152431Y-77367648D01*
X163052859Y-77467219D01*
X162943371Y-77631080D01*
X162943364Y-77631093D01*
X162908260Y-77715845D01*
X162908260Y-77715846D01*
X162867949Y-77813163D01*
X162867947Y-77813170D01*
X162855737Y-77874557D01*
X162855737Y-77874558D01*
X162829500Y-78006456D01*
X162829500Y-78208750D01*
X162809815Y-78275789D01*
X162757011Y-78321544D01*
X162692246Y-78332039D01*
X162645373Y-78327000D01*
X162645364Y-78327000D01*
X161149629Y-78327000D01*
X161149623Y-78327001D01*
X161090016Y-78333408D01*
X160955171Y-78383702D01*
X160955168Y-78383704D01*
X160875468Y-78443368D01*
X160810004Y-78467785D01*
X160741731Y-78452933D01*
X160692325Y-78403528D01*
X160689495Y-78398024D01*
X160510338Y-78027030D01*
X160498000Y-77973107D01*
X160498000Y-76747596D01*
X160517685Y-76680557D01*
X160534315Y-76659919D01*
X161222998Y-75971235D01*
X161269848Y-75941832D01*
X162320133Y-75575603D01*
X162333811Y-75570611D01*
X162334422Y-75570378D01*
X162395533Y-75542249D01*
X162402565Y-75539273D01*
X162434896Y-75526749D01*
X162434896Y-75526748D01*
X162434901Y-75526747D01*
X162624062Y-75409624D01*
X162788481Y-75259736D01*
X162922558Y-75082189D01*
X163021729Y-74883028D01*
X163082615Y-74669036D01*
X163103143Y-74447500D01*
X163082615Y-74225964D01*
X163021729Y-74011972D01*
X162985103Y-73938417D01*
X162922561Y-73812816D01*
X162922556Y-73812808D01*
X162788479Y-73635261D01*
X162624062Y-73485376D01*
X162624060Y-73485374D01*
X162434904Y-73368254D01*
X162434898Y-73368252D01*
X162227440Y-73287882D01*
X162008743Y-73247000D01*
X161786257Y-73247000D01*
X161567560Y-73287882D01*
X161567555Y-73287883D01*
X161435748Y-73338945D01*
X161428441Y-73341516D01*
X161398664Y-73350959D01*
X161398651Y-73350964D01*
X161378504Y-73360693D01*
X161369391Y-73364651D01*
X161360110Y-73368247D01*
X161360094Y-73368255D01*
X161355855Y-73370880D01*
X161344504Y-73377113D01*
X160397029Y-73834662D01*
X160343106Y-73847000D01*
X157297597Y-73847000D01*
X157230558Y-73827315D01*
X157209916Y-73810681D01*
X156463738Y-73064503D01*
X156434333Y-73017649D01*
X156367340Y-72825525D01*
X156068172Y-71967565D01*
X156065991Y-71960667D01*
X156064229Y-71954473D01*
X156064229Y-71954472D01*
X156055681Y-71937306D01*
X156054065Y-71933933D01*
X156053472Y-71932644D01*
X156046572Y-71913725D01*
X156045309Y-71909136D01*
X156045308Y-71909132D01*
X155755672Y-71245020D01*
X155746916Y-71175702D01*
X155757930Y-71140996D01*
X156139591Y-70360185D01*
X156145933Y-70346713D01*
X156146004Y-70346555D01*
X156146224Y-70346070D01*
X156161952Y-70303771D01*
X156165774Y-70294635D01*
X156177575Y-70269330D01*
X156234207Y-70057977D01*
X156253277Y-69840000D01*
X156234207Y-69622023D01*
X156195418Y-69477259D01*
X156177577Y-69410677D01*
X156177576Y-69410676D01*
X156177575Y-69410670D01*
X156085102Y-69212362D01*
X156085100Y-69212359D01*
X156085099Y-69212357D01*
X155959599Y-69033124D01*
X155929256Y-69002781D01*
X155804877Y-68878402D01*
X155625639Y-68752898D01*
X155625640Y-68752898D01*
X155625638Y-68752897D01*
X155477982Y-68684044D01*
X155425543Y-68637871D01*
X155406391Y-68570678D01*
X155426607Y-68503797D01*
X155477229Y-68459634D01*
X155515877Y-68441297D01*
X155516398Y-68440907D01*
X155538184Y-68427881D01*
X155625639Y-68387102D01*
X155804877Y-68261598D01*
X155959598Y-68106877D01*
X156085102Y-67927639D01*
X156177575Y-67729330D01*
X156234207Y-67517977D01*
X156253277Y-67300000D01*
X156234207Y-67082023D01*
X156177575Y-66870670D01*
X156085102Y-66672362D01*
X156085100Y-66672359D01*
X156085099Y-66672357D01*
X155959599Y-66493124D01*
X155897333Y-66430858D01*
X155804877Y-66338402D01*
X155625639Y-66212898D01*
X155625640Y-66212898D01*
X155625638Y-66212897D01*
X155473824Y-66142105D01*
X155421385Y-66095932D01*
X155402233Y-66028739D01*
X155422449Y-65961858D01*
X155473825Y-65917341D01*
X155625384Y-65846668D01*
X155625386Y-65846667D01*
X155804554Y-65721212D01*
X155959212Y-65566554D01*
X156084666Y-65387387D01*
X156177101Y-65189159D01*
X156177105Y-65189150D01*
X156225108Y-65010000D01*
X155313686Y-65010000D01*
X155318080Y-65005606D01*
X155370741Y-64914394D01*
X155398000Y-64812661D01*
X155398000Y-64707339D01*
X155370741Y-64605606D01*
X155318080Y-64514394D01*
X155313686Y-64510000D01*
X156225108Y-64510000D01*
X156225108Y-64509999D01*
X156177105Y-64330849D01*
X156177101Y-64330840D01*
X156084666Y-64132612D01*
X156084664Y-64132608D01*
X155959216Y-63953450D01*
X155959211Y-63953444D01*
X155804554Y-63798787D01*
X155625387Y-63673333D01*
X155427159Y-63580898D01*
X155427150Y-63580894D01*
X155248000Y-63532891D01*
X155248000Y-64444314D01*
X155243606Y-64439920D01*
X155152394Y-64387259D01*
X155050661Y-64360000D01*
X154945339Y-64360000D01*
X154843606Y-64387259D01*
X154752394Y-64439920D01*
X154748000Y-64444314D01*
X154748000Y-63532892D01*
X154747999Y-63532891D01*
X154568849Y-63580894D01*
X154568840Y-63580898D01*
X154370612Y-63673333D01*
X154370608Y-63673335D01*
X154191450Y-63798783D01*
X154191444Y-63798788D01*
X154036788Y-63953444D01*
X154036783Y-63953450D01*
X153911335Y-64132608D01*
X153911333Y-64132612D01*
X153818898Y-64330840D01*
X153818894Y-64330849D01*
X153770891Y-64509999D01*
X153770892Y-64510000D01*
X154682314Y-64510000D01*
X154677920Y-64514394D01*
X154625259Y-64605606D01*
X154598000Y-64707339D01*
X154598000Y-64812661D01*
X154625259Y-64914394D01*
X154677920Y-65005606D01*
X154682314Y-65010000D01*
X153770892Y-65010000D01*
X153818894Y-65189150D01*
X153818898Y-65189159D01*
X153911333Y-65387387D01*
X154036787Y-65566554D01*
X154191445Y-65721212D01*
X154370613Y-65846667D01*
X154370615Y-65846668D01*
X154522174Y-65917341D01*
X154574614Y-65963513D01*
X154593766Y-66030706D01*
X154573551Y-66097588D01*
X154522176Y-66142105D01*
X154370358Y-66212900D01*
X154370357Y-66212900D01*
X154191121Y-66338402D01*
X154036402Y-66493121D01*
X153910900Y-66672357D01*
X153910898Y-66672361D01*
X153818426Y-66870668D01*
X153818422Y-66870677D01*
X153761595Y-67082758D01*
X153759422Y-67092452D01*
X153496432Y-68056238D01*
X153464488Y-68111276D01*
X153301286Y-68274478D01*
X153189481Y-68386282D01*
X153189475Y-68386290D01*
X153149643Y-68455283D01*
X153149643Y-68455285D01*
X153110423Y-68523214D01*
X153102229Y-68553796D01*
X153069499Y-68675943D01*
X153069499Y-68675945D01*
X153069499Y-68844046D01*
X153069500Y-68844059D01*
X153069500Y-70792987D01*
X153049815Y-70860026D01*
X152997011Y-70905781D01*
X152986328Y-70910073D01*
X151977367Y-71261895D01*
X151963328Y-71267025D01*
X151962739Y-71267250D01*
X151902020Y-71295224D01*
X151894930Y-71298227D01*
X151862600Y-71310752D01*
X151862592Y-71310756D01*
X151684777Y-71420854D01*
X151617416Y-71439409D01*
X151550717Y-71418601D01*
X151505856Y-71365036D01*
X151495500Y-71315427D01*
X151495500Y-68955174D01*
X151497624Y-68932322D01*
X151516497Y-68831669D01*
X151733693Y-67673277D01*
X151735794Y-67664039D01*
X151751563Y-67605189D01*
X151780635Y-67496692D01*
X151793916Y-67344886D01*
X151794643Y-67338493D01*
X151795715Y-67330844D01*
X151795715Y-67330838D01*
X151795913Y-67328720D01*
X151795914Y-67328713D01*
X151795911Y-67328328D01*
X151796379Y-67316728D01*
X151800468Y-67270000D01*
X151780635Y-67043308D01*
X151734377Y-66870670D01*
X151721741Y-66823511D01*
X151721738Y-66823502D01*
X151715804Y-66810776D01*
X151625568Y-66617266D01*
X151516940Y-66462128D01*
X151495045Y-66430858D01*
X151334141Y-66269954D01*
X151147734Y-66139432D01*
X151147732Y-66139431D01*
X150941497Y-66043261D01*
X150941488Y-66043258D01*
X150721697Y-65984366D01*
X150721693Y-65984365D01*
X150721692Y-65984365D01*
X150721691Y-65984364D01*
X150721686Y-65984364D01*
X150495002Y-65964532D01*
X150494998Y-65964532D01*
X150268313Y-65984364D01*
X150268303Y-65984366D01*
X150136582Y-66019660D01*
X150048504Y-66043261D01*
X150048502Y-66043261D01*
X150043280Y-66044661D01*
X150043265Y-66044606D01*
X150034668Y-66047089D01*
X149116015Y-66246483D01*
X149065483Y-66246915D01*
X147982285Y-66031097D01*
X147982282Y-66031096D01*
X147982279Y-66031096D01*
X147956844Y-66028404D01*
X147914442Y-66023918D01*
X147908093Y-66023079D01*
X147822357Y-66009500D01*
X147822352Y-66009500D01*
X146817648Y-66009500D01*
X146793329Y-66013351D01*
X146615465Y-66041522D01*
X146420776Y-66104781D01*
X146238386Y-66197715D01*
X146072786Y-66318028D01*
X145928028Y-66462786D01*
X145807715Y-66628386D01*
X145714781Y-66810776D01*
X145651522Y-67005465D01*
X145619500Y-67207648D01*
X145619500Y-67412351D01*
X145651522Y-67614534D01*
X145714781Y-67809223D01*
X145807715Y-67991613D01*
X145928028Y-68157213D01*
X146072786Y-68301971D01*
X146189964Y-68387104D01*
X146238390Y-68422287D01*
X146303148Y-68455283D01*
X146331629Y-68469795D01*
X146382425Y-68517770D01*
X146399220Y-68585591D01*
X146376682Y-68651726D01*
X146331629Y-68690765D01*
X146238650Y-68738140D01*
X146073105Y-68858417D01*
X146073104Y-68858417D01*
X145928417Y-69003104D01*
X145928417Y-69003105D01*
X145808140Y-69168650D01*
X145715244Y-69350970D01*
X145652009Y-69545586D01*
X145643391Y-69600000D01*
X147004314Y-69600000D01*
X146999920Y-69604394D01*
X146947259Y-69695606D01*
X146920000Y-69797339D01*
X146920000Y-69902661D01*
X146947259Y-70004394D01*
X146999920Y-70095606D01*
X147004314Y-70100000D01*
X145643391Y-70100000D01*
X145652009Y-70154413D01*
X145715244Y-70349029D01*
X145808140Y-70531349D01*
X145928417Y-70696894D01*
X145928417Y-70696895D01*
X146073104Y-70841582D01*
X146238652Y-70961861D01*
X146331628Y-71009234D01*
X146382425Y-71057208D01*
X146399220Y-71125029D01*
X146376683Y-71191164D01*
X146331630Y-71230203D01*
X146238388Y-71277713D01*
X146072786Y-71398028D01*
X145928028Y-71542786D01*
X145807715Y-71708386D01*
X145714781Y-71890776D01*
X145651522Y-72085465D01*
X145619500Y-72287648D01*
X145619500Y-72492351D01*
X145651522Y-72694534D01*
X145714781Y-72889223D01*
X145778691Y-73014653D01*
X145783802Y-73024683D01*
X145807715Y-73071613D01*
X145928028Y-73237213D01*
X146072786Y-73381971D01*
X146186479Y-73464572D01*
X146238390Y-73502287D01*
X146310424Y-73538990D01*
X146331629Y-73549795D01*
X146382425Y-73597770D01*
X146399220Y-73665591D01*
X146376682Y-73731726D01*
X146331629Y-73770765D01*
X146238650Y-73818140D01*
X146073105Y-73938417D01*
X146073104Y-73938417D01*
X145928417Y-74083104D01*
X145928417Y-74083105D01*
X145808140Y-74248650D01*
X145715244Y-74430970D01*
X145652009Y-74625586D01*
X145643391Y-74680000D01*
X147004314Y-74680000D01*
X146999920Y-74684394D01*
X146947259Y-74775606D01*
X146920000Y-74877339D01*
X146920000Y-74982661D01*
X146947259Y-75084394D01*
X146999920Y-75175606D01*
X147004314Y-75180000D01*
X145643391Y-75180000D01*
X145652009Y-75234413D01*
X145715244Y-75429029D01*
X145808140Y-75611349D01*
X145928417Y-75776894D01*
X145928417Y-75776895D01*
X146073104Y-75921582D01*
X146238652Y-76041861D01*
X146331628Y-76089234D01*
X146382425Y-76137208D01*
X146399220Y-76205029D01*
X146376683Y-76271164D01*
X146331630Y-76310203D01*
X146238388Y-76357713D01*
X146072786Y-76478028D01*
X145928028Y-76622786D01*
X145807715Y-76788386D01*
X145714781Y-76970776D01*
X145651522Y-77165465D01*
X145619500Y-77367648D01*
X145619500Y-77572351D01*
X145651522Y-77774529D01*
X145651522Y-77774534D01*
X145714781Y-77969223D01*
X145807715Y-78151613D01*
X145928028Y-78317213D01*
X146072786Y-78461971D01*
X146227749Y-78574556D01*
X146238390Y-78582287D01*
X146329840Y-78628883D01*
X146331080Y-78629515D01*
X146381876Y-78677490D01*
X146398671Y-78745311D01*
X146376134Y-78811446D01*
X146331080Y-78850485D01*
X146238386Y-78897715D01*
X146072786Y-79018028D01*
X145928028Y-79162786D01*
X145807715Y-79328386D01*
X145714781Y-79510776D01*
X145651522Y-79705465D01*
X145619500Y-79907648D01*
X145619500Y-80112351D01*
X145651522Y-80314534D01*
X145714781Y-80509223D01*
X145764606Y-80607008D01*
X145805424Y-80687118D01*
X145807715Y-80691613D01*
X145928028Y-80857213D01*
X146072786Y-81001971D01*
X146192911Y-81089245D01*
X146238390Y-81122287D01*
X146298660Y-81152996D01*
X146331080Y-81169515D01*
X146381876Y-81217490D01*
X146398671Y-81285311D01*
X146376134Y-81351446D01*
X146331080Y-81390485D01*
X146238386Y-81437715D01*
X146072786Y-81558028D01*
X145928028Y-81702786D01*
X145807715Y-81868386D01*
X145714781Y-82050776D01*
X145651522Y-82245465D01*
X145619500Y-82447648D01*
X145619500Y-82652351D01*
X145651522Y-82854534D01*
X145714781Y-83049223D01*
X145747903Y-83114227D01*
X145784122Y-83185311D01*
X145807715Y-83231613D01*
X145928028Y-83397213D01*
X146072786Y-83541971D01*
X146150544Y-83598464D01*
X146238390Y-83662287D01*
X146329840Y-83708883D01*
X146331080Y-83709515D01*
X146381876Y-83757490D01*
X146398671Y-83825311D01*
X146376134Y-83891446D01*
X146331080Y-83930485D01*
X146238386Y-83977715D01*
X146072786Y-84098028D01*
X145928028Y-84242786D01*
X145807715Y-84408386D01*
X145714781Y-84590776D01*
X145651522Y-84785465D01*
X145619500Y-84987648D01*
X145619500Y-85192351D01*
X145651522Y-85394534D01*
X145714781Y-85589223D01*
X145807715Y-85771613D01*
X145928028Y-85937213D01*
X146072786Y-86081971D01*
X146224484Y-86192184D01*
X146238390Y-86202287D01*
X146354607Y-86261503D01*
X146420776Y-86295218D01*
X146420778Y-86295218D01*
X146420781Y-86295220D01*
X146525137Y-86329127D01*
X146615465Y-86358477D01*
X146716557Y-86374488D01*
X146817648Y-86390500D01*
X146817649Y-86390500D01*
X147822351Y-86390500D01*
X147822352Y-86390500D01*
X148024534Y-86358477D01*
X148219219Y-86295220D01*
X148401610Y-86202287D01*
X148537507Y-86103553D01*
X148567213Y-86081971D01*
X148567215Y-86081968D01*
X148567219Y-86081966D01*
X148711966Y-85937219D01*
X148711968Y-85937215D01*
X148711971Y-85937213D01*
X148764732Y-85864590D01*
X148832287Y-85771610D01*
X148925220Y-85589219D01*
X148980554Y-85418917D01*
X152590001Y-85418917D01*
X152592814Y-85460423D01*
X152592814Y-85460425D01*
X152637435Y-85639849D01*
X152719581Y-85805481D01*
X152835414Y-85949584D01*
X152835415Y-85949585D01*
X152979518Y-86065418D01*
X153145150Y-86147564D01*
X153324568Y-86192184D01*
X153366088Y-86194999D01*
X153539999Y-86194999D01*
X153540000Y-86194998D01*
X153540000Y-85245000D01*
X152590001Y-85245000D01*
X152590001Y-85418917D01*
X148980554Y-85418917D01*
X148988477Y-85394534D01*
X149020500Y-85192352D01*
X149020500Y-84987648D01*
X149006499Y-84899249D01*
X148988477Y-84785465D01*
X148938690Y-84632238D01*
X148925220Y-84590781D01*
X148925218Y-84590778D01*
X148925218Y-84590776D01*
X148915186Y-84571088D01*
X152590000Y-84571088D01*
X152590000Y-84745000D01*
X153540000Y-84745000D01*
X153540000Y-83795000D01*
X153366088Y-83795000D01*
X153366081Y-83795001D01*
X153324576Y-83797814D01*
X153324574Y-83797814D01*
X153145150Y-83842435D01*
X152979518Y-83924581D01*
X152835415Y-84040414D01*
X152835414Y-84040415D01*
X152719581Y-84184518D01*
X152637435Y-84350150D01*
X152592815Y-84529568D01*
X152590000Y-84571088D01*
X148915186Y-84571088D01*
X148863750Y-84470140D01*
X148832287Y-84408390D01*
X148821807Y-84393965D01*
X148711971Y-84242786D01*
X148567213Y-84098028D01*
X148401614Y-83977715D01*
X148395006Y-83974348D01*
X148308917Y-83930483D01*
X148258123Y-83882511D01*
X148241328Y-83814690D01*
X148263865Y-83748555D01*
X148308917Y-83709516D01*
X148401610Y-83662287D01*
X148489456Y-83598464D01*
X148567213Y-83541971D01*
X148567215Y-83541968D01*
X148567219Y-83541966D01*
X148711966Y-83397219D01*
X148711968Y-83397215D01*
X148711971Y-83397213D01*
X148789987Y-83289831D01*
X148832287Y-83231610D01*
X148925220Y-83049219D01*
X148988477Y-82854534D01*
X149020500Y-82652352D01*
X149020500Y-82447648D01*
X148988477Y-82245466D01*
X148925220Y-82050781D01*
X148925218Y-82050778D01*
X148925218Y-82050776D01*
X148891503Y-81984607D01*
X148832287Y-81868390D01*
X148756296Y-81763796D01*
X148711971Y-81702786D01*
X148567213Y-81558028D01*
X148401614Y-81437715D01*
X148395006Y-81434348D01*
X148308917Y-81390483D01*
X148258123Y-81342511D01*
X148241328Y-81274690D01*
X148263865Y-81208555D01*
X148308917Y-81169516D01*
X148401610Y-81122287D01*
X148447089Y-81089245D01*
X148567213Y-81001971D01*
X148567215Y-81001968D01*
X148567219Y-81001966D01*
X148711966Y-80857219D01*
X148711968Y-80857215D01*
X148711971Y-80857213D01*
X148794520Y-80743592D01*
X148832287Y-80691610D01*
X148925220Y-80509219D01*
X148988477Y-80314534D01*
X149020500Y-80112352D01*
X149020500Y-79907648D01*
X148988477Y-79705466D01*
X148974547Y-79662595D01*
X148925218Y-79510776D01*
X148869538Y-79401500D01*
X148832287Y-79328390D01*
X148815992Y-79305961D01*
X148711971Y-79162786D01*
X148567213Y-79018028D01*
X148401614Y-78897715D01*
X148341338Y-78867003D01*
X148308917Y-78850483D01*
X148258123Y-78802511D01*
X148241328Y-78734690D01*
X148263865Y-78668555D01*
X148308917Y-78629516D01*
X148401610Y-78582287D01*
X148488140Y-78519420D01*
X148567213Y-78461971D01*
X148567215Y-78461968D01*
X148567219Y-78461966D01*
X148711966Y-78317219D01*
X148711968Y-78317215D01*
X148711971Y-78317213D01*
X148764732Y-78244590D01*
X148832287Y-78151610D01*
X148925220Y-77969219D01*
X148988477Y-77774534D01*
X148997773Y-77715846D01*
X149020500Y-77572351D01*
X149020500Y-77367648D01*
X148988477Y-77165465D01*
X148947432Y-77039143D01*
X148925220Y-76970781D01*
X148925218Y-76970778D01*
X148925218Y-76970776D01*
X148858221Y-76839289D01*
X148832287Y-76788390D01*
X148802649Y-76747596D01*
X148711971Y-76622786D01*
X148567213Y-76478028D01*
X148401611Y-76357713D01*
X148308369Y-76310203D01*
X148257574Y-76262229D01*
X148240779Y-76194407D01*
X148263317Y-76128273D01*
X148308371Y-76089234D01*
X148401347Y-76041861D01*
X148566894Y-75921582D01*
X148566895Y-75921582D01*
X148711582Y-75776895D01*
X148711582Y-75776894D01*
X148831859Y-75611349D01*
X148924755Y-75429029D01*
X148987990Y-75234413D01*
X148996609Y-75180000D01*
X147635686Y-75180000D01*
X147640080Y-75175606D01*
X147692741Y-75084394D01*
X147720000Y-74982661D01*
X147720000Y-74877339D01*
X147692741Y-74775606D01*
X147640080Y-74684394D01*
X147635686Y-74680000D01*
X148996609Y-74680000D01*
X148987990Y-74625586D01*
X148924755Y-74430970D01*
X148831859Y-74248650D01*
X148711582Y-74083105D01*
X148711582Y-74083104D01*
X148566895Y-73938417D01*
X148401349Y-73818140D01*
X148308370Y-73770765D01*
X148257574Y-73722790D01*
X148240779Y-73654969D01*
X148263316Y-73588835D01*
X148308370Y-73549795D01*
X148401610Y-73502287D01*
X148545793Y-73397533D01*
X148567213Y-73381971D01*
X148567215Y-73381968D01*
X148567219Y-73381966D01*
X148711966Y-73237219D01*
X148711968Y-73237215D01*
X148711971Y-73237213D01*
X148764732Y-73164590D01*
X148832287Y-73071610D01*
X148925220Y-72889219D01*
X148988477Y-72694534D01*
X149020500Y-72492352D01*
X149020500Y-72287648D01*
X148988477Y-72085466D01*
X148925220Y-71890781D01*
X148925218Y-71890778D01*
X148925218Y-71890776D01*
X148851750Y-71746589D01*
X148832287Y-71708390D01*
X148814457Y-71683849D01*
X148711971Y-71542786D01*
X148567213Y-71398028D01*
X148401611Y-71277713D01*
X148308369Y-71230203D01*
X148257574Y-71182229D01*
X148240779Y-71114407D01*
X148263317Y-71048273D01*
X148308371Y-71009234D01*
X148401347Y-70961861D01*
X148566894Y-70841582D01*
X148566895Y-70841582D01*
X148711582Y-70696895D01*
X148711582Y-70696894D01*
X148831859Y-70531349D01*
X148924755Y-70349029D01*
X148987990Y-70154413D01*
X148996609Y-70100000D01*
X147635686Y-70100000D01*
X147640080Y-70095606D01*
X147692741Y-70004394D01*
X147720000Y-69902661D01*
X147720000Y-69797339D01*
X147692741Y-69695606D01*
X147640080Y-69604394D01*
X147635686Y-69600000D01*
X148996609Y-69600000D01*
X148987990Y-69545586D01*
X148924755Y-69350970D01*
X148831859Y-69168650D01*
X148711582Y-69003105D01*
X148711582Y-69003104D01*
X148566895Y-68858417D01*
X148401348Y-68738139D01*
X148391429Y-68733085D01*
X148340635Y-68685108D01*
X148323842Y-68617287D01*
X148346382Y-68551153D01*
X148401099Y-68507703D01*
X148423486Y-68500995D01*
X149110596Y-68364093D01*
X149154801Y-68363325D01*
X149307124Y-68388201D01*
X149370115Y-68418434D01*
X149406760Y-68477922D01*
X149409014Y-68487728D01*
X149492376Y-68932323D01*
X149494500Y-68955175D01*
X149494500Y-78203544D01*
X149531652Y-78390318D01*
X149532947Y-78396830D01*
X149532949Y-78396836D01*
X149608364Y-78578907D01*
X149608371Y-78578920D01*
X149717860Y-78742781D01*
X149717863Y-78742785D01*
X149861537Y-78886459D01*
X149861559Y-78886479D01*
X150646201Y-79671121D01*
X150657720Y-79684402D01*
X151362258Y-80623787D01*
X151374050Y-80642900D01*
X151374936Y-80644678D01*
X151374943Y-80644690D01*
X151509012Y-80822228D01*
X151509019Y-80822236D01*
X151553404Y-80862697D01*
X151555999Y-80865134D01*
X151580252Y-80888574D01*
X151580257Y-80888577D01*
X151585489Y-80892576D01*
X151593727Y-80899458D01*
X151673437Y-80972123D01*
X151673439Y-80972125D01*
X151862595Y-81089245D01*
X151862596Y-81089245D01*
X151862599Y-81089247D01*
X152070060Y-81169618D01*
X152288757Y-81210500D01*
X152288759Y-81210500D01*
X152511242Y-81210500D01*
X152511243Y-81210500D01*
X152639348Y-81186551D01*
X152644498Y-81185702D01*
X153652464Y-81041708D01*
X153687534Y-81041708D01*
X154435106Y-81148503D01*
X154491968Y-81172056D01*
X154642974Y-81285311D01*
X155265595Y-81752277D01*
X155278876Y-81763796D01*
X156064735Y-82549655D01*
X156064764Y-82549686D01*
X156207217Y-82692139D01*
X156322124Y-82768917D01*
X156371086Y-82801632D01*
X156371088Y-82801633D01*
X156371092Y-82801635D01*
X156430825Y-82826376D01*
X156498804Y-82854534D01*
X156553164Y-82877051D01*
X156649812Y-82896275D01*
X156696127Y-82905488D01*
X156746458Y-82915500D01*
X156746459Y-82915500D01*
X156746460Y-82915500D01*
X156943540Y-82915500D01*
X160854668Y-82915500D01*
X160921707Y-82935185D01*
X160967462Y-82987989D01*
X160977406Y-83057147D01*
X160953622Y-83114227D01*
X160899943Y-83185308D01*
X160899936Y-83185320D01*
X160800770Y-83384472D01*
X160800770Y-83384473D01*
X160799002Y-83390685D01*
X160796826Y-83397562D01*
X160478200Y-84311327D01*
X160437540Y-84368148D01*
X160372615Y-84393965D01*
X160361114Y-84394500D01*
X157844393Y-84394500D01*
X157790470Y-84382162D01*
X157082789Y-84040414D01*
X156842999Y-83924616D01*
X156831653Y-83918386D01*
X156827401Y-83915753D01*
X156827395Y-83915750D01*
X156827392Y-83915749D01*
X156818113Y-83912155D01*
X156808986Y-83908191D01*
X156802211Y-83904919D01*
X156788849Y-83898466D01*
X156783877Y-83896153D01*
X156775547Y-83892278D01*
X156774955Y-83892013D01*
X156711489Y-83868565D01*
X156711488Y-83868564D01*
X156711483Y-83868563D01*
X156705187Y-83866962D01*
X156705323Y-83866424D01*
X156688980Y-83862127D01*
X156619945Y-83835383D01*
X156566065Y-83825311D01*
X156401243Y-83794500D01*
X156178757Y-83794500D01*
X155960060Y-83835382D01*
X155874405Y-83868565D01*
X155752601Y-83915752D01*
X155752595Y-83915754D01*
X155563439Y-84032874D01*
X155563437Y-84032876D01*
X155399020Y-84182761D01*
X155264943Y-84360308D01*
X155264938Y-84360316D01*
X155201705Y-84487305D01*
X155154202Y-84538542D01*
X155086539Y-84555963D01*
X155020198Y-84534037D01*
X154976244Y-84479725D01*
X154970370Y-84461959D01*
X154942564Y-84350150D01*
X154860418Y-84184518D01*
X154744585Y-84040415D01*
X154744584Y-84040414D01*
X154600481Y-83924581D01*
X154434849Y-83842435D01*
X154255431Y-83797815D01*
X154213912Y-83795000D01*
X154040000Y-83795000D01*
X154040000Y-84750025D01*
X154004905Y-84714930D01*
X153925095Y-84668852D01*
X153836078Y-84645000D01*
X153743922Y-84645000D01*
X153654905Y-84668852D01*
X153575095Y-84714930D01*
X153509930Y-84780095D01*
X153463852Y-84859905D01*
X153440000Y-84948922D01*
X153440000Y-85041078D01*
X153463852Y-85130095D01*
X153509930Y-85209905D01*
X153575095Y-85275070D01*
X153654905Y-85321148D01*
X153743922Y-85345000D01*
X153836078Y-85345000D01*
X153925095Y-85321148D01*
X154004905Y-85275070D01*
X154040000Y-85239975D01*
X154040000Y-86194999D01*
X154213911Y-86194999D01*
X154213917Y-86194998D01*
X154255423Y-86192185D01*
X154255425Y-86192185D01*
X154434849Y-86147564D01*
X154600481Y-86065418D01*
X154744584Y-85949585D01*
X154744585Y-85949584D01*
X154860418Y-85805481D01*
X154942564Y-85639849D01*
X154970370Y-85528040D01*
X155005652Y-85467733D01*
X155067938Y-85436074D01*
X155137452Y-85443115D01*
X155192124Y-85486621D01*
X155201705Y-85502694D01*
X155264938Y-85629683D01*
X155264943Y-85629691D01*
X155399020Y-85807238D01*
X155563437Y-85957123D01*
X155563439Y-85957125D01*
X155752595Y-86074245D01*
X155752596Y-86074245D01*
X155752599Y-86074247D01*
X155960060Y-86154618D01*
X156178757Y-86195500D01*
X156178759Y-86195500D01*
X156401241Y-86195500D01*
X156401243Y-86195500D01*
X156619940Y-86154618D01*
X156751789Y-86103538D01*
X156759065Y-86100979D01*
X156788841Y-86091537D01*
X156808994Y-86081804D01*
X156818078Y-86077858D01*
X156827401Y-86074247D01*
X156831655Y-86071612D01*
X156842999Y-86065382D01*
X157790471Y-85607838D01*
X157844394Y-85595500D01*
X160663331Y-85595500D01*
X160663347Y-85595501D01*
X160670943Y-85595501D01*
X160829054Y-85595501D01*
X160829057Y-85595501D01*
X160981785Y-85554577D01*
X161058530Y-85510268D01*
X161118716Y-85475520D01*
X161230520Y-85363716D01*
X161230520Y-85363714D01*
X161240724Y-85353511D01*
X161240728Y-85353506D01*
X161250498Y-85343735D01*
X161297348Y-85314332D01*
X162347633Y-84948103D01*
X162361311Y-84943111D01*
X162361922Y-84942878D01*
X162423033Y-84914749D01*
X162430065Y-84911773D01*
X162462396Y-84899249D01*
X162462396Y-84899248D01*
X162462401Y-84899247D01*
X162651562Y-84782124D01*
X162815981Y-84632236D01*
X162950058Y-84454689D01*
X163049229Y-84255528D01*
X163110115Y-84041536D01*
X163130643Y-83820000D01*
X163128326Y-83795000D01*
X163110115Y-83598464D01*
X163110114Y-83598462D01*
X163049230Y-83384476D01*
X163049229Y-83384473D01*
X163049229Y-83384472D01*
X163011570Y-83308843D01*
X162950061Y-83185316D01*
X162950056Y-83185308D01*
X162815979Y-83007761D01*
X162704421Y-82906063D01*
X162668139Y-82846352D01*
X162669900Y-82776504D01*
X162709143Y-82718697D01*
X162719056Y-82711332D01*
X162747782Y-82692139D01*
X162887139Y-82552782D01*
X162887139Y-82552780D01*
X162897347Y-82542573D01*
X162897348Y-82542570D01*
X163974639Y-81465282D01*
X163974640Y-81465279D01*
X163981700Y-81458220D01*
X163981706Y-81458213D01*
X164467778Y-80972141D01*
X164467782Y-80972139D01*
X164607139Y-80832782D01*
X164716632Y-80668914D01*
X164754670Y-80577081D01*
X164798507Y-80522681D01*
X164864801Y-80500615D01*
X164932501Y-80517893D01*
X164934507Y-80519109D01*
X165075320Y-80606297D01*
X165075322Y-80606298D01*
X165282695Y-80686635D01*
X165362500Y-80701552D01*
X165362500Y-79772475D01*
X165397595Y-79807570D01*
X165477405Y-79853648D01*
X165566422Y-79877500D01*
X165658578Y-79877500D01*
X165747595Y-79853648D01*
X165827405Y-79807570D01*
X165862500Y-79772475D01*
X165862500Y-80701552D01*
X165942304Y-80686635D01*
X166149677Y-80606298D01*
X166149678Y-80606297D01*
X166318609Y-80501699D01*
X166385969Y-80483143D01*
X166452669Y-80503951D01*
X166497530Y-80557516D01*
X166502475Y-80570893D01*
X166625066Y-80972124D01*
X166634088Y-81001650D01*
X166639500Y-81037883D01*
X166639500Y-83354217D01*
X166619815Y-83421256D01*
X166603181Y-83441898D01*
X166182952Y-83862127D01*
X165732221Y-84312858D01*
X165732218Y-84312861D01*
X165694929Y-84350150D01*
X165592859Y-84452219D01*
X165483371Y-84616080D01*
X165483364Y-84616093D01*
X165456069Y-84681992D01*
X165456069Y-84681993D01*
X165413162Y-84785580D01*
X165407949Y-84798164D01*
X165403506Y-84820500D01*
X165403506Y-84820501D01*
X165369500Y-84991456D01*
X165369500Y-92420602D01*
X165369407Y-92425400D01*
X165369254Y-92429332D01*
X165369280Y-92429757D01*
X165369500Y-92437133D01*
X165369500Y-93048544D01*
X165407947Y-93241828D01*
X165407949Y-93241836D01*
X165421465Y-93274466D01*
X165421465Y-93274467D01*
X165483364Y-93423907D01*
X165483371Y-93423920D01*
X165592860Y-93587781D01*
X165592863Y-93587785D01*
X165736255Y-93731177D01*
X165767018Y-93782156D01*
X165957639Y-94397320D01*
X165959401Y-94403582D01*
X165975937Y-94468881D01*
X165986786Y-94493615D01*
X165990806Y-94504031D01*
X165996792Y-94521898D01*
X165997153Y-94522899D01*
X166028808Y-94593312D01*
X166031773Y-94598348D01*
X166038465Y-94611433D01*
X166075827Y-94696607D01*
X166075829Y-94696610D01*
X166075830Y-94696612D01*
X166211833Y-94904782D01*
X166211836Y-94904785D01*
X166380256Y-95087738D01*
X166576491Y-95240474D01*
X166576493Y-95240475D01*
X166794332Y-95358364D01*
X166795190Y-95358828D01*
X167014141Y-95433994D01*
X167028964Y-95439083D01*
X167030386Y-95439571D01*
X167275665Y-95480500D01*
X167524335Y-95480500D01*
X167769614Y-95439571D01*
X168004810Y-95358828D01*
X168223509Y-95240474D01*
X168419744Y-95087738D01*
X168588164Y-94904785D01*
X168724173Y-94696607D01*
X168824063Y-94468881D01*
X168885108Y-94227821D01*
X168901330Y-94032050D01*
X168905643Y-93980005D01*
X168905643Y-93979994D01*
X168885109Y-93732187D01*
X168885107Y-93732175D01*
X168824063Y-93491118D01*
X168724173Y-93263393D01*
X168588166Y-93055217D01*
X168566557Y-93031744D01*
X168419744Y-92872262D01*
X168223509Y-92719526D01*
X168223508Y-92719525D01*
X168223505Y-92719523D01*
X168223503Y-92719522D01*
X168118068Y-92662464D01*
X168105960Y-92654983D01*
X167423375Y-92177019D01*
X167379751Y-92122442D01*
X167370500Y-92075445D01*
X167370500Y-89832900D01*
X167390185Y-89765861D01*
X167442989Y-89720106D01*
X167512147Y-89710162D01*
X167575703Y-89739187D01*
X167613477Y-89797965D01*
X167615177Y-89804385D01*
X167615909Y-89807484D01*
X167666202Y-89942328D01*
X167666206Y-89942335D01*
X167752452Y-90057544D01*
X167752455Y-90057547D01*
X167867664Y-90143793D01*
X167867671Y-90143797D01*
X168002517Y-90194091D01*
X168002516Y-90194091D01*
X168009444Y-90194835D01*
X168062127Y-90200500D01*
X169757872Y-90200499D01*
X169817483Y-90194091D01*
X169952331Y-90143796D01*
X170067546Y-90057546D01*
X170153796Y-89942331D01*
X170204091Y-89807483D01*
X170207862Y-89772401D01*
X170234599Y-89707855D01*
X170291990Y-89668006D01*
X170361816Y-89665511D01*
X170421905Y-89701163D01*
X170432726Y-89714536D01*
X170449956Y-89739143D01*
X170610858Y-89900045D01*
X170610861Y-89900047D01*
X170797266Y-90030568D01*
X171003504Y-90126739D01*
X171223308Y-90185635D01*
X171385230Y-90199801D01*
X171449998Y-90205468D01*
X171450000Y-90205468D01*
X171450002Y-90205468D01*
X171506807Y-90200498D01*
X171676692Y-90185635D01*
X171896496Y-90126739D01*
X172102734Y-90030568D01*
X172289139Y-89900047D01*
X172450047Y-89739139D01*
X172580568Y-89552734D01*
X172676739Y-89346496D01*
X172735635Y-89126692D01*
X172755468Y-88900000D01*
X172735635Y-88673308D01*
X172676739Y-88453504D01*
X172580568Y-88247266D01*
X172450047Y-88060861D01*
X172450045Y-88060858D01*
X172289141Y-87899954D01*
X172102734Y-87769432D01*
X172102732Y-87769431D01*
X171896497Y-87673261D01*
X171896488Y-87673258D01*
X171676697Y-87614366D01*
X171676687Y-87614364D01*
X171555671Y-87603777D01*
X171490603Y-87578324D01*
X171449624Y-87521734D01*
X171445746Y-87451972D01*
X171478796Y-87392570D01*
X173302952Y-85568415D01*
X173365022Y-85475520D01*
X173385084Y-85445495D01*
X173418958Y-85363716D01*
X173423535Y-85352667D01*
X173435544Y-85323674D01*
X173441659Y-85308912D01*
X173470500Y-85163917D01*
X173470500Y-85016082D01*
X173470500Y-78002788D01*
X173490185Y-77935749D01*
X173492319Y-77932538D01*
X173532181Y-77874557D01*
X173931043Y-77294394D01*
X173935345Y-77288035D01*
X173940108Y-77278027D01*
X173952800Y-77257018D01*
X173963796Y-77242331D01*
X173986133Y-77182439D01*
X173990335Y-77172517D01*
X173997188Y-77158124D01*
X173999247Y-77151503D01*
X174000538Y-77146232D01*
X174004790Y-77132416D01*
X174014091Y-77107483D01*
X174017862Y-77072401D01*
X174044599Y-77007855D01*
X174101990Y-76968006D01*
X174171816Y-76965511D01*
X174231905Y-77001163D01*
X174242726Y-77014536D01*
X174259956Y-77039143D01*
X174420858Y-77200045D01*
X174420861Y-77200047D01*
X174607266Y-77330568D01*
X174813504Y-77426739D01*
X174813509Y-77426740D01*
X174813511Y-77426741D01*
X174861946Y-77439719D01*
X175033308Y-77485635D01*
X175195230Y-77499801D01*
X175259998Y-77505468D01*
X175260000Y-77505468D01*
X175260002Y-77505468D01*
X175316673Y-77500509D01*
X175486692Y-77485635D01*
X175706496Y-77426739D01*
X175912734Y-77330568D01*
X176099139Y-77200047D01*
X176260047Y-77039139D01*
X176304425Y-76975759D01*
X176359001Y-76932135D01*
X176428499Y-76924941D01*
X176490854Y-76956463D01*
X176526269Y-77016693D01*
X176530000Y-77046883D01*
X176530000Y-97665824D01*
X176510315Y-97732863D01*
X176493681Y-97753505D01*
X173953505Y-100293681D01*
X173892182Y-100327166D01*
X173865824Y-100330000D01*
X130934176Y-100330000D01*
X130867137Y-100310315D01*
X130846495Y-100293681D01*
X128306319Y-97753505D01*
X128272834Y-97692182D01*
X128270000Y-97665824D01*
X128270000Y-93979994D01*
X135894859Y-93979994D01*
X135894859Y-93980005D01*
X135915385Y-94227729D01*
X135915387Y-94227738D01*
X135976412Y-94468717D01*
X136076266Y-94696364D01*
X136176564Y-94849882D01*
X136917037Y-94109409D01*
X136934075Y-94172993D01*
X136999901Y-94287007D01*
X137092993Y-94380099D01*
X137207007Y-94445925D01*
X137270590Y-94462962D01*
X136529942Y-95203609D01*
X136576768Y-95240055D01*
X136576770Y-95240056D01*
X136795385Y-95358364D01*
X136795396Y-95358369D01*
X137030506Y-95439083D01*
X137275707Y-95480000D01*
X137524293Y-95480000D01*
X137769493Y-95439083D01*
X138004603Y-95358369D01*
X138004614Y-95358364D01*
X138223228Y-95240057D01*
X138223231Y-95240055D01*
X138270056Y-95203609D01*
X137529409Y-94462962D01*
X137592993Y-94445925D01*
X137707007Y-94380099D01*
X137800099Y-94287007D01*
X137865925Y-94172993D01*
X137882962Y-94109410D01*
X138623434Y-94849882D01*
X138723731Y-94696369D01*
X138823587Y-94468717D01*
X138884612Y-94227738D01*
X138884614Y-94227729D01*
X138905141Y-93980005D01*
X138905141Y-93979994D01*
X138884614Y-93732270D01*
X138884612Y-93732261D01*
X138823587Y-93491282D01*
X138723731Y-93263630D01*
X138623434Y-93110116D01*
X137882962Y-93850589D01*
X137865925Y-93787007D01*
X137800099Y-93672993D01*
X137707007Y-93579901D01*
X137592993Y-93514075D01*
X137529410Y-93497037D01*
X138270057Y-92756390D01*
X138270056Y-92756389D01*
X138223229Y-92719943D01*
X138004614Y-92601635D01*
X138004603Y-92601630D01*
X137769493Y-92520916D01*
X137524293Y-92480000D01*
X137275707Y-92480000D01*
X137030506Y-92520916D01*
X136795396Y-92601630D01*
X136795390Y-92601632D01*
X136576761Y-92719949D01*
X136529942Y-92756388D01*
X136529942Y-92756390D01*
X137270590Y-93497037D01*
X137207007Y-93514075D01*
X137092993Y-93579901D01*
X136999901Y-93672993D01*
X136934075Y-93787007D01*
X136917037Y-93850589D01*
X136176564Y-93110116D01*
X136076267Y-93263632D01*
X135976412Y-93491282D01*
X135915387Y-93732261D01*
X135915385Y-93732270D01*
X135894859Y-93979994D01*
X128270000Y-93979994D01*
X128270000Y-77607879D01*
X128289685Y-77540840D01*
X128342489Y-77495085D01*
X128411647Y-77485141D01*
X128475203Y-77514166D01*
X128496179Y-77537627D01*
X128685611Y-77813164D01*
X128767681Y-77932538D01*
X128789440Y-77998934D01*
X128789500Y-78002788D01*
X128789500Y-85163918D01*
X128789500Y-85163920D01*
X128789499Y-85163920D01*
X128818340Y-85308907D01*
X128818343Y-85308917D01*
X128874914Y-85445492D01*
X128874915Y-85445494D01*
X128874916Y-85445495D01*
X128886439Y-85462741D01*
X128894977Y-85475518D01*
X128894978Y-85475521D01*
X128957046Y-85568414D01*
X128957052Y-85568421D01*
X131368975Y-87980342D01*
X131392716Y-88013607D01*
X131714895Y-88673308D01*
X131936312Y-89126686D01*
X132036922Y-89332696D01*
X132049500Y-89387112D01*
X132049500Y-89747869D01*
X132049501Y-89747876D01*
X132055908Y-89807483D01*
X132106202Y-89942328D01*
X132106206Y-89942335D01*
X132192452Y-90057544D01*
X132192455Y-90057547D01*
X132307664Y-90143793D01*
X132307671Y-90143797D01*
X132348559Y-90159047D01*
X132442517Y-90194091D01*
X132502127Y-90200500D01*
X132862889Y-90200499D01*
X132917304Y-90213076D01*
X134236391Y-90857282D01*
X134269654Y-90881022D01*
X134776586Y-91387954D01*
X134806058Y-91407645D01*
X134850270Y-91437186D01*
X134899505Y-91470084D01*
X134899506Y-91470084D01*
X134899507Y-91470085D01*
X134899509Y-91470086D01*
X135036082Y-91526656D01*
X135036087Y-91526658D01*
X135036091Y-91526658D01*
X135036092Y-91526659D01*
X135181079Y-91555500D01*
X135181082Y-91555500D01*
X135181083Y-91555500D01*
X135328918Y-91555500D01*
X138067770Y-91555500D01*
X138134809Y-91575185D01*
X138155451Y-91591819D01*
X142163975Y-95600342D01*
X142187716Y-95633607D01*
X142509895Y-96293308D01*
X142731312Y-96746686D01*
X142831922Y-96952696D01*
X142844500Y-97007112D01*
X142844500Y-97367869D01*
X142844501Y-97367876D01*
X142850908Y-97427483D01*
X142901202Y-97562328D01*
X142901206Y-97562335D01*
X142987452Y-97677544D01*
X142987455Y-97677547D01*
X143102664Y-97763793D01*
X143102671Y-97763797D01*
X143237517Y-97814091D01*
X143237516Y-97814091D01*
X143244444Y-97814835D01*
X143297127Y-97820500D01*
X144992872Y-97820499D01*
X145052483Y-97814091D01*
X145187331Y-97763796D01*
X145302546Y-97677546D01*
X145388796Y-97562331D01*
X145439091Y-97427483D01*
X145442862Y-97392401D01*
X145469599Y-97327855D01*
X145526990Y-97288006D01*
X145596816Y-97285511D01*
X145656905Y-97321163D01*
X145667726Y-97334536D01*
X145684956Y-97359143D01*
X145845858Y-97520045D01*
X145845861Y-97520047D01*
X146032266Y-97650568D01*
X146238504Y-97746739D01*
X146458308Y-97805635D01*
X146620230Y-97819801D01*
X146684998Y-97825468D01*
X146685000Y-97825468D01*
X146685002Y-97825468D01*
X146741807Y-97820498D01*
X146911692Y-97805635D01*
X147131496Y-97746739D01*
X147337734Y-97650568D01*
X147524139Y-97520047D01*
X147685047Y-97359139D01*
X147815568Y-97172734D01*
X147911739Y-96966496D01*
X147970635Y-96746692D01*
X147990468Y-96520000D01*
X147970635Y-96293308D01*
X147911739Y-96073504D01*
X147815568Y-95867266D01*
X147685047Y-95680861D01*
X147685045Y-95680858D01*
X147581368Y-95577181D01*
X147547883Y-95515858D01*
X147552867Y-95446166D01*
X147594739Y-95390233D01*
X147660203Y-95365816D01*
X147669049Y-95365500D01*
X155847770Y-95365500D01*
X155914809Y-95385185D01*
X155935451Y-95401819D01*
X156133496Y-95599864D01*
X156157370Y-95633401D01*
X156696056Y-96743273D01*
X156797055Y-96951365D01*
X156809500Y-97005509D01*
X156809500Y-97367869D01*
X156809501Y-97367876D01*
X156815908Y-97427483D01*
X156866202Y-97562328D01*
X156866206Y-97562335D01*
X156952452Y-97677544D01*
X156952455Y-97677547D01*
X157067664Y-97763793D01*
X157067671Y-97763797D01*
X157202517Y-97814091D01*
X157202516Y-97814091D01*
X157209444Y-97814835D01*
X157262127Y-97820500D01*
X158957872Y-97820499D01*
X159017483Y-97814091D01*
X159152331Y-97763796D01*
X159267546Y-97677546D01*
X159353796Y-97562331D01*
X159404091Y-97427483D01*
X159407862Y-97392401D01*
X159434599Y-97327855D01*
X159491990Y-97288006D01*
X159561816Y-97285511D01*
X159621905Y-97321163D01*
X159632726Y-97334536D01*
X159649956Y-97359143D01*
X159810858Y-97520045D01*
X159810861Y-97520047D01*
X159997266Y-97650568D01*
X160203504Y-97746739D01*
X160423308Y-97805635D01*
X160585230Y-97819801D01*
X160649998Y-97825468D01*
X160650000Y-97825468D01*
X160650002Y-97825468D01*
X160706807Y-97820498D01*
X160876692Y-97805635D01*
X161096496Y-97746739D01*
X161302734Y-97650568D01*
X161489139Y-97520047D01*
X161650047Y-97359139D01*
X161780568Y-97172734D01*
X161876739Y-96966496D01*
X161935635Y-96746692D01*
X161955468Y-96520000D01*
X161935635Y-96293308D01*
X161876739Y-96073504D01*
X161780568Y-95867266D01*
X161650047Y-95680861D01*
X161650045Y-95680858D01*
X161489141Y-95519954D01*
X161302734Y-95389432D01*
X161302732Y-95389431D01*
X161096497Y-95293261D01*
X161096488Y-95293258D01*
X160876697Y-95234366D01*
X160876693Y-95234365D01*
X160876692Y-95234365D01*
X160876691Y-95234364D01*
X160876686Y-95234364D01*
X160650002Y-95214532D01*
X160649998Y-95214532D01*
X160423313Y-95234364D01*
X160423302Y-95234366D01*
X160203511Y-95293258D01*
X160203502Y-95293261D01*
X159997267Y-95389431D01*
X159997265Y-95389432D01*
X159810858Y-95519954D01*
X159649954Y-95680858D01*
X159632725Y-95705464D01*
X159578147Y-95749088D01*
X159508648Y-95756280D01*
X159446294Y-95724757D01*
X159410882Y-95664526D01*
X159407861Y-95647591D01*
X159404091Y-95612516D01*
X159353797Y-95477671D01*
X159353793Y-95477664D01*
X159267547Y-95362455D01*
X159267544Y-95362452D01*
X159152335Y-95276206D01*
X159152328Y-95276202D01*
X159017482Y-95225908D01*
X159017483Y-95225908D01*
X158957883Y-95219501D01*
X158957881Y-95219500D01*
X158957873Y-95219500D01*
X158957865Y-95219500D01*
X158598303Y-95219500D01*
X158543768Y-95206864D01*
X157228697Y-94562866D01*
X157195551Y-94539183D01*
X156688421Y-94032052D01*
X156688414Y-94032046D01*
X156610519Y-93979999D01*
X156610518Y-93979999D01*
X156565501Y-93949919D01*
X156565488Y-93949912D01*
X156428917Y-93893343D01*
X156428907Y-93893340D01*
X156283920Y-93864500D01*
X156283918Y-93864500D01*
X145976082Y-93864500D01*
X145976080Y-93864500D01*
X145831092Y-93893340D01*
X145831082Y-93893343D01*
X145694511Y-93949912D01*
X145694498Y-93949919D01*
X145649482Y-93979999D01*
X145649481Y-93979999D01*
X145571589Y-94032044D01*
X145571581Y-94032050D01*
X145064658Y-94538972D01*
X145031393Y-94562713D01*
X144199413Y-94969029D01*
X144130535Y-94980761D01*
X144090581Y-94969029D01*
X143258607Y-94562716D01*
X143225342Y-94538975D01*
X138908421Y-90222052D01*
X138908414Y-90222046D01*
X138814128Y-90159047D01*
X138814127Y-90159047D01*
X138785495Y-90139916D01*
X138785488Y-90139912D01*
X138648917Y-90083343D01*
X138648907Y-90083340D01*
X138503920Y-90054500D01*
X138503918Y-90054500D01*
X136874049Y-90054500D01*
X136807010Y-90034815D01*
X136761255Y-89982011D01*
X136751311Y-89912853D01*
X136780336Y-89849297D01*
X136786368Y-89842819D01*
X136890045Y-89739141D01*
X136890047Y-89739139D01*
X137020568Y-89552734D01*
X137116739Y-89346496D01*
X137175635Y-89126692D01*
X137195468Y-88900000D01*
X137175635Y-88673308D01*
X137116739Y-88453504D01*
X137020568Y-88247266D01*
X136890047Y-88060861D01*
X136890045Y-88060858D01*
X136729141Y-87899954D01*
X136542734Y-87769432D01*
X136542732Y-87769431D01*
X136336497Y-87673261D01*
X136336488Y-87673258D01*
X136116697Y-87614366D01*
X136116693Y-87614365D01*
X136116692Y-87614365D01*
X136116691Y-87614364D01*
X136116686Y-87614364D01*
X135890002Y-87594532D01*
X135889998Y-87594532D01*
X135663313Y-87614364D01*
X135663302Y-87614366D01*
X135443511Y-87673258D01*
X135443502Y-87673261D01*
X135237267Y-87769431D01*
X135237265Y-87769432D01*
X135050858Y-87899954D01*
X134889954Y-88060858D01*
X134872725Y-88085464D01*
X134818147Y-88129088D01*
X134748648Y-88136280D01*
X134686294Y-88104757D01*
X134650882Y-88044526D01*
X134647861Y-88027591D01*
X134644091Y-87992516D01*
X134593797Y-87857671D01*
X134593793Y-87857664D01*
X134507547Y-87742455D01*
X134507544Y-87742452D01*
X134392335Y-87656206D01*
X134392328Y-87656202D01*
X134257482Y-87605908D01*
X134257483Y-87605908D01*
X134197883Y-87599501D01*
X134197881Y-87599500D01*
X134197873Y-87599500D01*
X134197865Y-87599500D01*
X133837111Y-87599500D01*
X133782695Y-87586922D01*
X132463607Y-86942716D01*
X132430342Y-86918975D01*
X130326819Y-84815451D01*
X130293334Y-84754128D01*
X130290500Y-84727770D01*
X130290500Y-78002788D01*
X130310185Y-77935749D01*
X130312319Y-77932538D01*
X130352181Y-77874557D01*
X130751043Y-77294394D01*
X130755345Y-77288035D01*
X130760108Y-77278027D01*
X130772800Y-77257018D01*
X130783796Y-77242331D01*
X130806133Y-77182439D01*
X130810335Y-77172517D01*
X130817188Y-77158124D01*
X130819247Y-77151503D01*
X130820538Y-77146232D01*
X130824790Y-77132416D01*
X130834091Y-77107483D01*
X130837862Y-77072401D01*
X130864599Y-77007855D01*
X130921990Y-76968006D01*
X130991816Y-76965511D01*
X131051905Y-77001163D01*
X131062726Y-77014536D01*
X131079956Y-77039143D01*
X131240858Y-77200045D01*
X131240861Y-77200047D01*
X131427266Y-77330568D01*
X131633504Y-77426739D01*
X131633509Y-77426740D01*
X131633511Y-77426741D01*
X131681946Y-77439719D01*
X131853308Y-77485635D01*
X132015230Y-77499801D01*
X132079998Y-77505468D01*
X132080000Y-77505468D01*
X132080002Y-77505468D01*
X132136673Y-77500509D01*
X132306692Y-77485635D01*
X132526496Y-77426739D01*
X132732734Y-77330568D01*
X132919139Y-77200047D01*
X133080047Y-77039139D01*
X133210568Y-76852734D01*
X133306739Y-76646496D01*
X133365635Y-76426692D01*
X133385468Y-76200000D01*
X133385003Y-76194690D01*
X133377709Y-76111310D01*
X133365635Y-75973308D01*
X133306739Y-75753504D01*
X133210568Y-75547266D01*
X133080047Y-75360861D01*
X133080045Y-75360858D01*
X132919141Y-75199954D01*
X132732734Y-75069432D01*
X132732732Y-75069431D01*
X132526497Y-74973261D01*
X132526488Y-74973258D01*
X132306697Y-74914366D01*
X132306693Y-74914365D01*
X132306692Y-74914365D01*
X132306691Y-74914364D01*
X132306686Y-74914364D01*
X132080002Y-74894532D01*
X132079998Y-74894532D01*
X131853313Y-74914364D01*
X131853302Y-74914366D01*
X131633511Y-74973258D01*
X131633502Y-74973261D01*
X131427267Y-75069431D01*
X131427265Y-75069432D01*
X131240858Y-75199954D01*
X131079954Y-75360858D01*
X131062725Y-75385464D01*
X131008147Y-75429088D01*
X130938648Y-75436280D01*
X130876294Y-75404757D01*
X130840882Y-75344526D01*
X130837861Y-75327590D01*
X130834091Y-75292521D01*
X130834091Y-75292517D01*
X130823060Y-75262944D01*
X130819517Y-75251884D01*
X130814852Y-75234562D01*
X130808020Y-75220755D01*
X130802976Y-75209095D01*
X130799566Y-75199953D01*
X130783796Y-75157669D01*
X130769991Y-75139227D01*
X130758124Y-75119916D01*
X130754226Y-75112038D01*
X130751043Y-75105605D01*
X130450903Y-74669037D01*
X130312319Y-74467459D01*
X130290560Y-74401064D01*
X130290500Y-74397210D01*
X130290500Y-67672228D01*
X130310185Y-67605189D01*
X130326814Y-67584552D01*
X131449230Y-66462135D01*
X137999500Y-66462135D01*
X137999500Y-68157870D01*
X137999501Y-68157876D01*
X138005908Y-68217483D01*
X138056202Y-68352328D01*
X138056206Y-68352335D01*
X138142452Y-68467544D01*
X138142455Y-68467547D01*
X138257664Y-68553793D01*
X138257671Y-68553797D01*
X138302618Y-68570561D01*
X138392517Y-68604091D01*
X138429441Y-68608060D01*
X138493989Y-68634796D01*
X138533838Y-68692188D01*
X138536333Y-68762013D01*
X138500681Y-68822102D01*
X138489071Y-68831666D01*
X138452784Y-68858030D01*
X138308028Y-69002786D01*
X138187715Y-69168386D01*
X138094781Y-69350776D01*
X138031522Y-69545465D01*
X137999500Y-69747648D01*
X137999500Y-69952351D01*
X138031522Y-70154534D01*
X138094781Y-70349223D01*
X138187715Y-70531613D01*
X138308028Y-70697213D01*
X138452786Y-70841971D01*
X138607749Y-70954556D01*
X138618390Y-70962287D01*
X138709840Y-71008883D01*
X138711080Y-71009515D01*
X138761876Y-71057490D01*
X138778671Y-71125311D01*
X138756134Y-71191446D01*
X138711080Y-71230485D01*
X138618386Y-71277715D01*
X138452786Y-71398028D01*
X138308028Y-71542786D01*
X138187715Y-71708386D01*
X138094781Y-71890776D01*
X138031522Y-72085465D01*
X137999500Y-72287648D01*
X137999500Y-72492351D01*
X138031522Y-72694534D01*
X138094781Y-72889223D01*
X138158691Y-73014653D01*
X138163802Y-73024683D01*
X138187715Y-73071613D01*
X138308028Y-73237213D01*
X138452786Y-73381971D01*
X138566479Y-73464572D01*
X138618390Y-73502287D01*
X138709840Y-73548883D01*
X138711080Y-73549515D01*
X138761876Y-73597490D01*
X138778671Y-73665311D01*
X138756134Y-73731446D01*
X138711080Y-73770485D01*
X138618386Y-73817715D01*
X138452786Y-73938028D01*
X138308028Y-74082786D01*
X138187715Y-74248386D01*
X138094781Y-74430776D01*
X138031522Y-74625465D01*
X138005127Y-74792118D01*
X137999500Y-74827648D01*
X137999500Y-75032352D01*
X138003878Y-75059995D01*
X138031522Y-75234534D01*
X138094781Y-75429223D01*
X138158691Y-75554653D01*
X138169366Y-75575603D01*
X138187715Y-75611613D01*
X138308028Y-75777213D01*
X138452786Y-75921971D01*
X138607749Y-76034556D01*
X138618390Y-76042287D01*
X138709840Y-76088883D01*
X138711080Y-76089515D01*
X138761876Y-76137490D01*
X138778671Y-76205311D01*
X138756134Y-76271446D01*
X138711080Y-76310485D01*
X138618386Y-76357715D01*
X138452786Y-76478028D01*
X138308028Y-76622786D01*
X138187715Y-76788386D01*
X138094781Y-76970776D01*
X138031522Y-77165465D01*
X137999500Y-77367648D01*
X137999500Y-77572351D01*
X138031522Y-77774529D01*
X138031522Y-77774534D01*
X138094781Y-77969223D01*
X138187715Y-78151613D01*
X138308028Y-78317213D01*
X138452786Y-78461971D01*
X138607749Y-78574556D01*
X138618390Y-78582287D01*
X138709840Y-78628883D01*
X138711080Y-78629515D01*
X138761876Y-78677490D01*
X138778671Y-78745311D01*
X138756134Y-78811446D01*
X138711080Y-78850485D01*
X138618386Y-78897715D01*
X138452786Y-79018028D01*
X138308028Y-79162786D01*
X138187715Y-79328386D01*
X138094781Y-79510776D01*
X138031522Y-79705465D01*
X137999500Y-79907648D01*
X137999500Y-80112351D01*
X138031522Y-80314534D01*
X138094781Y-80509223D01*
X138144606Y-80607008D01*
X138185424Y-80687118D01*
X138187715Y-80691613D01*
X138308028Y-80857213D01*
X138452786Y-81001971D01*
X138572911Y-81089245D01*
X138618390Y-81122287D01*
X138678660Y-81152996D01*
X138711080Y-81169515D01*
X138761876Y-81217490D01*
X138778671Y-81285311D01*
X138756134Y-81351446D01*
X138711080Y-81390485D01*
X138618386Y-81437715D01*
X138452786Y-81558028D01*
X138308028Y-81702786D01*
X138187715Y-81868386D01*
X138094781Y-82050776D01*
X138031522Y-82245465D01*
X137999500Y-82447648D01*
X137999500Y-82652351D01*
X138031522Y-82854534D01*
X138094781Y-83049223D01*
X138127903Y-83114227D01*
X138164122Y-83185311D01*
X138187715Y-83231613D01*
X138308028Y-83397213D01*
X138452786Y-83541971D01*
X138530544Y-83598464D01*
X138618390Y-83662287D01*
X138690424Y-83698990D01*
X138711629Y-83709795D01*
X138762425Y-83757770D01*
X138779220Y-83825591D01*
X138756682Y-83891726D01*
X138711629Y-83930765D01*
X138618650Y-83978140D01*
X138453105Y-84098417D01*
X138453104Y-84098417D01*
X138308417Y-84243104D01*
X138308417Y-84243105D01*
X138188140Y-84408650D01*
X138095244Y-84590970D01*
X138032011Y-84785580D01*
X138032009Y-84785586D01*
X138023391Y-84840000D01*
X139384314Y-84840000D01*
X139379920Y-84844394D01*
X139327259Y-84935606D01*
X139300000Y-85037339D01*
X139300000Y-85142661D01*
X139327259Y-85244394D01*
X139379920Y-85335606D01*
X139384314Y-85340000D01*
X138023391Y-85340000D01*
X138032009Y-85394413D01*
X138095244Y-85589029D01*
X138188140Y-85771349D01*
X138308417Y-85936894D01*
X138308417Y-85936895D01*
X138453104Y-86081582D01*
X138618650Y-86201859D01*
X138800968Y-86294755D01*
X138995582Y-86357990D01*
X139197683Y-86390000D01*
X139450000Y-86390000D01*
X139450000Y-85405686D01*
X139454394Y-85410080D01*
X139545606Y-85462741D01*
X139647339Y-85490000D01*
X139752661Y-85490000D01*
X139854394Y-85462741D01*
X139945606Y-85410080D01*
X139950000Y-85405686D01*
X139950000Y-86390000D01*
X140202317Y-86390000D01*
X140404417Y-86357990D01*
X140599031Y-86294755D01*
X140781349Y-86201859D01*
X140946894Y-86081582D01*
X140946895Y-86081582D01*
X141091582Y-85936895D01*
X141091582Y-85936894D01*
X141211859Y-85771349D01*
X141304755Y-85589029D01*
X141367990Y-85394413D01*
X141376609Y-85340000D01*
X140015686Y-85340000D01*
X140020080Y-85335606D01*
X140072741Y-85244394D01*
X140100000Y-85142661D01*
X140100000Y-85037339D01*
X140072741Y-84935606D01*
X140020080Y-84844394D01*
X140015686Y-84840000D01*
X141376609Y-84840000D01*
X141367990Y-84785586D01*
X141367989Y-84785580D01*
X141304755Y-84590970D01*
X141211859Y-84408650D01*
X141091582Y-84243105D01*
X141091582Y-84243104D01*
X140946895Y-84098417D01*
X140781349Y-83978140D01*
X140688370Y-83930765D01*
X140637574Y-83882790D01*
X140620779Y-83814969D01*
X140643316Y-83748835D01*
X140688370Y-83709795D01*
X140688920Y-83709515D01*
X140781610Y-83662287D01*
X140869456Y-83598464D01*
X140947213Y-83541971D01*
X140947215Y-83541968D01*
X140947219Y-83541966D01*
X141091966Y-83397219D01*
X141091968Y-83397215D01*
X141091971Y-83397213D01*
X141169987Y-83289831D01*
X141212287Y-83231610D01*
X141305220Y-83049219D01*
X141368477Y-82854534D01*
X141400500Y-82652352D01*
X141400500Y-82447648D01*
X141368477Y-82245466D01*
X141305220Y-82050781D01*
X141305218Y-82050778D01*
X141305218Y-82050776D01*
X141271503Y-81984607D01*
X141212287Y-81868390D01*
X141136296Y-81763796D01*
X141091971Y-81702786D01*
X140947213Y-81558028D01*
X140781614Y-81437715D01*
X140775006Y-81434348D01*
X140688917Y-81390483D01*
X140638123Y-81342511D01*
X140621328Y-81274690D01*
X140643865Y-81208555D01*
X140688917Y-81169516D01*
X140781610Y-81122287D01*
X140827089Y-81089245D01*
X140947213Y-81001971D01*
X140947215Y-81001968D01*
X140947219Y-81001966D01*
X141091966Y-80857219D01*
X141091968Y-80857215D01*
X141091971Y-80857213D01*
X141174520Y-80743592D01*
X141212287Y-80691610D01*
X141305220Y-80509219D01*
X141368477Y-80314534D01*
X141400500Y-80112352D01*
X141400500Y-79907648D01*
X141368477Y-79705466D01*
X141354547Y-79662595D01*
X141305218Y-79510776D01*
X141249538Y-79401500D01*
X141212287Y-79328390D01*
X141195992Y-79305961D01*
X141091971Y-79162786D01*
X140947213Y-79018028D01*
X140781614Y-78897715D01*
X140721338Y-78867003D01*
X140688917Y-78850483D01*
X140638123Y-78802511D01*
X140621328Y-78734690D01*
X140643865Y-78668555D01*
X140688917Y-78629516D01*
X140781610Y-78582287D01*
X140868140Y-78519420D01*
X140947213Y-78461971D01*
X140947215Y-78461968D01*
X140947219Y-78461966D01*
X141091966Y-78317219D01*
X141091968Y-78317215D01*
X141091971Y-78317213D01*
X141144732Y-78244590D01*
X141212287Y-78151610D01*
X141305220Y-77969219D01*
X141368477Y-77774534D01*
X141377773Y-77715846D01*
X141400500Y-77572351D01*
X141400500Y-77367648D01*
X141368477Y-77165465D01*
X141327432Y-77039143D01*
X141305220Y-76970781D01*
X141305218Y-76970778D01*
X141305218Y-76970776D01*
X141238221Y-76839289D01*
X141212287Y-76788390D01*
X141182649Y-76747596D01*
X141091971Y-76622786D01*
X140947213Y-76478028D01*
X140781614Y-76357715D01*
X140775006Y-76354348D01*
X140688917Y-76310483D01*
X140638123Y-76262511D01*
X140621328Y-76194690D01*
X140643865Y-76128555D01*
X140688917Y-76089516D01*
X140781610Y-76042287D01*
X140802770Y-76026913D01*
X140947213Y-75921971D01*
X140947215Y-75921968D01*
X140947219Y-75921966D01*
X141091966Y-75777219D01*
X141091968Y-75777215D01*
X141091971Y-75777213D01*
X141144732Y-75704590D01*
X141212287Y-75611610D01*
X141305220Y-75429219D01*
X141368477Y-75234534D01*
X141400500Y-75032352D01*
X141400500Y-74827648D01*
X141392257Y-74775606D01*
X141368477Y-74625465D01*
X141306826Y-74435724D01*
X141305220Y-74430781D01*
X141305218Y-74430778D01*
X141305218Y-74430776D01*
X141212419Y-74248650D01*
X141212287Y-74248390D01*
X141195992Y-74225962D01*
X141091971Y-74082786D01*
X140947213Y-73938028D01*
X140781614Y-73817715D01*
X140767809Y-73810681D01*
X140688917Y-73770483D01*
X140638123Y-73722511D01*
X140621328Y-73654690D01*
X140643865Y-73588555D01*
X140688917Y-73549516D01*
X140781610Y-73502287D01*
X140925793Y-73397533D01*
X140947213Y-73381971D01*
X140947215Y-73381968D01*
X140947219Y-73381966D01*
X141091966Y-73237219D01*
X141091968Y-73237215D01*
X141091971Y-73237213D01*
X141144732Y-73164590D01*
X141212287Y-73071610D01*
X141305220Y-72889219D01*
X141368477Y-72694534D01*
X141400500Y-72492352D01*
X141400500Y-72287648D01*
X141368477Y-72085466D01*
X141305220Y-71890781D01*
X141305218Y-71890778D01*
X141305218Y-71890776D01*
X141231750Y-71746589D01*
X141212287Y-71708390D01*
X141194457Y-71683849D01*
X141091971Y-71542786D01*
X140947213Y-71398028D01*
X140781614Y-71277715D01*
X140761073Y-71267249D01*
X140688917Y-71230483D01*
X140638123Y-71182511D01*
X140621328Y-71114690D01*
X140643865Y-71048555D01*
X140688917Y-71009516D01*
X140781610Y-70962287D01*
X140853477Y-70910073D01*
X140947213Y-70841971D01*
X140947215Y-70841968D01*
X140947219Y-70841966D01*
X141091966Y-70697219D01*
X141091968Y-70697215D01*
X141091971Y-70697213D01*
X141144732Y-70624590D01*
X141212287Y-70531610D01*
X141305220Y-70349219D01*
X141368477Y-70154534D01*
X141400500Y-69952352D01*
X141400500Y-69747648D01*
X141380602Y-69622020D01*
X141368477Y-69545465D01*
X141305218Y-69350776D01*
X141271503Y-69284607D01*
X141212287Y-69168390D01*
X141204556Y-69157749D01*
X141091971Y-69002786D01*
X140947219Y-68858034D01*
X140910930Y-68831669D01*
X140868264Y-68776339D01*
X140862285Y-68706726D01*
X140894890Y-68644931D01*
X140955728Y-68610573D01*
X140970562Y-68608060D01*
X141007483Y-68604091D01*
X141142328Y-68553797D01*
X141142327Y-68553797D01*
X141142331Y-68553796D01*
X141257546Y-68467546D01*
X141343796Y-68352331D01*
X141394091Y-68217483D01*
X141400500Y-68157873D01*
X141400499Y-66462128D01*
X141394091Y-66402517D01*
X141344648Y-66269954D01*
X141343797Y-66267671D01*
X141343793Y-66267664D01*
X141257547Y-66152455D01*
X141257544Y-66152452D01*
X141142335Y-66066206D01*
X141142328Y-66066202D01*
X141007482Y-66015908D01*
X141007483Y-66015908D01*
X140947883Y-66009501D01*
X140947881Y-66009500D01*
X140947873Y-66009500D01*
X140947864Y-66009500D01*
X138452129Y-66009500D01*
X138452123Y-66009501D01*
X138392516Y-66015908D01*
X138257671Y-66066202D01*
X138257664Y-66066206D01*
X138142455Y-66152452D01*
X138142452Y-66152455D01*
X138056206Y-66267664D01*
X138056202Y-66267671D01*
X138005908Y-66402517D01*
X137999501Y-66462116D01*
X137999501Y-66462123D01*
X137999500Y-66462135D01*
X131449230Y-66462135D01*
X132430347Y-65481018D01*
X132463607Y-65457281D01*
X133388468Y-65005606D01*
X133782695Y-64813077D01*
X133837110Y-64800499D01*
X134197871Y-64800499D01*
X134197872Y-64800499D01*
X134257483Y-64794091D01*
X134392331Y-64743796D01*
X134507546Y-64657546D01*
X134593796Y-64542331D01*
X134644091Y-64407483D01*
X134647862Y-64372401D01*
X134674599Y-64307855D01*
X134731990Y-64268006D01*
X134801816Y-64265511D01*
X134861905Y-64301163D01*
X134872726Y-64314536D01*
X134889956Y-64339143D01*
X135050858Y-64500045D01*
X135050861Y-64500047D01*
X135237266Y-64630568D01*
X135443504Y-64726739D01*
X135663308Y-64785635D01*
X135825230Y-64799801D01*
X135889998Y-64805468D01*
X135890000Y-64805468D01*
X135890002Y-64805468D01*
X135946807Y-64800498D01*
X136116692Y-64785635D01*
X136336496Y-64726739D01*
X136542734Y-64630568D01*
X136729139Y-64500047D01*
X136890047Y-64339139D01*
X137020568Y-64152734D01*
X137116739Y-63946496D01*
X137175635Y-63726692D01*
X137195468Y-63500000D01*
X137175635Y-63273308D01*
X137116739Y-63053504D01*
X137020568Y-62847266D01*
X136890047Y-62660861D01*
X136890045Y-62660858D01*
X136729141Y-62499954D01*
X136542734Y-62369432D01*
X136542732Y-62369431D01*
X136336497Y-62273261D01*
X136336488Y-62273258D01*
X136116697Y-62214366D01*
X136116687Y-62214364D01*
X135995671Y-62203777D01*
X135930603Y-62178324D01*
X135889624Y-62121734D01*
X135885746Y-62051972D01*
X135903535Y-62019999D01*
X149216127Y-62019999D01*
X149216128Y-62020000D01*
X150179314Y-62020000D01*
X150174920Y-62024394D01*
X150122259Y-62115606D01*
X150095000Y-62217339D01*
X150095000Y-62322661D01*
X150122259Y-62424394D01*
X150174920Y-62515606D01*
X150179314Y-62520000D01*
X149216128Y-62520000D01*
X149268730Y-62716317D01*
X149268734Y-62716326D01*
X149364865Y-62922482D01*
X149495342Y-63108820D01*
X149656179Y-63269657D01*
X149842517Y-63400134D01*
X150048673Y-63496265D01*
X150048682Y-63496269D01*
X150244999Y-63548872D01*
X150245000Y-63548871D01*
X150245000Y-62585686D01*
X150249394Y-62590080D01*
X150340606Y-62642741D01*
X150442339Y-62670000D01*
X150547661Y-62670000D01*
X150649394Y-62642741D01*
X150740606Y-62590080D01*
X150745000Y-62585686D01*
X150745000Y-63548872D01*
X150941317Y-63496269D01*
X150941326Y-63496265D01*
X151147482Y-63400134D01*
X151333820Y-63269657D01*
X151494657Y-63108820D01*
X151625134Y-62922482D01*
X151721265Y-62716326D01*
X151721269Y-62716317D01*
X151773872Y-62520000D01*
X150810686Y-62520000D01*
X150815080Y-62515606D01*
X150835637Y-62480000D01*
X156303505Y-62480000D01*
X156356239Y-62665349D01*
X156455368Y-62864425D01*
X156589391Y-63041900D01*
X156753738Y-63191721D01*
X156942820Y-63308797D01*
X156942822Y-63308798D01*
X157150195Y-63389135D01*
X157230000Y-63404052D01*
X157730000Y-63404052D01*
X157809804Y-63389135D01*
X158017177Y-63308798D01*
X158017179Y-63308797D01*
X158206261Y-63191721D01*
X158370608Y-63041900D01*
X158504631Y-62864425D01*
X158603760Y-62665349D01*
X158656495Y-62480000D01*
X157730000Y-62480000D01*
X157730000Y-63404052D01*
X157230000Y-63404052D01*
X157230000Y-62480000D01*
X156303505Y-62480000D01*
X150835637Y-62480000D01*
X150867741Y-62424394D01*
X150895000Y-62322661D01*
X150895000Y-62217339D01*
X150886046Y-62183922D01*
X157130000Y-62183922D01*
X157130000Y-62276078D01*
X157153852Y-62365095D01*
X157199930Y-62444905D01*
X157265095Y-62510070D01*
X157344905Y-62556148D01*
X157433922Y-62580000D01*
X157526078Y-62580000D01*
X157615095Y-62556148D01*
X157694905Y-62510070D01*
X157760070Y-62444905D01*
X157806148Y-62365095D01*
X157830000Y-62276078D01*
X157830000Y-62183922D01*
X157806148Y-62094905D01*
X157760070Y-62015095D01*
X157724975Y-61980000D01*
X157730000Y-61980000D01*
X158656495Y-61980000D01*
X158603760Y-61794650D01*
X158504631Y-61595574D01*
X158370608Y-61418099D01*
X158206261Y-61268278D01*
X158017179Y-61151202D01*
X158017177Y-61151201D01*
X157809799Y-61070864D01*
X157730000Y-61055946D01*
X157730000Y-61980000D01*
X157724975Y-61980000D01*
X157694905Y-61949930D01*
X157615095Y-61903852D01*
X157526078Y-61880000D01*
X157433922Y-61880000D01*
X157344905Y-61903852D01*
X157265095Y-61949930D01*
X157199930Y-62015095D01*
X157153852Y-62094905D01*
X157130000Y-62183922D01*
X150886046Y-62183922D01*
X150867741Y-62115606D01*
X150815080Y-62024394D01*
X150810686Y-62020000D01*
X151773872Y-62020000D01*
X151773872Y-62019999D01*
X151763154Y-61980000D01*
X156303505Y-61980000D01*
X157230000Y-61980000D01*
X157230000Y-61055946D01*
X157150200Y-61070864D01*
X156942822Y-61151201D01*
X156942820Y-61151202D01*
X156753738Y-61268278D01*
X156589391Y-61418099D01*
X156455368Y-61595574D01*
X156356239Y-61794650D01*
X156303505Y-61980000D01*
X151763154Y-61980000D01*
X151721269Y-61823682D01*
X151721265Y-61823673D01*
X151625134Y-61617517D01*
X151494657Y-61431179D01*
X151333820Y-61270342D01*
X151147482Y-61139865D01*
X150941328Y-61043734D01*
X150745000Y-60991127D01*
X150745000Y-61954314D01*
X150740606Y-61949920D01*
X150649394Y-61897259D01*
X150547661Y-61870000D01*
X150442339Y-61870000D01*
X150340606Y-61897259D01*
X150249394Y-61949920D01*
X150245000Y-61954314D01*
X150245000Y-60991127D01*
X150048671Y-61043734D01*
X149842517Y-61139865D01*
X149656179Y-61270342D01*
X149495342Y-61431179D01*
X149364865Y-61617517D01*
X149268734Y-61823673D01*
X149268730Y-61823682D01*
X149216127Y-62019999D01*
X135903535Y-62019999D01*
X135918796Y-61992570D01*
X141244548Y-56666819D01*
X141305871Y-56633334D01*
X141332229Y-56630500D01*
X142337211Y-56630500D01*
X142404250Y-56650185D01*
G37*
%TD.AperFunction*%
%TA.AperFunction,Conductor*%
G36*
X169158121Y-80371001D02*
G01*
X169178777Y-80387645D01*
X170028181Y-81237049D01*
X170061666Y-81298372D01*
X170064500Y-81324730D01*
X170064500Y-82155640D01*
X170044815Y-82222679D01*
X169994252Y-82267384D01*
X169067953Y-82712956D01*
X169043569Y-82725891D01*
X169030260Y-82731973D01*
X169007600Y-82740751D01*
X169007594Y-82740755D01*
X168829777Y-82850854D01*
X168762416Y-82869409D01*
X168695717Y-82848601D01*
X168650856Y-82795036D01*
X168640500Y-82745427D01*
X168640500Y-81024207D01*
X168644102Y-80994538D01*
X168675986Y-80865153D01*
X168743344Y-80591811D01*
X168778496Y-80531432D01*
X168796678Y-80517183D01*
X169024046Y-80371018D01*
X169091079Y-80351326D01*
X169158121Y-80371001D01*
G37*
%TD.AperFunction*%
%TA.AperFunction,Conductor*%
G36*
X153729581Y-72665033D02*
G01*
X153780036Y-72713366D01*
X153791772Y-72741182D01*
X153815770Y-72825525D01*
X153815775Y-72825538D01*
X153914938Y-73024683D01*
X153914943Y-73024691D01*
X154049020Y-73202238D01*
X154142968Y-73287882D01*
X154213058Y-73351778D01*
X154213437Y-73352123D01*
X154213439Y-73352125D01*
X154286776Y-73397533D01*
X154402599Y-73469247D01*
X154477544Y-73498280D01*
X154489824Y-73503823D01*
X154517360Y-73518100D01*
X154517370Y-73518105D01*
X155567649Y-73884333D01*
X155614503Y-73913738D01*
X156512639Y-74811874D01*
X156512649Y-74811885D01*
X156516979Y-74816215D01*
X156516980Y-74816216D01*
X156628784Y-74928020D01*
X156628786Y-74928021D01*
X156628790Y-74928024D01*
X156707139Y-74973258D01*
X156765716Y-75007077D01*
X156860044Y-75032352D01*
X156918442Y-75048000D01*
X156918443Y-75048000D01*
X160148402Y-75048000D01*
X160215441Y-75067685D01*
X160261196Y-75120489D01*
X160271140Y-75189647D01*
X160242115Y-75253203D01*
X160236083Y-75259681D01*
X159416981Y-76078782D01*
X159416979Y-76078784D01*
X159403781Y-76101645D01*
X159398202Y-76111309D01*
X159364605Y-76169500D01*
X159346996Y-76200001D01*
X159337923Y-76215715D01*
X159296999Y-76368443D01*
X159296999Y-76368445D01*
X159296999Y-76536546D01*
X159297000Y-76536559D01*
X159297000Y-77973106D01*
X159284662Y-78027029D01*
X158800961Y-79028660D01*
X158794696Y-79042135D01*
X158794461Y-79042660D01*
X158787124Y-79062523D01*
X158781811Y-79074817D01*
X158773272Y-79091968D01*
X158773269Y-79091976D01*
X158712385Y-79305961D01*
X158712384Y-79305964D01*
X158691857Y-79527499D01*
X158691857Y-79527500D01*
X158712384Y-79749035D01*
X158712385Y-79749037D01*
X158773269Y-79963023D01*
X158773275Y-79963038D01*
X158872438Y-80162183D01*
X158872443Y-80162191D01*
X159006520Y-80339738D01*
X159170937Y-80489623D01*
X159170939Y-80489625D01*
X159360095Y-80606745D01*
X159360096Y-80606745D01*
X159360099Y-80606747D01*
X159535955Y-80674874D01*
X159591355Y-80717446D01*
X159614946Y-80783213D01*
X159599235Y-80851293D01*
X159549211Y-80900072D01*
X159491160Y-80914500D01*
X157310782Y-80914500D01*
X157243743Y-80894815D01*
X157223101Y-80878181D01*
X156693795Y-80348875D01*
X156682276Y-80335594D01*
X155977742Y-79396215D01*
X155965937Y-79377076D01*
X155965059Y-79375313D01*
X155965056Y-79375308D01*
X155899657Y-79288706D01*
X155830981Y-79197764D01*
X155830978Y-79197761D01*
X155830974Y-79197757D01*
X155786601Y-79157305D01*
X155783966Y-79154832D01*
X155759748Y-79131426D01*
X155754491Y-79127407D01*
X155746266Y-79120535D01*
X155666564Y-79047877D01*
X155666559Y-79047874D01*
X155477404Y-78930754D01*
X155477398Y-78930752D01*
X155269940Y-78850382D01*
X155051243Y-78809500D01*
X154828757Y-78809500D01*
X154791924Y-78816385D01*
X154700688Y-78833439D01*
X154695440Y-78834304D01*
X153687534Y-78978290D01*
X153652462Y-78978290D01*
X152904894Y-78871495D01*
X152848030Y-78847941D01*
X152630611Y-78684877D01*
X152074403Y-78267721D01*
X152061122Y-78256202D01*
X151531819Y-77726899D01*
X151498334Y-77665576D01*
X151495500Y-77639218D01*
X151495500Y-73464572D01*
X151515185Y-73397533D01*
X151567989Y-73351778D01*
X151637147Y-73341834D01*
X151684777Y-73359145D01*
X151862595Y-73469245D01*
X151862596Y-73469245D01*
X151862599Y-73469247D01*
X152070060Y-73549618D01*
X152288757Y-73590500D01*
X152288759Y-73590500D01*
X152511241Y-73590500D01*
X152511243Y-73590500D01*
X152729940Y-73549618D01*
X152937401Y-73469247D01*
X153126562Y-73352124D01*
X153290981Y-73202236D01*
X153425058Y-73024689D01*
X153524229Y-72825528D01*
X153526004Y-72819286D01*
X153528164Y-72812457D01*
X153555422Y-72734285D01*
X153596080Y-72677469D01*
X153661005Y-72651652D01*
X153729581Y-72665033D01*
G37*
%TD.AperFunction*%
%TA.AperFunction,Conductor*%
G36*
X173932863Y-52089685D02*
G01*
X173953505Y-52106319D01*
X176493681Y-54646495D01*
X176527166Y-54707818D01*
X176530000Y-54734176D01*
X176530000Y-75353116D01*
X176510315Y-75420155D01*
X176457511Y-75465910D01*
X176388353Y-75475854D01*
X176324797Y-75446829D01*
X176304425Y-75424239D01*
X176260046Y-75360859D01*
X176099141Y-75199954D01*
X175912734Y-75069432D01*
X175912732Y-75069431D01*
X175706497Y-74973261D01*
X175706488Y-74973258D01*
X175486697Y-74914366D01*
X175486693Y-74914365D01*
X175486692Y-74914365D01*
X175486691Y-74914364D01*
X175486686Y-74914364D01*
X175260002Y-74894532D01*
X175259998Y-74894532D01*
X175033313Y-74914364D01*
X175033302Y-74914366D01*
X174813511Y-74973258D01*
X174813502Y-74973261D01*
X174607267Y-75069431D01*
X174607265Y-75069432D01*
X174420858Y-75199954D01*
X174259954Y-75360858D01*
X174242725Y-75385464D01*
X174188147Y-75429088D01*
X174118648Y-75436280D01*
X174056294Y-75404757D01*
X174020882Y-75344526D01*
X174017861Y-75327590D01*
X174014091Y-75292521D01*
X174014091Y-75292517D01*
X174003060Y-75262944D01*
X173999517Y-75251884D01*
X173994852Y-75234562D01*
X173988020Y-75220755D01*
X173982976Y-75209095D01*
X173979566Y-75199953D01*
X173963796Y-75157669D01*
X173949991Y-75139227D01*
X173938124Y-75119916D01*
X173934226Y-75112038D01*
X173931043Y-75105605D01*
X173630903Y-74669037D01*
X173492319Y-74467459D01*
X173470560Y-74401064D01*
X173470500Y-74397210D01*
X173470500Y-67236079D01*
X173458098Y-67173734D01*
X173458098Y-67173733D01*
X173441659Y-67091088D01*
X173387408Y-66960117D01*
X173385765Y-66955525D01*
X173385084Y-66954505D01*
X173316397Y-66851707D01*
X173302952Y-66831585D01*
X173302951Y-66831583D01*
X171478799Y-65007431D01*
X171445314Y-64946108D01*
X171450298Y-64876416D01*
X171492170Y-64820483D01*
X171555670Y-64796223D01*
X171676692Y-64785635D01*
X171896496Y-64726739D01*
X172102734Y-64630568D01*
X172289139Y-64500047D01*
X172450047Y-64339139D01*
X172580568Y-64152734D01*
X172676739Y-63946496D01*
X172735635Y-63726692D01*
X172755468Y-63500000D01*
X172735635Y-63273308D01*
X172676739Y-63053504D01*
X172580568Y-62847266D01*
X172450047Y-62660861D01*
X172450045Y-62660858D01*
X172289141Y-62499954D01*
X172102734Y-62369432D01*
X172102732Y-62369431D01*
X171896497Y-62273261D01*
X171896488Y-62273258D01*
X171676697Y-62214366D01*
X171676693Y-62214365D01*
X171676692Y-62214365D01*
X171676691Y-62214364D01*
X171676686Y-62214364D01*
X171450002Y-62194532D01*
X171449998Y-62194532D01*
X171223313Y-62214364D01*
X171223302Y-62214366D01*
X171003511Y-62273258D01*
X171003502Y-62273261D01*
X170797267Y-62369431D01*
X170797265Y-62369432D01*
X170610858Y-62499954D01*
X170449954Y-62660858D01*
X170432725Y-62685464D01*
X170378147Y-62729088D01*
X170308648Y-62736280D01*
X170246294Y-62704757D01*
X170210882Y-62644526D01*
X170207861Y-62627591D01*
X170204091Y-62592516D01*
X170153797Y-62457671D01*
X170153793Y-62457664D01*
X170067547Y-62342455D01*
X170067544Y-62342452D01*
X169952335Y-62256206D01*
X169952328Y-62256202D01*
X169817482Y-62205908D01*
X169817483Y-62205908D01*
X169757883Y-62199501D01*
X169757881Y-62199500D01*
X169757873Y-62199500D01*
X169757864Y-62199500D01*
X168062129Y-62199500D01*
X168062123Y-62199501D01*
X168002520Y-62205908D01*
X168002517Y-62205909D01*
X167972961Y-62216931D01*
X167961896Y-62220476D01*
X167944566Y-62225145D01*
X167944554Y-62225149D01*
X167930734Y-62231987D01*
X167919087Y-62237025D01*
X167886782Y-62249074D01*
X167867669Y-62256204D01*
X167867668Y-62256204D01*
X167867667Y-62256205D01*
X167867666Y-62256205D01*
X167849236Y-62270001D01*
X167829927Y-62281868D01*
X167815605Y-62288954D01*
X167815604Y-62288955D01*
X167177461Y-62727681D01*
X167111066Y-62749440D01*
X167107211Y-62749500D01*
X166764357Y-62749500D01*
X166697318Y-62729815D01*
X166652613Y-62679252D01*
X166646016Y-62665538D01*
X166207044Y-61752957D01*
X166207040Y-61752950D01*
X166206642Y-61752122D01*
X166204976Y-61748512D01*
X166113986Y-61542712D01*
X165905370Y-61070864D01*
X165861090Y-60970711D01*
X165850500Y-60920569D01*
X165850500Y-60886079D01*
X165821659Y-60741092D01*
X165821658Y-60741091D01*
X165821658Y-60741087D01*
X165765084Y-60604505D01*
X165732186Y-60555270D01*
X165732185Y-60555268D01*
X165682956Y-60481589D01*
X165682952Y-60481584D01*
X162403421Y-57202052D01*
X162403414Y-57202046D01*
X162309128Y-57139047D01*
X162309127Y-57139047D01*
X162280495Y-57119916D01*
X162280488Y-57119912D01*
X162143917Y-57063343D01*
X162143907Y-57063340D01*
X161998920Y-57034500D01*
X161998918Y-57034500D01*
X161639049Y-57034500D01*
X161572010Y-57014815D01*
X161526255Y-56962011D01*
X161516311Y-56892853D01*
X161545336Y-56829297D01*
X161551368Y-56822819D01*
X161655045Y-56719141D01*
X161655047Y-56719139D01*
X161785568Y-56532734D01*
X161881739Y-56326496D01*
X161940635Y-56106692D01*
X161960468Y-55880000D01*
X161940635Y-55653308D01*
X161881739Y-55433504D01*
X161785568Y-55227266D01*
X161655047Y-55040861D01*
X161655045Y-55040858D01*
X161494141Y-54879954D01*
X161307734Y-54749432D01*
X161307732Y-54749431D01*
X161101497Y-54653261D01*
X161101488Y-54653258D01*
X160881697Y-54594366D01*
X160881693Y-54594365D01*
X160881692Y-54594365D01*
X160881691Y-54594364D01*
X160881686Y-54594364D01*
X160655002Y-54574532D01*
X160654998Y-54574532D01*
X160428313Y-54594364D01*
X160428302Y-54594366D01*
X160208511Y-54653258D01*
X160208502Y-54653261D01*
X160002267Y-54749431D01*
X160002265Y-54749432D01*
X159815858Y-54879954D01*
X159654954Y-55040858D01*
X159637725Y-55065464D01*
X159583147Y-55109088D01*
X159513648Y-55116280D01*
X159451294Y-55084757D01*
X159415882Y-55024526D01*
X159412861Y-55007591D01*
X159409091Y-54972516D01*
X159358797Y-54837671D01*
X159358793Y-54837664D01*
X159272547Y-54722455D01*
X159272544Y-54722452D01*
X159157335Y-54636206D01*
X159157328Y-54636202D01*
X159022482Y-54585908D01*
X159022483Y-54585908D01*
X158962883Y-54579501D01*
X158962881Y-54579500D01*
X158962873Y-54579500D01*
X158962864Y-54579500D01*
X157267129Y-54579500D01*
X157267123Y-54579501D01*
X157207516Y-54585908D01*
X157072671Y-54636202D01*
X157072664Y-54636206D01*
X156957455Y-54722452D01*
X156957452Y-54722455D01*
X156871206Y-54837664D01*
X156871202Y-54837671D01*
X156820908Y-54972517D01*
X156814501Y-55032116D01*
X156814500Y-55032135D01*
X156814500Y-55392886D01*
X156801922Y-55447302D01*
X156313204Y-56448012D01*
X156157716Y-56766390D01*
X156133975Y-56799655D01*
X155935449Y-56998182D01*
X155874129Y-57031666D01*
X155847770Y-57034500D01*
X147664049Y-57034500D01*
X147597010Y-57014815D01*
X147551255Y-56962011D01*
X147541311Y-56892853D01*
X147570336Y-56829297D01*
X147576368Y-56822819D01*
X147680045Y-56719141D01*
X147680047Y-56719139D01*
X147810568Y-56532734D01*
X147906739Y-56326496D01*
X147965635Y-56106692D01*
X147985468Y-55880000D01*
X147965635Y-55653308D01*
X147906739Y-55433504D01*
X147810568Y-55227266D01*
X147680047Y-55040861D01*
X147680045Y-55040858D01*
X147519141Y-54879954D01*
X147332734Y-54749432D01*
X147332732Y-54749431D01*
X147126497Y-54653261D01*
X147126488Y-54653258D01*
X146906697Y-54594366D01*
X146906693Y-54594365D01*
X146906692Y-54594365D01*
X146906691Y-54594364D01*
X146906686Y-54594364D01*
X146680002Y-54574532D01*
X146679998Y-54574532D01*
X146453313Y-54594364D01*
X146453302Y-54594366D01*
X146233511Y-54653258D01*
X146233502Y-54653261D01*
X146027267Y-54749431D01*
X146027265Y-54749432D01*
X145840858Y-54879954D01*
X145679954Y-55040858D01*
X145662725Y-55065464D01*
X145608147Y-55109088D01*
X145538648Y-55116280D01*
X145476294Y-55084757D01*
X145440882Y-55024526D01*
X145437861Y-55007591D01*
X145434091Y-54972516D01*
X145383797Y-54837671D01*
X145383793Y-54837664D01*
X145297547Y-54722455D01*
X145297544Y-54722452D01*
X145182335Y-54636206D01*
X145182328Y-54636202D01*
X145047482Y-54585908D01*
X145047483Y-54585908D01*
X144987883Y-54579501D01*
X144987881Y-54579500D01*
X144987873Y-54579500D01*
X144987864Y-54579500D01*
X143292129Y-54579500D01*
X143292123Y-54579501D01*
X143232520Y-54585908D01*
X143232517Y-54585909D01*
X143202961Y-54596931D01*
X143191896Y-54600476D01*
X143174566Y-54605145D01*
X143174554Y-54605149D01*
X143160734Y-54611987D01*
X143149087Y-54617025D01*
X143116782Y-54629074D01*
X143097669Y-54636204D01*
X143097668Y-54636204D01*
X143097667Y-54636205D01*
X143097666Y-54636205D01*
X143079236Y-54650001D01*
X143059927Y-54661868D01*
X143045605Y-54668954D01*
X143045604Y-54668955D01*
X142407461Y-55107681D01*
X142341066Y-55129440D01*
X142337211Y-55129500D01*
X140896080Y-55129500D01*
X140751092Y-55158340D01*
X140751082Y-55158343D01*
X140614511Y-55214912D01*
X140614498Y-55214919D01*
X140491584Y-55297048D01*
X140491580Y-55297051D01*
X134269659Y-61518971D01*
X134236394Y-61542712D01*
X132917300Y-62186922D01*
X132862884Y-62199500D01*
X132502130Y-62199500D01*
X132502123Y-62199501D01*
X132442516Y-62205908D01*
X132307671Y-62256202D01*
X132307664Y-62256206D01*
X132192455Y-62342452D01*
X132192452Y-62342455D01*
X132106206Y-62457664D01*
X132106202Y-62457671D01*
X132055908Y-62592517D01*
X132049501Y-62652116D01*
X132049500Y-62652135D01*
X132049500Y-63012886D01*
X132036922Y-63067302D01*
X131548204Y-64068012D01*
X131392715Y-64386392D01*
X131368974Y-64419657D01*
X128957045Y-66831586D01*
X128929075Y-66873450D01*
X128929073Y-66873453D01*
X128874914Y-66954507D01*
X128818343Y-67091082D01*
X128818340Y-67091092D01*
X128789500Y-67236079D01*
X128789500Y-74397209D01*
X128769815Y-74464248D01*
X128767681Y-74467459D01*
X128496181Y-74862368D01*
X128441980Y-74906459D01*
X128372546Y-74914248D01*
X128309924Y-74883262D01*
X128273994Y-74823338D01*
X128270000Y-74792118D01*
X128270000Y-54734176D01*
X128289685Y-54667137D01*
X128306319Y-54646495D01*
X128468776Y-54484038D01*
X131749500Y-54484038D01*
X131749500Y-54735962D01*
X131760147Y-54803186D01*
X131788910Y-54984785D01*
X131866760Y-55224383D01*
X131903786Y-55297049D01*
X131973313Y-55433504D01*
X131981132Y-55448848D01*
X132129201Y-55652649D01*
X132129205Y-55652654D01*
X132307345Y-55830794D01*
X132307350Y-55830798D01*
X132375073Y-55880001D01*
X132511155Y-55978870D01*
X132654184Y-56051747D01*
X132735616Y-56093239D01*
X132735618Y-56093239D01*
X132735621Y-56093241D01*
X132975215Y-56171090D01*
X133224038Y-56210500D01*
X133224039Y-56210500D01*
X133475961Y-56210500D01*
X133475962Y-56210500D01*
X133724785Y-56171090D01*
X133964379Y-56093241D01*
X134188845Y-55978870D01*
X134392656Y-55830793D01*
X134570793Y-55652656D01*
X134718870Y-55448845D01*
X134830352Y-55230048D01*
X134833239Y-55224383D01*
X134833239Y-55224382D01*
X134833241Y-55224379D01*
X134911090Y-54984785D01*
X134950500Y-54735962D01*
X134950500Y-54484038D01*
X150799500Y-54484038D01*
X150799500Y-54735962D01*
X150810147Y-54803186D01*
X150838910Y-54984785D01*
X150916760Y-55224383D01*
X150953786Y-55297049D01*
X151023313Y-55433504D01*
X151031132Y-55448848D01*
X151179201Y-55652649D01*
X151179205Y-55652654D01*
X151357345Y-55830794D01*
X151357350Y-55830798D01*
X151425073Y-55880001D01*
X151561155Y-55978870D01*
X151704184Y-56051747D01*
X151785616Y-56093239D01*
X151785618Y-56093239D01*
X151785621Y-56093241D01*
X152025215Y-56171090D01*
X152274038Y-56210500D01*
X152274039Y-56210500D01*
X152525961Y-56210500D01*
X152525962Y-56210500D01*
X152774785Y-56171090D01*
X153014379Y-56093241D01*
X153238845Y-55978870D01*
X153442656Y-55830793D01*
X153620793Y-55652656D01*
X153768870Y-55448845D01*
X153880352Y-55230048D01*
X153883239Y-55224383D01*
X153883239Y-55224382D01*
X153883241Y-55224379D01*
X153961090Y-54984785D01*
X154000500Y-54735962D01*
X154000500Y-54484038D01*
X169849500Y-54484038D01*
X169849500Y-54735962D01*
X169860147Y-54803186D01*
X169888910Y-54984785D01*
X169966760Y-55224383D01*
X170003786Y-55297049D01*
X170073313Y-55433504D01*
X170081132Y-55448848D01*
X170229201Y-55652649D01*
X170229205Y-55652654D01*
X170407345Y-55830794D01*
X170407350Y-55830798D01*
X170475073Y-55880001D01*
X170611155Y-55978870D01*
X170754184Y-56051747D01*
X170835616Y-56093239D01*
X170835618Y-56093239D01*
X170835621Y-56093241D01*
X171075215Y-56171090D01*
X171324038Y-56210500D01*
X171324039Y-56210500D01*
X171575961Y-56210500D01*
X171575962Y-56210500D01*
X171824785Y-56171090D01*
X172064379Y-56093241D01*
X172288845Y-55978870D01*
X172492656Y-55830793D01*
X172670793Y-55652656D01*
X172818870Y-55448845D01*
X172930352Y-55230048D01*
X172933239Y-55224383D01*
X172933239Y-55224382D01*
X172933241Y-55224379D01*
X173011090Y-54984785D01*
X173050500Y-54735962D01*
X173050500Y-54484038D01*
X173011090Y-54235215D01*
X172933241Y-53995621D01*
X172933239Y-53995618D01*
X172933239Y-53995616D01*
X172891747Y-53914184D01*
X172818870Y-53771155D01*
X172799952Y-53745117D01*
X172670798Y-53567350D01*
X172670794Y-53567345D01*
X172492654Y-53389205D01*
X172492649Y-53389201D01*
X172288848Y-53241132D01*
X172288847Y-53241131D01*
X172288845Y-53241130D01*
X172218747Y-53205413D01*
X172064383Y-53126760D01*
X171824785Y-53048910D01*
X171575962Y-53009500D01*
X171324038Y-53009500D01*
X171199626Y-53029205D01*
X171075214Y-53048910D01*
X170835616Y-53126760D01*
X170611151Y-53241132D01*
X170407350Y-53389201D01*
X170407345Y-53389205D01*
X170229205Y-53567345D01*
X170229201Y-53567350D01*
X170081132Y-53771151D01*
X169966760Y-53995616D01*
X169888910Y-54235214D01*
X169860147Y-54416814D01*
X169849500Y-54484038D01*
X154000500Y-54484038D01*
X153961090Y-54235215D01*
X153883241Y-53995621D01*
X153883239Y-53995618D01*
X153883239Y-53995616D01*
X153841747Y-53914184D01*
X153768870Y-53771155D01*
X153749952Y-53745117D01*
X153620798Y-53567350D01*
X153620794Y-53567345D01*
X153442654Y-53389205D01*
X153442649Y-53389201D01*
X153238848Y-53241132D01*
X153238847Y-53241131D01*
X153238845Y-53241130D01*
X153168747Y-53205413D01*
X153014383Y-53126760D01*
X152774785Y-53048910D01*
X152525962Y-53009500D01*
X152274038Y-53009500D01*
X152149626Y-53029205D01*
X152025214Y-53048910D01*
X151785616Y-53126760D01*
X151561151Y-53241132D01*
X151357350Y-53389201D01*
X151357345Y-53389205D01*
X151179205Y-53567345D01*
X151179201Y-53567350D01*
X151031132Y-53771151D01*
X150916760Y-53995616D01*
X150838910Y-54235214D01*
X150810147Y-54416814D01*
X150799500Y-54484038D01*
X134950500Y-54484038D01*
X134911090Y-54235215D01*
X134833241Y-53995621D01*
X134833239Y-53995618D01*
X134833239Y-53995616D01*
X134791747Y-53914184D01*
X134718870Y-53771155D01*
X134699952Y-53745117D01*
X134570798Y-53567350D01*
X134570794Y-53567345D01*
X134392654Y-53389205D01*
X134392649Y-53389201D01*
X134188848Y-53241132D01*
X134188847Y-53241131D01*
X134188845Y-53241130D01*
X134118747Y-53205413D01*
X133964383Y-53126760D01*
X133724785Y-53048910D01*
X133475962Y-53009500D01*
X133224038Y-53009500D01*
X133099626Y-53029205D01*
X132975214Y-53048910D01*
X132735616Y-53126760D01*
X132511151Y-53241132D01*
X132307350Y-53389201D01*
X132307345Y-53389205D01*
X132129205Y-53567345D01*
X132129201Y-53567350D01*
X131981132Y-53771151D01*
X131866760Y-53995616D01*
X131788910Y-54235214D01*
X131760147Y-54416814D01*
X131749500Y-54484038D01*
X128468776Y-54484038D01*
X130846495Y-52106319D01*
X130907818Y-52072834D01*
X130934176Y-52070000D01*
X173865824Y-52070000D01*
X173932863Y-52089685D01*
G37*
%TD.AperFunction*%
%TD*%
%TA.AperFunction,Conductor*%
%TO.N,VCC*%
G36*
X166873021Y-92408754D02*
G01*
X167091896Y-92562016D01*
X168095693Y-93264901D01*
X168100504Y-93272453D01*
X168098566Y-93281196D01*
X168097261Y-93282752D01*
X167401652Y-93979345D01*
X167397840Y-93981892D01*
X166487968Y-94357788D01*
X166479014Y-94357779D01*
X166472687Y-94351441D01*
X166472325Y-94350437D01*
X165874699Y-92421802D01*
X165875524Y-92412885D01*
X165882412Y-92407163D01*
X165885875Y-92406639D01*
X166866311Y-92406639D01*
X166873021Y-92408754D01*
G37*
%TD.AperFunction*%
%TD*%
%TA.AperFunction,Conductor*%
%TO.N,VCC*%
G36*
X167620766Y-79534779D02*
G01*
X167620860Y-79534872D01*
X168307841Y-80222834D01*
X168311262Y-80231109D01*
X168310922Y-80233900D01*
X168142193Y-80918599D01*
X168136886Y-80925812D01*
X168130833Y-80927500D01*
X167148659Y-80927500D01*
X167140386Y-80924073D01*
X167137470Y-80919219D01*
X166928154Y-80234142D01*
X166929013Y-80225228D01*
X166930983Y-80222538D01*
X167604223Y-79534952D01*
X167612458Y-79531440D01*
X167620766Y-79534779D01*
G37*
%TD.AperFunction*%
%TD*%
%TA.AperFunction,Conductor*%
%TO.N,Net-(Q1-B)*%
G36*
X155584233Y-72126853D02*
G01*
X155590556Y-72133193D01*
X155590789Y-72133804D01*
X155998242Y-73302306D01*
X155997730Y-73311246D01*
X155995467Y-73314431D01*
X155864431Y-73445467D01*
X155856158Y-73448894D01*
X155852306Y-73448242D01*
X154683804Y-73040789D01*
X154677120Y-73034829D01*
X154676608Y-73025889D01*
X154676827Y-73025313D01*
X154937438Y-72393787D01*
X154943758Y-72387450D01*
X155575280Y-72126841D01*
X155584233Y-72126853D01*
G37*
%TD.AperFunction*%
%TD*%
%TA.AperFunction,Conductor*%
%TO.N,Net-(Q1-B)*%
G36*
X161634104Y-73811612D02*
G01*
X161634371Y-73812208D01*
X161896632Y-74443008D01*
X161896644Y-74451963D01*
X161896632Y-74451992D01*
X161634371Y-75082791D01*
X161628031Y-75089114D01*
X161619076Y-75089102D01*
X161618480Y-75088835D01*
X160504112Y-74550693D01*
X160498152Y-74544009D01*
X160497500Y-74540157D01*
X160497500Y-74354842D01*
X160500927Y-74346569D01*
X160504107Y-74344309D01*
X161618481Y-73806163D01*
X161627420Y-73805652D01*
X161634104Y-73811612D01*
G37*
%TD.AperFunction*%
%TD*%
%TA.AperFunction,Conductor*%
%TO.N,Net-(Q1-B)*%
G36*
X159998430Y-78130927D02*
G01*
X160000693Y-78134112D01*
X160538835Y-79248480D01*
X160539347Y-79257420D01*
X160533387Y-79264104D01*
X160532791Y-79264371D01*
X159901992Y-79526632D01*
X159893037Y-79526644D01*
X159893008Y-79526632D01*
X159262208Y-79264371D01*
X159255885Y-79258031D01*
X159255897Y-79249076D01*
X159256156Y-79248497D01*
X159794307Y-78134112D01*
X159800991Y-78128152D01*
X159804843Y-78127500D01*
X159990157Y-78127500D01*
X159998430Y-78130927D01*
G37*
%TD.AperFunction*%
%TD*%
%TA.AperFunction,Conductor*%
%TO.N,Net-(Q1-B)*%
G36*
X161262199Y-74184332D02*
G01*
X161893710Y-74444937D01*
X161900050Y-74451260D01*
X161900062Y-74451289D01*
X162160658Y-75082778D01*
X162160646Y-75091733D01*
X162154306Y-75098056D01*
X162153695Y-75098289D01*
X160985193Y-75505742D01*
X160976253Y-75505230D01*
X160973068Y-75502967D01*
X160842032Y-75371931D01*
X160838605Y-75363658D01*
X160839256Y-75359808D01*
X161246710Y-74191303D01*
X161252670Y-74184620D01*
X161261610Y-74184108D01*
X161262199Y-74184332D01*
G37*
%TD.AperFunction*%
%TD*%
%TA.AperFunction,Conductor*%
%TO.N,Net-(D1-K)*%
G36*
X158913798Y-55552833D02*
G01*
X158919822Y-55558504D01*
X159653797Y-57061405D01*
X159654349Y-57070342D01*
X159651557Y-57074812D01*
X159309812Y-57416557D01*
X159301539Y-57419984D01*
X159296405Y-57418797D01*
X157793504Y-56684822D01*
X157787573Y-56678112D01*
X157787824Y-56669843D01*
X158112438Y-55883783D01*
X158118759Y-55877448D01*
X158904844Y-55552824D01*
X158913798Y-55552833D01*
G37*
%TD.AperFunction*%
%TD*%
%TA.AperFunction,Conductor*%
%TO.N,Net-(D1-K)*%
G36*
X165189326Y-60703371D02*
G01*
X165191754Y-60706913D01*
X165741878Y-61951180D01*
X165742089Y-61960132D01*
X165735908Y-61966612D01*
X165735669Y-61966714D01*
X165105194Y-62228841D01*
X165096239Y-62228853D01*
X165096219Y-62228845D01*
X164464065Y-61966594D01*
X164457736Y-61960258D01*
X164457731Y-61951331D01*
X164830410Y-61047011D01*
X164832950Y-61043201D01*
X165172781Y-60703370D01*
X165181053Y-60699944D01*
X165189326Y-60703371D01*
G37*
%TD.AperFunction*%
%TD*%
%TA.AperFunction,Conductor*%
%TO.N,Net-(D1-K)*%
G36*
X168116881Y-62706872D02*
G01*
X168902711Y-63491722D01*
X168906143Y-63499993D01*
X168902721Y-63508268D01*
X168902711Y-63508278D01*
X168116881Y-64293127D01*
X168108606Y-64296549D01*
X168101985Y-64294490D01*
X168100002Y-64293127D01*
X167315072Y-63753487D01*
X167310196Y-63745976D01*
X167310000Y-63743846D01*
X167310000Y-63256154D01*
X167313427Y-63247881D01*
X167315072Y-63246513D01*
X168101987Y-62705508D01*
X168110743Y-62703646D01*
X168116881Y-62706872D01*
G37*
%TD.AperFunction*%
%TD*%
%TA.AperFunction,Conductor*%
%TO.N,Net-(D1-K)*%
G36*
X165745454Y-61966350D02*
G01*
X165751506Y-61972081D01*
X166263129Y-63035695D01*
X166263627Y-63044636D01*
X166260858Y-63049040D01*
X165919040Y-63390858D01*
X165910767Y-63394285D01*
X165905695Y-63393129D01*
X164842081Y-62881506D01*
X164836111Y-62874831D01*
X164836338Y-62866499D01*
X165097438Y-62233787D01*
X165103758Y-62227450D01*
X165736499Y-61966338D01*
X165745454Y-61966350D01*
G37*
%TD.AperFunction*%
%TD*%
%TA.AperFunction,Conductor*%
%TO.N,VCC*%
G36*
X170364040Y-82659141D02*
G01*
X170705858Y-83000959D01*
X170709285Y-83009232D01*
X170708129Y-83014304D01*
X170196506Y-84077918D01*
X170189831Y-84083888D01*
X170181499Y-84083661D01*
X169548789Y-83822562D01*
X169542449Y-83816239D01*
X169542437Y-83816210D01*
X169281338Y-83183500D01*
X169281350Y-83174545D01*
X169287080Y-83168493D01*
X170350697Y-82656869D01*
X170359636Y-82656372D01*
X170364040Y-82659141D01*
G37*
%TD.AperFunction*%
%TD*%
%TA.AperFunction,Conductor*%
%TO.N,VCC*%
G36*
X168320425Y-78832594D02*
G01*
X169007128Y-79274046D01*
X169012233Y-79281402D01*
X169012500Y-79283887D01*
X169012500Y-79771112D01*
X169009073Y-79779385D01*
X169007127Y-79780954D01*
X168320426Y-80222404D01*
X168311614Y-80223995D01*
X168305832Y-80220841D01*
X167865316Y-79780954D01*
X167619789Y-79535777D01*
X167616357Y-79527508D01*
X167619777Y-79519234D01*
X168305832Y-78834157D01*
X168314107Y-78830737D01*
X168320425Y-78832594D01*
G37*
%TD.AperFunction*%
%TD*%
%TA.AperFunction,Conductor*%
%TO.N,VCC*%
G36*
X168111948Y-78130927D02*
G01*
X168114925Y-78135986D01*
X168310610Y-78820886D01*
X168309588Y-78829782D01*
X168307639Y-78832367D01*
X167620779Y-79520209D01*
X167612508Y-79523642D01*
X167604233Y-79520221D01*
X167604221Y-79520209D01*
X166917360Y-78832367D01*
X166913939Y-78824092D01*
X166914388Y-78820890D01*
X167110075Y-78135985D01*
X167115643Y-78128972D01*
X167121325Y-78127500D01*
X168103675Y-78127500D01*
X168111948Y-78130927D01*
G37*
%TD.AperFunction*%
%TD*%
%TA.AperFunction,Conductor*%
%TO.N,VCC*%
G36*
X151280920Y-67269982D02*
G01*
X151289188Y-67273419D01*
X151292605Y-67281697D01*
X151292405Y-67283838D01*
X150996790Y-68860456D01*
X150991897Y-68867956D01*
X150985290Y-68870000D01*
X150004710Y-68870000D01*
X149996437Y-68866573D01*
X149993210Y-68860456D01*
X149697594Y-67283836D01*
X149699438Y-67275075D01*
X149706938Y-67270182D01*
X149709074Y-67269982D01*
X150495000Y-67269000D01*
X151280920Y-67269982D01*
G37*
%TD.AperFunction*%
%TD*%
%TA.AperFunction,Conductor*%
%TO.N,VCC*%
G36*
X154935339Y-79314127D02*
G01*
X154939901Y-79321832D01*
X154940019Y-79323470D01*
X154941000Y-80010000D01*
X154941000Y-80010034D01*
X154940019Y-80696529D01*
X154936580Y-80704797D01*
X154928302Y-80708212D01*
X154926664Y-80708094D01*
X153550045Y-80511435D01*
X153542340Y-80506873D01*
X153540000Y-80499853D01*
X153540000Y-79520147D01*
X153543427Y-79511874D01*
X153550045Y-79508565D01*
X154926664Y-79311905D01*
X154935339Y-79314127D01*
G37*
%TD.AperFunction*%
%TD*%
%TA.AperFunction,Conductor*%
%TO.N,VCC*%
G36*
X152413335Y-79311905D02*
G01*
X153789955Y-79508565D01*
X153797660Y-79513127D01*
X153800000Y-79520147D01*
X153800000Y-80499853D01*
X153796573Y-80508126D01*
X153789955Y-80511435D01*
X152413335Y-80708094D01*
X152404660Y-80705872D01*
X152400098Y-80698167D01*
X152399980Y-80696539D01*
X152399000Y-80010000D01*
X152399980Y-79323468D01*
X152403419Y-79315202D01*
X152411697Y-79311787D01*
X152413335Y-79311905D01*
G37*
%TD.AperFunction*%
%TD*%
%TA.AperFunction,Conductor*%
%TO.N,VCC*%
G36*
X155441982Y-79524560D02*
G01*
X155443057Y-79525801D01*
X156277414Y-80638278D01*
X156279636Y-80646953D01*
X156276327Y-80653571D01*
X155583571Y-81346327D01*
X155575298Y-81349754D01*
X155568278Y-81347414D01*
X154455801Y-80513057D01*
X154451239Y-80505352D01*
X154453461Y-80496677D01*
X154454530Y-80495442D01*
X154939293Y-80009293D01*
X155425437Y-79524535D01*
X155433714Y-79521121D01*
X155441982Y-79524560D01*
G37*
%TD.AperFunction*%
%TD*%
%TA.AperFunction,Conductor*%
%TO.N,VCC*%
G36*
X151771721Y-78672585D02*
G01*
X152327311Y-79089277D01*
X152717236Y-79381721D01*
X152884198Y-79506942D01*
X152888760Y-79514647D01*
X152886538Y-79523322D01*
X152885463Y-79524563D01*
X152400731Y-80010683D01*
X152400707Y-80010707D01*
X151914563Y-80495463D01*
X151906285Y-80498878D01*
X151898017Y-80495439D01*
X151896942Y-80494198D01*
X151062585Y-79381721D01*
X151060363Y-79373046D01*
X151063671Y-79366430D01*
X151756429Y-78673671D01*
X151764701Y-78670245D01*
X151771721Y-78672585D01*
G37*
%TD.AperFunction*%
%TD*%
%TA.AperFunction,Conductor*%
%TO.N,VCC*%
G36*
X147883504Y-66526852D02*
G01*
X149295214Y-66808124D01*
X149302658Y-66813101D01*
X149304628Y-66819598D01*
X149304628Y-67800401D01*
X149301201Y-67808674D01*
X149295214Y-67811875D01*
X147883508Y-68093146D01*
X147874725Y-68091402D01*
X147871682Y-68088445D01*
X147673991Y-67810000D01*
X147323807Y-67316771D01*
X147321813Y-67308044D01*
X147323807Y-67303229D01*
X147871683Y-66531552D01*
X147879266Y-66526792D01*
X147883504Y-66526852D01*
G37*
%TD.AperFunction*%
%TD*%
%TA.AperFunction,Conductor*%
%TO.N,VCC*%
G36*
X150188125Y-66534560D02*
G01*
X150192598Y-66539909D01*
X150308759Y-66819433D01*
X150495101Y-67267836D01*
X150495997Y-67272341D01*
X150495017Y-68056252D01*
X150491580Y-68064520D01*
X150483302Y-68067937D01*
X150481431Y-68067784D01*
X148912770Y-67811602D01*
X148905158Y-67806887D01*
X148902956Y-67800055D01*
X148902956Y-66819433D01*
X148906383Y-66811160D01*
X148912173Y-66807999D01*
X150179314Y-66532966D01*
X150188125Y-66534560D01*
G37*
%TD.AperFunction*%
%TD*%
%TA.AperFunction,Conductor*%
%TO.N,Net-(U2-+)*%
G36*
X161289699Y-83556832D02*
G01*
X161921210Y-83817437D01*
X161927550Y-83823760D01*
X161927562Y-83823789D01*
X162188158Y-84455278D01*
X162188146Y-84464233D01*
X162181806Y-84470556D01*
X162181195Y-84470789D01*
X161012693Y-84878242D01*
X161003753Y-84877730D01*
X161000568Y-84875467D01*
X160869532Y-84744431D01*
X160866105Y-84736158D01*
X160866756Y-84732308D01*
X161274210Y-83563803D01*
X161280170Y-83557120D01*
X161289110Y-83556608D01*
X161289699Y-83556832D01*
G37*
%TD.AperFunction*%
%TD*%
%TA.AperFunction,Conductor*%
%TO.N,Net-(U2-+)*%
G36*
X156568423Y-84353397D02*
G01*
X156569015Y-84353662D01*
X157683389Y-84891807D01*
X157689348Y-84898490D01*
X157690000Y-84902342D01*
X157690000Y-85087657D01*
X157686573Y-85095930D01*
X157683388Y-85098193D01*
X156569019Y-85636335D01*
X156560079Y-85636847D01*
X156553395Y-85630887D01*
X156553128Y-85630291D01*
X156331903Y-85098193D01*
X156290866Y-84999490D01*
X156290855Y-84990538D01*
X156553128Y-84359707D01*
X156559468Y-84353385D01*
X156568423Y-84353397D01*
G37*
%TD.AperFunction*%
%TD*%
%TA.AperFunction,Conductor*%
%TO.N,Net-(Q1-B)*%
G36*
X155098612Y-71004964D02*
G01*
X155101063Y-71008560D01*
X155581957Y-72111211D01*
X155582124Y-72120164D01*
X155575910Y-72126612D01*
X155575725Y-72126691D01*
X154944492Y-72389132D01*
X154935537Y-72389144D01*
X154935508Y-72389132D01*
X154305234Y-72127090D01*
X154298911Y-72120750D01*
X154298923Y-72111795D01*
X154299421Y-72110748D01*
X154894684Y-71007680D01*
X154901628Y-71002027D01*
X154904980Y-71001537D01*
X155090339Y-71001537D01*
X155098612Y-71004964D01*
G37*
%TD.AperFunction*%
%TD*%
%TA.AperFunction,Conductor*%
%TO.N,Net-(Q1-B)*%
G36*
X155555948Y-70070915D02*
G01*
X155679429Y-70122241D01*
X155685753Y-70128581D01*
X155685742Y-70137536D01*
X155685449Y-70138183D01*
X155101208Y-71333438D01*
X155094497Y-71339366D01*
X155090697Y-71340000D01*
X154905303Y-71340000D01*
X154897030Y-71336573D01*
X154894792Y-71333438D01*
X154310550Y-70138183D01*
X154309995Y-70129245D01*
X154315923Y-70122534D01*
X154316563Y-70122244D01*
X154993510Y-69840865D01*
X155002462Y-69840855D01*
X155555948Y-70070915D01*
G37*
%TD.AperFunction*%
%TD*%
%TA.AperFunction,Conductor*%
%TO.N,Net-(D1-K)*%
G36*
X170104812Y-87363442D02*
G01*
X170446557Y-87705187D01*
X170449984Y-87713460D01*
X170448797Y-87718594D01*
X169714822Y-89221495D01*
X169708112Y-89227426D01*
X169699843Y-89227175D01*
X168913785Y-88902562D01*
X168907447Y-88896238D01*
X168582824Y-88110155D01*
X168582833Y-88101201D01*
X168588502Y-88095178D01*
X170091405Y-87361201D01*
X170100342Y-87360650D01*
X170104812Y-87363442D01*
G37*
%TD.AperFunction*%
%TD*%
%TA.AperFunction,Conductor*%
%TO.N,Net-(D1-K)*%
G36*
X144938803Y-55551971D02*
G01*
X144944832Y-55557634D01*
X145678785Y-57056400D01*
X145679346Y-57065338D01*
X145676550Y-57069819D01*
X145334797Y-57411572D01*
X145326524Y-57414999D01*
X145321415Y-57413825D01*
X143819390Y-56684805D01*
X143813444Y-56678109D01*
X143813680Y-56669825D01*
X144137442Y-55883785D01*
X144143759Y-55877443D01*
X144929848Y-55551970D01*
X144938803Y-55551971D01*
G37*
%TD.AperFunction*%
%TD*%
%TA.AperFunction,Conductor*%
%TO.N,Net-(D1-K)*%
G36*
X143346881Y-55086872D02*
G01*
X144132711Y-55871722D01*
X144136143Y-55879993D01*
X144132721Y-55888268D01*
X144132711Y-55888278D01*
X143346881Y-56673127D01*
X143338606Y-56676549D01*
X143331985Y-56674490D01*
X143330002Y-56673127D01*
X142545072Y-56133487D01*
X142540196Y-56125976D01*
X142540000Y-56123846D01*
X142540000Y-55636154D01*
X142543427Y-55627881D01*
X142545072Y-55626513D01*
X143331987Y-55085508D01*
X143340743Y-55083646D01*
X143346881Y-55086872D01*
G37*
%TD.AperFunction*%
%TD*%
%TA.AperFunction,Conductor*%
%TO.N,Net-(D1-K)*%
G36*
X129792119Y-74603427D02*
G01*
X129793487Y-74605072D01*
X130334490Y-75391985D01*
X130336353Y-75400743D01*
X130333127Y-75406881D01*
X129548278Y-76192711D01*
X129540007Y-76196143D01*
X129531732Y-76192721D01*
X129531722Y-76192711D01*
X128746872Y-75406881D01*
X128743450Y-75398606D01*
X128745507Y-75391988D01*
X129286513Y-74605072D01*
X129294024Y-74600196D01*
X129296154Y-74600000D01*
X129783846Y-74600000D01*
X129792119Y-74603427D01*
G37*
%TD.AperFunction*%
%TD*%
%TA.AperFunction,Conductor*%
%TO.N,Net-(D1-K)*%
G36*
X134148798Y-88572833D02*
G01*
X134154822Y-88578504D01*
X134888797Y-90081405D01*
X134889349Y-90090342D01*
X134886557Y-90094812D01*
X134544812Y-90436557D01*
X134536539Y-90439984D01*
X134531405Y-90438797D01*
X133028504Y-89704822D01*
X133022573Y-89698112D01*
X133022824Y-89689843D01*
X133347438Y-88903783D01*
X133353759Y-88897448D01*
X134139844Y-88572824D01*
X134148798Y-88572833D01*
G37*
%TD.AperFunction*%
%TD*%
%TA.AperFunction,Conductor*%
%TO.N,Net-(D1-K)*%
G36*
X172972119Y-74603427D02*
G01*
X172973487Y-74605072D01*
X173514490Y-75391985D01*
X173516353Y-75400743D01*
X173513127Y-75406881D01*
X172728278Y-76192711D01*
X172720007Y-76196143D01*
X172711732Y-76192721D01*
X172711722Y-76192711D01*
X171926872Y-75406881D01*
X171923450Y-75398606D01*
X171925507Y-75391988D01*
X172466513Y-74605072D01*
X172474024Y-74600196D01*
X172476154Y-74600000D01*
X172963846Y-74600000D01*
X172972119Y-74603427D01*
G37*
%TD.AperFunction*%
%TD*%
%TA.AperFunction,Conductor*%
%TO.N,Net-(D1-K)*%
G36*
X132168594Y-87361202D02*
G01*
X133671495Y-88095177D01*
X133677426Y-88101887D01*
X133677175Y-88110156D01*
X133352562Y-88896214D01*
X133346237Y-88902553D01*
X133346214Y-88902562D01*
X132560156Y-89227175D01*
X132551201Y-89227166D01*
X132545177Y-89221495D01*
X131811202Y-87718594D01*
X131810650Y-87709657D01*
X131813440Y-87705189D01*
X132155188Y-87363441D01*
X132163460Y-87360015D01*
X132168594Y-87361202D01*
G37*
%TD.AperFunction*%
%TD*%
%TA.AperFunction,Conductor*%
%TO.N,Net-(D1-K)*%
G36*
X129548268Y-76207278D02*
G01*
X129548278Y-76207288D01*
X130333127Y-76993118D01*
X130336549Y-77001393D01*
X130334490Y-77008014D01*
X129793487Y-77794928D01*
X129785976Y-77799804D01*
X129783846Y-77800000D01*
X129296154Y-77800000D01*
X129287881Y-77796573D01*
X129286513Y-77794928D01*
X128745508Y-77008012D01*
X128743646Y-76999256D01*
X128746870Y-76993120D01*
X129531722Y-76207287D01*
X129539993Y-76203856D01*
X129548268Y-76207278D01*
G37*
%TD.AperFunction*%
%TD*%
%TA.AperFunction,Conductor*%
%TO.N,Net-(D1-K)*%
G36*
X132560155Y-63172823D02*
G01*
X133346214Y-63497437D01*
X133352553Y-63503762D01*
X133352562Y-63503785D01*
X133677175Y-64289843D01*
X133677166Y-64298798D01*
X133671495Y-64304822D01*
X132168594Y-65038797D01*
X132159657Y-65039349D01*
X132155187Y-65036557D01*
X131813442Y-64694812D01*
X131810015Y-64686539D01*
X131811202Y-64681405D01*
X132002430Y-64289843D01*
X132545178Y-63178502D01*
X132551887Y-63172573D01*
X132560155Y-63172823D01*
G37*
%TD.AperFunction*%
%TD*%
%TA.AperFunction,Conductor*%
%TO.N,Net-(D1-K)*%
G36*
X169708798Y-63172833D02*
G01*
X169714822Y-63178504D01*
X170448797Y-64681405D01*
X170449349Y-64690342D01*
X170446557Y-64694812D01*
X170104812Y-65036557D01*
X170096539Y-65039984D01*
X170091405Y-65038797D01*
X168588504Y-64304822D01*
X168582573Y-64298112D01*
X168582824Y-64289843D01*
X168907438Y-63503783D01*
X168913759Y-63497448D01*
X169699844Y-63172824D01*
X169708798Y-63172833D01*
G37*
%TD.AperFunction*%
%TD*%
%TA.AperFunction,Conductor*%
%TO.N,Net-(D1-K)*%
G36*
X145339812Y-94983442D02*
G01*
X145681557Y-95325187D01*
X145684984Y-95333460D01*
X145683797Y-95338594D01*
X144949822Y-96841495D01*
X144943112Y-96847426D01*
X144934843Y-96847175D01*
X144148785Y-96522562D01*
X144142447Y-96516238D01*
X143817824Y-95730155D01*
X143817833Y-95721201D01*
X143823502Y-95715178D01*
X145326405Y-94981201D01*
X145335342Y-94980650D01*
X145339812Y-94983442D01*
G37*
%TD.AperFunction*%
%TD*%
%TA.AperFunction,Conductor*%
%TO.N,Net-(D1-K)*%
G36*
X157325155Y-55552823D02*
G01*
X158111214Y-55877437D01*
X158117553Y-55883762D01*
X158117562Y-55883785D01*
X158442175Y-56669843D01*
X158442166Y-56678798D01*
X158436495Y-56684822D01*
X156933594Y-57418797D01*
X156924657Y-57419349D01*
X156920187Y-57416557D01*
X156578442Y-57074812D01*
X156575015Y-57066539D01*
X156576202Y-57061405D01*
X156767430Y-56669843D01*
X157310178Y-55558502D01*
X157316887Y-55552573D01*
X157325155Y-55552823D01*
G37*
%TD.AperFunction*%
%TD*%
%TA.AperFunction,Conductor*%
%TO.N,Net-(D1-K)*%
G36*
X156933598Y-94981213D02*
G01*
X158432365Y-95715168D01*
X158438288Y-95721883D01*
X158438029Y-95730151D01*
X158112566Y-96516216D01*
X158106235Y-96522549D01*
X158106212Y-96522558D01*
X157320176Y-96846317D01*
X157311221Y-96846299D01*
X157305194Y-96840608D01*
X157150821Y-96522549D01*
X156576173Y-95338583D01*
X156575645Y-95329645D01*
X156578425Y-95325204D01*
X156920181Y-94983448D01*
X156928453Y-94980022D01*
X156933598Y-94981213D01*
G37*
%TD.AperFunction*%
%TD*%
%TA.AperFunction,Conductor*%
%TO.N,Net-(D1-K)*%
G36*
X142963594Y-94981202D02*
G01*
X144466495Y-95715177D01*
X144472426Y-95721887D01*
X144472175Y-95730156D01*
X144147562Y-96516214D01*
X144141237Y-96522553D01*
X144141214Y-96522562D01*
X143355156Y-96847175D01*
X143346201Y-96847166D01*
X143340177Y-96841495D01*
X142606202Y-95338594D01*
X142605650Y-95329657D01*
X142608440Y-95325189D01*
X142950188Y-94983441D01*
X142958460Y-94980015D01*
X142963594Y-94981202D01*
G37*
%TD.AperFunction*%
%TD*%
%TA.AperFunction,Conductor*%
%TO.N,Net-(D1-K)*%
G36*
X134544812Y-61963442D02*
G01*
X134886557Y-62305187D01*
X134889984Y-62313460D01*
X134888797Y-62318594D01*
X134154822Y-63821495D01*
X134148112Y-63827426D01*
X134139843Y-63827175D01*
X133353785Y-63502562D01*
X133347447Y-63496238D01*
X133022824Y-62710155D01*
X133022833Y-62701201D01*
X133028502Y-62695178D01*
X134531405Y-61961201D01*
X134540342Y-61960650D01*
X134544812Y-61963442D01*
G37*
%TD.AperFunction*%
%TD*%
%TA.AperFunction,Conductor*%
%TO.N,Net-(D1-K)*%
G36*
X172728268Y-76207278D02*
G01*
X172728278Y-76207288D01*
X173513127Y-76993118D01*
X173516549Y-77001393D01*
X173514490Y-77008014D01*
X172973487Y-77794928D01*
X172965976Y-77799804D01*
X172963846Y-77800000D01*
X172476154Y-77800000D01*
X172467881Y-77796573D01*
X172466513Y-77794928D01*
X171925508Y-77008012D01*
X171923646Y-76999256D01*
X171926870Y-76993120D01*
X172711722Y-76207287D01*
X172719993Y-76203856D01*
X172728268Y-76207278D01*
G37*
%TD.AperFunction*%
%TD*%
%TA.AperFunction,Conductor*%
%TO.N,Net-(Q1-C)*%
G36*
X154317349Y-67018047D02*
G01*
X154994211Y-67297437D01*
X155000551Y-67303761D01*
X155000562Y-67303788D01*
X155280528Y-67982046D01*
X155280517Y-67991001D01*
X155274177Y-67997325D01*
X155274128Y-67997345D01*
X154091376Y-68479307D01*
X154082422Y-68479255D01*
X154078688Y-68476745D01*
X153947562Y-68345619D01*
X153944135Y-68337346D01*
X153944547Y-68334272D01*
X154301598Y-67025780D01*
X154307082Y-67018703D01*
X154315965Y-67017575D01*
X154317349Y-67018047D01*
G37*
%TD.AperFunction*%
%TD*%
%TA.AperFunction,Conductor*%
%TO.N,Net-(Q1-C)*%
G36*
X153321246Y-71332269D02*
G01*
X153324431Y-71334532D01*
X153455467Y-71465568D01*
X153458894Y-71473841D01*
X153458242Y-71477693D01*
X153050789Y-72646195D01*
X153044829Y-72652879D01*
X153035889Y-72653391D01*
X153035278Y-72653158D01*
X152403789Y-72392562D01*
X152397449Y-72386239D01*
X152397437Y-72386210D01*
X152136841Y-71754719D01*
X152136853Y-71745766D01*
X152143193Y-71739443D01*
X152143787Y-71739216D01*
X153312307Y-71331757D01*
X153321246Y-71332269D01*
G37*
%TD.AperFunction*%
%TD*%
M02*
