%TF.GenerationSoftware,KiCad,Pcbnew,8.0.5*%
%TF.CreationDate,2024-11-23T09:58:25+09:00*%
%TF.ProjectId,voice4017,766f6963-6534-4303-9137-2e6b69636164,rev?*%
%TF.SameCoordinates,Original*%
%TF.FileFunction,Legend,Bot*%
%TF.FilePolarity,Positive*%
%FSLAX46Y46*%
G04 Gerber Fmt 4.6, Leading zero omitted, Abs format (unit mm)*
G04 Created by KiCad (PCBNEW 8.0.5) date 2024-11-23 09:58:25*
%MOMM*%
%LPD*%
G01*
G04 APERTURE LIST*
%ADD10C,0.100000*%
G04 APERTURE END LIST*
D10*
X134617782Y-84750514D02*
X134474925Y-84821942D01*
X134474925Y-84821942D02*
X134427306Y-84893371D01*
X134427306Y-84893371D02*
X134379687Y-85036228D01*
X134379687Y-85036228D02*
X134379687Y-85250514D01*
X134379687Y-85250514D02*
X134427306Y-85393371D01*
X134427306Y-85393371D02*
X134474925Y-85464800D01*
X134474925Y-85464800D02*
X134570163Y-85536228D01*
X134570163Y-85536228D02*
X134951115Y-85536228D01*
X134951115Y-85536228D02*
X134951115Y-84036228D01*
X134951115Y-84036228D02*
X134617782Y-84036228D01*
X134617782Y-84036228D02*
X134522544Y-84107657D01*
X134522544Y-84107657D02*
X134474925Y-84179085D01*
X134474925Y-84179085D02*
X134427306Y-84321942D01*
X134427306Y-84321942D02*
X134427306Y-84464800D01*
X134427306Y-84464800D02*
X134474925Y-84607657D01*
X134474925Y-84607657D02*
X134522544Y-84679085D01*
X134522544Y-84679085D02*
X134617782Y-84750514D01*
X134617782Y-84750514D02*
X134951115Y-84750514D01*
X133522544Y-85536228D02*
X133522544Y-84750514D01*
X133522544Y-84750514D02*
X133570163Y-84607657D01*
X133570163Y-84607657D02*
X133665401Y-84536228D01*
X133665401Y-84536228D02*
X133855877Y-84536228D01*
X133855877Y-84536228D02*
X133951115Y-84607657D01*
X133522544Y-85464800D02*
X133617782Y-85536228D01*
X133617782Y-85536228D02*
X133855877Y-85536228D01*
X133855877Y-85536228D02*
X133951115Y-85464800D01*
X133951115Y-85464800D02*
X133998734Y-85321942D01*
X133998734Y-85321942D02*
X133998734Y-85179085D01*
X133998734Y-85179085D02*
X133951115Y-85036228D01*
X133951115Y-85036228D02*
X133855877Y-84964800D01*
X133855877Y-84964800D02*
X133617782Y-84964800D01*
X133617782Y-84964800D02*
X133522544Y-84893371D01*
X133189210Y-84536228D02*
X132808258Y-84536228D01*
X133046353Y-84036228D02*
X133046353Y-85321942D01*
X133046353Y-85321942D02*
X132998734Y-85464800D01*
X132998734Y-85464800D02*
X132903496Y-85536228D01*
X132903496Y-85536228D02*
X132808258Y-85536228D01*
X132617781Y-84536228D02*
X132236829Y-84536228D01*
X132474924Y-84036228D02*
X132474924Y-85321942D01*
X132474924Y-85321942D02*
X132427305Y-85464800D01*
X132427305Y-85464800D02*
X132332067Y-85536228D01*
X132332067Y-85536228D02*
X132236829Y-85536228D01*
X131903495Y-85393371D02*
X131855876Y-85464800D01*
X131855876Y-85464800D02*
X131903495Y-85536228D01*
X131903495Y-85536228D02*
X131951114Y-85464800D01*
X131951114Y-85464800D02*
X131903495Y-85393371D01*
X131903495Y-85393371D02*
X131903495Y-85536228D01*
X131903495Y-84607657D02*
X131855876Y-84679085D01*
X131855876Y-84679085D02*
X131903495Y-84750514D01*
X131903495Y-84750514D02*
X131951114Y-84679085D01*
X131951114Y-84679085D02*
X131903495Y-84607657D01*
X131903495Y-84607657D02*
X131903495Y-84750514D01*
X131474924Y-84179085D02*
X131427305Y-84107657D01*
X131427305Y-84107657D02*
X131332067Y-84036228D01*
X131332067Y-84036228D02*
X131093972Y-84036228D01*
X131093972Y-84036228D02*
X130998734Y-84107657D01*
X130998734Y-84107657D02*
X130951115Y-84179085D01*
X130951115Y-84179085D02*
X130903496Y-84321942D01*
X130903496Y-84321942D02*
X130903496Y-84464800D01*
X130903496Y-84464800D02*
X130951115Y-84679085D01*
X130951115Y-84679085D02*
X131522543Y-85536228D01*
X131522543Y-85536228D02*
X130903496Y-85536228D01*
X130570162Y-84036228D02*
X129951115Y-84036228D01*
X129951115Y-84036228D02*
X130284448Y-84607657D01*
X130284448Y-84607657D02*
X130141591Y-84607657D01*
X130141591Y-84607657D02*
X130046353Y-84679085D01*
X130046353Y-84679085D02*
X129998734Y-84750514D01*
X129998734Y-84750514D02*
X129951115Y-84893371D01*
X129951115Y-84893371D02*
X129951115Y-85250514D01*
X129951115Y-85250514D02*
X129998734Y-85393371D01*
X129998734Y-85393371D02*
X130046353Y-85464800D01*
X130046353Y-85464800D02*
X130141591Y-85536228D01*
X130141591Y-85536228D02*
X130427305Y-85536228D01*
X130427305Y-85536228D02*
X130522543Y-85464800D01*
X130522543Y-85464800D02*
X130570162Y-85393371D01*
X129570162Y-85107657D02*
X129093972Y-85107657D01*
X129665400Y-85536228D02*
X129332067Y-84036228D01*
X129332067Y-84036228D02*
X128998734Y-85536228D01*
X170180000Y-86360000D02*
X170180000Y-100330000D01*
X134620000Y-86360000D02*
X134620000Y-100330000D01*
X170180000Y-86360000D02*
X134620000Y-86360000D01*
X168812544Y-55335920D02*
X168812544Y-56002587D01*
X169050639Y-54954968D02*
X169288734Y-55669253D01*
X169288734Y-55669253D02*
X168669687Y-55669253D01*
X167526829Y-56002587D02*
X167526829Y-55002587D01*
X167526829Y-55383539D02*
X167431591Y-55335920D01*
X167431591Y-55335920D02*
X167241115Y-55335920D01*
X167241115Y-55335920D02*
X167145877Y-55383539D01*
X167145877Y-55383539D02*
X167098258Y-55431158D01*
X167098258Y-55431158D02*
X167050639Y-55526396D01*
X167050639Y-55526396D02*
X167050639Y-55812110D01*
X167050639Y-55812110D02*
X167098258Y-55907348D01*
X167098258Y-55907348D02*
X167145877Y-55954968D01*
X167145877Y-55954968D02*
X167241115Y-56002587D01*
X167241115Y-56002587D02*
X167431591Y-56002587D01*
X167431591Y-56002587D02*
X167526829Y-55954968D01*
X166193496Y-56002587D02*
X166193496Y-55478777D01*
X166193496Y-55478777D02*
X166241115Y-55383539D01*
X166241115Y-55383539D02*
X166336353Y-55335920D01*
X166336353Y-55335920D02*
X166526829Y-55335920D01*
X166526829Y-55335920D02*
X166622067Y-55383539D01*
X166193496Y-55954968D02*
X166288734Y-56002587D01*
X166288734Y-56002587D02*
X166526829Y-56002587D01*
X166526829Y-56002587D02*
X166622067Y-55954968D01*
X166622067Y-55954968D02*
X166669686Y-55859729D01*
X166669686Y-55859729D02*
X166669686Y-55764491D01*
X166669686Y-55764491D02*
X166622067Y-55669253D01*
X166622067Y-55669253D02*
X166526829Y-55621634D01*
X166526829Y-55621634D02*
X166288734Y-55621634D01*
X166288734Y-55621634D02*
X166193496Y-55574015D01*
X165717305Y-55335920D02*
X165717305Y-56002587D01*
X165717305Y-55431158D02*
X165669686Y-55383539D01*
X165669686Y-55383539D02*
X165574448Y-55335920D01*
X165574448Y-55335920D02*
X165431591Y-55335920D01*
X165431591Y-55335920D02*
X165336353Y-55383539D01*
X165336353Y-55383539D02*
X165288734Y-55478777D01*
X165288734Y-55478777D02*
X165288734Y-56002587D01*
X164383972Y-56002587D02*
X164383972Y-55002587D01*
X164383972Y-55954968D02*
X164479210Y-56002587D01*
X164479210Y-56002587D02*
X164669686Y-56002587D01*
X164669686Y-56002587D02*
X164764924Y-55954968D01*
X164764924Y-55954968D02*
X164812543Y-55907348D01*
X164812543Y-55907348D02*
X164860162Y-55812110D01*
X164860162Y-55812110D02*
X164860162Y-55526396D01*
X164860162Y-55526396D02*
X164812543Y-55431158D01*
X164812543Y-55431158D02*
X164764924Y-55383539D01*
X164764924Y-55383539D02*
X164669686Y-55335920D01*
X164669686Y-55335920D02*
X164479210Y-55335920D01*
X164479210Y-55335920D02*
X164383972Y-55383539D01*
X168907782Y-57088721D02*
X168764925Y-57136340D01*
X168764925Y-57136340D02*
X168717306Y-57183959D01*
X168717306Y-57183959D02*
X168669687Y-57279197D01*
X168669687Y-57279197D02*
X168669687Y-57422054D01*
X168669687Y-57422054D02*
X168717306Y-57517292D01*
X168717306Y-57517292D02*
X168764925Y-57564912D01*
X168764925Y-57564912D02*
X168860163Y-57612531D01*
X168860163Y-57612531D02*
X169241115Y-57612531D01*
X169241115Y-57612531D02*
X169241115Y-56612531D01*
X169241115Y-56612531D02*
X168907782Y-56612531D01*
X168907782Y-56612531D02*
X168812544Y-56660150D01*
X168812544Y-56660150D02*
X168764925Y-56707769D01*
X168764925Y-56707769D02*
X168717306Y-56803007D01*
X168717306Y-56803007D02*
X168717306Y-56898245D01*
X168717306Y-56898245D02*
X168764925Y-56993483D01*
X168764925Y-56993483D02*
X168812544Y-57041102D01*
X168812544Y-57041102D02*
X168907782Y-57088721D01*
X168907782Y-57088721D02*
X169241115Y-57088721D01*
X168241115Y-57612531D02*
X168241115Y-56945864D01*
X168241115Y-57136340D02*
X168193496Y-57041102D01*
X168193496Y-57041102D02*
X168145877Y-56993483D01*
X168145877Y-56993483D02*
X168050639Y-56945864D01*
X168050639Y-56945864D02*
X167955401Y-56945864D01*
X166526829Y-57088721D02*
X166383972Y-57136340D01*
X166383972Y-57136340D02*
X166336353Y-57183959D01*
X166336353Y-57183959D02*
X166288734Y-57279197D01*
X166288734Y-57279197D02*
X166288734Y-57422054D01*
X166288734Y-57422054D02*
X166336353Y-57517292D01*
X166336353Y-57517292D02*
X166383972Y-57564912D01*
X166383972Y-57564912D02*
X166479210Y-57612531D01*
X166479210Y-57612531D02*
X166860162Y-57612531D01*
X166860162Y-57612531D02*
X166860162Y-56612531D01*
X166860162Y-56612531D02*
X166526829Y-56612531D01*
X166526829Y-56612531D02*
X166431591Y-56660150D01*
X166431591Y-56660150D02*
X166383972Y-56707769D01*
X166383972Y-56707769D02*
X166336353Y-56803007D01*
X166336353Y-56803007D02*
X166336353Y-56898245D01*
X166336353Y-56898245D02*
X166383972Y-56993483D01*
X166383972Y-56993483D02*
X166431591Y-57041102D01*
X166431591Y-57041102D02*
X166526829Y-57088721D01*
X166526829Y-57088721D02*
X166860162Y-57088721D01*
X165717305Y-57612531D02*
X165812543Y-57564912D01*
X165812543Y-57564912D02*
X165860162Y-57469673D01*
X165860162Y-57469673D02*
X165860162Y-56612531D01*
X164003019Y-57612531D02*
X164336352Y-57136340D01*
X164574447Y-57612531D02*
X164574447Y-56612531D01*
X164574447Y-56612531D02*
X164193495Y-56612531D01*
X164193495Y-56612531D02*
X164098257Y-56660150D01*
X164098257Y-56660150D02*
X164050638Y-56707769D01*
X164050638Y-56707769D02*
X164003019Y-56803007D01*
X164003019Y-56803007D02*
X164003019Y-56945864D01*
X164003019Y-56945864D02*
X164050638Y-57041102D01*
X164050638Y-57041102D02*
X164098257Y-57088721D01*
X164098257Y-57088721D02*
X164193495Y-57136340D01*
X164193495Y-57136340D02*
X164574447Y-57136340D01*
X162288733Y-56660150D02*
X162383971Y-56612531D01*
X162383971Y-56612531D02*
X162526828Y-56612531D01*
X162526828Y-56612531D02*
X162669685Y-56660150D01*
X162669685Y-56660150D02*
X162764923Y-56755388D01*
X162764923Y-56755388D02*
X162812542Y-56850626D01*
X162812542Y-56850626D02*
X162860161Y-57041102D01*
X162860161Y-57041102D02*
X162860161Y-57183959D01*
X162860161Y-57183959D02*
X162812542Y-57374435D01*
X162812542Y-57374435D02*
X162764923Y-57469673D01*
X162764923Y-57469673D02*
X162669685Y-57564912D01*
X162669685Y-57564912D02*
X162526828Y-57612531D01*
X162526828Y-57612531D02*
X162431590Y-57612531D01*
X162431590Y-57612531D02*
X162288733Y-57564912D01*
X162288733Y-57564912D02*
X162241114Y-57517292D01*
X162241114Y-57517292D02*
X162241114Y-57183959D01*
X162241114Y-57183959D02*
X162431590Y-57183959D01*
X168717306Y-59222475D02*
X169288734Y-59222475D01*
X169003020Y-59222475D02*
X169003020Y-58222475D01*
X169003020Y-58222475D02*
X169098258Y-58365332D01*
X169098258Y-58365332D02*
X169193496Y-58460570D01*
X169193496Y-58460570D02*
X169288734Y-58508189D01*
X168098258Y-58222475D02*
X168003020Y-58222475D01*
X168003020Y-58222475D02*
X167907782Y-58270094D01*
X167907782Y-58270094D02*
X167860163Y-58317713D01*
X167860163Y-58317713D02*
X167812544Y-58412951D01*
X167812544Y-58412951D02*
X167764925Y-58603427D01*
X167764925Y-58603427D02*
X167764925Y-58841522D01*
X167764925Y-58841522D02*
X167812544Y-59031998D01*
X167812544Y-59031998D02*
X167860163Y-59127236D01*
X167860163Y-59127236D02*
X167907782Y-59174856D01*
X167907782Y-59174856D02*
X168003020Y-59222475D01*
X168003020Y-59222475D02*
X168098258Y-59222475D01*
X168098258Y-59222475D02*
X168193496Y-59174856D01*
X168193496Y-59174856D02*
X168241115Y-59127236D01*
X168241115Y-59127236D02*
X168288734Y-59031998D01*
X168288734Y-59031998D02*
X168336353Y-58841522D01*
X168336353Y-58841522D02*
X168336353Y-58603427D01*
X168336353Y-58603427D02*
X168288734Y-58412951D01*
X168288734Y-58412951D02*
X168241115Y-58317713D01*
X168241115Y-58317713D02*
X168193496Y-58270094D01*
X168193496Y-58270094D02*
X168098258Y-58222475D01*
X167383972Y-58317713D02*
X167336353Y-58270094D01*
X167336353Y-58270094D02*
X167241115Y-58222475D01*
X167241115Y-58222475D02*
X167003020Y-58222475D01*
X167003020Y-58222475D02*
X166907782Y-58270094D01*
X166907782Y-58270094D02*
X166860163Y-58317713D01*
X166860163Y-58317713D02*
X166812544Y-58412951D01*
X166812544Y-58412951D02*
X166812544Y-58508189D01*
X166812544Y-58508189D02*
X166860163Y-58651046D01*
X166860163Y-58651046D02*
X167431591Y-59222475D01*
X167431591Y-59222475D02*
X166812544Y-59222475D01*
X165622067Y-58698665D02*
X164860163Y-58698665D01*
X164860163Y-58984379D02*
X165622067Y-58984379D01*
X163098258Y-59222475D02*
X163669686Y-59222475D01*
X163383972Y-59222475D02*
X163383972Y-58222475D01*
X163383972Y-58222475D02*
X163479210Y-58365332D01*
X163479210Y-58365332D02*
X163574448Y-58460570D01*
X163574448Y-58460570D02*
X163669686Y-58508189D01*
X162479210Y-58222475D02*
X162383972Y-58222475D01*
X162383972Y-58222475D02*
X162288734Y-58270094D01*
X162288734Y-58270094D02*
X162241115Y-58317713D01*
X162241115Y-58317713D02*
X162193496Y-58412951D01*
X162193496Y-58412951D02*
X162145877Y-58603427D01*
X162145877Y-58603427D02*
X162145877Y-58841522D01*
X162145877Y-58841522D02*
X162193496Y-59031998D01*
X162193496Y-59031998D02*
X162241115Y-59127236D01*
X162241115Y-59127236D02*
X162288734Y-59174856D01*
X162288734Y-59174856D02*
X162383972Y-59222475D01*
X162383972Y-59222475D02*
X162479210Y-59222475D01*
X162479210Y-59222475D02*
X162574448Y-59174856D01*
X162574448Y-59174856D02*
X162622067Y-59127236D01*
X162622067Y-59127236D02*
X162669686Y-59031998D01*
X162669686Y-59031998D02*
X162717305Y-58841522D01*
X162717305Y-58841522D02*
X162717305Y-58603427D01*
X162717305Y-58603427D02*
X162669686Y-58412951D01*
X162669686Y-58412951D02*
X162622067Y-58317713D01*
X162622067Y-58317713D02*
X162574448Y-58270094D01*
X162574448Y-58270094D02*
X162479210Y-58222475D01*
X161526829Y-58222475D02*
X161431591Y-58222475D01*
X161431591Y-58222475D02*
X161336353Y-58270094D01*
X161336353Y-58270094D02*
X161288734Y-58317713D01*
X161288734Y-58317713D02*
X161241115Y-58412951D01*
X161241115Y-58412951D02*
X161193496Y-58603427D01*
X161193496Y-58603427D02*
X161193496Y-58841522D01*
X161193496Y-58841522D02*
X161241115Y-59031998D01*
X161241115Y-59031998D02*
X161288734Y-59127236D01*
X161288734Y-59127236D02*
X161336353Y-59174856D01*
X161336353Y-59174856D02*
X161431591Y-59222475D01*
X161431591Y-59222475D02*
X161526829Y-59222475D01*
X161526829Y-59222475D02*
X161622067Y-59174856D01*
X161622067Y-59174856D02*
X161669686Y-59127236D01*
X161669686Y-59127236D02*
X161717305Y-59031998D01*
X161717305Y-59031998D02*
X161764924Y-58841522D01*
X161764924Y-58841522D02*
X161764924Y-58603427D01*
X161764924Y-58603427D02*
X161717305Y-58412951D01*
X161717305Y-58412951D02*
X161669686Y-58317713D01*
X161669686Y-58317713D02*
X161622067Y-58270094D01*
X161622067Y-58270094D02*
X161526829Y-58222475D01*
X160574448Y-58222475D02*
X160479210Y-58222475D01*
X160479210Y-58222475D02*
X160383972Y-58270094D01*
X160383972Y-58270094D02*
X160336353Y-58317713D01*
X160336353Y-58317713D02*
X160288734Y-58412951D01*
X160288734Y-58412951D02*
X160241115Y-58603427D01*
X160241115Y-58603427D02*
X160241115Y-58841522D01*
X160241115Y-58841522D02*
X160288734Y-59031998D01*
X160288734Y-59031998D02*
X160336353Y-59127236D01*
X160336353Y-59127236D02*
X160383972Y-59174856D01*
X160383972Y-59174856D02*
X160479210Y-59222475D01*
X160479210Y-59222475D02*
X160574448Y-59222475D01*
X160574448Y-59222475D02*
X160669686Y-59174856D01*
X160669686Y-59174856D02*
X160717305Y-59127236D01*
X160717305Y-59127236D02*
X160764924Y-59031998D01*
X160764924Y-59031998D02*
X160812543Y-58841522D01*
X160812543Y-58841522D02*
X160812543Y-58603427D01*
X160812543Y-58603427D02*
X160764924Y-58412951D01*
X160764924Y-58412951D02*
X160717305Y-58317713D01*
X160717305Y-58317713D02*
X160669686Y-58270094D01*
X160669686Y-58270094D02*
X160574448Y-58222475D01*
X168717306Y-60832419D02*
X169288734Y-60832419D01*
X169003020Y-60832419D02*
X169003020Y-59832419D01*
X169003020Y-59832419D02*
X169098258Y-59975276D01*
X169098258Y-59975276D02*
X169193496Y-60070514D01*
X169193496Y-60070514D02*
X169288734Y-60118133D01*
X168288734Y-60832419D02*
X168288734Y-59832419D01*
X168193496Y-60451466D02*
X167907782Y-60832419D01*
X167907782Y-60165752D02*
X168288734Y-60546704D01*
X166241115Y-59832419D02*
X166717305Y-59832419D01*
X166717305Y-59832419D02*
X166764924Y-60308609D01*
X166764924Y-60308609D02*
X166717305Y-60260990D01*
X166717305Y-60260990D02*
X166622067Y-60213371D01*
X166622067Y-60213371D02*
X166383972Y-60213371D01*
X166383972Y-60213371D02*
X166288734Y-60260990D01*
X166288734Y-60260990D02*
X166241115Y-60308609D01*
X166241115Y-60308609D02*
X166193496Y-60403847D01*
X166193496Y-60403847D02*
X166193496Y-60641942D01*
X166193496Y-60641942D02*
X166241115Y-60737180D01*
X166241115Y-60737180D02*
X166288734Y-60784800D01*
X166288734Y-60784800D02*
X166383972Y-60832419D01*
X166383972Y-60832419D02*
X166622067Y-60832419D01*
X166622067Y-60832419D02*
X166717305Y-60784800D01*
X166717305Y-60784800D02*
X166764924Y-60737180D01*
X165812543Y-60832419D02*
X165050639Y-59832419D01*
X165669686Y-59832419D02*
X165574448Y-59880038D01*
X165574448Y-59880038D02*
X165526829Y-59975276D01*
X165526829Y-59975276D02*
X165574448Y-60070514D01*
X165574448Y-60070514D02*
X165669686Y-60118133D01*
X165669686Y-60118133D02*
X165764924Y-60070514D01*
X165764924Y-60070514D02*
X165812543Y-59975276D01*
X165812543Y-59975276D02*
X165764924Y-59880038D01*
X165764924Y-59880038D02*
X165669686Y-59832419D01*
X165098258Y-60784800D02*
X165050639Y-60689561D01*
X165050639Y-60689561D02*
X165098258Y-60594323D01*
X165098258Y-60594323D02*
X165193496Y-60546704D01*
X165193496Y-60546704D02*
X165288734Y-60594323D01*
X165288734Y-60594323D02*
X165336353Y-60689561D01*
X165336353Y-60689561D02*
X165288734Y-60784800D01*
X165288734Y-60784800D02*
X165193496Y-60832419D01*
X165193496Y-60832419D02*
X165098258Y-60784800D01*
X168717306Y-75732475D02*
X169288734Y-75732475D01*
X169003020Y-75732475D02*
X169003020Y-74732475D01*
X169003020Y-74732475D02*
X169098258Y-74875332D01*
X169098258Y-74875332D02*
X169193496Y-74970570D01*
X169193496Y-74970570D02*
X169288734Y-75018189D01*
X168336353Y-75732475D02*
X167574449Y-74732475D01*
X168193496Y-74732475D02*
X168098258Y-74780094D01*
X168098258Y-74780094D02*
X168050639Y-74875332D01*
X168050639Y-74875332D02*
X168098258Y-74970570D01*
X168098258Y-74970570D02*
X168193496Y-75018189D01*
X168193496Y-75018189D02*
X168288734Y-74970570D01*
X168288734Y-74970570D02*
X168336353Y-74875332D01*
X168336353Y-74875332D02*
X168288734Y-74780094D01*
X168288734Y-74780094D02*
X168193496Y-74732475D01*
X167622068Y-75684856D02*
X167574449Y-75589617D01*
X167574449Y-75589617D02*
X167622068Y-75494379D01*
X167622068Y-75494379D02*
X167717306Y-75446760D01*
X167717306Y-75446760D02*
X167812544Y-75494379D01*
X167812544Y-75494379D02*
X167860163Y-75589617D01*
X167860163Y-75589617D02*
X167812544Y-75684856D01*
X167812544Y-75684856D02*
X167717306Y-75732475D01*
X167717306Y-75732475D02*
X167622068Y-75684856D01*
X166050639Y-75208665D02*
X165907782Y-75256284D01*
X165907782Y-75256284D02*
X165860163Y-75303903D01*
X165860163Y-75303903D02*
X165812544Y-75399141D01*
X165812544Y-75399141D02*
X165812544Y-75541998D01*
X165812544Y-75541998D02*
X165860163Y-75637236D01*
X165860163Y-75637236D02*
X165907782Y-75684856D01*
X165907782Y-75684856D02*
X166003020Y-75732475D01*
X166003020Y-75732475D02*
X166383972Y-75732475D01*
X166383972Y-75732475D02*
X166383972Y-74732475D01*
X166383972Y-74732475D02*
X166050639Y-74732475D01*
X166050639Y-74732475D02*
X165955401Y-74780094D01*
X165955401Y-74780094D02*
X165907782Y-74827713D01*
X165907782Y-74827713D02*
X165860163Y-74922951D01*
X165860163Y-74922951D02*
X165860163Y-75018189D01*
X165860163Y-75018189D02*
X165907782Y-75113427D01*
X165907782Y-75113427D02*
X165955401Y-75161046D01*
X165955401Y-75161046D02*
X166050639Y-75208665D01*
X166050639Y-75208665D02*
X166383972Y-75208665D01*
X165383972Y-75732475D02*
X165383972Y-75065808D01*
X165383972Y-75256284D02*
X165336353Y-75161046D01*
X165336353Y-75161046D02*
X165288734Y-75113427D01*
X165288734Y-75113427D02*
X165193496Y-75065808D01*
X165193496Y-75065808D02*
X165098258Y-75065808D01*
X164622067Y-75732475D02*
X164717305Y-75684856D01*
X164717305Y-75684856D02*
X164764924Y-75637236D01*
X164764924Y-75637236D02*
X164812543Y-75541998D01*
X164812543Y-75541998D02*
X164812543Y-75256284D01*
X164812543Y-75256284D02*
X164764924Y-75161046D01*
X164764924Y-75161046D02*
X164717305Y-75113427D01*
X164717305Y-75113427D02*
X164622067Y-75065808D01*
X164622067Y-75065808D02*
X164479210Y-75065808D01*
X164479210Y-75065808D02*
X164383972Y-75113427D01*
X164383972Y-75113427D02*
X164336353Y-75161046D01*
X164336353Y-75161046D02*
X164288734Y-75256284D01*
X164288734Y-75256284D02*
X164288734Y-75541998D01*
X164288734Y-75541998D02*
X164336353Y-75637236D01*
X164336353Y-75637236D02*
X164383972Y-75684856D01*
X164383972Y-75684856D02*
X164479210Y-75732475D01*
X164479210Y-75732475D02*
X164622067Y-75732475D01*
X163955400Y-75065808D02*
X163764924Y-75732475D01*
X163764924Y-75732475D02*
X163574448Y-75256284D01*
X163574448Y-75256284D02*
X163383972Y-75732475D01*
X163383972Y-75732475D02*
X163193496Y-75065808D01*
X162812543Y-75065808D02*
X162812543Y-75732475D01*
X162812543Y-75161046D02*
X162764924Y-75113427D01*
X162764924Y-75113427D02*
X162669686Y-75065808D01*
X162669686Y-75065808D02*
X162526829Y-75065808D01*
X162526829Y-75065808D02*
X162431591Y-75113427D01*
X162431591Y-75113427D02*
X162383972Y-75208665D01*
X162383972Y-75208665D02*
X162383972Y-75732475D01*
X168764925Y-76342419D02*
X169241115Y-76342419D01*
X169241115Y-76342419D02*
X169288734Y-76818609D01*
X169288734Y-76818609D02*
X169241115Y-76770990D01*
X169241115Y-76770990D02*
X169145877Y-76723371D01*
X169145877Y-76723371D02*
X168907782Y-76723371D01*
X168907782Y-76723371D02*
X168812544Y-76770990D01*
X168812544Y-76770990D02*
X168764925Y-76818609D01*
X168764925Y-76818609D02*
X168717306Y-76913847D01*
X168717306Y-76913847D02*
X168717306Y-77151942D01*
X168717306Y-77151942D02*
X168764925Y-77247180D01*
X168764925Y-77247180D02*
X168812544Y-77294800D01*
X168812544Y-77294800D02*
X168907782Y-77342419D01*
X168907782Y-77342419D02*
X169145877Y-77342419D01*
X169145877Y-77342419D02*
X169241115Y-77294800D01*
X169241115Y-77294800D02*
X169288734Y-77247180D01*
X168336353Y-77342419D02*
X167574449Y-76342419D01*
X168193496Y-76342419D02*
X168098258Y-76390038D01*
X168098258Y-76390038D02*
X168050639Y-76485276D01*
X168050639Y-76485276D02*
X168098258Y-76580514D01*
X168098258Y-76580514D02*
X168193496Y-76628133D01*
X168193496Y-76628133D02*
X168288734Y-76580514D01*
X168288734Y-76580514D02*
X168336353Y-76485276D01*
X168336353Y-76485276D02*
X168288734Y-76390038D01*
X168288734Y-76390038D02*
X168193496Y-76342419D01*
X167622068Y-77294800D02*
X167574449Y-77199561D01*
X167574449Y-77199561D02*
X167622068Y-77104323D01*
X167622068Y-77104323D02*
X167717306Y-77056704D01*
X167717306Y-77056704D02*
X167812544Y-77104323D01*
X167812544Y-77104323D02*
X167860163Y-77199561D01*
X167860163Y-77199561D02*
X167812544Y-77294800D01*
X167812544Y-77294800D02*
X167717306Y-77342419D01*
X167717306Y-77342419D02*
X167622068Y-77294800D01*
X165860163Y-76390038D02*
X165955401Y-76342419D01*
X165955401Y-76342419D02*
X166098258Y-76342419D01*
X166098258Y-76342419D02*
X166241115Y-76390038D01*
X166241115Y-76390038D02*
X166336353Y-76485276D01*
X166336353Y-76485276D02*
X166383972Y-76580514D01*
X166383972Y-76580514D02*
X166431591Y-76770990D01*
X166431591Y-76770990D02*
X166431591Y-76913847D01*
X166431591Y-76913847D02*
X166383972Y-77104323D01*
X166383972Y-77104323D02*
X166336353Y-77199561D01*
X166336353Y-77199561D02*
X166241115Y-77294800D01*
X166241115Y-77294800D02*
X166098258Y-77342419D01*
X166098258Y-77342419D02*
X166003020Y-77342419D01*
X166003020Y-77342419D02*
X165860163Y-77294800D01*
X165860163Y-77294800D02*
X165812544Y-77247180D01*
X165812544Y-77247180D02*
X165812544Y-76913847D01*
X165812544Y-76913847D02*
X166003020Y-76913847D01*
X165241115Y-77342419D02*
X165336353Y-77294800D01*
X165336353Y-77294800D02*
X165383972Y-77247180D01*
X165383972Y-77247180D02*
X165431591Y-77151942D01*
X165431591Y-77151942D02*
X165431591Y-76866228D01*
X165431591Y-76866228D02*
X165383972Y-76770990D01*
X165383972Y-76770990D02*
X165336353Y-76723371D01*
X165336353Y-76723371D02*
X165241115Y-76675752D01*
X165241115Y-76675752D02*
X165098258Y-76675752D01*
X165098258Y-76675752D02*
X165003020Y-76723371D01*
X165003020Y-76723371D02*
X164955401Y-76770990D01*
X164955401Y-76770990D02*
X164907782Y-76866228D01*
X164907782Y-76866228D02*
X164907782Y-77151942D01*
X164907782Y-77151942D02*
X164955401Y-77247180D01*
X164955401Y-77247180D02*
X165003020Y-77294800D01*
X165003020Y-77294800D02*
X165098258Y-77342419D01*
X165098258Y-77342419D02*
X165241115Y-77342419D01*
X164336353Y-77342419D02*
X164431591Y-77294800D01*
X164431591Y-77294800D02*
X164479210Y-77199561D01*
X164479210Y-77199561D02*
X164479210Y-76342419D01*
X163526829Y-77342419D02*
X163526829Y-76342419D01*
X163526829Y-77294800D02*
X163622067Y-77342419D01*
X163622067Y-77342419D02*
X163812543Y-77342419D01*
X163812543Y-77342419D02*
X163907781Y-77294800D01*
X163907781Y-77294800D02*
X163955400Y-77247180D01*
X163955400Y-77247180D02*
X164003019Y-77151942D01*
X164003019Y-77151942D02*
X164003019Y-76866228D01*
X164003019Y-76866228D02*
X163955400Y-76770990D01*
X163955400Y-76770990D02*
X163907781Y-76723371D01*
X163907781Y-76723371D02*
X163812543Y-76675752D01*
X163812543Y-76675752D02*
X163622067Y-76675752D01*
X163622067Y-76675752D02*
X163526829Y-76723371D01*
X165589925Y-66092643D02*
X166066115Y-66092643D01*
X166066115Y-66092643D02*
X166113734Y-66568833D01*
X166113734Y-66568833D02*
X166066115Y-66521214D01*
X166066115Y-66521214D02*
X165970877Y-66473595D01*
X165970877Y-66473595D02*
X165732782Y-66473595D01*
X165732782Y-66473595D02*
X165637544Y-66521214D01*
X165637544Y-66521214D02*
X165589925Y-66568833D01*
X165589925Y-66568833D02*
X165542306Y-66664071D01*
X165542306Y-66664071D02*
X165542306Y-66902166D01*
X165542306Y-66902166D02*
X165589925Y-66997404D01*
X165589925Y-66997404D02*
X165637544Y-67045024D01*
X165637544Y-67045024D02*
X165732782Y-67092643D01*
X165732782Y-67092643D02*
X165970877Y-67092643D01*
X165970877Y-67092643D02*
X166066115Y-67045024D01*
X166066115Y-67045024D02*
X166113734Y-66997404D01*
X163828020Y-66140262D02*
X163923258Y-66092643D01*
X163923258Y-66092643D02*
X164066115Y-66092643D01*
X164066115Y-66092643D02*
X164208972Y-66140262D01*
X164208972Y-66140262D02*
X164304210Y-66235500D01*
X164304210Y-66235500D02*
X164351829Y-66330738D01*
X164351829Y-66330738D02*
X164399448Y-66521214D01*
X164399448Y-66521214D02*
X164399448Y-66664071D01*
X164399448Y-66664071D02*
X164351829Y-66854547D01*
X164351829Y-66854547D02*
X164304210Y-66949785D01*
X164304210Y-66949785D02*
X164208972Y-67045024D01*
X164208972Y-67045024D02*
X164066115Y-67092643D01*
X164066115Y-67092643D02*
X163970877Y-67092643D01*
X163970877Y-67092643D02*
X163828020Y-67045024D01*
X163828020Y-67045024D02*
X163780401Y-66997404D01*
X163780401Y-66997404D02*
X163780401Y-66664071D01*
X163780401Y-66664071D02*
X163970877Y-66664071D01*
X163351829Y-67092643D02*
X163351829Y-66425976D01*
X163351829Y-66616452D02*
X163304210Y-66521214D01*
X163304210Y-66521214D02*
X163256591Y-66473595D01*
X163256591Y-66473595D02*
X163161353Y-66425976D01*
X163161353Y-66425976D02*
X163066115Y-66425976D01*
X162351829Y-67045024D02*
X162447067Y-67092643D01*
X162447067Y-67092643D02*
X162637543Y-67092643D01*
X162637543Y-67092643D02*
X162732781Y-67045024D01*
X162732781Y-67045024D02*
X162780400Y-66949785D01*
X162780400Y-66949785D02*
X162780400Y-66568833D01*
X162780400Y-66568833D02*
X162732781Y-66473595D01*
X162732781Y-66473595D02*
X162637543Y-66425976D01*
X162637543Y-66425976D02*
X162447067Y-66425976D01*
X162447067Y-66425976D02*
X162351829Y-66473595D01*
X162351829Y-66473595D02*
X162304210Y-66568833D01*
X162304210Y-66568833D02*
X162304210Y-66664071D01*
X162304210Y-66664071D02*
X162780400Y-66759309D01*
X161494686Y-67045024D02*
X161589924Y-67092643D01*
X161589924Y-67092643D02*
X161780400Y-67092643D01*
X161780400Y-67092643D02*
X161875638Y-67045024D01*
X161875638Y-67045024D02*
X161923257Y-66949785D01*
X161923257Y-66949785D02*
X161923257Y-66568833D01*
X161923257Y-66568833D02*
X161875638Y-66473595D01*
X161875638Y-66473595D02*
X161780400Y-66425976D01*
X161780400Y-66425976D02*
X161589924Y-66425976D01*
X161589924Y-66425976D02*
X161494686Y-66473595D01*
X161494686Y-66473595D02*
X161447067Y-66568833D01*
X161447067Y-66568833D02*
X161447067Y-66664071D01*
X161447067Y-66664071D02*
X161923257Y-66759309D01*
X161018495Y-66425976D02*
X161018495Y-67092643D01*
X161018495Y-66521214D02*
X160970876Y-66473595D01*
X160970876Y-66473595D02*
X160875638Y-66425976D01*
X160875638Y-66425976D02*
X160732781Y-66425976D01*
X160732781Y-66425976D02*
X160637543Y-66473595D01*
X160637543Y-66473595D02*
X160589924Y-66568833D01*
X160589924Y-66568833D02*
X160589924Y-67092643D01*
X165637544Y-67702587D02*
X165828020Y-67702587D01*
X165828020Y-67702587D02*
X165923258Y-67750206D01*
X165923258Y-67750206D02*
X165970877Y-67797825D01*
X165970877Y-67797825D02*
X166066115Y-67940682D01*
X166066115Y-67940682D02*
X166113734Y-68131158D01*
X166113734Y-68131158D02*
X166113734Y-68512110D01*
X166113734Y-68512110D02*
X166066115Y-68607348D01*
X166066115Y-68607348D02*
X166018496Y-68654968D01*
X166018496Y-68654968D02*
X165923258Y-68702587D01*
X165923258Y-68702587D02*
X165732782Y-68702587D01*
X165732782Y-68702587D02*
X165637544Y-68654968D01*
X165637544Y-68654968D02*
X165589925Y-68607348D01*
X165589925Y-68607348D02*
X165542306Y-68512110D01*
X165542306Y-68512110D02*
X165542306Y-68274015D01*
X165542306Y-68274015D02*
X165589925Y-68178777D01*
X165589925Y-68178777D02*
X165637544Y-68131158D01*
X165637544Y-68131158D02*
X165732782Y-68083539D01*
X165732782Y-68083539D02*
X165923258Y-68083539D01*
X165923258Y-68083539D02*
X166018496Y-68131158D01*
X166018496Y-68131158D02*
X166066115Y-68178777D01*
X166066115Y-68178777D02*
X166113734Y-68274015D01*
X164018496Y-68178777D02*
X163875639Y-68226396D01*
X163875639Y-68226396D02*
X163828020Y-68274015D01*
X163828020Y-68274015D02*
X163780401Y-68369253D01*
X163780401Y-68369253D02*
X163780401Y-68512110D01*
X163780401Y-68512110D02*
X163828020Y-68607348D01*
X163828020Y-68607348D02*
X163875639Y-68654968D01*
X163875639Y-68654968D02*
X163970877Y-68702587D01*
X163970877Y-68702587D02*
X164351829Y-68702587D01*
X164351829Y-68702587D02*
X164351829Y-67702587D01*
X164351829Y-67702587D02*
X164018496Y-67702587D01*
X164018496Y-67702587D02*
X163923258Y-67750206D01*
X163923258Y-67750206D02*
X163875639Y-67797825D01*
X163875639Y-67797825D02*
X163828020Y-67893063D01*
X163828020Y-67893063D02*
X163828020Y-67988301D01*
X163828020Y-67988301D02*
X163875639Y-68083539D01*
X163875639Y-68083539D02*
X163923258Y-68131158D01*
X163923258Y-68131158D02*
X164018496Y-68178777D01*
X164018496Y-68178777D02*
X164351829Y-68178777D01*
X163208972Y-68702587D02*
X163304210Y-68654968D01*
X163304210Y-68654968D02*
X163351829Y-68559729D01*
X163351829Y-68559729D02*
X163351829Y-67702587D01*
X162399448Y-68035920D02*
X162399448Y-68702587D01*
X162828019Y-68035920D02*
X162828019Y-68559729D01*
X162828019Y-68559729D02*
X162780400Y-68654968D01*
X162780400Y-68654968D02*
X162685162Y-68702587D01*
X162685162Y-68702587D02*
X162542305Y-68702587D01*
X162542305Y-68702587D02*
X162447067Y-68654968D01*
X162447067Y-68654968D02*
X162399448Y-68607348D01*
X161542305Y-68654968D02*
X161637543Y-68702587D01*
X161637543Y-68702587D02*
X161828019Y-68702587D01*
X161828019Y-68702587D02*
X161923257Y-68654968D01*
X161923257Y-68654968D02*
X161970876Y-68559729D01*
X161970876Y-68559729D02*
X161970876Y-68178777D01*
X161970876Y-68178777D02*
X161923257Y-68083539D01*
X161923257Y-68083539D02*
X161828019Y-68035920D01*
X161828019Y-68035920D02*
X161637543Y-68035920D01*
X161637543Y-68035920D02*
X161542305Y-68083539D01*
X161542305Y-68083539D02*
X161494686Y-68178777D01*
X161494686Y-68178777D02*
X161494686Y-68274015D01*
X161494686Y-68274015D02*
X161970876Y-68369253D01*
X166161353Y-69312531D02*
X165494687Y-69312531D01*
X165494687Y-69312531D02*
X165923258Y-70312531D01*
X164494686Y-69312531D02*
X164161353Y-70312531D01*
X164161353Y-70312531D02*
X163828020Y-69312531D01*
X163494686Y-70312531D02*
X163494686Y-69645864D01*
X163494686Y-69312531D02*
X163542305Y-69360150D01*
X163542305Y-69360150D02*
X163494686Y-69407769D01*
X163494686Y-69407769D02*
X163447067Y-69360150D01*
X163447067Y-69360150D02*
X163494686Y-69312531D01*
X163494686Y-69312531D02*
X163494686Y-69407769D01*
X162875639Y-70312531D02*
X162970877Y-70264912D01*
X162970877Y-70264912D02*
X163018496Y-70217292D01*
X163018496Y-70217292D02*
X163066115Y-70122054D01*
X163066115Y-70122054D02*
X163066115Y-69836340D01*
X163066115Y-69836340D02*
X163018496Y-69741102D01*
X163018496Y-69741102D02*
X162970877Y-69693483D01*
X162970877Y-69693483D02*
X162875639Y-69645864D01*
X162875639Y-69645864D02*
X162732782Y-69645864D01*
X162732782Y-69645864D02*
X162637544Y-69693483D01*
X162637544Y-69693483D02*
X162589925Y-69741102D01*
X162589925Y-69741102D02*
X162542306Y-69836340D01*
X162542306Y-69836340D02*
X162542306Y-70122054D01*
X162542306Y-70122054D02*
X162589925Y-70217292D01*
X162589925Y-70217292D02*
X162637544Y-70264912D01*
X162637544Y-70264912D02*
X162732782Y-70312531D01*
X162732782Y-70312531D02*
X162875639Y-70312531D01*
X161970877Y-70312531D02*
X162066115Y-70264912D01*
X162066115Y-70264912D02*
X162113734Y-70169673D01*
X162113734Y-70169673D02*
X162113734Y-69312531D01*
X161208972Y-70264912D02*
X161304210Y-70312531D01*
X161304210Y-70312531D02*
X161494686Y-70312531D01*
X161494686Y-70312531D02*
X161589924Y-70264912D01*
X161589924Y-70264912D02*
X161637543Y-70169673D01*
X161637543Y-70169673D02*
X161637543Y-69788721D01*
X161637543Y-69788721D02*
X161589924Y-69693483D01*
X161589924Y-69693483D02*
X161494686Y-69645864D01*
X161494686Y-69645864D02*
X161304210Y-69645864D01*
X161304210Y-69645864D02*
X161208972Y-69693483D01*
X161208972Y-69693483D02*
X161161353Y-69788721D01*
X161161353Y-69788721D02*
X161161353Y-69883959D01*
X161161353Y-69883959D02*
X161637543Y-69979197D01*
X160875638Y-69645864D02*
X160494686Y-69645864D01*
X160732781Y-69312531D02*
X160732781Y-70169673D01*
X160732781Y-70169673D02*
X160685162Y-70264912D01*
X160685162Y-70264912D02*
X160589924Y-70312531D01*
X160589924Y-70312531D02*
X160494686Y-70312531D01*
X165923258Y-71351046D02*
X166018496Y-71303427D01*
X166018496Y-71303427D02*
X166066115Y-71255808D01*
X166066115Y-71255808D02*
X166113734Y-71160570D01*
X166113734Y-71160570D02*
X166113734Y-71112951D01*
X166113734Y-71112951D02*
X166066115Y-71017713D01*
X166066115Y-71017713D02*
X166018496Y-70970094D01*
X166018496Y-70970094D02*
X165923258Y-70922475D01*
X165923258Y-70922475D02*
X165732782Y-70922475D01*
X165732782Y-70922475D02*
X165637544Y-70970094D01*
X165637544Y-70970094D02*
X165589925Y-71017713D01*
X165589925Y-71017713D02*
X165542306Y-71112951D01*
X165542306Y-71112951D02*
X165542306Y-71160570D01*
X165542306Y-71160570D02*
X165589925Y-71255808D01*
X165589925Y-71255808D02*
X165637544Y-71303427D01*
X165637544Y-71303427D02*
X165732782Y-71351046D01*
X165732782Y-71351046D02*
X165923258Y-71351046D01*
X165923258Y-71351046D02*
X166018496Y-71398665D01*
X166018496Y-71398665D02*
X166066115Y-71446284D01*
X166066115Y-71446284D02*
X166113734Y-71541522D01*
X166113734Y-71541522D02*
X166113734Y-71731998D01*
X166113734Y-71731998D02*
X166066115Y-71827236D01*
X166066115Y-71827236D02*
X166018496Y-71874856D01*
X166018496Y-71874856D02*
X165923258Y-71922475D01*
X165923258Y-71922475D02*
X165732782Y-71922475D01*
X165732782Y-71922475D02*
X165637544Y-71874856D01*
X165637544Y-71874856D02*
X165589925Y-71827236D01*
X165589925Y-71827236D02*
X165542306Y-71731998D01*
X165542306Y-71731998D02*
X165542306Y-71541522D01*
X165542306Y-71541522D02*
X165589925Y-71446284D01*
X165589925Y-71446284D02*
X165637544Y-71398665D01*
X165637544Y-71398665D02*
X165732782Y-71351046D01*
X163828020Y-70970094D02*
X163923258Y-70922475D01*
X163923258Y-70922475D02*
X164066115Y-70922475D01*
X164066115Y-70922475D02*
X164208972Y-70970094D01*
X164208972Y-70970094D02*
X164304210Y-71065332D01*
X164304210Y-71065332D02*
X164351829Y-71160570D01*
X164351829Y-71160570D02*
X164399448Y-71351046D01*
X164399448Y-71351046D02*
X164399448Y-71493903D01*
X164399448Y-71493903D02*
X164351829Y-71684379D01*
X164351829Y-71684379D02*
X164304210Y-71779617D01*
X164304210Y-71779617D02*
X164208972Y-71874856D01*
X164208972Y-71874856D02*
X164066115Y-71922475D01*
X164066115Y-71922475D02*
X163970877Y-71922475D01*
X163970877Y-71922475D02*
X163828020Y-71874856D01*
X163828020Y-71874856D02*
X163780401Y-71827236D01*
X163780401Y-71827236D02*
X163780401Y-71493903D01*
X163780401Y-71493903D02*
X163970877Y-71493903D01*
X163351829Y-71922475D02*
X163351829Y-71255808D01*
X163351829Y-71446284D02*
X163304210Y-71351046D01*
X163304210Y-71351046D02*
X163256591Y-71303427D01*
X163256591Y-71303427D02*
X163161353Y-71255808D01*
X163161353Y-71255808D02*
X163066115Y-71255808D01*
X162304210Y-71922475D02*
X162304210Y-71398665D01*
X162304210Y-71398665D02*
X162351829Y-71303427D01*
X162351829Y-71303427D02*
X162447067Y-71255808D01*
X162447067Y-71255808D02*
X162637543Y-71255808D01*
X162637543Y-71255808D02*
X162732781Y-71303427D01*
X162304210Y-71874856D02*
X162399448Y-71922475D01*
X162399448Y-71922475D02*
X162637543Y-71922475D01*
X162637543Y-71922475D02*
X162732781Y-71874856D01*
X162732781Y-71874856D02*
X162780400Y-71779617D01*
X162780400Y-71779617D02*
X162780400Y-71684379D01*
X162780400Y-71684379D02*
X162732781Y-71589141D01*
X162732781Y-71589141D02*
X162637543Y-71541522D01*
X162637543Y-71541522D02*
X162399448Y-71541522D01*
X162399448Y-71541522D02*
X162304210Y-71493903D01*
X161923257Y-71255808D02*
X161685162Y-71922475D01*
X161447067Y-71255808D02*
X161685162Y-71922475D01*
X161685162Y-71922475D02*
X161780400Y-72160570D01*
X161780400Y-72160570D02*
X161828019Y-72208189D01*
X161828019Y-72208189D02*
X161923257Y-72255808D01*
X166018496Y-73532419D02*
X165828020Y-73532419D01*
X165828020Y-73532419D02*
X165732782Y-73484800D01*
X165732782Y-73484800D02*
X165685163Y-73437180D01*
X165685163Y-73437180D02*
X165589925Y-73294323D01*
X165589925Y-73294323D02*
X165542306Y-73103847D01*
X165542306Y-73103847D02*
X165542306Y-72722895D01*
X165542306Y-72722895D02*
X165589925Y-72627657D01*
X165589925Y-72627657D02*
X165637544Y-72580038D01*
X165637544Y-72580038D02*
X165732782Y-72532419D01*
X165732782Y-72532419D02*
X165923258Y-72532419D01*
X165923258Y-72532419D02*
X166018496Y-72580038D01*
X166018496Y-72580038D02*
X166066115Y-72627657D01*
X166066115Y-72627657D02*
X166113734Y-72722895D01*
X166113734Y-72722895D02*
X166113734Y-72960990D01*
X166113734Y-72960990D02*
X166066115Y-73056228D01*
X166066115Y-73056228D02*
X166018496Y-73103847D01*
X166018496Y-73103847D02*
X165923258Y-73151466D01*
X165923258Y-73151466D02*
X165732782Y-73151466D01*
X165732782Y-73151466D02*
X165637544Y-73103847D01*
X165637544Y-73103847D02*
X165589925Y-73056228D01*
X165589925Y-73056228D02*
X165542306Y-72960990D01*
X164447067Y-72532419D02*
X164208972Y-73532419D01*
X164208972Y-73532419D02*
X164018496Y-72818133D01*
X164018496Y-72818133D02*
X163828020Y-73532419D01*
X163828020Y-73532419D02*
X163589925Y-72532419D01*
X163208972Y-73532419D02*
X163208972Y-72532419D01*
X162780401Y-73532419D02*
X162780401Y-73008609D01*
X162780401Y-73008609D02*
X162828020Y-72913371D01*
X162828020Y-72913371D02*
X162923258Y-72865752D01*
X162923258Y-72865752D02*
X163066115Y-72865752D01*
X163066115Y-72865752D02*
X163161353Y-72913371D01*
X163161353Y-72913371D02*
X163208972Y-72960990D01*
X162304210Y-73532419D02*
X162304210Y-72865752D01*
X162304210Y-72532419D02*
X162351829Y-72580038D01*
X162351829Y-72580038D02*
X162304210Y-72627657D01*
X162304210Y-72627657D02*
X162256591Y-72580038D01*
X162256591Y-72580038D02*
X162304210Y-72532419D01*
X162304210Y-72532419D02*
X162304210Y-72627657D01*
X161970877Y-72865752D02*
X161589925Y-72865752D01*
X161828020Y-72532419D02*
X161828020Y-73389561D01*
X161828020Y-73389561D02*
X161780401Y-73484800D01*
X161780401Y-73484800D02*
X161685163Y-73532419D01*
X161685163Y-73532419D02*
X161589925Y-73532419D01*
X160875639Y-73484800D02*
X160970877Y-73532419D01*
X160970877Y-73532419D02*
X161161353Y-73532419D01*
X161161353Y-73532419D02*
X161256591Y-73484800D01*
X161256591Y-73484800D02*
X161304210Y-73389561D01*
X161304210Y-73389561D02*
X161304210Y-73008609D01*
X161304210Y-73008609D02*
X161256591Y-72913371D01*
X161256591Y-72913371D02*
X161161353Y-72865752D01*
X161161353Y-72865752D02*
X160970877Y-72865752D01*
X160970877Y-72865752D02*
X160875639Y-72913371D01*
X160875639Y-72913371D02*
X160828020Y-73008609D01*
X160828020Y-73008609D02*
X160828020Y-73103847D01*
X160828020Y-73103847D02*
X161304210Y-73199085D01*
X174130639Y-66092643D02*
X174035401Y-66092643D01*
X174035401Y-66092643D02*
X173940163Y-66140262D01*
X173940163Y-66140262D02*
X173892544Y-66187881D01*
X173892544Y-66187881D02*
X173844925Y-66283119D01*
X173844925Y-66283119D02*
X173797306Y-66473595D01*
X173797306Y-66473595D02*
X173797306Y-66711690D01*
X173797306Y-66711690D02*
X173844925Y-66902166D01*
X173844925Y-66902166D02*
X173892544Y-66997404D01*
X173892544Y-66997404D02*
X173940163Y-67045024D01*
X173940163Y-67045024D02*
X174035401Y-67092643D01*
X174035401Y-67092643D02*
X174130639Y-67092643D01*
X174130639Y-67092643D02*
X174225877Y-67045024D01*
X174225877Y-67045024D02*
X174273496Y-66997404D01*
X174273496Y-66997404D02*
X174321115Y-66902166D01*
X174321115Y-66902166D02*
X174368734Y-66711690D01*
X174368734Y-66711690D02*
X174368734Y-66473595D01*
X174368734Y-66473595D02*
X174321115Y-66283119D01*
X174321115Y-66283119D02*
X174273496Y-66187881D01*
X174273496Y-66187881D02*
X174225877Y-66140262D01*
X174225877Y-66140262D02*
X174130639Y-66092643D01*
X172273496Y-66568833D02*
X172130639Y-66616452D01*
X172130639Y-66616452D02*
X172083020Y-66664071D01*
X172083020Y-66664071D02*
X172035401Y-66759309D01*
X172035401Y-66759309D02*
X172035401Y-66902166D01*
X172035401Y-66902166D02*
X172083020Y-66997404D01*
X172083020Y-66997404D02*
X172130639Y-67045024D01*
X172130639Y-67045024D02*
X172225877Y-67092643D01*
X172225877Y-67092643D02*
X172606829Y-67092643D01*
X172606829Y-67092643D02*
X172606829Y-66092643D01*
X172606829Y-66092643D02*
X172273496Y-66092643D01*
X172273496Y-66092643D02*
X172178258Y-66140262D01*
X172178258Y-66140262D02*
X172130639Y-66187881D01*
X172130639Y-66187881D02*
X172083020Y-66283119D01*
X172083020Y-66283119D02*
X172083020Y-66378357D01*
X172083020Y-66378357D02*
X172130639Y-66473595D01*
X172130639Y-66473595D02*
X172178258Y-66521214D01*
X172178258Y-66521214D02*
X172273496Y-66568833D01*
X172273496Y-66568833D02*
X172606829Y-66568833D01*
X171463972Y-67092643D02*
X171559210Y-67045024D01*
X171559210Y-67045024D02*
X171606829Y-66949785D01*
X171606829Y-66949785D02*
X171606829Y-66092643D01*
X170654448Y-67092643D02*
X170654448Y-66568833D01*
X170654448Y-66568833D02*
X170702067Y-66473595D01*
X170702067Y-66473595D02*
X170797305Y-66425976D01*
X170797305Y-66425976D02*
X170987781Y-66425976D01*
X170987781Y-66425976D02*
X171083019Y-66473595D01*
X170654448Y-67045024D02*
X170749686Y-67092643D01*
X170749686Y-67092643D02*
X170987781Y-67092643D01*
X170987781Y-67092643D02*
X171083019Y-67045024D01*
X171083019Y-67045024D02*
X171130638Y-66949785D01*
X171130638Y-66949785D02*
X171130638Y-66854547D01*
X171130638Y-66854547D02*
X171083019Y-66759309D01*
X171083019Y-66759309D02*
X170987781Y-66711690D01*
X170987781Y-66711690D02*
X170749686Y-66711690D01*
X170749686Y-66711690D02*
X170654448Y-66664071D01*
X169749686Y-67045024D02*
X169844924Y-67092643D01*
X169844924Y-67092643D02*
X170035400Y-67092643D01*
X170035400Y-67092643D02*
X170130638Y-67045024D01*
X170130638Y-67045024D02*
X170178257Y-66997404D01*
X170178257Y-66997404D02*
X170225876Y-66902166D01*
X170225876Y-66902166D02*
X170225876Y-66616452D01*
X170225876Y-66616452D02*
X170178257Y-66521214D01*
X170178257Y-66521214D02*
X170130638Y-66473595D01*
X170130638Y-66473595D02*
X170035400Y-66425976D01*
X170035400Y-66425976D02*
X169844924Y-66425976D01*
X169844924Y-66425976D02*
X169749686Y-66473595D01*
X169321114Y-67092643D02*
X169321114Y-66092643D01*
X169225876Y-66711690D02*
X168940162Y-67092643D01*
X168940162Y-66425976D02*
X169321114Y-66806928D01*
X173797306Y-68702587D02*
X174368734Y-68702587D01*
X174083020Y-68702587D02*
X174083020Y-67702587D01*
X174083020Y-67702587D02*
X174178258Y-67845444D01*
X174178258Y-67845444D02*
X174273496Y-67940682D01*
X174273496Y-67940682D02*
X174368734Y-67988301D01*
X172273496Y-68178777D02*
X172130639Y-68226396D01*
X172130639Y-68226396D02*
X172083020Y-68274015D01*
X172083020Y-68274015D02*
X172035401Y-68369253D01*
X172035401Y-68369253D02*
X172035401Y-68512110D01*
X172035401Y-68512110D02*
X172083020Y-68607348D01*
X172083020Y-68607348D02*
X172130639Y-68654968D01*
X172130639Y-68654968D02*
X172225877Y-68702587D01*
X172225877Y-68702587D02*
X172606829Y-68702587D01*
X172606829Y-68702587D02*
X172606829Y-67702587D01*
X172606829Y-67702587D02*
X172273496Y-67702587D01*
X172273496Y-67702587D02*
X172178258Y-67750206D01*
X172178258Y-67750206D02*
X172130639Y-67797825D01*
X172130639Y-67797825D02*
X172083020Y-67893063D01*
X172083020Y-67893063D02*
X172083020Y-67988301D01*
X172083020Y-67988301D02*
X172130639Y-68083539D01*
X172130639Y-68083539D02*
X172178258Y-68131158D01*
X172178258Y-68131158D02*
X172273496Y-68178777D01*
X172273496Y-68178777D02*
X172606829Y-68178777D01*
X171606829Y-68702587D02*
X171606829Y-68035920D01*
X171606829Y-68226396D02*
X171559210Y-68131158D01*
X171559210Y-68131158D02*
X171511591Y-68083539D01*
X171511591Y-68083539D02*
X171416353Y-68035920D01*
X171416353Y-68035920D02*
X171321115Y-68035920D01*
X170844924Y-68702587D02*
X170940162Y-68654968D01*
X170940162Y-68654968D02*
X170987781Y-68607348D01*
X170987781Y-68607348D02*
X171035400Y-68512110D01*
X171035400Y-68512110D02*
X171035400Y-68226396D01*
X171035400Y-68226396D02*
X170987781Y-68131158D01*
X170987781Y-68131158D02*
X170940162Y-68083539D01*
X170940162Y-68083539D02*
X170844924Y-68035920D01*
X170844924Y-68035920D02*
X170702067Y-68035920D01*
X170702067Y-68035920D02*
X170606829Y-68083539D01*
X170606829Y-68083539D02*
X170559210Y-68131158D01*
X170559210Y-68131158D02*
X170511591Y-68226396D01*
X170511591Y-68226396D02*
X170511591Y-68512110D01*
X170511591Y-68512110D02*
X170559210Y-68607348D01*
X170559210Y-68607348D02*
X170606829Y-68654968D01*
X170606829Y-68654968D02*
X170702067Y-68702587D01*
X170702067Y-68702587D02*
X170844924Y-68702587D01*
X170178257Y-68035920D02*
X169987781Y-68702587D01*
X169987781Y-68702587D02*
X169797305Y-68226396D01*
X169797305Y-68226396D02*
X169606829Y-68702587D01*
X169606829Y-68702587D02*
X169416353Y-68035920D01*
X169035400Y-68035920D02*
X169035400Y-68702587D01*
X169035400Y-68131158D02*
X168987781Y-68083539D01*
X168987781Y-68083539D02*
X168892543Y-68035920D01*
X168892543Y-68035920D02*
X168749686Y-68035920D01*
X168749686Y-68035920D02*
X168654448Y-68083539D01*
X168654448Y-68083539D02*
X168606829Y-68178777D01*
X168606829Y-68178777D02*
X168606829Y-68702587D01*
X174368734Y-69407769D02*
X174321115Y-69360150D01*
X174321115Y-69360150D02*
X174225877Y-69312531D01*
X174225877Y-69312531D02*
X173987782Y-69312531D01*
X173987782Y-69312531D02*
X173892544Y-69360150D01*
X173892544Y-69360150D02*
X173844925Y-69407769D01*
X173844925Y-69407769D02*
X173797306Y-69503007D01*
X173797306Y-69503007D02*
X173797306Y-69598245D01*
X173797306Y-69598245D02*
X173844925Y-69741102D01*
X173844925Y-69741102D02*
X174416353Y-70312531D01*
X174416353Y-70312531D02*
X173797306Y-70312531D01*
X172035401Y-70312531D02*
X172368734Y-69836340D01*
X172606829Y-70312531D02*
X172606829Y-69312531D01*
X172606829Y-69312531D02*
X172225877Y-69312531D01*
X172225877Y-69312531D02*
X172130639Y-69360150D01*
X172130639Y-69360150D02*
X172083020Y-69407769D01*
X172083020Y-69407769D02*
X172035401Y-69503007D01*
X172035401Y-69503007D02*
X172035401Y-69645864D01*
X172035401Y-69645864D02*
X172083020Y-69741102D01*
X172083020Y-69741102D02*
X172130639Y-69788721D01*
X172130639Y-69788721D02*
X172225877Y-69836340D01*
X172225877Y-69836340D02*
X172606829Y-69836340D01*
X171225877Y-70264912D02*
X171321115Y-70312531D01*
X171321115Y-70312531D02*
X171511591Y-70312531D01*
X171511591Y-70312531D02*
X171606829Y-70264912D01*
X171606829Y-70264912D02*
X171654448Y-70169673D01*
X171654448Y-70169673D02*
X171654448Y-69788721D01*
X171654448Y-69788721D02*
X171606829Y-69693483D01*
X171606829Y-69693483D02*
X171511591Y-69645864D01*
X171511591Y-69645864D02*
X171321115Y-69645864D01*
X171321115Y-69645864D02*
X171225877Y-69693483D01*
X171225877Y-69693483D02*
X171178258Y-69788721D01*
X171178258Y-69788721D02*
X171178258Y-69883959D01*
X171178258Y-69883959D02*
X171654448Y-69979197D01*
X170321115Y-70312531D02*
X170321115Y-69312531D01*
X170321115Y-70264912D02*
X170416353Y-70312531D01*
X170416353Y-70312531D02*
X170606829Y-70312531D01*
X170606829Y-70312531D02*
X170702067Y-70264912D01*
X170702067Y-70264912D02*
X170749686Y-70217292D01*
X170749686Y-70217292D02*
X170797305Y-70122054D01*
X170797305Y-70122054D02*
X170797305Y-69836340D01*
X170797305Y-69836340D02*
X170749686Y-69741102D01*
X170749686Y-69741102D02*
X170702067Y-69693483D01*
X170702067Y-69693483D02*
X170606829Y-69645864D01*
X170606829Y-69645864D02*
X170416353Y-69645864D01*
X170416353Y-69645864D02*
X170321115Y-69693483D01*
X174416353Y-70922475D02*
X173797306Y-70922475D01*
X173797306Y-70922475D02*
X174130639Y-71303427D01*
X174130639Y-71303427D02*
X173987782Y-71303427D01*
X173987782Y-71303427D02*
X173892544Y-71351046D01*
X173892544Y-71351046D02*
X173844925Y-71398665D01*
X173844925Y-71398665D02*
X173797306Y-71493903D01*
X173797306Y-71493903D02*
X173797306Y-71731998D01*
X173797306Y-71731998D02*
X173844925Y-71827236D01*
X173844925Y-71827236D02*
X173892544Y-71874856D01*
X173892544Y-71874856D02*
X173987782Y-71922475D01*
X173987782Y-71922475D02*
X174273496Y-71922475D01*
X174273496Y-71922475D02*
X174368734Y-71874856D01*
X174368734Y-71874856D02*
X174416353Y-71827236D01*
X172416353Y-70922475D02*
X172225877Y-70922475D01*
X172225877Y-70922475D02*
X172130639Y-70970094D01*
X172130639Y-70970094D02*
X172035401Y-71065332D01*
X172035401Y-71065332D02*
X171987782Y-71255808D01*
X171987782Y-71255808D02*
X171987782Y-71589141D01*
X171987782Y-71589141D02*
X172035401Y-71779617D01*
X172035401Y-71779617D02*
X172130639Y-71874856D01*
X172130639Y-71874856D02*
X172225877Y-71922475D01*
X172225877Y-71922475D02*
X172416353Y-71922475D01*
X172416353Y-71922475D02*
X172511591Y-71874856D01*
X172511591Y-71874856D02*
X172606829Y-71779617D01*
X172606829Y-71779617D02*
X172654448Y-71589141D01*
X172654448Y-71589141D02*
X172654448Y-71255808D01*
X172654448Y-71255808D02*
X172606829Y-71065332D01*
X172606829Y-71065332D02*
X172511591Y-70970094D01*
X172511591Y-70970094D02*
X172416353Y-70922475D01*
X171559210Y-71922475D02*
X171559210Y-71255808D01*
X171559210Y-71446284D02*
X171511591Y-71351046D01*
X171511591Y-71351046D02*
X171463972Y-71303427D01*
X171463972Y-71303427D02*
X171368734Y-71255808D01*
X171368734Y-71255808D02*
X171273496Y-71255808D01*
X170511591Y-71922475D02*
X170511591Y-71398665D01*
X170511591Y-71398665D02*
X170559210Y-71303427D01*
X170559210Y-71303427D02*
X170654448Y-71255808D01*
X170654448Y-71255808D02*
X170844924Y-71255808D01*
X170844924Y-71255808D02*
X170940162Y-71303427D01*
X170511591Y-71874856D02*
X170606829Y-71922475D01*
X170606829Y-71922475D02*
X170844924Y-71922475D01*
X170844924Y-71922475D02*
X170940162Y-71874856D01*
X170940162Y-71874856D02*
X170987781Y-71779617D01*
X170987781Y-71779617D02*
X170987781Y-71684379D01*
X170987781Y-71684379D02*
X170940162Y-71589141D01*
X170940162Y-71589141D02*
X170844924Y-71541522D01*
X170844924Y-71541522D02*
X170606829Y-71541522D01*
X170606829Y-71541522D02*
X170511591Y-71493903D01*
X170035400Y-71255808D02*
X170035400Y-71922475D01*
X170035400Y-71351046D02*
X169987781Y-71303427D01*
X169987781Y-71303427D02*
X169892543Y-71255808D01*
X169892543Y-71255808D02*
X169749686Y-71255808D01*
X169749686Y-71255808D02*
X169654448Y-71303427D01*
X169654448Y-71303427D02*
X169606829Y-71398665D01*
X169606829Y-71398665D02*
X169606829Y-71922475D01*
X168702067Y-71255808D02*
X168702067Y-72065332D01*
X168702067Y-72065332D02*
X168749686Y-72160570D01*
X168749686Y-72160570D02*
X168797305Y-72208189D01*
X168797305Y-72208189D02*
X168892543Y-72255808D01*
X168892543Y-72255808D02*
X169035400Y-72255808D01*
X169035400Y-72255808D02*
X169130638Y-72208189D01*
X168702067Y-71874856D02*
X168797305Y-71922475D01*
X168797305Y-71922475D02*
X168987781Y-71922475D01*
X168987781Y-71922475D02*
X169083019Y-71874856D01*
X169083019Y-71874856D02*
X169130638Y-71827236D01*
X169130638Y-71827236D02*
X169178257Y-71731998D01*
X169178257Y-71731998D02*
X169178257Y-71446284D01*
X169178257Y-71446284D02*
X169130638Y-71351046D01*
X169130638Y-71351046D02*
X169083019Y-71303427D01*
X169083019Y-71303427D02*
X168987781Y-71255808D01*
X168987781Y-71255808D02*
X168797305Y-71255808D01*
X168797305Y-71255808D02*
X168702067Y-71303427D01*
X167844924Y-71874856D02*
X167940162Y-71922475D01*
X167940162Y-71922475D02*
X168130638Y-71922475D01*
X168130638Y-71922475D02*
X168225876Y-71874856D01*
X168225876Y-71874856D02*
X168273495Y-71779617D01*
X168273495Y-71779617D02*
X168273495Y-71398665D01*
X168273495Y-71398665D02*
X168225876Y-71303427D01*
X168225876Y-71303427D02*
X168130638Y-71255808D01*
X168130638Y-71255808D02*
X167940162Y-71255808D01*
X167940162Y-71255808D02*
X167844924Y-71303427D01*
X167844924Y-71303427D02*
X167797305Y-71398665D01*
X167797305Y-71398665D02*
X167797305Y-71493903D01*
X167797305Y-71493903D02*
X168273495Y-71589141D01*
X173892544Y-72865752D02*
X173892544Y-73532419D01*
X174130639Y-72484800D02*
X174368734Y-73199085D01*
X174368734Y-73199085D02*
X173749687Y-73199085D01*
X172416353Y-73056228D02*
X172416353Y-73532419D01*
X172749686Y-72532419D02*
X172416353Y-73056228D01*
X172416353Y-73056228D02*
X172083020Y-72532419D01*
X171368734Y-73484800D02*
X171463972Y-73532419D01*
X171463972Y-73532419D02*
X171654448Y-73532419D01*
X171654448Y-73532419D02*
X171749686Y-73484800D01*
X171749686Y-73484800D02*
X171797305Y-73389561D01*
X171797305Y-73389561D02*
X171797305Y-73008609D01*
X171797305Y-73008609D02*
X171749686Y-72913371D01*
X171749686Y-72913371D02*
X171654448Y-72865752D01*
X171654448Y-72865752D02*
X171463972Y-72865752D01*
X171463972Y-72865752D02*
X171368734Y-72913371D01*
X171368734Y-72913371D02*
X171321115Y-73008609D01*
X171321115Y-73008609D02*
X171321115Y-73103847D01*
X171321115Y-73103847D02*
X171797305Y-73199085D01*
X170749686Y-73532419D02*
X170844924Y-73484800D01*
X170844924Y-73484800D02*
X170892543Y-73389561D01*
X170892543Y-73389561D02*
X170892543Y-72532419D01*
X170225876Y-73532419D02*
X170321114Y-73484800D01*
X170321114Y-73484800D02*
X170368733Y-73389561D01*
X170368733Y-73389561D02*
X170368733Y-72532419D01*
X169702066Y-73532419D02*
X169797304Y-73484800D01*
X169797304Y-73484800D02*
X169844923Y-73437180D01*
X169844923Y-73437180D02*
X169892542Y-73341942D01*
X169892542Y-73341942D02*
X169892542Y-73056228D01*
X169892542Y-73056228D02*
X169844923Y-72960990D01*
X169844923Y-72960990D02*
X169797304Y-72913371D01*
X169797304Y-72913371D02*
X169702066Y-72865752D01*
X169702066Y-72865752D02*
X169559209Y-72865752D01*
X169559209Y-72865752D02*
X169463971Y-72913371D01*
X169463971Y-72913371D02*
X169416352Y-72960990D01*
X169416352Y-72960990D02*
X169368733Y-73056228D01*
X169368733Y-73056228D02*
X169368733Y-73341942D01*
X169368733Y-73341942D02*
X169416352Y-73437180D01*
X169416352Y-73437180D02*
X169463971Y-73484800D01*
X169463971Y-73484800D02*
X169559209Y-73532419D01*
X169559209Y-73532419D02*
X169702066Y-73532419D01*
X169035399Y-72865752D02*
X168844923Y-73532419D01*
X168844923Y-73532419D02*
X168654447Y-73056228D01*
X168654447Y-73056228D02*
X168463971Y-73532419D01*
X168463971Y-73532419D02*
X168273495Y-72865752D01*
X135255000Y-61595000D02*
X133985000Y-60325000D01*
X135890000Y-60325000D02*
X133350000Y-60325000D01*
X135255000Y-59055000D02*
X133985000Y-60325000D01*
X135255000Y-59055000D02*
X135255000Y-61595000D01*
X133985000Y-59055000D02*
X133985000Y-61595000D01*
X150159449Y-85692657D02*
X150254687Y-85645038D01*
X150254687Y-85645038D02*
X150349925Y-85549800D01*
X150349925Y-85549800D02*
X150492782Y-85406942D01*
X150492782Y-85406942D02*
X150588020Y-85359323D01*
X150588020Y-85359323D02*
X150683258Y-85359323D01*
X150635639Y-85597419D02*
X150730877Y-85549800D01*
X150730877Y-85549800D02*
X150826115Y-85454561D01*
X150826115Y-85454561D02*
X150873734Y-85264085D01*
X150873734Y-85264085D02*
X150873734Y-84930752D01*
X150873734Y-84930752D02*
X150826115Y-84740276D01*
X150826115Y-84740276D02*
X150730877Y-84645038D01*
X150730877Y-84645038D02*
X150635639Y-84597419D01*
X150635639Y-84597419D02*
X150445163Y-84597419D01*
X150445163Y-84597419D02*
X150349925Y-84645038D01*
X150349925Y-84645038D02*
X150254687Y-84740276D01*
X150254687Y-84740276D02*
X150207068Y-84930752D01*
X150207068Y-84930752D02*
X150207068Y-85264085D01*
X150207068Y-85264085D02*
X150254687Y-85454561D01*
X150254687Y-85454561D02*
X150349925Y-85549800D01*
X150349925Y-85549800D02*
X150445163Y-85597419D01*
X150445163Y-85597419D02*
X150635639Y-85597419D01*
X149635639Y-85025990D02*
X149730877Y-84978371D01*
X149730877Y-84978371D02*
X149778496Y-84930752D01*
X149778496Y-84930752D02*
X149826115Y-84835514D01*
X149826115Y-84835514D02*
X149826115Y-84787895D01*
X149826115Y-84787895D02*
X149778496Y-84692657D01*
X149778496Y-84692657D02*
X149730877Y-84645038D01*
X149730877Y-84645038D02*
X149635639Y-84597419D01*
X149635639Y-84597419D02*
X149445163Y-84597419D01*
X149445163Y-84597419D02*
X149349925Y-84645038D01*
X149349925Y-84645038D02*
X149302306Y-84692657D01*
X149302306Y-84692657D02*
X149254687Y-84787895D01*
X149254687Y-84787895D02*
X149254687Y-84835514D01*
X149254687Y-84835514D02*
X149302306Y-84930752D01*
X149302306Y-84930752D02*
X149349925Y-84978371D01*
X149349925Y-84978371D02*
X149445163Y-85025990D01*
X149445163Y-85025990D02*
X149635639Y-85025990D01*
X149635639Y-85025990D02*
X149730877Y-85073609D01*
X149730877Y-85073609D02*
X149778496Y-85121228D01*
X149778496Y-85121228D02*
X149826115Y-85216466D01*
X149826115Y-85216466D02*
X149826115Y-85406942D01*
X149826115Y-85406942D02*
X149778496Y-85502180D01*
X149778496Y-85502180D02*
X149730877Y-85549800D01*
X149730877Y-85549800D02*
X149635639Y-85597419D01*
X149635639Y-85597419D02*
X149445163Y-85597419D01*
X149445163Y-85597419D02*
X149349925Y-85549800D01*
X149349925Y-85549800D02*
X149302306Y-85502180D01*
X149302306Y-85502180D02*
X149254687Y-85406942D01*
X149254687Y-85406942D02*
X149254687Y-85216466D01*
X149254687Y-85216466D02*
X149302306Y-85121228D01*
X149302306Y-85121228D02*
X149349925Y-85073609D01*
X149349925Y-85073609D02*
X149445163Y-85025990D01*
X156604687Y-67722180D02*
X156652306Y-67769800D01*
X156652306Y-67769800D02*
X156795163Y-67817419D01*
X156795163Y-67817419D02*
X156890401Y-67817419D01*
X156890401Y-67817419D02*
X157033258Y-67769800D01*
X157033258Y-67769800D02*
X157128496Y-67674561D01*
X157128496Y-67674561D02*
X157176115Y-67579323D01*
X157176115Y-67579323D02*
X157223734Y-67388847D01*
X157223734Y-67388847D02*
X157223734Y-67245990D01*
X157223734Y-67245990D02*
X157176115Y-67055514D01*
X157176115Y-67055514D02*
X157128496Y-66960276D01*
X157128496Y-66960276D02*
X157033258Y-66865038D01*
X157033258Y-66865038D02*
X156890401Y-66817419D01*
X156890401Y-66817419D02*
X156795163Y-66817419D01*
X156795163Y-66817419D02*
X156652306Y-66865038D01*
X156652306Y-66865038D02*
X156604687Y-66912657D01*
X136824449Y-78072657D02*
X136919687Y-78025038D01*
X136919687Y-78025038D02*
X137014925Y-77929800D01*
X137014925Y-77929800D02*
X137157782Y-77786942D01*
X137157782Y-77786942D02*
X137253020Y-77739323D01*
X137253020Y-77739323D02*
X137348258Y-77739323D01*
X137300639Y-77977419D02*
X137395877Y-77929800D01*
X137395877Y-77929800D02*
X137491115Y-77834561D01*
X137491115Y-77834561D02*
X137538734Y-77644085D01*
X137538734Y-77644085D02*
X137538734Y-77310752D01*
X137538734Y-77310752D02*
X137491115Y-77120276D01*
X137491115Y-77120276D02*
X137395877Y-77025038D01*
X137395877Y-77025038D02*
X137300639Y-76977419D01*
X137300639Y-76977419D02*
X137110163Y-76977419D01*
X137110163Y-76977419D02*
X137014925Y-77025038D01*
X137014925Y-77025038D02*
X136919687Y-77120276D01*
X136919687Y-77120276D02*
X136872068Y-77310752D01*
X136872068Y-77310752D02*
X136872068Y-77644085D01*
X136872068Y-77644085D02*
X136919687Y-77834561D01*
X136919687Y-77834561D02*
X137014925Y-77929800D01*
X137014925Y-77929800D02*
X137110163Y-77977419D01*
X137110163Y-77977419D02*
X137300639Y-77977419D01*
X136014925Y-76977419D02*
X136205401Y-76977419D01*
X136205401Y-76977419D02*
X136300639Y-77025038D01*
X136300639Y-77025038D02*
X136348258Y-77072657D01*
X136348258Y-77072657D02*
X136443496Y-77215514D01*
X136443496Y-77215514D02*
X136491115Y-77405990D01*
X136491115Y-77405990D02*
X136491115Y-77786942D01*
X136491115Y-77786942D02*
X136443496Y-77882180D01*
X136443496Y-77882180D02*
X136395877Y-77929800D01*
X136395877Y-77929800D02*
X136300639Y-77977419D01*
X136300639Y-77977419D02*
X136110163Y-77977419D01*
X136110163Y-77977419D02*
X136014925Y-77929800D01*
X136014925Y-77929800D02*
X135967306Y-77882180D01*
X135967306Y-77882180D02*
X135919687Y-77786942D01*
X135919687Y-77786942D02*
X135919687Y-77548847D01*
X135919687Y-77548847D02*
X135967306Y-77453609D01*
X135967306Y-77453609D02*
X136014925Y-77405990D01*
X136014925Y-77405990D02*
X136110163Y-77358371D01*
X136110163Y-77358371D02*
X136300639Y-77358371D01*
X136300639Y-77358371D02*
X136395877Y-77405990D01*
X136395877Y-77405990D02*
X136443496Y-77453609D01*
X136443496Y-77453609D02*
X136491115Y-77548847D01*
X136824449Y-80612657D02*
X136919687Y-80565038D01*
X136919687Y-80565038D02*
X137014925Y-80469800D01*
X137014925Y-80469800D02*
X137157782Y-80326942D01*
X137157782Y-80326942D02*
X137253020Y-80279323D01*
X137253020Y-80279323D02*
X137348258Y-80279323D01*
X137300639Y-80517419D02*
X137395877Y-80469800D01*
X137395877Y-80469800D02*
X137491115Y-80374561D01*
X137491115Y-80374561D02*
X137538734Y-80184085D01*
X137538734Y-80184085D02*
X137538734Y-79850752D01*
X137538734Y-79850752D02*
X137491115Y-79660276D01*
X137491115Y-79660276D02*
X137395877Y-79565038D01*
X137395877Y-79565038D02*
X137300639Y-79517419D01*
X137300639Y-79517419D02*
X137110163Y-79517419D01*
X137110163Y-79517419D02*
X137014925Y-79565038D01*
X137014925Y-79565038D02*
X136919687Y-79660276D01*
X136919687Y-79660276D02*
X136872068Y-79850752D01*
X136872068Y-79850752D02*
X136872068Y-80184085D01*
X136872068Y-80184085D02*
X136919687Y-80374561D01*
X136919687Y-80374561D02*
X137014925Y-80469800D01*
X137014925Y-80469800D02*
X137110163Y-80517419D01*
X137110163Y-80517419D02*
X137300639Y-80517419D01*
X136538734Y-79517419D02*
X135872068Y-79517419D01*
X135872068Y-79517419D02*
X136300639Y-80517419D01*
X136824449Y-75532657D02*
X136919687Y-75485038D01*
X136919687Y-75485038D02*
X137014925Y-75389800D01*
X137014925Y-75389800D02*
X137157782Y-75246942D01*
X137157782Y-75246942D02*
X137253020Y-75199323D01*
X137253020Y-75199323D02*
X137348258Y-75199323D01*
X137300639Y-75437419D02*
X137395877Y-75389800D01*
X137395877Y-75389800D02*
X137491115Y-75294561D01*
X137491115Y-75294561D02*
X137538734Y-75104085D01*
X137538734Y-75104085D02*
X137538734Y-74770752D01*
X137538734Y-74770752D02*
X137491115Y-74580276D01*
X137491115Y-74580276D02*
X137395877Y-74485038D01*
X137395877Y-74485038D02*
X137300639Y-74437419D01*
X137300639Y-74437419D02*
X137110163Y-74437419D01*
X137110163Y-74437419D02*
X137014925Y-74485038D01*
X137014925Y-74485038D02*
X136919687Y-74580276D01*
X136919687Y-74580276D02*
X136872068Y-74770752D01*
X136872068Y-74770752D02*
X136872068Y-75104085D01*
X136872068Y-75104085D02*
X136919687Y-75294561D01*
X136919687Y-75294561D02*
X137014925Y-75389800D01*
X137014925Y-75389800D02*
X137110163Y-75437419D01*
X137110163Y-75437419D02*
X137300639Y-75437419D01*
X136491115Y-74532657D02*
X136443496Y-74485038D01*
X136443496Y-74485038D02*
X136348258Y-74437419D01*
X136348258Y-74437419D02*
X136110163Y-74437419D01*
X136110163Y-74437419D02*
X136014925Y-74485038D01*
X136014925Y-74485038D02*
X135967306Y-74532657D01*
X135967306Y-74532657D02*
X135919687Y-74627895D01*
X135919687Y-74627895D02*
X135919687Y-74723133D01*
X135919687Y-74723133D02*
X135967306Y-74865990D01*
X135967306Y-74865990D02*
X136538734Y-75437419D01*
X136538734Y-75437419D02*
X135919687Y-75437419D01*
X160351115Y-83057419D02*
X160351115Y-82057419D01*
X160351115Y-82057419D02*
X160017782Y-82771704D01*
X160017782Y-82771704D02*
X159684449Y-82057419D01*
X159684449Y-82057419D02*
X159684449Y-83057419D01*
X159208258Y-83057419D02*
X159208258Y-82390752D01*
X159208258Y-82057419D02*
X159255877Y-82105038D01*
X159255877Y-82105038D02*
X159208258Y-82152657D01*
X159208258Y-82152657D02*
X159160639Y-82105038D01*
X159160639Y-82105038D02*
X159208258Y-82057419D01*
X159208258Y-82057419D02*
X159208258Y-82152657D01*
X158303497Y-83009800D02*
X158398735Y-83057419D01*
X158398735Y-83057419D02*
X158589211Y-83057419D01*
X158589211Y-83057419D02*
X158684449Y-83009800D01*
X158684449Y-83009800D02*
X158732068Y-82962180D01*
X158732068Y-82962180D02*
X158779687Y-82866942D01*
X158779687Y-82866942D02*
X158779687Y-82581228D01*
X158779687Y-82581228D02*
X158732068Y-82485990D01*
X158732068Y-82485990D02*
X158684449Y-82438371D01*
X158684449Y-82438371D02*
X158589211Y-82390752D01*
X158589211Y-82390752D02*
X158398735Y-82390752D01*
X158398735Y-82390752D02*
X158303497Y-82438371D01*
X157874925Y-83057419D02*
X157874925Y-82390752D01*
X157874925Y-82581228D02*
X157827306Y-82485990D01*
X157827306Y-82485990D02*
X157779687Y-82438371D01*
X157779687Y-82438371D02*
X157684449Y-82390752D01*
X157684449Y-82390752D02*
X157589211Y-82390752D01*
X157113020Y-83057419D02*
X157208258Y-83009800D01*
X157208258Y-83009800D02*
X157255877Y-82962180D01*
X157255877Y-82962180D02*
X157303496Y-82866942D01*
X157303496Y-82866942D02*
X157303496Y-82581228D01*
X157303496Y-82581228D02*
X157255877Y-82485990D01*
X157255877Y-82485990D02*
X157208258Y-82438371D01*
X157208258Y-82438371D02*
X157113020Y-82390752D01*
X157113020Y-82390752D02*
X156970163Y-82390752D01*
X156970163Y-82390752D02*
X156874925Y-82438371D01*
X156874925Y-82438371D02*
X156827306Y-82485990D01*
X156827306Y-82485990D02*
X156779687Y-82581228D01*
X156779687Y-82581228D02*
X156779687Y-82866942D01*
X156779687Y-82866942D02*
X156827306Y-82962180D01*
X156827306Y-82962180D02*
X156874925Y-83009800D01*
X156874925Y-83009800D02*
X156970163Y-83057419D01*
X156970163Y-83057419D02*
X157113020Y-83057419D01*
X156351115Y-82390752D02*
X156351115Y-83390752D01*
X156351115Y-82438371D02*
X156255877Y-82390752D01*
X156255877Y-82390752D02*
X156065401Y-82390752D01*
X156065401Y-82390752D02*
X155970163Y-82438371D01*
X155970163Y-82438371D02*
X155922544Y-82485990D01*
X155922544Y-82485990D02*
X155874925Y-82581228D01*
X155874925Y-82581228D02*
X155874925Y-82866942D01*
X155874925Y-82866942D02*
X155922544Y-82962180D01*
X155922544Y-82962180D02*
X155970163Y-83009800D01*
X155970163Y-83009800D02*
X156065401Y-83057419D01*
X156065401Y-83057419D02*
X156255877Y-83057419D01*
X156255877Y-83057419D02*
X156351115Y-83009800D01*
X155446353Y-83057419D02*
X155446353Y-82057419D01*
X155017782Y-83057419D02*
X155017782Y-82533609D01*
X155017782Y-82533609D02*
X155065401Y-82438371D01*
X155065401Y-82438371D02*
X155160639Y-82390752D01*
X155160639Y-82390752D02*
X155303496Y-82390752D01*
X155303496Y-82390752D02*
X155398734Y-82438371D01*
X155398734Y-82438371D02*
X155446353Y-82485990D01*
X154398734Y-83057419D02*
X154493972Y-83009800D01*
X154493972Y-83009800D02*
X154541591Y-82962180D01*
X154541591Y-82962180D02*
X154589210Y-82866942D01*
X154589210Y-82866942D02*
X154589210Y-82581228D01*
X154589210Y-82581228D02*
X154541591Y-82485990D01*
X154541591Y-82485990D02*
X154493972Y-82438371D01*
X154493972Y-82438371D02*
X154398734Y-82390752D01*
X154398734Y-82390752D02*
X154255877Y-82390752D01*
X154255877Y-82390752D02*
X154160639Y-82438371D01*
X154160639Y-82438371D02*
X154113020Y-82485990D01*
X154113020Y-82485990D02*
X154065401Y-82581228D01*
X154065401Y-82581228D02*
X154065401Y-82866942D01*
X154065401Y-82866942D02*
X154113020Y-82962180D01*
X154113020Y-82962180D02*
X154160639Y-83009800D01*
X154160639Y-83009800D02*
X154255877Y-83057419D01*
X154255877Y-83057419D02*
X154398734Y-83057419D01*
X153636829Y-82390752D02*
X153636829Y-83057419D01*
X153636829Y-82485990D02*
X153589210Y-82438371D01*
X153589210Y-82438371D02*
X153493972Y-82390752D01*
X153493972Y-82390752D02*
X153351115Y-82390752D01*
X153351115Y-82390752D02*
X153255877Y-82438371D01*
X153255877Y-82438371D02*
X153208258Y-82533609D01*
X153208258Y-82533609D02*
X153208258Y-83057419D01*
X152351115Y-83009800D02*
X152446353Y-83057419D01*
X152446353Y-83057419D02*
X152636829Y-83057419D01*
X152636829Y-83057419D02*
X152732067Y-83009800D01*
X152732067Y-83009800D02*
X152779686Y-82914561D01*
X152779686Y-82914561D02*
X152779686Y-82533609D01*
X152779686Y-82533609D02*
X152732067Y-82438371D01*
X152732067Y-82438371D02*
X152636829Y-82390752D01*
X152636829Y-82390752D02*
X152446353Y-82390752D01*
X152446353Y-82390752D02*
X152351115Y-82438371D01*
X152351115Y-82438371D02*
X152303496Y-82533609D01*
X152303496Y-82533609D02*
X152303496Y-82628847D01*
X152303496Y-82628847D02*
X152779686Y-82724085D01*
X153413734Y-64991704D02*
X152937544Y-64991704D01*
X153508972Y-65277419D02*
X153175639Y-64277419D01*
X153175639Y-64277419D02*
X152842306Y-65277419D01*
X152508972Y-65277419D02*
X152508972Y-64610752D01*
X152508972Y-64705990D02*
X152461353Y-64658371D01*
X152461353Y-64658371D02*
X152366115Y-64610752D01*
X152366115Y-64610752D02*
X152223258Y-64610752D01*
X152223258Y-64610752D02*
X152128020Y-64658371D01*
X152128020Y-64658371D02*
X152080401Y-64753609D01*
X152080401Y-64753609D02*
X152080401Y-65277419D01*
X152080401Y-64753609D02*
X152032782Y-64658371D01*
X152032782Y-64658371D02*
X151937544Y-64610752D01*
X151937544Y-64610752D02*
X151794687Y-64610752D01*
X151794687Y-64610752D02*
X151699448Y-64658371D01*
X151699448Y-64658371D02*
X151651829Y-64753609D01*
X151651829Y-64753609D02*
X151651829Y-65277419D01*
X151175639Y-64610752D02*
X151175639Y-65610752D01*
X151175639Y-64658371D02*
X151080401Y-64610752D01*
X151080401Y-64610752D02*
X150889925Y-64610752D01*
X150889925Y-64610752D02*
X150794687Y-64658371D01*
X150794687Y-64658371D02*
X150747068Y-64705990D01*
X150747068Y-64705990D02*
X150699449Y-64801228D01*
X150699449Y-64801228D02*
X150699449Y-65086942D01*
X150699449Y-65086942D02*
X150747068Y-65182180D01*
X150747068Y-65182180D02*
X150794687Y-65229800D01*
X150794687Y-65229800D02*
X150889925Y-65277419D01*
X150889925Y-65277419D02*
X151080401Y-65277419D01*
X151080401Y-65277419D02*
X151175639Y-65229800D01*
X150128020Y-65277419D02*
X150223258Y-65229800D01*
X150223258Y-65229800D02*
X150270877Y-65134561D01*
X150270877Y-65134561D02*
X150270877Y-64277419D01*
X149747067Y-65277419D02*
X149747067Y-64610752D01*
X149747067Y-64277419D02*
X149794686Y-64325038D01*
X149794686Y-64325038D02*
X149747067Y-64372657D01*
X149747067Y-64372657D02*
X149699448Y-64325038D01*
X149699448Y-64325038D02*
X149747067Y-64277419D01*
X149747067Y-64277419D02*
X149747067Y-64372657D01*
X149413734Y-64610752D02*
X149032782Y-64610752D01*
X149270877Y-65277419D02*
X149270877Y-64420276D01*
X149270877Y-64420276D02*
X149223258Y-64325038D01*
X149223258Y-64325038D02*
X149128020Y-64277419D01*
X149128020Y-64277419D02*
X149032782Y-64277419D01*
X148699448Y-65277419D02*
X148699448Y-64610752D01*
X148699448Y-64277419D02*
X148747067Y-64325038D01*
X148747067Y-64325038D02*
X148699448Y-64372657D01*
X148699448Y-64372657D02*
X148651829Y-64325038D01*
X148651829Y-64325038D02*
X148699448Y-64277419D01*
X148699448Y-64277419D02*
X148699448Y-64372657D01*
X147842306Y-65229800D02*
X147937544Y-65277419D01*
X147937544Y-65277419D02*
X148128020Y-65277419D01*
X148128020Y-65277419D02*
X148223258Y-65229800D01*
X148223258Y-65229800D02*
X148270877Y-65134561D01*
X148270877Y-65134561D02*
X148270877Y-64753609D01*
X148270877Y-64753609D02*
X148223258Y-64658371D01*
X148223258Y-64658371D02*
X148128020Y-64610752D01*
X148128020Y-64610752D02*
X147937544Y-64610752D01*
X147937544Y-64610752D02*
X147842306Y-64658371D01*
X147842306Y-64658371D02*
X147794687Y-64753609D01*
X147794687Y-64753609D02*
X147794687Y-64848847D01*
X147794687Y-64848847D02*
X148270877Y-64944085D01*
X147366115Y-65277419D02*
X147366115Y-64610752D01*
X147366115Y-64801228D02*
X147318496Y-64705990D01*
X147318496Y-64705990D02*
X147270877Y-64658371D01*
X147270877Y-64658371D02*
X147175639Y-64610752D01*
X147175639Y-64610752D02*
X147080401Y-64610752D01*
X134197068Y-94489800D02*
X133054211Y-94489800D01*
X136824449Y-70452657D02*
X136919687Y-70405038D01*
X136919687Y-70405038D02*
X137014925Y-70309800D01*
X137014925Y-70309800D02*
X137157782Y-70166942D01*
X137157782Y-70166942D02*
X137253020Y-70119323D01*
X137253020Y-70119323D02*
X137348258Y-70119323D01*
X137300639Y-70357419D02*
X137395877Y-70309800D01*
X137395877Y-70309800D02*
X137491115Y-70214561D01*
X137491115Y-70214561D02*
X137538734Y-70024085D01*
X137538734Y-70024085D02*
X137538734Y-69690752D01*
X137538734Y-69690752D02*
X137491115Y-69500276D01*
X137491115Y-69500276D02*
X137395877Y-69405038D01*
X137395877Y-69405038D02*
X137300639Y-69357419D01*
X137300639Y-69357419D02*
X137110163Y-69357419D01*
X137110163Y-69357419D02*
X137014925Y-69405038D01*
X137014925Y-69405038D02*
X136919687Y-69500276D01*
X136919687Y-69500276D02*
X136872068Y-69690752D01*
X136872068Y-69690752D02*
X136872068Y-70024085D01*
X136872068Y-70024085D02*
X136919687Y-70214561D01*
X136919687Y-70214561D02*
X137014925Y-70309800D01*
X137014925Y-70309800D02*
X137110163Y-70357419D01*
X137110163Y-70357419D02*
X137300639Y-70357419D01*
X135919687Y-70357419D02*
X136491115Y-70357419D01*
X136205401Y-70357419D02*
X136205401Y-69357419D01*
X136205401Y-69357419D02*
X136300639Y-69500276D01*
X136300639Y-69500276D02*
X136395877Y-69595514D01*
X136395877Y-69595514D02*
X136491115Y-69643133D01*
X136824449Y-72992657D02*
X136919687Y-72945038D01*
X136919687Y-72945038D02*
X137014925Y-72849800D01*
X137014925Y-72849800D02*
X137157782Y-72706942D01*
X137157782Y-72706942D02*
X137253020Y-72659323D01*
X137253020Y-72659323D02*
X137348258Y-72659323D01*
X137300639Y-72897419D02*
X137395877Y-72849800D01*
X137395877Y-72849800D02*
X137491115Y-72754561D01*
X137491115Y-72754561D02*
X137538734Y-72564085D01*
X137538734Y-72564085D02*
X137538734Y-72230752D01*
X137538734Y-72230752D02*
X137491115Y-72040276D01*
X137491115Y-72040276D02*
X137395877Y-71945038D01*
X137395877Y-71945038D02*
X137300639Y-71897419D01*
X137300639Y-71897419D02*
X137110163Y-71897419D01*
X137110163Y-71897419D02*
X137014925Y-71945038D01*
X137014925Y-71945038D02*
X136919687Y-72040276D01*
X136919687Y-72040276D02*
X136872068Y-72230752D01*
X136872068Y-72230752D02*
X136872068Y-72564085D01*
X136872068Y-72564085D02*
X136919687Y-72754561D01*
X136919687Y-72754561D02*
X137014925Y-72849800D01*
X137014925Y-72849800D02*
X137110163Y-72897419D01*
X137110163Y-72897419D02*
X137300639Y-72897419D01*
X136253020Y-71897419D02*
X136157782Y-71897419D01*
X136157782Y-71897419D02*
X136062544Y-71945038D01*
X136062544Y-71945038D02*
X136014925Y-71992657D01*
X136014925Y-71992657D02*
X135967306Y-72087895D01*
X135967306Y-72087895D02*
X135919687Y-72278371D01*
X135919687Y-72278371D02*
X135919687Y-72516466D01*
X135919687Y-72516466D02*
X135967306Y-72706942D01*
X135967306Y-72706942D02*
X136014925Y-72802180D01*
X136014925Y-72802180D02*
X136062544Y-72849800D01*
X136062544Y-72849800D02*
X136157782Y-72897419D01*
X136157782Y-72897419D02*
X136253020Y-72897419D01*
X136253020Y-72897419D02*
X136348258Y-72849800D01*
X136348258Y-72849800D02*
X136395877Y-72802180D01*
X136395877Y-72802180D02*
X136443496Y-72706942D01*
X136443496Y-72706942D02*
X136491115Y-72516466D01*
X136491115Y-72516466D02*
X136491115Y-72278371D01*
X136491115Y-72278371D02*
X136443496Y-72087895D01*
X136443496Y-72087895D02*
X136395877Y-71992657D01*
X136395877Y-71992657D02*
X136348258Y-71945038D01*
X136348258Y-71945038D02*
X136253020Y-71897419D01*
X136268734Y-61816704D02*
X135792544Y-61816704D01*
X136363972Y-62102419D02*
X136030639Y-61102419D01*
X136030639Y-61102419D02*
X135697306Y-62102419D01*
X136824449Y-67912657D02*
X136919687Y-67865038D01*
X136919687Y-67865038D02*
X137014925Y-67769800D01*
X137014925Y-67769800D02*
X137157782Y-67626942D01*
X137157782Y-67626942D02*
X137253020Y-67579323D01*
X137253020Y-67579323D02*
X137348258Y-67579323D01*
X137300639Y-67817419D02*
X137395877Y-67769800D01*
X137395877Y-67769800D02*
X137491115Y-67674561D01*
X137491115Y-67674561D02*
X137538734Y-67484085D01*
X137538734Y-67484085D02*
X137538734Y-67150752D01*
X137538734Y-67150752D02*
X137491115Y-66960276D01*
X137491115Y-66960276D02*
X137395877Y-66865038D01*
X137395877Y-66865038D02*
X137300639Y-66817419D01*
X137300639Y-66817419D02*
X137110163Y-66817419D01*
X137110163Y-66817419D02*
X137014925Y-66865038D01*
X137014925Y-66865038D02*
X136919687Y-66960276D01*
X136919687Y-66960276D02*
X136872068Y-67150752D01*
X136872068Y-67150752D02*
X136872068Y-67484085D01*
X136872068Y-67484085D02*
X136919687Y-67674561D01*
X136919687Y-67674561D02*
X137014925Y-67769800D01*
X137014925Y-67769800D02*
X137110163Y-67817419D01*
X137110163Y-67817419D02*
X137300639Y-67817419D01*
X135967306Y-66817419D02*
X136443496Y-66817419D01*
X136443496Y-66817419D02*
X136491115Y-67293609D01*
X136491115Y-67293609D02*
X136443496Y-67245990D01*
X136443496Y-67245990D02*
X136348258Y-67198371D01*
X136348258Y-67198371D02*
X136110163Y-67198371D01*
X136110163Y-67198371D02*
X136014925Y-67245990D01*
X136014925Y-67245990D02*
X135967306Y-67293609D01*
X135967306Y-67293609D02*
X135919687Y-67388847D01*
X135919687Y-67388847D02*
X135919687Y-67626942D01*
X135919687Y-67626942D02*
X135967306Y-67722180D01*
X135967306Y-67722180D02*
X136014925Y-67769800D01*
X136014925Y-67769800D02*
X136110163Y-67817419D01*
X136110163Y-67817419D02*
X136348258Y-67817419D01*
X136348258Y-67817419D02*
X136443496Y-67769800D01*
X136443496Y-67769800D02*
X136491115Y-67722180D01*
X152794687Y-70897180D02*
X152842306Y-70944800D01*
X152842306Y-70944800D02*
X152985163Y-70992419D01*
X152985163Y-70992419D02*
X153080401Y-70992419D01*
X153080401Y-70992419D02*
X153223258Y-70944800D01*
X153223258Y-70944800D02*
X153318496Y-70849561D01*
X153318496Y-70849561D02*
X153366115Y-70754323D01*
X153366115Y-70754323D02*
X153413734Y-70563847D01*
X153413734Y-70563847D02*
X153413734Y-70420990D01*
X153413734Y-70420990D02*
X153366115Y-70230514D01*
X153366115Y-70230514D02*
X153318496Y-70135276D01*
X153318496Y-70135276D02*
X153223258Y-70040038D01*
X153223258Y-70040038D02*
X153080401Y-69992419D01*
X153080401Y-69992419D02*
X152985163Y-69992419D01*
X152985163Y-69992419D02*
X152842306Y-70040038D01*
X152842306Y-70040038D02*
X152794687Y-70087657D01*
X152223258Y-70992419D02*
X152318496Y-70944800D01*
X152318496Y-70944800D02*
X152366115Y-70849561D01*
X152366115Y-70849561D02*
X152366115Y-69992419D01*
X151699448Y-70992419D02*
X151794686Y-70944800D01*
X151794686Y-70944800D02*
X151842305Y-70897180D01*
X151842305Y-70897180D02*
X151889924Y-70801942D01*
X151889924Y-70801942D02*
X151889924Y-70516228D01*
X151889924Y-70516228D02*
X151842305Y-70420990D01*
X151842305Y-70420990D02*
X151794686Y-70373371D01*
X151794686Y-70373371D02*
X151699448Y-70325752D01*
X151699448Y-70325752D02*
X151556591Y-70325752D01*
X151556591Y-70325752D02*
X151461353Y-70373371D01*
X151461353Y-70373371D02*
X151413734Y-70420990D01*
X151413734Y-70420990D02*
X151366115Y-70516228D01*
X151366115Y-70516228D02*
X151366115Y-70801942D01*
X151366115Y-70801942D02*
X151413734Y-70897180D01*
X151413734Y-70897180D02*
X151461353Y-70944800D01*
X151461353Y-70944800D02*
X151556591Y-70992419D01*
X151556591Y-70992419D02*
X151699448Y-70992419D01*
X150508972Y-70944800D02*
X150604210Y-70992419D01*
X150604210Y-70992419D02*
X150794686Y-70992419D01*
X150794686Y-70992419D02*
X150889924Y-70944800D01*
X150889924Y-70944800D02*
X150937543Y-70897180D01*
X150937543Y-70897180D02*
X150985162Y-70801942D01*
X150985162Y-70801942D02*
X150985162Y-70516228D01*
X150985162Y-70516228D02*
X150937543Y-70420990D01*
X150937543Y-70420990D02*
X150889924Y-70373371D01*
X150889924Y-70373371D02*
X150794686Y-70325752D01*
X150794686Y-70325752D02*
X150604210Y-70325752D01*
X150604210Y-70325752D02*
X150508972Y-70373371D01*
X150080400Y-70992419D02*
X150080400Y-69992419D01*
X149985162Y-70611466D02*
X149699448Y-70992419D01*
X149699448Y-70325752D02*
X150080400Y-70706704D01*
X144539687Y-65182180D02*
X144587306Y-65229800D01*
X144587306Y-65229800D02*
X144730163Y-65277419D01*
X144730163Y-65277419D02*
X144825401Y-65277419D01*
X144825401Y-65277419D02*
X144968258Y-65229800D01*
X144968258Y-65229800D02*
X145063496Y-65134561D01*
X145063496Y-65134561D02*
X145111115Y-65039323D01*
X145111115Y-65039323D02*
X145158734Y-64848847D01*
X145158734Y-64848847D02*
X145158734Y-64705990D01*
X145158734Y-64705990D02*
X145111115Y-64515514D01*
X145111115Y-64515514D02*
X145063496Y-64420276D01*
X145063496Y-64420276D02*
X144968258Y-64325038D01*
X144968258Y-64325038D02*
X144825401Y-64277419D01*
X144825401Y-64277419D02*
X144730163Y-64277419D01*
X144730163Y-64277419D02*
X144587306Y-64325038D01*
X144587306Y-64325038D02*
X144539687Y-64372657D01*
X143968258Y-65277419D02*
X144063496Y-65229800D01*
X144063496Y-65229800D02*
X144111115Y-65182180D01*
X144111115Y-65182180D02*
X144158734Y-65086942D01*
X144158734Y-65086942D02*
X144158734Y-64801228D01*
X144158734Y-64801228D02*
X144111115Y-64705990D01*
X144111115Y-64705990D02*
X144063496Y-64658371D01*
X144063496Y-64658371D02*
X143968258Y-64610752D01*
X143968258Y-64610752D02*
X143825401Y-64610752D01*
X143825401Y-64610752D02*
X143730163Y-64658371D01*
X143730163Y-64658371D02*
X143682544Y-64705990D01*
X143682544Y-64705990D02*
X143634925Y-64801228D01*
X143634925Y-64801228D02*
X143634925Y-65086942D01*
X143634925Y-65086942D02*
X143682544Y-65182180D01*
X143682544Y-65182180D02*
X143730163Y-65229800D01*
X143730163Y-65229800D02*
X143825401Y-65277419D01*
X143825401Y-65277419D02*
X143968258Y-65277419D01*
X142777782Y-64610752D02*
X142777782Y-65277419D01*
X143206353Y-64610752D02*
X143206353Y-65134561D01*
X143206353Y-65134561D02*
X143158734Y-65229800D01*
X143158734Y-65229800D02*
X143063496Y-65277419D01*
X143063496Y-65277419D02*
X142920639Y-65277419D01*
X142920639Y-65277419D02*
X142825401Y-65229800D01*
X142825401Y-65229800D02*
X142777782Y-65182180D01*
X142301591Y-64610752D02*
X142301591Y-65277419D01*
X142301591Y-64705990D02*
X142253972Y-64658371D01*
X142253972Y-64658371D02*
X142158734Y-64610752D01*
X142158734Y-64610752D02*
X142015877Y-64610752D01*
X142015877Y-64610752D02*
X141920639Y-64658371D01*
X141920639Y-64658371D02*
X141873020Y-64753609D01*
X141873020Y-64753609D02*
X141873020Y-65277419D01*
X141539686Y-64610752D02*
X141158734Y-64610752D01*
X141396829Y-64277419D02*
X141396829Y-65134561D01*
X141396829Y-65134561D02*
X141349210Y-65229800D01*
X141349210Y-65229800D02*
X141253972Y-65277419D01*
X141253972Y-65277419D02*
X141158734Y-65277419D01*
X140444448Y-65229800D02*
X140539686Y-65277419D01*
X140539686Y-65277419D02*
X140730162Y-65277419D01*
X140730162Y-65277419D02*
X140825400Y-65229800D01*
X140825400Y-65229800D02*
X140873019Y-65134561D01*
X140873019Y-65134561D02*
X140873019Y-64753609D01*
X140873019Y-64753609D02*
X140825400Y-64658371D01*
X140825400Y-64658371D02*
X140730162Y-64610752D01*
X140730162Y-64610752D02*
X140539686Y-64610752D01*
X140539686Y-64610752D02*
X140444448Y-64658371D01*
X140444448Y-64658371D02*
X140396829Y-64753609D01*
X140396829Y-64753609D02*
X140396829Y-64848847D01*
X140396829Y-64848847D02*
X140873019Y-64944085D01*
X139968257Y-65277419D02*
X139968257Y-64610752D01*
X139968257Y-64801228D02*
X139920638Y-64705990D01*
X139920638Y-64705990D02*
X139873019Y-64658371D01*
X139873019Y-64658371D02*
X139777781Y-64610752D01*
X139777781Y-64610752D02*
X139682543Y-64610752D01*
X138587304Y-65277419D02*
X138587304Y-64277419D01*
X137539686Y-65182180D02*
X137587305Y-65229800D01*
X137587305Y-65229800D02*
X137730162Y-65277419D01*
X137730162Y-65277419D02*
X137825400Y-65277419D01*
X137825400Y-65277419D02*
X137968257Y-65229800D01*
X137968257Y-65229800D02*
X138063495Y-65134561D01*
X138063495Y-65134561D02*
X138111114Y-65039323D01*
X138111114Y-65039323D02*
X138158733Y-64848847D01*
X138158733Y-64848847D02*
X138158733Y-64705990D01*
X138158733Y-64705990D02*
X138111114Y-64515514D01*
X138111114Y-64515514D02*
X138063495Y-64420276D01*
X138063495Y-64420276D02*
X137968257Y-64325038D01*
X137968257Y-64325038D02*
X137825400Y-64277419D01*
X137825400Y-64277419D02*
X137730162Y-64277419D01*
X137730162Y-64277419D02*
X137587305Y-64325038D01*
X137587305Y-64325038D02*
X137539686Y-64372657D01*
X157176115Y-64753609D02*
X156842782Y-64753609D01*
X156699925Y-65277419D02*
X157176115Y-65277419D01*
X157176115Y-65277419D02*
X157176115Y-64277419D01*
X157176115Y-64277419D02*
X156699925Y-64277419D01*
X136824449Y-83152657D02*
X136919687Y-83105038D01*
X136919687Y-83105038D02*
X137014925Y-83009800D01*
X137014925Y-83009800D02*
X137157782Y-82866942D01*
X137157782Y-82866942D02*
X137253020Y-82819323D01*
X137253020Y-82819323D02*
X137348258Y-82819323D01*
X137300639Y-83057419D02*
X137395877Y-83009800D01*
X137395877Y-83009800D02*
X137491115Y-82914561D01*
X137491115Y-82914561D02*
X137538734Y-82724085D01*
X137538734Y-82724085D02*
X137538734Y-82390752D01*
X137538734Y-82390752D02*
X137491115Y-82200276D01*
X137491115Y-82200276D02*
X137395877Y-82105038D01*
X137395877Y-82105038D02*
X137300639Y-82057419D01*
X137300639Y-82057419D02*
X137110163Y-82057419D01*
X137110163Y-82057419D02*
X137014925Y-82105038D01*
X137014925Y-82105038D02*
X136919687Y-82200276D01*
X136919687Y-82200276D02*
X136872068Y-82390752D01*
X136872068Y-82390752D02*
X136872068Y-82724085D01*
X136872068Y-82724085D02*
X136919687Y-82914561D01*
X136919687Y-82914561D02*
X137014925Y-83009800D01*
X137014925Y-83009800D02*
X137110163Y-83057419D01*
X137110163Y-83057419D02*
X137300639Y-83057419D01*
X136538734Y-82057419D02*
X135919687Y-82057419D01*
X135919687Y-82057419D02*
X136253020Y-82438371D01*
X136253020Y-82438371D02*
X136110163Y-82438371D01*
X136110163Y-82438371D02*
X136014925Y-82485990D01*
X136014925Y-82485990D02*
X135967306Y-82533609D01*
X135967306Y-82533609D02*
X135919687Y-82628847D01*
X135919687Y-82628847D02*
X135919687Y-82866942D01*
X135919687Y-82866942D02*
X135967306Y-82962180D01*
X135967306Y-82962180D02*
X136014925Y-83009800D01*
X136014925Y-83009800D02*
X136110163Y-83057419D01*
X136110163Y-83057419D02*
X136395877Y-83057419D01*
X136395877Y-83057419D02*
X136491115Y-83009800D01*
X136491115Y-83009800D02*
X136538734Y-82962180D01*
X133046115Y-62102419D02*
X133046115Y-61102419D01*
X132474687Y-62102419D02*
X132903258Y-61530990D01*
X132474687Y-61102419D02*
X133046115Y-61673847D01*
X150159449Y-83152657D02*
X150254687Y-83105038D01*
X150254687Y-83105038D02*
X150349925Y-83009800D01*
X150349925Y-83009800D02*
X150492782Y-82866942D01*
X150492782Y-82866942D02*
X150588020Y-82819323D01*
X150588020Y-82819323D02*
X150683258Y-82819323D01*
X150635639Y-83057419D02*
X150730877Y-83009800D01*
X150730877Y-83009800D02*
X150826115Y-82914561D01*
X150826115Y-82914561D02*
X150873734Y-82724085D01*
X150873734Y-82724085D02*
X150873734Y-82390752D01*
X150873734Y-82390752D02*
X150826115Y-82200276D01*
X150826115Y-82200276D02*
X150730877Y-82105038D01*
X150730877Y-82105038D02*
X150635639Y-82057419D01*
X150635639Y-82057419D02*
X150445163Y-82057419D01*
X150445163Y-82057419D02*
X150349925Y-82105038D01*
X150349925Y-82105038D02*
X150254687Y-82200276D01*
X150254687Y-82200276D02*
X150207068Y-82390752D01*
X150207068Y-82390752D02*
X150207068Y-82724085D01*
X150207068Y-82724085D02*
X150254687Y-82914561D01*
X150254687Y-82914561D02*
X150349925Y-83009800D01*
X150349925Y-83009800D02*
X150445163Y-83057419D01*
X150445163Y-83057419D02*
X150635639Y-83057419D01*
X149349925Y-82390752D02*
X149349925Y-83057419D01*
X149588020Y-82009800D02*
X149826115Y-82724085D01*
X149826115Y-82724085D02*
X149207068Y-82724085D01*
X171662068Y-94489800D02*
X170519211Y-94489800D01*
X171090639Y-95061228D02*
X171090639Y-93918371D01*
X156842782Y-69833609D02*
X156699925Y-69881228D01*
X156699925Y-69881228D02*
X156652306Y-69928847D01*
X156652306Y-69928847D02*
X156604687Y-70024085D01*
X156604687Y-70024085D02*
X156604687Y-70166942D01*
X156604687Y-70166942D02*
X156652306Y-70262180D01*
X156652306Y-70262180D02*
X156699925Y-70309800D01*
X156699925Y-70309800D02*
X156795163Y-70357419D01*
X156795163Y-70357419D02*
X157176115Y-70357419D01*
X157176115Y-70357419D02*
X157176115Y-69357419D01*
X157176115Y-69357419D02*
X156842782Y-69357419D01*
X156842782Y-69357419D02*
X156747544Y-69405038D01*
X156747544Y-69405038D02*
X156699925Y-69452657D01*
X156699925Y-69452657D02*
X156652306Y-69547895D01*
X156652306Y-69547895D02*
X156652306Y-69643133D01*
X156652306Y-69643133D02*
X156699925Y-69738371D01*
X156699925Y-69738371D02*
X156747544Y-69785990D01*
X156747544Y-69785990D02*
X156842782Y-69833609D01*
X156842782Y-69833609D02*
X157176115Y-69833609D01*
X150159449Y-80612657D02*
X150254687Y-80565038D01*
X150254687Y-80565038D02*
X150349925Y-80469800D01*
X150349925Y-80469800D02*
X150492782Y-80326942D01*
X150492782Y-80326942D02*
X150588020Y-80279323D01*
X150588020Y-80279323D02*
X150683258Y-80279323D01*
X150635639Y-80517419D02*
X150730877Y-80469800D01*
X150730877Y-80469800D02*
X150826115Y-80374561D01*
X150826115Y-80374561D02*
X150873734Y-80184085D01*
X150873734Y-80184085D02*
X150873734Y-79850752D01*
X150873734Y-79850752D02*
X150826115Y-79660276D01*
X150826115Y-79660276D02*
X150730877Y-79565038D01*
X150730877Y-79565038D02*
X150635639Y-79517419D01*
X150635639Y-79517419D02*
X150445163Y-79517419D01*
X150445163Y-79517419D02*
X150349925Y-79565038D01*
X150349925Y-79565038D02*
X150254687Y-79660276D01*
X150254687Y-79660276D02*
X150207068Y-79850752D01*
X150207068Y-79850752D02*
X150207068Y-80184085D01*
X150207068Y-80184085D02*
X150254687Y-80374561D01*
X150254687Y-80374561D02*
X150349925Y-80469800D01*
X150349925Y-80469800D02*
X150445163Y-80517419D01*
X150445163Y-80517419D02*
X150635639Y-80517419D01*
X149730877Y-80517419D02*
X149540401Y-80517419D01*
X149540401Y-80517419D02*
X149445163Y-80469800D01*
X149445163Y-80469800D02*
X149397544Y-80422180D01*
X149397544Y-80422180D02*
X149302306Y-80279323D01*
X149302306Y-80279323D02*
X149254687Y-80088847D01*
X149254687Y-80088847D02*
X149254687Y-79707895D01*
X149254687Y-79707895D02*
X149302306Y-79612657D01*
X149302306Y-79612657D02*
X149349925Y-79565038D01*
X149349925Y-79565038D02*
X149445163Y-79517419D01*
X149445163Y-79517419D02*
X149635639Y-79517419D01*
X149635639Y-79517419D02*
X149730877Y-79565038D01*
X149730877Y-79565038D02*
X149778496Y-79612657D01*
X149778496Y-79612657D02*
X149826115Y-79707895D01*
X149826115Y-79707895D02*
X149826115Y-79945990D01*
X149826115Y-79945990D02*
X149778496Y-80041228D01*
X149778496Y-80041228D02*
X149730877Y-80088847D01*
X149730877Y-80088847D02*
X149635639Y-80136466D01*
X149635639Y-80136466D02*
X149445163Y-80136466D01*
X149445163Y-80136466D02*
X149349925Y-80088847D01*
X149349925Y-80088847D02*
X149302306Y-80041228D01*
X149302306Y-80041228D02*
X149254687Y-79945990D01*
M02*
