M48
; DRILL file {KiCad 8.0.5} date 2024-11-23T09:58:27+0900
; FORMAT={-:-/ absolute / metric / decimal}
; #@! TF.CreationDate,2024-11-23T09:58:27+09:00
; #@! TF.GenerationSoftware,Kicad,Pcbnew,8.0.5
; #@! TF.FileFunction,MixedPlating,1,2
FMAT,2
METRIC
; #@! TA.AperFunction,Plated,PTH,ViaDrill
T1C0.300
; #@! TA.AperFunction,Plated,PTH,ComponentDrill
T2C0.700
; #@! TA.AperFunction,Plated,PTH,ComponentDrill
T3C0.800
; #@! TA.AperFunction,Plated,PTH,ComponentDrill
T4C1.000
; #@! TA.AperFunction,NonPlated,NPTH,ComponentDrill
T5C2.700
%
G90
G05
T1
X129.54Y-63.5
X129.54Y-88.9
X132.08Y-68.58
X132.08Y-83.82
X133.985Y-99.06
X137.16Y-53.34
X137.16Y-73.025
X137.16Y-76.835
X139.7Y-59.69
X141.605Y-63.5
X141.605Y-89.535
X143.51Y-68.58
X143.51Y-81.28
X147.32Y-59.055
X147.32Y-87.63
X147.32Y-92.71
X149.86Y-80.01
X151.13Y-82.55
X152.4Y-69.85
X152.4Y-91.44
X152.4Y-96.52
X153.035Y-76.2
X153.67Y-73.66
X154.305Y-78.105
X155.575Y-59.055
X156.845Y-71.12
X157.48Y-93.98
X158.115Y-75.565
X158.115Y-80.01
X158.75Y-88.9
X158.75Y-91.44
X160.655Y-59.055
X160.655Y-68.58
X160.655Y-71.12
X161.29Y-78.105
X163.83Y-75.565
X164.465Y-87.63
X164.465Y-91.44
X165.1Y-83.82
X166.37Y-59.69
X167.64Y-53.34
X167.64Y-66.675
X168.91Y-86.995
X169.545Y-78.105
X169.545Y-81.915
X170.18Y-68.58
X170.815Y-99.06
X173.99Y-82.55
X175.26Y-63.5
X175.26Y-88.9
T2
X152.4Y-72.39
X152.4Y-80.01
X153.79Y-84.995
X154.94Y-72.39
X154.94Y-80.01
X156.29Y-84.995
X157.48Y-62.23
X159.897Y-79.528
X161.897Y-74.447
X161.897Y-79.528
X161.925Y-83.82
X165.1Y-62.23
X165.612Y-79.528
X167.612Y-79.528
X169.545Y-83.82
T3
X129.54Y-76.2
X132.08Y-76.2
X133.35Y-63.5
X133.35Y-88.9
X135.89Y-63.5
X135.89Y-88.9
X139.7Y-67.31
X139.7Y-69.85
X139.7Y-72.39
X139.7Y-74.93
X139.7Y-77.47
X139.7Y-80.01
X139.7Y-82.55
X139.7Y-85.09
X144.14Y-55.88
X144.145Y-96.52
X146.68Y-55.88
X146.685Y-96.52
X147.32Y-67.31
X147.32Y-69.85
X147.32Y-72.39
X147.32Y-74.93
X147.32Y-77.47
X147.32Y-80.01
X147.32Y-82.55
X147.32Y-85.09
X150.495Y-62.27
X150.495Y-67.27
X154.998Y-64.76
X154.998Y-67.3
X154.998Y-69.84
X158.11Y-96.52
X158.115Y-55.88
X160.65Y-96.52
X160.655Y-55.88
X168.91Y-63.5
X168.91Y-88.9
X171.45Y-63.5
X171.45Y-88.9
X172.72Y-76.2
X175.26Y-76.2
T4
X137.4Y-93.98
X167.4Y-93.98
T5
X133.35Y-54.61
X152.4Y-54.61
X171.45Y-54.61
M30
