%TF.GenerationSoftware,KiCad,Pcbnew,8.0.5*%
%TF.CreationDate,2024-11-23T09:58:24+09:00*%
%TF.ProjectId,voice4017,766f6963-6534-4303-9137-2e6b69636164,rev?*%
%TF.SameCoordinates,Original*%
%TF.FileFunction,Copper,L2,Bot*%
%TF.FilePolarity,Positive*%
%FSLAX46Y46*%
G04 Gerber Fmt 4.6, Leading zero omitted, Abs format (unit mm)*
G04 Created by KiCad (PCBNEW 8.0.5) date 2024-11-23 09:58:24*
%MOMM*%
%LPD*%
G01*
G04 APERTURE LIST*
G04 Aperture macros list*
%AMRoundRect*
0 Rectangle with rounded corners*
0 $1 Rounding radius*
0 $2 $3 $4 $5 $6 $7 $8 $9 X,Y pos of 4 corners*
0 Add a 4 corners polygon primitive as box body*
4,1,4,$2,$3,$4,$5,$6,$7,$8,$9,$2,$3,0*
0 Add four circle primitives for the rounded corners*
1,1,$1+$1,$2,$3*
1,1,$1+$1,$4,$5*
1,1,$1+$1,$6,$7*
1,1,$1+$1,$8,$9*
0 Add four rect primitives between the rounded corners*
20,1,$1+$1,$2,$3,$4,$5,0*
20,1,$1+$1,$4,$5,$6,$7,0*
20,1,$1+$1,$6,$7,$8,$9,0*
20,1,$1+$1,$8,$9,$2,$3,0*%
G04 Aperture macros list end*
%TA.AperFunction,ComponentPad*%
%ADD10R,1.600000X1.600000*%
%TD*%
%TA.AperFunction,ComponentPad*%
%ADD11C,1.600000*%
%TD*%
%TA.AperFunction,ComponentPad*%
%ADD12C,1.400000*%
%TD*%
%TA.AperFunction,ComponentPad*%
%ADD13C,1.500000*%
%TD*%
%TA.AperFunction,ComponentPad*%
%ADD14RoundRect,0.350000X-0.350000X-0.350000X0.350000X-0.350000X0.350000X0.350000X-0.350000X0.350000X0*%
%TD*%
%TA.AperFunction,ComponentPad*%
%ADD15C,2.000000*%
%TD*%
%TA.AperFunction,ComponentPad*%
%ADD16R,1.400000X1.400000*%
%TD*%
%TA.AperFunction,ComponentPad*%
%ADD17O,1.400000X1.400000*%
%TD*%
%TA.AperFunction,ComponentPad*%
%ADD18R,2.400000X1.600000*%
%TD*%
%TA.AperFunction,ComponentPad*%
%ADD19O,2.400000X1.600000*%
%TD*%
%TA.AperFunction,ViaPad*%
%ADD20C,0.600000*%
%TD*%
%TA.AperFunction,Conductor*%
%ADD21C,0.200000*%
%TD*%
G04 APERTURE END LIST*
D10*
%TO.P,D10,1,K*%
%TO.N,Net-(D1-K)*%
X129540000Y-76200000D03*
D11*
%TO.P,D10,2,A*%
%TO.N,Net-(D10-A)*%
X132080000Y-76200000D03*
%TD*%
D10*
%TO.P,D9,1,K*%
%TO.N,Net-(D1-K)*%
X133350000Y-88900000D03*
D11*
%TO.P,D9,2,A*%
%TO.N,Net-(D9-A)*%
X135890000Y-88900000D03*
%TD*%
D10*
%TO.P,D8,1,K*%
%TO.N,Net-(D1-K)*%
X144145000Y-96520000D03*
D11*
%TO.P,D8,2,A*%
%TO.N,Net-(D8-A)*%
X146685000Y-96520000D03*
%TD*%
D10*
%TO.P,D7,1,K*%
%TO.N,Net-(D1-K)*%
X158110000Y-96520000D03*
D11*
%TO.P,D7,2,A*%
%TO.N,Net-(D7-A)*%
X160650000Y-96520000D03*
%TD*%
D10*
%TO.P,D6,1,K*%
%TO.N,Net-(D1-K)*%
X168910000Y-88900000D03*
D11*
%TO.P,D6,2,A*%
%TO.N,Net-(D6-A)*%
X171450000Y-88900000D03*
%TD*%
D10*
%TO.P,D5,1,K*%
%TO.N,Net-(D1-K)*%
X172720000Y-76200000D03*
D11*
%TO.P,D5,2,A*%
%TO.N,Net-(D5-A)*%
X175260000Y-76200000D03*
%TD*%
D10*
%TO.P,D4,1,K*%
%TO.N,Net-(D1-K)*%
X168910000Y-63500000D03*
D11*
%TO.P,D4,2,A*%
%TO.N,Net-(D4-A)*%
X171450000Y-63500000D03*
%TD*%
D10*
%TO.P,D3,1,K*%
%TO.N,Net-(D1-K)*%
X158115000Y-55880000D03*
D11*
%TO.P,D3,2,A*%
%TO.N,Net-(D3-A)*%
X160655000Y-55880000D03*
%TD*%
D10*
%TO.P,D2,1,K*%
%TO.N,Net-(D1-K)*%
X144140000Y-55880000D03*
D11*
%TO.P,D2,2,A*%
%TO.N,Net-(D2-A)*%
X146680000Y-55880000D03*
%TD*%
D10*
%TO.P,D1,1,K*%
%TO.N,Net-(D1-K)*%
X133350000Y-63500000D03*
D11*
%TO.P,D1,2,A*%
%TO.N,Net-(D1-A)*%
X135890000Y-63500000D03*
%TD*%
D12*
%TO.P,,2*%
%TO.N,Net-(Q1-B)*%
X161897500Y-74447500D03*
%TD*%
D13*
%TO.P,Q1,1,E*%
%TO.N,GND*%
X154998000Y-64760000D03*
%TO.P,Q1,2,C*%
%TO.N,Net-(Q1-C)*%
X154998000Y-67300000D03*
%TO.P,Q1,3,B*%
%TO.N,Net-(Q1-B)*%
X154998000Y-69840000D03*
%TD*%
D14*
%TO.P,U2,1,-*%
%TO.N,GND*%
X153790000Y-84995000D03*
D12*
%TO.P,U2,2,+*%
%TO.N,Net-(U2-+)*%
X156290000Y-84995000D03*
%TD*%
D15*
%TO.P,J1,1,1*%
%TO.N,VCC*%
X167400000Y-93980000D03*
%TD*%
D11*
%TO.P,C3,1*%
%TO.N,VCC*%
X150495000Y-67270000D03*
%TO.P,C3,2*%
%TO.N,GND*%
X150495000Y-62270000D03*
%TD*%
D16*
%TO.P,C2,1*%
%TO.N,Net-(U2-+)*%
X161897500Y-79527500D03*
D12*
%TO.P,C2,2*%
%TO.N,Net-(Q1-B)*%
X159897500Y-79527500D03*
%TD*%
%TO.P,R4,1*%
%TO.N,Net-(D1-K)*%
X165100000Y-62230000D03*
D17*
%TO.P,R4,2*%
%TO.N,GND*%
X157480000Y-62230000D03*
%TD*%
D12*
%TO.P,R1,1*%
%TO.N,VCC*%
X169545000Y-83820000D03*
D17*
%TO.P,R1,2*%
%TO.N,Net-(U2-+)*%
X161925000Y-83820000D03*
%TD*%
D18*
%TO.P,U1,1,Q5*%
%TO.N,Net-(D3-A)*%
X139700000Y-67310000D03*
D19*
%TO.P,U1,2,Q1*%
%TO.N,Net-(D2-A)*%
X139700000Y-69850000D03*
%TO.P,U1,3,Q0*%
%TO.N,Net-(D1-A)*%
X139700000Y-72390000D03*
%TO.P,U1,4,Q2*%
%TO.N,Net-(D10-A)*%
X139700000Y-74930000D03*
%TO.P,U1,5,Q6*%
%TO.N,Net-(D9-A)*%
X139700000Y-77470000D03*
%TO.P,U1,6,Q7*%
%TO.N,Net-(D8-A)*%
X139700000Y-80010000D03*
%TO.P,U1,7,Q3*%
%TO.N,Net-(D7-A)*%
X139700000Y-82550000D03*
%TO.P,U1,8,VSS*%
%TO.N,GND*%
X139700000Y-85090000D03*
%TO.P,U1,9,Q8*%
%TO.N,Net-(D6-A)*%
X147320000Y-85090000D03*
%TO.P,U1,10,Q4*%
%TO.N,Net-(D5-A)*%
X147320000Y-82550000D03*
%TO.P,U1,11,Q9*%
%TO.N,Net-(D4-A)*%
X147320000Y-80010000D03*
%TO.P,U1,12,Cout*%
%TO.N,unconnected-(U1-Cout-Pad12)*%
X147320000Y-77470000D03*
%TO.P,U1,13,CKEN*%
%TO.N,GND*%
X147320000Y-74930000D03*
%TO.P,U1,14,CLK*%
%TO.N,Net-(Q1-C)*%
X147320000Y-72390000D03*
%TO.P,U1,15,Reset*%
%TO.N,GND*%
X147320000Y-69850000D03*
%TO.P,U1,16,VDD*%
%TO.N,VCC*%
X147320000Y-67310000D03*
%TD*%
D12*
%TO.P,R2,1*%
%TO.N,VCC*%
X154940000Y-80010000D03*
D17*
%TO.P,R2,2*%
%TO.N,Net-(Q1-B)*%
X154940000Y-72390000D03*
%TD*%
D15*
%TO.P,J2,1,1*%
%TO.N,GND*%
X137400000Y-93980000D03*
%TD*%
D16*
%TO.P,C1,1*%
%TO.N,VCC*%
X167612500Y-79527500D03*
D12*
%TO.P,C1,2*%
%TO.N,GND*%
X165612500Y-79527500D03*
%TD*%
%TO.P,R3,1*%
%TO.N,VCC*%
X152400000Y-80010000D03*
D17*
%TO.P,R3,2*%
%TO.N,Net-(Q1-C)*%
X152400000Y-72390000D03*
%TD*%
D20*
%TO.N,GND*%
X153035000Y-76200000D03*
X149860000Y-80010000D03*
X160655000Y-68580000D03*
X167640000Y-53340000D03*
X132080000Y-83820000D03*
X160655000Y-59055000D03*
X164465000Y-87630000D03*
X141605000Y-63500000D03*
X154305000Y-78105000D03*
X169545000Y-81915000D03*
X152400000Y-96520000D03*
X129540000Y-88900000D03*
X152400000Y-69850000D03*
X143510000Y-81280000D03*
X143510000Y-68580000D03*
X170815000Y-99060000D03*
X167640000Y-66675000D03*
X175260000Y-88900000D03*
X161290000Y-78105000D03*
X168910000Y-86995000D03*
X137160000Y-76835000D03*
X158750000Y-91440000D03*
X166370000Y-59690000D03*
X165100000Y-83820000D03*
X133985000Y-99060000D03*
X158750000Y-88900000D03*
X137160000Y-53340000D03*
X147320000Y-92710000D03*
X158115000Y-75565000D03*
X153670000Y-73660000D03*
X175260000Y-63500000D03*
X152400000Y-91440000D03*
X151130000Y-82550000D03*
X157480000Y-93980000D03*
X147320000Y-87630000D03*
X164465000Y-91440000D03*
X155575000Y-59055000D03*
X160655000Y-71120000D03*
X137160000Y-73025000D03*
X147320000Y-59055000D03*
X156845000Y-71120000D03*
X132080000Y-68580000D03*
X129540000Y-63500000D03*
X139700000Y-59690000D03*
X158115000Y-80010000D03*
X141605000Y-89535000D03*
X173990000Y-82550000D03*
X169545000Y-78105000D03*
X170180000Y-68580000D03*
X163830000Y-75565000D03*
%TD*%
D21*
%TO.N,Net-(D4-A)*%
X171450000Y-63500000D02*
X171450000Y-64914214D01*
X171450000Y-64914214D02*
X166514214Y-69850000D01*
X166514214Y-69850000D02*
X159809264Y-69850000D01*
X159809264Y-69850000D02*
X154729264Y-74930000D01*
X154729264Y-74930000D02*
X153035000Y-74930000D01*
X153035000Y-74930000D02*
X147955000Y-80010000D01*
X147955000Y-80010000D02*
X147320000Y-80010000D01*
%TO.N,Net-(D5-A)*%
X175260000Y-76200000D02*
X174160000Y-75100000D01*
X174160000Y-75100000D02*
X171280000Y-75100000D01*
X171280000Y-75100000D02*
X169545000Y-76835000D01*
X169545000Y-76835000D02*
X154091471Y-76835000D01*
X154091471Y-76835000D02*
X151130000Y-79796471D01*
X151130000Y-80645000D02*
X149225000Y-82550000D01*
X151130000Y-79796471D02*
X151130000Y-80645000D01*
X149225000Y-82550000D02*
X147320000Y-82550000D01*
%TO.N,Net-(D6-A)*%
X171450000Y-88900000D02*
X170180000Y-90170000D01*
X170180000Y-90170000D02*
X152400000Y-90170000D01*
X152400000Y-90170000D02*
X147320000Y-85090000D01*
%TO.N,Net-(U2-+)*%
X161925000Y-83820000D02*
X161925000Y-79555000D01*
X161925000Y-79555000D02*
X161897500Y-79527500D01*
%TO.N,Net-(D1-A)*%
X139700000Y-72390000D02*
X139065000Y-72390000D01*
X139065000Y-72390000D02*
X135890000Y-69215000D01*
X135890000Y-69215000D02*
X135890000Y-63500000D01*
%TO.N,Net-(D2-A)*%
X138200000Y-68350000D02*
X138200000Y-65000000D01*
X139700000Y-69850000D02*
X138200000Y-68350000D01*
X138200000Y-65000000D02*
X146680000Y-56520000D01*
X146680000Y-56520000D02*
X146680000Y-55880000D01*
%TO.N,Net-(D3-A)*%
X139700000Y-67310000D02*
X146685000Y-60325000D01*
X160655000Y-55880000D02*
X156210000Y-60325000D01*
X156210000Y-60325000D02*
X146685000Y-60325000D01*
%TO.N,Net-(D7-A)*%
X137160000Y-85725000D02*
X137160000Y-83820000D01*
X160650000Y-95247208D02*
X158112792Y-92710000D01*
X144780000Y-88265000D02*
X139700000Y-88265000D01*
X139700000Y-88265000D02*
X137160000Y-85725000D01*
X160650000Y-96520000D02*
X160650000Y-95247208D01*
X137160000Y-83820000D02*
X138430000Y-82550000D01*
X138430000Y-82550000D02*
X139700000Y-82550000D01*
X149225000Y-92710000D02*
X144780000Y-88265000D01*
X158112792Y-92710000D02*
X149225000Y-92710000D01*
%TO.N,Net-(D8-A)*%
X136525000Y-86360000D02*
X136525000Y-82550000D01*
X136525000Y-82550000D02*
X139065000Y-80010000D01*
X146685000Y-96520000D02*
X136525000Y-86360000D01*
X139065000Y-80010000D02*
X139700000Y-80010000D01*
%TO.N,Net-(D9-A)*%
X135890000Y-88900000D02*
X135890000Y-80645000D01*
X139065000Y-77470000D02*
X139700000Y-77470000D01*
X135890000Y-80645000D02*
X139065000Y-77470000D01*
%TO.N,Net-(D10-A)*%
X139700000Y-74930000D02*
X136525000Y-74930000D01*
X135255000Y-76200000D02*
X135890000Y-75565000D01*
X132080000Y-76200000D02*
X135255000Y-76200000D01*
X136525000Y-74930000D02*
X135890000Y-75565000D01*
%TO.N,Net-(Q1-C)*%
X147320000Y-72390000D02*
X152400000Y-72390000D01*
%TD*%
%TA.AperFunction,Conductor*%
%TO.N,GND*%
G36*
X173932863Y-52089685D02*
G01*
X173953505Y-52106319D01*
X176493681Y-54646495D01*
X176527166Y-54707818D01*
X176530000Y-54734176D01*
X176530000Y-75353116D01*
X176510315Y-75420155D01*
X176457511Y-75465910D01*
X176388353Y-75475854D01*
X176324797Y-75446829D01*
X176304425Y-75424239D01*
X176260046Y-75360859D01*
X176099141Y-75199954D01*
X175912734Y-75069432D01*
X175912732Y-75069431D01*
X175706496Y-74973260D01*
X175672586Y-74964174D01*
X175667131Y-74962578D01*
X174469759Y-74582116D01*
X174445312Y-74571326D01*
X174427918Y-74561284D01*
X174427918Y-74561283D01*
X174427913Y-74561282D01*
X174391785Y-74540423D01*
X174239057Y-74499499D01*
X174080943Y-74499499D01*
X174073347Y-74499499D01*
X174073331Y-74499500D01*
X171366670Y-74499500D01*
X171366654Y-74499499D01*
X171359058Y-74499499D01*
X171200943Y-74499499D01*
X171124579Y-74519961D01*
X171048214Y-74540423D01*
X171048209Y-74540426D01*
X170911290Y-74619475D01*
X170911282Y-74619481D01*
X169332584Y-76198181D01*
X169271261Y-76231666D01*
X169244903Y-76234500D01*
X154012411Y-76234500D01*
X153971490Y-76245464D01*
X153971490Y-76245465D01*
X153934222Y-76255451D01*
X153859685Y-76275423D01*
X153859680Y-76275426D01*
X153722761Y-76354475D01*
X153722753Y-76354481D01*
X150649479Y-79427755D01*
X150629924Y-79461626D01*
X150621659Y-79475943D01*
X150589301Y-79531989D01*
X150572846Y-79560490D01*
X150570423Y-79564686D01*
X150529499Y-79717414D01*
X150529499Y-79717416D01*
X150529499Y-79885517D01*
X150529500Y-79885530D01*
X150529500Y-80344902D01*
X150509815Y-80411941D01*
X150493181Y-80432583D01*
X149182544Y-81743219D01*
X149121221Y-81776704D01*
X149051529Y-81771720D01*
X149038140Y-81765803D01*
X148412274Y-81443842D01*
X148404214Y-81439309D01*
X148401611Y-81437714D01*
X148401612Y-81437714D01*
X148401610Y-81437713D01*
X148308917Y-81390483D01*
X148258123Y-81342510D01*
X148241328Y-81274689D01*
X148263865Y-81208554D01*
X148308917Y-81169516D01*
X148401610Y-81122287D01*
X148460159Y-81079749D01*
X148567213Y-81001971D01*
X148567215Y-81001968D01*
X148567219Y-81001966D01*
X148711966Y-80857219D01*
X148711968Y-80857215D01*
X148711971Y-80857213D01*
X148801446Y-80734059D01*
X148832287Y-80691610D01*
X148925220Y-80509219D01*
X148964371Y-80388723D01*
X148970320Y-80373787D01*
X149442034Y-79382313D01*
X149466322Y-79347911D01*
X153247416Y-75566819D01*
X153308739Y-75533334D01*
X153335097Y-75530500D01*
X154642595Y-75530500D01*
X154642611Y-75530501D01*
X154650207Y-75530501D01*
X154808318Y-75530501D01*
X154808321Y-75530501D01*
X154961049Y-75489577D01*
X155011168Y-75460639D01*
X155097980Y-75410520D01*
X155209784Y-75298716D01*
X155209784Y-75298714D01*
X155219992Y-75288507D01*
X155219993Y-75288504D01*
X156060998Y-74447499D01*
X160691857Y-74447499D01*
X160691857Y-74447500D01*
X160712384Y-74669035D01*
X160712385Y-74669037D01*
X160773269Y-74883023D01*
X160773275Y-74883038D01*
X160872438Y-75082183D01*
X160872443Y-75082191D01*
X161006520Y-75259738D01*
X161170937Y-75409623D01*
X161170939Y-75409625D01*
X161360095Y-75526745D01*
X161360096Y-75526745D01*
X161360099Y-75526747D01*
X161567560Y-75607118D01*
X161786257Y-75648000D01*
X161786259Y-75648000D01*
X162008741Y-75648000D01*
X162008743Y-75648000D01*
X162227440Y-75607118D01*
X162434901Y-75526747D01*
X162624062Y-75409624D01*
X162788481Y-75259736D01*
X162922558Y-75082189D01*
X163021729Y-74883028D01*
X163082615Y-74669036D01*
X163103143Y-74447500D01*
X163082615Y-74225964D01*
X163021729Y-74011972D01*
X162985103Y-73938417D01*
X162922561Y-73812816D01*
X162922556Y-73812808D01*
X162788479Y-73635261D01*
X162624062Y-73485376D01*
X162624060Y-73485374D01*
X162434904Y-73368254D01*
X162434898Y-73368252D01*
X162227440Y-73287882D01*
X162008743Y-73247000D01*
X161786257Y-73247000D01*
X161567560Y-73287882D01*
X161436364Y-73338707D01*
X161360101Y-73368252D01*
X161360095Y-73368254D01*
X161170939Y-73485374D01*
X161170937Y-73485376D01*
X161006520Y-73635261D01*
X160872443Y-73812808D01*
X160872438Y-73812816D01*
X160773275Y-74011961D01*
X160773269Y-74011976D01*
X160712385Y-74225962D01*
X160712384Y-74225964D01*
X160691857Y-74447499D01*
X156060998Y-74447499D01*
X160021680Y-70486819D01*
X160083003Y-70453334D01*
X160109361Y-70450500D01*
X166427545Y-70450500D01*
X166427561Y-70450501D01*
X166435157Y-70450501D01*
X166593268Y-70450501D01*
X166593271Y-70450501D01*
X166745999Y-70409577D01*
X166796118Y-70380639D01*
X166882930Y-70330520D01*
X166994734Y-70218716D01*
X166994734Y-70218714D01*
X167004942Y-70208507D01*
X167004943Y-70208504D01*
X171725422Y-65488026D01*
X171734774Y-65479581D01*
X171736870Y-65477875D01*
X171739317Y-65474914D01*
X171747183Y-65466265D01*
X171930520Y-65282930D01*
X172009577Y-65145998D01*
X172041041Y-65028571D01*
X172054976Y-64996059D01*
X172098110Y-64925399D01*
X172494355Y-64276282D01*
X172498592Y-64269806D01*
X172580568Y-64152734D01*
X172614441Y-64080091D01*
X172618570Y-64072023D01*
X172632425Y-64047231D01*
X172633243Y-64045625D01*
X172647884Y-64008855D01*
X172650689Y-64002356D01*
X172676739Y-63946496D01*
X172735635Y-63726692D01*
X172755468Y-63500000D01*
X172735635Y-63273308D01*
X172676739Y-63053504D01*
X172580568Y-62847266D01*
X172450047Y-62660861D01*
X172450045Y-62660858D01*
X172289141Y-62499954D01*
X172102734Y-62369432D01*
X172102732Y-62369431D01*
X171896497Y-62273261D01*
X171896488Y-62273258D01*
X171676697Y-62214366D01*
X171676693Y-62214365D01*
X171676692Y-62214365D01*
X171676691Y-62214364D01*
X171676686Y-62214364D01*
X171450002Y-62194532D01*
X171449998Y-62194532D01*
X171223313Y-62214364D01*
X171223302Y-62214366D01*
X171003511Y-62273258D01*
X171003502Y-62273261D01*
X170797267Y-62369431D01*
X170797265Y-62369432D01*
X170610858Y-62499954D01*
X170449954Y-62660858D01*
X170432725Y-62685464D01*
X170378147Y-62729088D01*
X170308648Y-62736280D01*
X170246294Y-62704757D01*
X170210882Y-62644526D01*
X170207861Y-62627591D01*
X170204091Y-62592516D01*
X170153797Y-62457671D01*
X170153793Y-62457664D01*
X170067547Y-62342455D01*
X170067544Y-62342452D01*
X169952335Y-62256206D01*
X169952328Y-62256202D01*
X169817482Y-62205908D01*
X169817483Y-62205908D01*
X169757883Y-62199501D01*
X169757881Y-62199500D01*
X169757873Y-62199500D01*
X169757864Y-62199500D01*
X168062129Y-62199500D01*
X168062123Y-62199501D01*
X168002516Y-62205908D01*
X167867671Y-62256202D01*
X167867664Y-62256206D01*
X167752455Y-62342452D01*
X167752452Y-62342455D01*
X167666206Y-62457664D01*
X167666202Y-62457671D01*
X167615908Y-62592517D01*
X167609501Y-62652116D01*
X167609500Y-62652135D01*
X167609500Y-64347870D01*
X167609501Y-64347876D01*
X167615908Y-64407483D01*
X167666202Y-64542328D01*
X167666206Y-64542335D01*
X167752452Y-64657544D01*
X167752455Y-64657547D01*
X167867664Y-64743793D01*
X167867671Y-64743797D01*
X168002517Y-64794091D01*
X168002516Y-64794091D01*
X168009444Y-64794835D01*
X168062127Y-64800500D01*
X169757872Y-64800499D01*
X169817483Y-64794091D01*
X169952331Y-64743796D01*
X170067546Y-64657546D01*
X170153796Y-64542331D01*
X170201434Y-64414605D01*
X170243304Y-64358672D01*
X170308769Y-64334254D01*
X170377042Y-64349105D01*
X170426448Y-64398510D01*
X170430290Y-64406165D01*
X170492856Y-64542328D01*
X170585428Y-64743793D01*
X170607874Y-64792641D01*
X170617979Y-64861776D01*
X170589101Y-64925399D01*
X170582881Y-64932095D01*
X166301798Y-69213181D01*
X166240475Y-69246666D01*
X166214117Y-69249500D01*
X159895933Y-69249500D01*
X159895917Y-69249499D01*
X159888321Y-69249499D01*
X159730207Y-69249499D01*
X159622851Y-69278265D01*
X159577474Y-69290424D01*
X159577473Y-69290425D01*
X159527360Y-69319359D01*
X159527359Y-69319360D01*
X159483953Y-69344420D01*
X159440549Y-69369479D01*
X159440546Y-69369481D01*
X159328742Y-69481286D01*
X156355692Y-72454335D01*
X156294369Y-72487820D01*
X156224677Y-72482836D01*
X156168744Y-72440964D01*
X156144540Y-72378095D01*
X156125115Y-72168464D01*
X156125114Y-72168462D01*
X156113293Y-72126916D01*
X156064229Y-71954472D01*
X156064224Y-71954461D01*
X155965061Y-71755316D01*
X155965056Y-71755308D01*
X155830979Y-71577761D01*
X155666562Y-71427876D01*
X155666560Y-71427874D01*
X155477404Y-71310754D01*
X155477398Y-71310751D01*
X155366627Y-71267839D01*
X155311226Y-71225266D01*
X155287635Y-71159499D01*
X155303346Y-71091419D01*
X155353370Y-71042640D01*
X155379328Y-71032437D01*
X155427330Y-71019575D01*
X155625639Y-70927102D01*
X155804877Y-70801598D01*
X155959598Y-70646877D01*
X156085102Y-70467639D01*
X156177575Y-70269330D01*
X156234207Y-70057977D01*
X156253277Y-69840000D01*
X156234207Y-69622023D01*
X156195418Y-69477259D01*
X156177577Y-69410677D01*
X156177576Y-69410676D01*
X156177575Y-69410670D01*
X156085102Y-69212362D01*
X156085100Y-69212359D01*
X156085099Y-69212357D01*
X155959599Y-69033124D01*
X155892740Y-68966265D01*
X155804877Y-68878402D01*
X155625639Y-68752898D01*
X155474414Y-68682381D01*
X155421977Y-68636210D01*
X155402825Y-68569016D01*
X155423041Y-68502135D01*
X155474414Y-68457618D01*
X155625639Y-68387102D01*
X155804877Y-68261598D01*
X155959598Y-68106877D01*
X156085102Y-67927639D01*
X156177575Y-67729330D01*
X156234207Y-67517977D01*
X156253277Y-67300000D01*
X156250652Y-67270001D01*
X156245197Y-67207648D01*
X156234207Y-67082023D01*
X156177575Y-66870670D01*
X156085102Y-66672362D01*
X156085100Y-66672359D01*
X156085099Y-66672357D01*
X155959599Y-66493124D01*
X155897333Y-66430858D01*
X155804877Y-66338402D01*
X155625639Y-66212898D01*
X155625640Y-66212898D01*
X155625638Y-66212897D01*
X155473824Y-66142105D01*
X155421385Y-66095932D01*
X155402233Y-66028739D01*
X155422449Y-65961858D01*
X155473825Y-65917341D01*
X155625384Y-65846668D01*
X155625386Y-65846667D01*
X155804554Y-65721212D01*
X155959212Y-65566554D01*
X156084666Y-65387387D01*
X156177101Y-65189159D01*
X156177105Y-65189150D01*
X156225108Y-65010000D01*
X155313686Y-65010000D01*
X155318080Y-65005606D01*
X155370741Y-64914394D01*
X155398000Y-64812661D01*
X155398000Y-64707339D01*
X155370741Y-64605606D01*
X155318080Y-64514394D01*
X155313686Y-64510000D01*
X156225108Y-64510000D01*
X156225108Y-64509999D01*
X156177105Y-64330849D01*
X156177101Y-64330840D01*
X156084666Y-64132612D01*
X156084664Y-64132608D01*
X155959216Y-63953450D01*
X155959211Y-63953444D01*
X155804554Y-63798787D01*
X155625387Y-63673333D01*
X155427159Y-63580898D01*
X155427150Y-63580894D01*
X155248000Y-63532891D01*
X155248000Y-64444314D01*
X155243606Y-64439920D01*
X155152394Y-64387259D01*
X155050661Y-64360000D01*
X154945339Y-64360000D01*
X154843606Y-64387259D01*
X154752394Y-64439920D01*
X154748000Y-64444314D01*
X154748000Y-63532892D01*
X154747999Y-63532891D01*
X154568849Y-63580894D01*
X154568840Y-63580898D01*
X154370612Y-63673333D01*
X154370608Y-63673335D01*
X154191450Y-63798783D01*
X154191444Y-63798788D01*
X154036788Y-63953444D01*
X154036783Y-63953450D01*
X153911335Y-64132608D01*
X153911333Y-64132612D01*
X153818898Y-64330840D01*
X153818894Y-64330849D01*
X153770891Y-64509999D01*
X153770892Y-64510000D01*
X154682314Y-64510000D01*
X154677920Y-64514394D01*
X154625259Y-64605606D01*
X154598000Y-64707339D01*
X154598000Y-64812661D01*
X154625259Y-64914394D01*
X154677920Y-65005606D01*
X154682314Y-65010000D01*
X153770892Y-65010000D01*
X153818894Y-65189150D01*
X153818898Y-65189159D01*
X153911333Y-65387387D01*
X154036787Y-65566554D01*
X154191445Y-65721212D01*
X154370613Y-65846667D01*
X154370615Y-65846668D01*
X154522174Y-65917341D01*
X154574614Y-65963513D01*
X154593766Y-66030706D01*
X154573551Y-66097588D01*
X154522176Y-66142105D01*
X154370358Y-66212900D01*
X154370357Y-66212900D01*
X154191121Y-66338402D01*
X154036402Y-66493121D01*
X153910900Y-66672357D01*
X153910898Y-66672361D01*
X153818426Y-66870668D01*
X153818422Y-66870677D01*
X153761793Y-67082020D01*
X153761793Y-67082024D01*
X153742723Y-67299997D01*
X153742723Y-67300002D01*
X153761793Y-67517975D01*
X153761793Y-67517979D01*
X153818422Y-67729322D01*
X153818424Y-67729326D01*
X153818425Y-67729330D01*
X153855678Y-67809219D01*
X153910897Y-67927638D01*
X153910898Y-67927639D01*
X154036402Y-68106877D01*
X154191123Y-68261598D01*
X154320709Y-68352335D01*
X154370361Y-68387102D01*
X154521583Y-68457618D01*
X154574022Y-68503790D01*
X154593174Y-68570984D01*
X154572958Y-68637865D01*
X154521583Y-68682382D01*
X154370361Y-68752898D01*
X154370357Y-68752900D01*
X154191121Y-68878402D01*
X154036402Y-69033121D01*
X153910900Y-69212357D01*
X153910898Y-69212361D01*
X153818426Y-69410668D01*
X153818422Y-69410677D01*
X153761793Y-69622020D01*
X153761793Y-69622024D01*
X153742723Y-69839997D01*
X153742723Y-69840002D01*
X153761793Y-70057975D01*
X153761793Y-70057979D01*
X153818422Y-70269322D01*
X153818424Y-70269326D01*
X153818425Y-70269330D01*
X153850628Y-70338389D01*
X153910897Y-70467638D01*
X153910898Y-70467639D01*
X154036402Y-70646877D01*
X154191123Y-70801598D01*
X154370361Y-70927102D01*
X154547096Y-71009515D01*
X154570757Y-71020548D01*
X154623196Y-71066720D01*
X154642348Y-71133914D01*
X154622132Y-71200795D01*
X154568967Y-71246129D01*
X154563158Y-71248551D01*
X154525233Y-71263244D01*
X154402601Y-71310751D01*
X154402595Y-71310754D01*
X154213439Y-71427874D01*
X154213437Y-71427876D01*
X154049020Y-71577761D01*
X153914943Y-71755308D01*
X153914938Y-71755316D01*
X153815775Y-71954461D01*
X153815769Y-71954476D01*
X153789266Y-72047627D01*
X153751987Y-72106721D01*
X153688677Y-72136278D01*
X153619438Y-72126916D01*
X153566251Y-72081606D01*
X153550734Y-72047627D01*
X153524230Y-71954476D01*
X153524229Y-71954472D01*
X153524224Y-71954461D01*
X153425061Y-71755316D01*
X153425056Y-71755308D01*
X153290979Y-71577761D01*
X153126562Y-71427876D01*
X153126560Y-71427874D01*
X152937404Y-71310754D01*
X152937398Y-71310752D01*
X152729940Y-71230382D01*
X152511243Y-71189500D01*
X152288757Y-71189500D01*
X152070060Y-71230382D01*
X152070055Y-71230383D01*
X151938248Y-71281445D01*
X151930941Y-71284016D01*
X151901164Y-71293459D01*
X151901151Y-71293464D01*
X151881004Y-71303193D01*
X151871891Y-71307151D01*
X151862610Y-71310747D01*
X151862594Y-71310755D01*
X151858355Y-71313380D01*
X151847004Y-71319613D01*
X150899529Y-71777162D01*
X150845606Y-71789500D01*
X149462173Y-71789500D01*
X149407102Y-71776600D01*
X148410611Y-71282645D01*
X148402614Y-71278224D01*
X148308370Y-71230204D01*
X148257574Y-71182229D01*
X148240779Y-71114408D01*
X148263317Y-71048273D01*
X148308371Y-71009234D01*
X148401347Y-70961861D01*
X148566894Y-70841582D01*
X148566895Y-70841582D01*
X148711582Y-70696895D01*
X148711582Y-70696894D01*
X148831859Y-70531349D01*
X148924755Y-70349029D01*
X148987990Y-70154413D01*
X148996609Y-70100000D01*
X147635686Y-70100000D01*
X147640080Y-70095606D01*
X147692741Y-70004394D01*
X147720000Y-69902661D01*
X147720000Y-69797339D01*
X147692741Y-69695606D01*
X147640080Y-69604394D01*
X147635686Y-69600000D01*
X148996609Y-69600000D01*
X148987990Y-69545586D01*
X148924755Y-69350970D01*
X148831859Y-69168650D01*
X148711582Y-69003105D01*
X148711582Y-69003104D01*
X148566895Y-68858417D01*
X148401349Y-68738140D01*
X148308370Y-68690765D01*
X148257574Y-68642790D01*
X148240779Y-68574969D01*
X148263316Y-68508835D01*
X148308370Y-68469795D01*
X148312788Y-68467544D01*
X148401610Y-68422287D01*
X148431505Y-68400567D01*
X148567213Y-68301971D01*
X148567215Y-68301968D01*
X148567219Y-68301966D01*
X148711966Y-68157219D01*
X148711968Y-68157215D01*
X148711971Y-68157213D01*
X148764732Y-68084590D01*
X148832287Y-67991610D01*
X148925220Y-67809219D01*
X148988477Y-67614534D01*
X148991008Y-67598552D01*
X149020935Y-67535419D01*
X149080245Y-67498486D01*
X149150108Y-67499482D01*
X149208342Y-67538090D01*
X149233256Y-67585856D01*
X149268258Y-67716488D01*
X149268261Y-67716497D01*
X149364431Y-67922732D01*
X149364432Y-67922734D01*
X149494954Y-68109141D01*
X149655858Y-68270045D01*
X149701446Y-68301966D01*
X149842266Y-68400568D01*
X150048504Y-68496739D01*
X150268308Y-68555635D01*
X150430230Y-68569801D01*
X150494998Y-68575468D01*
X150495000Y-68575468D01*
X150495002Y-68575468D01*
X150551673Y-68570509D01*
X150721692Y-68555635D01*
X150941496Y-68496739D01*
X151147734Y-68400568D01*
X151334139Y-68270047D01*
X151495047Y-68109139D01*
X151625568Y-67922734D01*
X151721739Y-67716496D01*
X151780635Y-67496692D01*
X151800468Y-67270000D01*
X151780635Y-67043308D01*
X151734377Y-66870670D01*
X151721741Y-66823511D01*
X151721738Y-66823502D01*
X151715804Y-66810776D01*
X151625568Y-66617266D01*
X151495047Y-66430861D01*
X151495045Y-66430858D01*
X151334141Y-66269954D01*
X151147734Y-66139432D01*
X151147732Y-66139431D01*
X150941497Y-66043261D01*
X150941488Y-66043258D01*
X150721697Y-65984366D01*
X150721693Y-65984365D01*
X150721692Y-65984365D01*
X150721691Y-65984364D01*
X150721686Y-65984364D01*
X150495002Y-65964532D01*
X150494998Y-65964532D01*
X150268313Y-65984364D01*
X150268302Y-65984366D01*
X150048511Y-66043258D01*
X150048502Y-66043261D01*
X149842267Y-66139431D01*
X149842265Y-66139432D01*
X149655858Y-66269954D01*
X149494954Y-66430858D01*
X149364432Y-66617265D01*
X149364431Y-66617267D01*
X149268261Y-66823502D01*
X149268259Y-66823508D01*
X149223437Y-66990789D01*
X149187072Y-67050449D01*
X149124225Y-67080978D01*
X149054849Y-67072683D01*
X149000971Y-67028198D01*
X148985731Y-66997014D01*
X148925218Y-66810776D01*
X148891503Y-66744607D01*
X148832287Y-66628390D01*
X148824204Y-66617265D01*
X148711971Y-66462786D01*
X148567213Y-66318028D01*
X148401613Y-66197715D01*
X148401612Y-66197714D01*
X148401610Y-66197713D01*
X148344653Y-66168691D01*
X148219223Y-66104781D01*
X148024534Y-66041522D01*
X147849995Y-66013878D01*
X147822352Y-66009500D01*
X146817648Y-66009500D01*
X146793329Y-66013351D01*
X146615465Y-66041522D01*
X146420776Y-66104781D01*
X146238386Y-66197715D01*
X146072786Y-66318028D01*
X145928028Y-66462786D01*
X145807715Y-66628386D01*
X145714781Y-66810776D01*
X145651522Y-67005465D01*
X145619500Y-67207648D01*
X145619500Y-67412351D01*
X145651522Y-67614534D01*
X145714781Y-67809223D01*
X145807715Y-67991613D01*
X145928028Y-68157213D01*
X146072786Y-68301971D01*
X146208495Y-68400567D01*
X146238390Y-68422287D01*
X146307731Y-68457618D01*
X146331629Y-68469795D01*
X146382425Y-68517770D01*
X146399220Y-68585591D01*
X146376682Y-68651726D01*
X146331629Y-68690765D01*
X146238650Y-68738140D01*
X146073105Y-68858417D01*
X146073104Y-68858417D01*
X145928417Y-69003104D01*
X145928417Y-69003105D01*
X145808140Y-69168650D01*
X145715244Y-69350970D01*
X145652009Y-69545586D01*
X145643391Y-69600000D01*
X147004314Y-69600000D01*
X146999920Y-69604394D01*
X146947259Y-69695606D01*
X146920000Y-69797339D01*
X146920000Y-69902661D01*
X146947259Y-70004394D01*
X146999920Y-70095606D01*
X147004314Y-70100000D01*
X145643391Y-70100000D01*
X145652009Y-70154413D01*
X145715244Y-70349029D01*
X145808140Y-70531349D01*
X145928417Y-70696894D01*
X145928417Y-70696895D01*
X146073104Y-70841582D01*
X146238652Y-70961861D01*
X146331628Y-71009234D01*
X146382425Y-71057208D01*
X146399220Y-71125029D01*
X146376683Y-71191164D01*
X146331630Y-71230203D01*
X146238388Y-71277713D01*
X146072786Y-71398028D01*
X145928028Y-71542786D01*
X145807715Y-71708386D01*
X145714781Y-71890776D01*
X145651522Y-72085465D01*
X145619500Y-72287648D01*
X145619500Y-72492351D01*
X145651522Y-72694534D01*
X145714781Y-72889223D01*
X145766385Y-72990500D01*
X145783802Y-73024683D01*
X145807715Y-73071613D01*
X145928028Y-73237213D01*
X146072786Y-73381971D01*
X146215111Y-73485374D01*
X146238390Y-73502287D01*
X146310424Y-73538990D01*
X146331629Y-73549795D01*
X146382425Y-73597770D01*
X146399220Y-73665591D01*
X146376682Y-73731726D01*
X146331629Y-73770765D01*
X146238650Y-73818140D01*
X146073105Y-73938417D01*
X146073104Y-73938417D01*
X145928417Y-74083104D01*
X145928417Y-74083105D01*
X145808140Y-74248650D01*
X145715244Y-74430970D01*
X145652009Y-74625586D01*
X145643391Y-74680000D01*
X147004314Y-74680000D01*
X146999920Y-74684394D01*
X146947259Y-74775606D01*
X146920000Y-74877339D01*
X146920000Y-74982661D01*
X146947259Y-75084394D01*
X146999920Y-75175606D01*
X147004314Y-75180000D01*
X145643391Y-75180000D01*
X145652009Y-75234413D01*
X145715244Y-75429029D01*
X145808140Y-75611349D01*
X145928417Y-75776894D01*
X145928417Y-75776895D01*
X146073104Y-75921582D01*
X146238652Y-76041861D01*
X146331628Y-76089234D01*
X146382425Y-76137208D01*
X146399220Y-76205029D01*
X146376683Y-76271164D01*
X146331630Y-76310203D01*
X146238388Y-76357713D01*
X146072786Y-76478028D01*
X145928028Y-76622786D01*
X145807715Y-76788386D01*
X145714781Y-76970776D01*
X145651522Y-77165465D01*
X145619500Y-77367648D01*
X145619500Y-77572351D01*
X145651522Y-77774534D01*
X145714781Y-77969223D01*
X145807715Y-78151613D01*
X145928028Y-78317213D01*
X146072786Y-78461971D01*
X146217535Y-78567135D01*
X146238390Y-78582287D01*
X146329840Y-78628883D01*
X146331080Y-78629515D01*
X146381876Y-78677490D01*
X146398671Y-78745311D01*
X146376134Y-78811446D01*
X146331080Y-78850485D01*
X146238386Y-78897715D01*
X146072786Y-79018028D01*
X145928028Y-79162786D01*
X145807715Y-79328386D01*
X145714781Y-79510776D01*
X145651522Y-79705465D01*
X145619500Y-79907648D01*
X145619500Y-80112351D01*
X145651522Y-80314534D01*
X145714781Y-80509223D01*
X145763205Y-80604258D01*
X145805424Y-80687118D01*
X145807715Y-80691613D01*
X145928028Y-80857213D01*
X146072786Y-81001971D01*
X146192911Y-81089245D01*
X146238390Y-81122287D01*
X146329840Y-81168883D01*
X146331080Y-81169515D01*
X146381876Y-81217490D01*
X146398671Y-81285311D01*
X146376134Y-81351446D01*
X146331080Y-81390485D01*
X146238386Y-81437715D01*
X146072786Y-81558028D01*
X145928028Y-81702786D01*
X145807715Y-81868386D01*
X145714781Y-82050776D01*
X145651522Y-82245465D01*
X145619500Y-82447648D01*
X145619500Y-82652351D01*
X145651522Y-82854534D01*
X145714781Y-83049223D01*
X145778691Y-83174653D01*
X145784122Y-83185311D01*
X145807715Y-83231613D01*
X145928028Y-83397213D01*
X146072786Y-83541971D01*
X146150544Y-83598464D01*
X146238390Y-83662287D01*
X146329840Y-83708883D01*
X146331080Y-83709515D01*
X146381876Y-83757490D01*
X146398671Y-83825311D01*
X146376134Y-83891446D01*
X146331080Y-83930485D01*
X146238386Y-83977715D01*
X146072786Y-84098028D01*
X145928028Y-84242786D01*
X145807715Y-84408386D01*
X145714781Y-84590776D01*
X145651522Y-84785465D01*
X145619500Y-84987648D01*
X145619500Y-85192351D01*
X145651522Y-85394534D01*
X145714781Y-85589223D01*
X145807715Y-85771613D01*
X145928028Y-85937213D01*
X146072786Y-86081971D01*
X146224484Y-86192184D01*
X146238390Y-86202287D01*
X146354607Y-86261503D01*
X146420776Y-86295218D01*
X146420778Y-86295218D01*
X146420781Y-86295220D01*
X146525137Y-86329127D01*
X146615465Y-86358477D01*
X146664144Y-86366187D01*
X146817648Y-86390500D01*
X146865165Y-86390500D01*
X146907048Y-86397787D01*
X148240189Y-86876189D01*
X148285985Y-86905220D01*
X151915139Y-90534374D01*
X151915149Y-90534385D01*
X151919479Y-90538715D01*
X151919480Y-90538716D01*
X152031284Y-90650520D01*
X152118095Y-90700639D01*
X152118097Y-90700641D01*
X152156151Y-90722611D01*
X152168215Y-90729577D01*
X152320943Y-90770501D01*
X152320946Y-90770501D01*
X152486653Y-90770501D01*
X152486669Y-90770500D01*
X170093331Y-90770500D01*
X170093347Y-90770501D01*
X170100943Y-90770501D01*
X170259054Y-90770501D01*
X170259057Y-90770501D01*
X170411785Y-90729577D01*
X170461904Y-90700639D01*
X170548716Y-90650520D01*
X170632153Y-90567082D01*
X170680048Y-90537320D01*
X171872015Y-90133567D01*
X171879694Y-90131240D01*
X171896496Y-90126739D01*
X171902971Y-90123718D01*
X171913657Y-90119330D01*
X171922033Y-90116341D01*
X171922744Y-90116074D01*
X171986802Y-90086776D01*
X171986810Y-90086769D01*
X171992475Y-90083411D01*
X171992631Y-90083675D01*
X172006022Y-90075664D01*
X172102734Y-90030568D01*
X172289139Y-89900047D01*
X172450047Y-89739139D01*
X172580568Y-89552734D01*
X172676739Y-89346496D01*
X172735635Y-89126692D01*
X172755468Y-88900000D01*
X172754613Y-88890233D01*
X172735635Y-88673313D01*
X172735635Y-88673308D01*
X172676739Y-88453504D01*
X172580568Y-88247266D01*
X172450047Y-88060861D01*
X172450045Y-88060858D01*
X172289141Y-87899954D01*
X172102734Y-87769432D01*
X172102732Y-87769431D01*
X171896497Y-87673261D01*
X171896488Y-87673258D01*
X171676697Y-87614366D01*
X171676693Y-87614365D01*
X171676692Y-87614365D01*
X171676691Y-87614364D01*
X171676686Y-87614364D01*
X171450002Y-87594532D01*
X171449998Y-87594532D01*
X171223313Y-87614364D01*
X171223302Y-87614366D01*
X171003511Y-87673258D01*
X171003502Y-87673261D01*
X170797267Y-87769431D01*
X170797265Y-87769432D01*
X170610858Y-87899954D01*
X170449954Y-88060858D01*
X170432725Y-88085464D01*
X170378147Y-88129088D01*
X170308648Y-88136280D01*
X170246294Y-88104757D01*
X170210882Y-88044526D01*
X170207861Y-88027591D01*
X170204091Y-87992516D01*
X170153797Y-87857671D01*
X170153793Y-87857664D01*
X170067547Y-87742455D01*
X170067544Y-87742452D01*
X169952335Y-87656206D01*
X169952328Y-87656202D01*
X169817482Y-87605908D01*
X169817483Y-87605908D01*
X169757883Y-87599501D01*
X169757881Y-87599500D01*
X169757873Y-87599500D01*
X169757864Y-87599500D01*
X168062129Y-87599500D01*
X168062123Y-87599501D01*
X168002516Y-87605908D01*
X167867671Y-87656202D01*
X167867664Y-87656206D01*
X167752455Y-87742452D01*
X167752452Y-87742455D01*
X167666206Y-87857664D01*
X167666202Y-87857671D01*
X167615908Y-87992517D01*
X167609501Y-88052116D01*
X167609500Y-88052135D01*
X167609501Y-89445500D01*
X167589816Y-89512539D01*
X167537013Y-89558294D01*
X167485501Y-89569500D01*
X152700097Y-89569500D01*
X152633058Y-89549815D01*
X152612416Y-89533181D01*
X149180309Y-86101074D01*
X149146824Y-86039751D01*
X149145296Y-86031341D01*
X149055787Y-85418917D01*
X152590001Y-85418917D01*
X152592814Y-85460423D01*
X152592814Y-85460425D01*
X152637435Y-85639849D01*
X152719581Y-85805481D01*
X152835414Y-85949584D01*
X152835415Y-85949585D01*
X152979518Y-86065418D01*
X153145150Y-86147564D01*
X153324568Y-86192184D01*
X153366088Y-86194999D01*
X153539999Y-86194999D01*
X153540000Y-86194998D01*
X153540000Y-85245000D01*
X152590001Y-85245000D01*
X152590001Y-85418917D01*
X149055787Y-85418917D01*
X149041498Y-85321148D01*
X149021804Y-85186400D01*
X149020500Y-85168467D01*
X149020500Y-84987648D01*
X149014366Y-84948922D01*
X153440000Y-84948922D01*
X153440000Y-85041078D01*
X153463852Y-85130095D01*
X153509930Y-85209905D01*
X153575095Y-85275070D01*
X153654905Y-85321148D01*
X153743922Y-85345000D01*
X153836078Y-85345000D01*
X153925095Y-85321148D01*
X154004905Y-85275070D01*
X154040000Y-85239975D01*
X154040000Y-86194999D01*
X154213911Y-86194999D01*
X154213917Y-86194998D01*
X154255423Y-86192185D01*
X154255425Y-86192185D01*
X154434849Y-86147564D01*
X154600481Y-86065418D01*
X154744584Y-85949585D01*
X154744585Y-85949584D01*
X154860418Y-85805481D01*
X154942564Y-85639849D01*
X154970370Y-85528040D01*
X155005652Y-85467733D01*
X155067938Y-85436074D01*
X155137452Y-85443115D01*
X155192124Y-85486621D01*
X155201705Y-85502694D01*
X155264938Y-85629683D01*
X155264943Y-85629691D01*
X155399020Y-85807238D01*
X155563437Y-85957123D01*
X155563439Y-85957125D01*
X155752595Y-86074245D01*
X155752596Y-86074245D01*
X155752599Y-86074247D01*
X155960060Y-86154618D01*
X156178757Y-86195500D01*
X156178759Y-86195500D01*
X156401241Y-86195500D01*
X156401243Y-86195500D01*
X156619940Y-86154618D01*
X156827401Y-86074247D01*
X157016562Y-85957124D01*
X157180981Y-85807236D01*
X157315058Y-85629689D01*
X157414229Y-85430528D01*
X157475115Y-85216536D01*
X157495643Y-84995000D01*
X157492770Y-84964000D01*
X157475115Y-84773464D01*
X157475114Y-84773462D01*
X157474106Y-84769920D01*
X157414229Y-84559472D01*
X157412482Y-84555963D01*
X157315061Y-84360316D01*
X157315056Y-84360308D01*
X157180979Y-84182761D01*
X157016562Y-84032876D01*
X157016560Y-84032874D01*
X156827404Y-83915754D01*
X156827398Y-83915752D01*
X156806856Y-83907794D01*
X156619940Y-83835382D01*
X156401243Y-83794500D01*
X156178757Y-83794500D01*
X155960060Y-83835382D01*
X155838406Y-83882511D01*
X155752601Y-83915752D01*
X155752595Y-83915754D01*
X155563439Y-84032874D01*
X155563437Y-84032876D01*
X155399020Y-84182761D01*
X155264943Y-84360308D01*
X155264938Y-84360316D01*
X155201705Y-84487305D01*
X155154202Y-84538542D01*
X155086539Y-84555963D01*
X155020198Y-84534037D01*
X154976244Y-84479725D01*
X154970370Y-84461959D01*
X154942564Y-84350150D01*
X154860418Y-84184518D01*
X154744585Y-84040415D01*
X154744584Y-84040414D01*
X154600481Y-83924581D01*
X154434849Y-83842435D01*
X154255431Y-83797815D01*
X154213912Y-83795000D01*
X154040000Y-83795000D01*
X154040000Y-84750025D01*
X154004905Y-84714930D01*
X153925095Y-84668852D01*
X153836078Y-84645000D01*
X153743922Y-84645000D01*
X153654905Y-84668852D01*
X153575095Y-84714930D01*
X153509930Y-84780095D01*
X153463852Y-84859905D01*
X153440000Y-84948922D01*
X149014366Y-84948922D01*
X148988477Y-84785465D01*
X148938690Y-84632238D01*
X148925220Y-84590781D01*
X148925218Y-84590778D01*
X148925218Y-84590776D01*
X148915186Y-84571088D01*
X152590000Y-84571088D01*
X152590000Y-84745000D01*
X153540000Y-84745000D01*
X153540000Y-83795000D01*
X153366088Y-83795000D01*
X153366081Y-83795001D01*
X153324576Y-83797814D01*
X153324574Y-83797814D01*
X153145150Y-83842435D01*
X152979518Y-83924581D01*
X152835415Y-84040414D01*
X152835414Y-84040415D01*
X152719581Y-84184518D01*
X152637435Y-84350150D01*
X152592815Y-84529568D01*
X152590000Y-84571088D01*
X148915186Y-84571088D01*
X148868634Y-84479725D01*
X148832287Y-84408390D01*
X148824556Y-84397749D01*
X148711971Y-84242786D01*
X148567213Y-84098028D01*
X148401614Y-83977715D01*
X148376934Y-83965140D01*
X148308917Y-83930483D01*
X148258123Y-83882511D01*
X148241328Y-83814690D01*
X148263865Y-83748555D01*
X148308917Y-83709516D01*
X148401610Y-83662287D01*
X148401613Y-83662284D01*
X148405757Y-83659745D01*
X148405833Y-83659869D01*
X148412137Y-83655872D01*
X148414156Y-83654765D01*
X148414160Y-83654764D01*
X149350281Y-83141777D01*
X149377772Y-83130748D01*
X149456785Y-83109577D01*
X149506904Y-83080639D01*
X149593716Y-83030520D01*
X149705520Y-82918716D01*
X149705520Y-82918714D01*
X149715728Y-82908507D01*
X149715730Y-82908504D01*
X151498713Y-81125521D01*
X151498716Y-81125520D01*
X151590819Y-81033416D01*
X151652138Y-80999934D01*
X151721830Y-81004918D01*
X151743762Y-81015666D01*
X151862599Y-81089247D01*
X152070060Y-81169618D01*
X152288757Y-81210500D01*
X152288759Y-81210500D01*
X152511241Y-81210500D01*
X152511243Y-81210500D01*
X152729940Y-81169618D01*
X152937401Y-81089247D01*
X153126562Y-80972124D01*
X153290981Y-80822236D01*
X153425058Y-80644689D01*
X153524229Y-80445528D01*
X153550734Y-80352371D01*
X153588013Y-80293278D01*
X153651323Y-80263721D01*
X153720562Y-80273083D01*
X153773749Y-80318393D01*
X153789266Y-80352372D01*
X153815769Y-80445523D01*
X153815775Y-80445538D01*
X153914938Y-80644683D01*
X153914943Y-80644691D01*
X154049020Y-80822238D01*
X154213437Y-80972123D01*
X154213439Y-80972125D01*
X154402595Y-81089245D01*
X154402596Y-81089245D01*
X154402599Y-81089247D01*
X154610060Y-81169618D01*
X154828757Y-81210500D01*
X154828759Y-81210500D01*
X155051241Y-81210500D01*
X155051243Y-81210500D01*
X155269940Y-81169618D01*
X155477401Y-81089247D01*
X155666562Y-80972124D01*
X155830981Y-80822236D01*
X155965058Y-80644689D01*
X156064229Y-80445528D01*
X156125115Y-80231536D01*
X156145643Y-80010000D01*
X156141290Y-79963028D01*
X156125115Y-79788464D01*
X156125114Y-79788462D01*
X156113896Y-79749036D01*
X156064229Y-79574472D01*
X156063784Y-79573578D01*
X156040839Y-79527499D01*
X158691857Y-79527499D01*
X158691857Y-79527500D01*
X158712384Y-79749035D01*
X158712385Y-79749037D01*
X158773269Y-79963023D01*
X158773275Y-79963038D01*
X158872438Y-80162183D01*
X158872443Y-80162191D01*
X159006520Y-80339738D01*
X159170937Y-80489623D01*
X159170939Y-80489625D01*
X159360095Y-80606745D01*
X159360096Y-80606745D01*
X159360099Y-80606747D01*
X159567560Y-80687118D01*
X159786257Y-80728000D01*
X159786259Y-80728000D01*
X160008741Y-80728000D01*
X160008743Y-80728000D01*
X160227440Y-80687118D01*
X160434901Y-80606747D01*
X160624062Y-80489624D01*
X160624066Y-80489619D01*
X160626253Y-80488266D01*
X160693614Y-80469710D01*
X160760313Y-80490518D01*
X160790797Y-80519381D01*
X160825653Y-80565943D01*
X160839952Y-80585043D01*
X160839954Y-80585046D01*
X160865618Y-80604258D01*
X160884535Y-80621766D01*
X160915419Y-80656983D01*
X161293729Y-81088369D01*
X161323131Y-81151749D01*
X161324500Y-81170125D01*
X161324500Y-82265606D01*
X161312162Y-82319529D01*
X160828461Y-83321160D01*
X160824254Y-83330206D01*
X160822872Y-83333182D01*
X160822196Y-83334635D01*
X160821961Y-83335160D01*
X160814624Y-83355023D01*
X160809311Y-83367317D01*
X160800772Y-83384468D01*
X160800769Y-83384476D01*
X160739885Y-83598461D01*
X160739884Y-83598464D01*
X160719357Y-83819999D01*
X160719357Y-83820000D01*
X160739884Y-84041535D01*
X160739885Y-84041537D01*
X160800769Y-84255523D01*
X160800775Y-84255538D01*
X160899938Y-84454683D01*
X160899943Y-84454691D01*
X161034020Y-84632238D01*
X161198437Y-84782123D01*
X161198439Y-84782125D01*
X161387595Y-84899245D01*
X161387596Y-84899245D01*
X161387599Y-84899247D01*
X161595060Y-84979618D01*
X161813757Y-85020500D01*
X161813759Y-85020500D01*
X162036241Y-85020500D01*
X162036243Y-85020500D01*
X162254940Y-84979618D01*
X162462401Y-84899247D01*
X162651562Y-84782124D01*
X162815981Y-84632236D01*
X162950058Y-84454689D01*
X163049229Y-84255528D01*
X163110115Y-84041536D01*
X163130643Y-83820000D01*
X163130643Y-83819999D01*
X168339357Y-83819999D01*
X168339357Y-83820000D01*
X168359884Y-84041535D01*
X168359885Y-84041537D01*
X168420769Y-84255523D01*
X168420775Y-84255538D01*
X168519938Y-84454683D01*
X168519943Y-84454691D01*
X168654020Y-84632238D01*
X168818437Y-84782123D01*
X168818439Y-84782125D01*
X169007595Y-84899245D01*
X169007596Y-84899245D01*
X169007599Y-84899247D01*
X169215060Y-84979618D01*
X169433757Y-85020500D01*
X169433759Y-85020500D01*
X169656241Y-85020500D01*
X169656243Y-85020500D01*
X169874940Y-84979618D01*
X170082401Y-84899247D01*
X170271562Y-84782124D01*
X170435981Y-84632236D01*
X170570058Y-84454689D01*
X170669229Y-84255528D01*
X170730115Y-84041536D01*
X170750643Y-83820000D01*
X170748326Y-83795000D01*
X170730115Y-83598464D01*
X170730114Y-83598462D01*
X170669230Y-83384476D01*
X170669230Y-83384475D01*
X170669229Y-83384472D01*
X170657698Y-83361314D01*
X170570061Y-83185316D01*
X170570056Y-83185308D01*
X170435979Y-83007761D01*
X170271562Y-82857876D01*
X170271560Y-82857874D01*
X170082404Y-82740754D01*
X170082398Y-82740752D01*
X169874940Y-82660382D01*
X169656243Y-82619500D01*
X169433757Y-82619500D01*
X169215060Y-82660382D01*
X169083864Y-82711207D01*
X169007601Y-82740752D01*
X169007595Y-82740754D01*
X168818439Y-82857874D01*
X168818437Y-82857876D01*
X168654020Y-83007761D01*
X168519943Y-83185308D01*
X168519938Y-83185316D01*
X168420775Y-83384461D01*
X168420769Y-83384476D01*
X168359885Y-83598462D01*
X168359884Y-83598464D01*
X168339357Y-83819999D01*
X163130643Y-83819999D01*
X163128326Y-83795000D01*
X163110115Y-83598464D01*
X163110114Y-83598462D01*
X163049230Y-83384475D01*
X163049226Y-83384466D01*
X163049224Y-83384461D01*
X163032549Y-83350975D01*
X163025351Y-83333190D01*
X163021536Y-83321158D01*
X162537838Y-82319530D01*
X162525500Y-82265607D01*
X162525500Y-81158252D01*
X162545185Y-81091213D01*
X162553514Y-81079749D01*
X162617125Y-81001971D01*
X162982101Y-80555713D01*
X162999653Y-80532963D01*
X163008560Y-80516093D01*
X163018938Y-80499695D01*
X163041296Y-80469831D01*
X163058460Y-80423809D01*
X163064993Y-80409235D01*
X163066843Y-80405735D01*
X163069486Y-80398336D01*
X163070002Y-80396405D01*
X163071802Y-80389671D01*
X163075417Y-80378347D01*
X163085105Y-80352372D01*
X163091591Y-80334983D01*
X163098000Y-80275373D01*
X163098000Y-79777500D01*
X164436005Y-79777500D01*
X164488739Y-79962849D01*
X164587868Y-80161925D01*
X164721891Y-80339400D01*
X164886238Y-80489221D01*
X165075320Y-80606297D01*
X165075322Y-80606298D01*
X165282695Y-80686635D01*
X165362500Y-80701552D01*
X165362500Y-79777500D01*
X164436005Y-79777500D01*
X163098000Y-79777500D01*
X163097999Y-79481422D01*
X165262500Y-79481422D01*
X165262500Y-79573578D01*
X165286352Y-79662595D01*
X165332430Y-79742405D01*
X165397595Y-79807570D01*
X165477405Y-79853648D01*
X165566422Y-79877500D01*
X165658578Y-79877500D01*
X165747595Y-79853648D01*
X165827405Y-79807570D01*
X165862500Y-79772475D01*
X165862500Y-80701552D01*
X165942304Y-80686635D01*
X166149677Y-80606298D01*
X166149678Y-80606297D01*
X166340953Y-80487864D01*
X166408313Y-80469308D01*
X166475013Y-80490116D01*
X166505494Y-80518976D01*
X166554954Y-80585046D01*
X166554955Y-80585046D01*
X166554956Y-80585048D01*
X166670164Y-80671293D01*
X166670171Y-80671297D01*
X166805017Y-80721591D01*
X166805016Y-80721591D01*
X166811944Y-80722335D01*
X166864627Y-80728000D01*
X168360372Y-80727999D01*
X168419983Y-80721591D01*
X168554831Y-80671296D01*
X168670046Y-80585046D01*
X168756296Y-80469831D01*
X168806591Y-80334983D01*
X168813000Y-80275373D01*
X168812999Y-78779628D01*
X168806591Y-78720017D01*
X168804943Y-78715599D01*
X168756297Y-78585171D01*
X168756293Y-78585164D01*
X168670047Y-78469955D01*
X168670044Y-78469952D01*
X168554835Y-78383706D01*
X168554828Y-78383702D01*
X168419982Y-78333408D01*
X168419983Y-78333408D01*
X168360383Y-78327001D01*
X168360381Y-78327000D01*
X168360373Y-78327000D01*
X168360364Y-78327000D01*
X166864629Y-78327000D01*
X166864623Y-78327001D01*
X166805016Y-78333408D01*
X166670171Y-78383702D01*
X166670164Y-78383706D01*
X166554955Y-78469952D01*
X166554952Y-78469955D01*
X166505497Y-78536019D01*
X166449563Y-78577890D01*
X166379872Y-78582874D01*
X166340953Y-78567135D01*
X166149679Y-78448702D01*
X166149677Y-78448701D01*
X165942299Y-78368364D01*
X165862500Y-78353446D01*
X165862500Y-79282525D01*
X165827405Y-79247430D01*
X165747595Y-79201352D01*
X165658578Y-79177500D01*
X165566422Y-79177500D01*
X165477405Y-79201352D01*
X165397595Y-79247430D01*
X165332430Y-79312595D01*
X165286352Y-79392405D01*
X165262500Y-79481422D01*
X163097999Y-79481422D01*
X163097999Y-79277500D01*
X164436005Y-79277500D01*
X165362500Y-79277500D01*
X165362500Y-78353446D01*
X165282700Y-78368364D01*
X165075322Y-78448701D01*
X165075320Y-78448702D01*
X164886238Y-78565778D01*
X164721891Y-78715599D01*
X164587868Y-78893074D01*
X164488739Y-79092150D01*
X164436005Y-79277500D01*
X163097999Y-79277500D01*
X163097999Y-78779628D01*
X163091591Y-78720017D01*
X163089943Y-78715599D01*
X163041297Y-78585171D01*
X163041293Y-78585164D01*
X162955047Y-78469955D01*
X162955044Y-78469952D01*
X162839835Y-78383706D01*
X162839828Y-78383702D01*
X162704982Y-78333408D01*
X162704983Y-78333408D01*
X162645383Y-78327001D01*
X162645381Y-78327000D01*
X162645373Y-78327000D01*
X162645364Y-78327000D01*
X161149629Y-78327000D01*
X161149623Y-78327001D01*
X161090016Y-78333408D01*
X160955171Y-78383702D01*
X160955164Y-78383706D01*
X160839955Y-78469952D01*
X160839952Y-78469955D01*
X160790798Y-78535617D01*
X160734864Y-78577488D01*
X160665173Y-78582472D01*
X160626255Y-78566733D01*
X160434904Y-78448254D01*
X160434898Y-78448252D01*
X160227440Y-78367882D01*
X160008743Y-78327000D01*
X159786257Y-78327000D01*
X159567560Y-78367882D01*
X159526719Y-78383704D01*
X159360101Y-78448252D01*
X159360095Y-78448254D01*
X159170939Y-78565374D01*
X159170937Y-78565376D01*
X159006520Y-78715261D01*
X158872443Y-78892808D01*
X158872438Y-78892816D01*
X158773275Y-79091961D01*
X158773269Y-79091976D01*
X158712385Y-79305962D01*
X158712384Y-79305964D01*
X158691857Y-79527499D01*
X156040839Y-79527499D01*
X155965061Y-79375316D01*
X155965056Y-79375308D01*
X155830979Y-79197761D01*
X155666562Y-79047876D01*
X155666560Y-79047874D01*
X155477404Y-78930754D01*
X155477398Y-78930752D01*
X155269940Y-78850382D01*
X155051243Y-78809500D01*
X154828757Y-78809500D01*
X154610060Y-78850382D01*
X154487885Y-78897713D01*
X154402601Y-78930752D01*
X154402595Y-78930754D01*
X154213439Y-79047874D01*
X154213437Y-79047876D01*
X154049020Y-79197761D01*
X153914943Y-79375308D01*
X153914938Y-79375316D01*
X153815775Y-79574461D01*
X153815769Y-79574476D01*
X153789266Y-79667627D01*
X153751987Y-79726721D01*
X153688677Y-79756278D01*
X153619438Y-79746916D01*
X153566251Y-79701606D01*
X153550734Y-79667627D01*
X153524230Y-79574476D01*
X153524229Y-79574472D01*
X153523784Y-79573578D01*
X153425061Y-79375316D01*
X153425056Y-79375308D01*
X153290979Y-79197761D01*
X153126563Y-79047877D01*
X153126562Y-79047876D01*
X153091587Y-79026220D01*
X153013404Y-78977811D01*
X152966769Y-78925783D01*
X152955665Y-78856801D01*
X152983618Y-78792767D01*
X152990989Y-78784715D01*
X154303887Y-77471819D01*
X154365210Y-77438334D01*
X154391568Y-77435500D01*
X169458331Y-77435500D01*
X169458347Y-77435501D01*
X169465943Y-77435501D01*
X169624054Y-77435501D01*
X169624057Y-77435501D01*
X169776785Y-77394577D01*
X169840924Y-77357546D01*
X169913716Y-77315520D01*
X170025520Y-77203716D01*
X170025520Y-77203714D01*
X170035724Y-77193511D01*
X170035727Y-77193506D01*
X171207820Y-76021413D01*
X171269142Y-75987930D01*
X171338834Y-75992914D01*
X171394767Y-76034786D01*
X171419184Y-76100250D01*
X171419500Y-76109096D01*
X171419500Y-77047870D01*
X171419501Y-77047876D01*
X171425908Y-77107483D01*
X171476202Y-77242328D01*
X171476206Y-77242335D01*
X171562451Y-77357543D01*
X171562454Y-77357546D01*
X171677664Y-77443793D01*
X171677671Y-77443797D01*
X171812517Y-77494091D01*
X171812516Y-77494091D01*
X171819444Y-77494835D01*
X171872127Y-77500500D01*
X173567872Y-77500499D01*
X173627483Y-77494091D01*
X173762331Y-77443796D01*
X173877546Y-77357546D01*
X173877549Y-77357543D01*
X173963793Y-77242335D01*
X173963792Y-77242335D01*
X173963796Y-77242331D01*
X174014091Y-77107483D01*
X174017862Y-77072401D01*
X174044599Y-77007855D01*
X174101990Y-76968006D01*
X174171816Y-76965511D01*
X174231905Y-77001163D01*
X174242726Y-77014536D01*
X174259956Y-77039143D01*
X174420858Y-77200045D01*
X174420861Y-77200047D01*
X174607266Y-77330568D01*
X174813504Y-77426739D01*
X174813509Y-77426740D01*
X174813511Y-77426741D01*
X174846204Y-77435501D01*
X175033308Y-77485635D01*
X175195230Y-77499801D01*
X175259998Y-77505468D01*
X175260000Y-77505468D01*
X175260002Y-77505468D01*
X175316807Y-77500498D01*
X175486692Y-77485635D01*
X175706496Y-77426739D01*
X175912734Y-77330568D01*
X176099139Y-77200047D01*
X176260047Y-77039139D01*
X176304425Y-76975759D01*
X176359001Y-76932135D01*
X176428499Y-76924941D01*
X176490854Y-76956463D01*
X176526269Y-77016693D01*
X176530000Y-77046883D01*
X176530000Y-97665824D01*
X176510315Y-97732863D01*
X176493681Y-97753505D01*
X173953505Y-100293681D01*
X173892182Y-100327166D01*
X173865824Y-100330000D01*
X130934176Y-100330000D01*
X130867137Y-100310315D01*
X130846495Y-100293681D01*
X128306319Y-97753505D01*
X128272834Y-97692182D01*
X128270000Y-97665824D01*
X128270000Y-93979994D01*
X135894859Y-93979994D01*
X135894859Y-93980005D01*
X135915385Y-94227729D01*
X135915387Y-94227738D01*
X135976412Y-94468717D01*
X136076266Y-94696364D01*
X136176564Y-94849882D01*
X136917037Y-94109409D01*
X136934075Y-94172993D01*
X136999901Y-94287007D01*
X137092993Y-94380099D01*
X137207007Y-94445925D01*
X137270590Y-94462962D01*
X136529942Y-95203609D01*
X136576768Y-95240055D01*
X136576770Y-95240056D01*
X136795385Y-95358364D01*
X136795396Y-95358369D01*
X137030506Y-95439083D01*
X137275707Y-95480000D01*
X137524293Y-95480000D01*
X137769493Y-95439083D01*
X138004603Y-95358369D01*
X138004614Y-95358364D01*
X138223228Y-95240057D01*
X138223231Y-95240055D01*
X138270056Y-95203609D01*
X137529409Y-94462962D01*
X137592993Y-94445925D01*
X137707007Y-94380099D01*
X137800099Y-94287007D01*
X137865925Y-94172993D01*
X137882962Y-94109410D01*
X138623434Y-94849882D01*
X138723731Y-94696369D01*
X138823587Y-94468717D01*
X138884612Y-94227738D01*
X138884614Y-94227729D01*
X138905141Y-93980005D01*
X138905141Y-93979994D01*
X138884614Y-93732270D01*
X138884612Y-93732261D01*
X138823587Y-93491282D01*
X138723731Y-93263630D01*
X138623434Y-93110116D01*
X137882962Y-93850589D01*
X137865925Y-93787007D01*
X137800099Y-93672993D01*
X137707007Y-93579901D01*
X137592993Y-93514075D01*
X137529410Y-93497037D01*
X138270057Y-92756390D01*
X138270056Y-92756389D01*
X138223229Y-92719943D01*
X138004614Y-92601635D01*
X138004603Y-92601630D01*
X137769493Y-92520916D01*
X137524293Y-92480000D01*
X137275707Y-92480000D01*
X137030506Y-92520916D01*
X136795396Y-92601630D01*
X136795390Y-92601632D01*
X136576761Y-92719949D01*
X136529942Y-92756388D01*
X136529942Y-92756390D01*
X137270590Y-93497037D01*
X137207007Y-93514075D01*
X137092993Y-93579901D01*
X136999901Y-93672993D01*
X136934075Y-93787007D01*
X136917037Y-93850589D01*
X136176564Y-93110116D01*
X136076267Y-93263632D01*
X135976412Y-93491282D01*
X135915387Y-93732261D01*
X135915385Y-93732270D01*
X135894859Y-93979994D01*
X128270000Y-93979994D01*
X128270000Y-77521085D01*
X128289685Y-77454046D01*
X128342489Y-77408291D01*
X128411647Y-77398347D01*
X128468310Y-77421818D01*
X128490373Y-77438334D01*
X128497668Y-77443795D01*
X128497671Y-77443797D01*
X128632517Y-77494091D01*
X128632516Y-77494091D01*
X128639444Y-77494835D01*
X128692127Y-77500500D01*
X130387872Y-77500499D01*
X130447483Y-77494091D01*
X130582331Y-77443796D01*
X130697546Y-77357546D01*
X130697549Y-77357543D01*
X130783793Y-77242335D01*
X130783792Y-77242335D01*
X130783796Y-77242331D01*
X130834091Y-77107483D01*
X130837862Y-77072401D01*
X130864599Y-77007855D01*
X130921990Y-76968006D01*
X130991816Y-76965511D01*
X131051905Y-77001163D01*
X131062726Y-77014536D01*
X131079956Y-77039143D01*
X131240858Y-77200045D01*
X131240861Y-77200047D01*
X131427266Y-77330568D01*
X131633504Y-77426739D01*
X131633509Y-77426740D01*
X131633511Y-77426741D01*
X131666204Y-77435501D01*
X131853308Y-77485635D01*
X132015230Y-77499801D01*
X132079998Y-77505468D01*
X132080000Y-77505468D01*
X132080002Y-77505468D01*
X132136807Y-77500498D01*
X132306692Y-77485635D01*
X132526496Y-77426739D01*
X132584126Y-77399864D01*
X132597965Y-77394398D01*
X132621213Y-77386798D01*
X133782201Y-76813322D01*
X133837117Y-76800500D01*
X135168331Y-76800500D01*
X135168347Y-76800501D01*
X135175943Y-76800501D01*
X135334054Y-76800501D01*
X135334057Y-76800501D01*
X135486785Y-76759577D01*
X135536904Y-76730639D01*
X135623716Y-76680520D01*
X135735520Y-76568716D01*
X135735520Y-76568714D01*
X135745728Y-76558507D01*
X135745729Y-76558504D01*
X136370520Y-75933716D01*
X136370520Y-75933714D01*
X136380721Y-75923514D01*
X136380724Y-75923509D01*
X136737418Y-75566817D01*
X136798740Y-75533334D01*
X136825098Y-75530500D01*
X137557829Y-75530500D01*
X137612900Y-75543400D01*
X138609383Y-76037350D01*
X138617415Y-76041791D01*
X138711079Y-76089516D01*
X138761875Y-76137490D01*
X138778670Y-76205311D01*
X138756132Y-76271446D01*
X138711079Y-76310484D01*
X138618391Y-76357711D01*
X138618389Y-76357712D01*
X138452786Y-76478028D01*
X138308028Y-76622786D01*
X138187715Y-76788385D01*
X138181542Y-76800501D01*
X138094780Y-76970781D01*
X138094779Y-76970783D01*
X138094778Y-76970786D01*
X138055632Y-77091258D01*
X138049675Y-77106211D01*
X137577961Y-78097686D01*
X137553669Y-78132094D01*
X135521286Y-80164478D01*
X135409481Y-80276282D01*
X135409477Y-80276287D01*
X135369625Y-80345315D01*
X135369625Y-80345316D01*
X135330423Y-80413214D01*
X135330423Y-80413215D01*
X135289499Y-80565943D01*
X135289499Y-80565945D01*
X135289499Y-80734046D01*
X135289500Y-80734059D01*
X135289500Y-87142878D01*
X135276676Y-87197794D01*
X134874369Y-88012255D01*
X134827031Y-88063644D01*
X134759424Y-88081282D01*
X134693014Y-88059568D01*
X134648885Y-88005398D01*
X134647030Y-87999699D01*
X134646802Y-87999785D01*
X134593797Y-87857671D01*
X134593793Y-87857664D01*
X134507547Y-87742455D01*
X134507544Y-87742452D01*
X134392335Y-87656206D01*
X134392328Y-87656202D01*
X134257482Y-87605908D01*
X134257483Y-87605908D01*
X134197883Y-87599501D01*
X134197881Y-87599500D01*
X134197873Y-87599500D01*
X134197864Y-87599500D01*
X132502129Y-87599500D01*
X132502123Y-87599501D01*
X132442516Y-87605908D01*
X132307671Y-87656202D01*
X132307664Y-87656206D01*
X132192455Y-87742452D01*
X132192452Y-87742455D01*
X132106206Y-87857664D01*
X132106202Y-87857671D01*
X132055908Y-87992517D01*
X132049501Y-88052116D01*
X132049500Y-88052135D01*
X132049500Y-89747870D01*
X132049501Y-89747876D01*
X132055908Y-89807483D01*
X132106202Y-89942328D01*
X132106206Y-89942335D01*
X132192452Y-90057544D01*
X132192455Y-90057547D01*
X132307664Y-90143793D01*
X132307671Y-90143797D01*
X132442517Y-90194091D01*
X132442516Y-90194091D01*
X132449444Y-90194835D01*
X132502127Y-90200500D01*
X134197872Y-90200499D01*
X134257483Y-90194091D01*
X134392331Y-90143796D01*
X134507546Y-90057546D01*
X134593796Y-89942331D01*
X134644091Y-89807483D01*
X134647862Y-89772401D01*
X134674599Y-89707855D01*
X134731990Y-89668006D01*
X134801816Y-89665511D01*
X134861905Y-89701163D01*
X134872726Y-89714536D01*
X134889956Y-89739143D01*
X135050858Y-89900045D01*
X135050861Y-89900047D01*
X135237266Y-90030568D01*
X135443504Y-90126739D01*
X135443509Y-90126740D01*
X135443511Y-90126741D01*
X135464176Y-90132278D01*
X135663308Y-90185635D01*
X135825230Y-90199801D01*
X135889998Y-90205468D01*
X135890000Y-90205468D01*
X135890002Y-90205468D01*
X135946807Y-90200498D01*
X136116692Y-90185635D01*
X136336496Y-90126739D01*
X136542734Y-90030568D01*
X136729139Y-89900047D01*
X136890047Y-89739139D01*
X137020568Y-89552734D01*
X137116739Y-89346496D01*
X137175635Y-89126692D01*
X137195468Y-88900000D01*
X137194613Y-88890233D01*
X137175635Y-88673313D01*
X137175635Y-88673308D01*
X137116739Y-88453504D01*
X137089870Y-88395883D01*
X137084396Y-88382025D01*
X137076798Y-88358786D01*
X136826623Y-87852313D01*
X136814583Y-87783490D01*
X136841663Y-87719081D01*
X136899266Y-87679538D01*
X136969103Y-87677414D01*
X137025482Y-87709717D01*
X144323583Y-95007819D01*
X144357068Y-95069142D01*
X144352084Y-95138834D01*
X144310212Y-95194767D01*
X144244748Y-95219184D01*
X144235902Y-95219500D01*
X143297129Y-95219500D01*
X143297123Y-95219501D01*
X143237516Y-95225908D01*
X143102671Y-95276202D01*
X143102664Y-95276206D01*
X142987455Y-95362452D01*
X142987452Y-95362455D01*
X142901206Y-95477664D01*
X142901202Y-95477671D01*
X142850908Y-95612517D01*
X142844501Y-95672116D01*
X142844500Y-95672135D01*
X142844500Y-97367870D01*
X142844501Y-97367876D01*
X142850908Y-97427483D01*
X142901202Y-97562328D01*
X142901206Y-97562335D01*
X142987452Y-97677544D01*
X142987455Y-97677547D01*
X143102664Y-97763793D01*
X143102671Y-97763797D01*
X143237517Y-97814091D01*
X143237516Y-97814091D01*
X143244444Y-97814835D01*
X143297127Y-97820500D01*
X144992872Y-97820499D01*
X145052483Y-97814091D01*
X145187331Y-97763796D01*
X145302546Y-97677546D01*
X145388796Y-97562331D01*
X145439091Y-97427483D01*
X145442862Y-97392401D01*
X145469599Y-97327855D01*
X145526990Y-97288006D01*
X145596816Y-97285511D01*
X145656905Y-97321163D01*
X145667726Y-97334536D01*
X145684956Y-97359143D01*
X145845858Y-97520045D01*
X145845861Y-97520047D01*
X146032266Y-97650568D01*
X146238504Y-97746739D01*
X146458308Y-97805635D01*
X146620230Y-97819801D01*
X146684998Y-97825468D01*
X146685000Y-97825468D01*
X146685002Y-97825468D01*
X146741807Y-97820498D01*
X146911692Y-97805635D01*
X147131496Y-97746739D01*
X147337734Y-97650568D01*
X147524139Y-97520047D01*
X147685047Y-97359139D01*
X147815568Y-97172734D01*
X147911739Y-96966496D01*
X147970635Y-96746692D01*
X147990468Y-96520000D01*
X147970635Y-96293308D01*
X147911739Y-96073504D01*
X147815568Y-95867266D01*
X147685047Y-95680861D01*
X147685045Y-95680858D01*
X147524141Y-95519954D01*
X147337734Y-95389432D01*
X147337732Y-95389431D01*
X147131495Y-95293260D01*
X147131492Y-95293259D01*
X147114722Y-95288766D01*
X147107035Y-95286437D01*
X145915045Y-94882675D01*
X145867146Y-94852911D01*
X140091416Y-89077181D01*
X140057931Y-89015858D01*
X140062915Y-88946166D01*
X140104787Y-88890233D01*
X140170251Y-88865816D01*
X140179097Y-88865500D01*
X144479903Y-88865500D01*
X144546942Y-88885185D01*
X144567584Y-88901819D01*
X148740139Y-93074374D01*
X148740149Y-93074385D01*
X148744479Y-93078715D01*
X148744480Y-93078716D01*
X148856284Y-93190520D01*
X148943095Y-93240639D01*
X148943097Y-93240641D01*
X148982918Y-93263632D01*
X148993215Y-93269577D01*
X149145942Y-93310500D01*
X149145943Y-93310500D01*
X157812695Y-93310500D01*
X157879734Y-93330185D01*
X157900376Y-93346819D01*
X159702334Y-95148777D01*
X159735819Y-95210100D01*
X159730835Y-95279792D01*
X159730269Y-95281279D01*
X159618919Y-95568507D01*
X159576333Y-95623899D01*
X159510561Y-95647473D01*
X159442484Y-95631747D01*
X159393717Y-95581711D01*
X159387121Y-95567018D01*
X159353798Y-95477673D01*
X159353793Y-95477664D01*
X159267547Y-95362455D01*
X159267544Y-95362452D01*
X159152335Y-95276206D01*
X159152328Y-95276202D01*
X159017482Y-95225908D01*
X159017483Y-95225908D01*
X158957883Y-95219501D01*
X158957881Y-95219500D01*
X158957873Y-95219500D01*
X158957864Y-95219500D01*
X157262129Y-95219500D01*
X157262123Y-95219501D01*
X157202516Y-95225908D01*
X157067671Y-95276202D01*
X157067664Y-95276206D01*
X156952455Y-95362452D01*
X156952452Y-95362455D01*
X156866206Y-95477664D01*
X156866202Y-95477671D01*
X156815908Y-95612517D01*
X156809501Y-95672116D01*
X156809500Y-95672135D01*
X156809500Y-97367870D01*
X156809501Y-97367876D01*
X156815908Y-97427483D01*
X156866202Y-97562328D01*
X156866206Y-97562335D01*
X156952452Y-97677544D01*
X156952455Y-97677547D01*
X157067664Y-97763793D01*
X157067671Y-97763797D01*
X157202517Y-97814091D01*
X157202516Y-97814091D01*
X157209444Y-97814835D01*
X157262127Y-97820500D01*
X158957872Y-97820499D01*
X159017483Y-97814091D01*
X159152331Y-97763796D01*
X159267546Y-97677546D01*
X159353796Y-97562331D01*
X159404091Y-97427483D01*
X159407862Y-97392401D01*
X159434599Y-97327855D01*
X159491990Y-97288006D01*
X159561816Y-97285511D01*
X159621905Y-97321163D01*
X159632726Y-97334536D01*
X159649956Y-97359143D01*
X159810858Y-97520045D01*
X159810861Y-97520047D01*
X159997266Y-97650568D01*
X160203504Y-97746739D01*
X160423308Y-97805635D01*
X160585230Y-97819801D01*
X160649998Y-97825468D01*
X160650000Y-97825468D01*
X160650002Y-97825468D01*
X160706807Y-97820498D01*
X160876692Y-97805635D01*
X161096496Y-97746739D01*
X161302734Y-97650568D01*
X161489139Y-97520047D01*
X161650047Y-97359139D01*
X161780568Y-97172734D01*
X161876739Y-96966496D01*
X161935635Y-96746692D01*
X161955468Y-96520000D01*
X161935635Y-96293308D01*
X161876739Y-96073504D01*
X161780568Y-95867266D01*
X161650047Y-95680861D01*
X161627311Y-95658125D01*
X161614354Y-95642885D01*
X161250608Y-95137493D01*
X161231476Y-95097151D01*
X161209576Y-95015421D01*
X161196240Y-94992323D01*
X161146474Y-94906126D01*
X161130520Y-94878492D01*
X161018716Y-94766688D01*
X161018715Y-94766687D01*
X161014385Y-94762357D01*
X161014374Y-94762347D01*
X160893604Y-94641577D01*
X160883651Y-94630339D01*
X160882446Y-94628800D01*
X160881223Y-94627362D01*
X160813349Y-94561261D01*
X160811576Y-94559534D01*
X160810408Y-94558381D01*
X160232021Y-93979994D01*
X165894357Y-93979994D01*
X165894357Y-93980005D01*
X165914890Y-94227812D01*
X165914892Y-94227824D01*
X165975936Y-94468881D01*
X166075826Y-94696606D01*
X166211833Y-94904782D01*
X166213070Y-94906126D01*
X166380256Y-95087738D01*
X166576491Y-95240474D01*
X166576493Y-95240475D01*
X166794332Y-95358364D01*
X166795190Y-95358828D01*
X167014141Y-95433994D01*
X167028964Y-95439083D01*
X167030386Y-95439571D01*
X167275665Y-95480500D01*
X167524335Y-95480500D01*
X167769614Y-95439571D01*
X168004810Y-95358828D01*
X168223509Y-95240474D01*
X168419744Y-95087738D01*
X168588164Y-94904785D01*
X168724173Y-94696607D01*
X168824063Y-94468881D01*
X168885108Y-94227821D01*
X168905643Y-93980000D01*
X168889651Y-93787007D01*
X168885109Y-93732187D01*
X168885107Y-93732175D01*
X168824063Y-93491118D01*
X168724173Y-93263393D01*
X168588166Y-93055217D01*
X168566557Y-93031744D01*
X168419744Y-92872262D01*
X168223509Y-92719526D01*
X168223507Y-92719525D01*
X168223506Y-92719524D01*
X168004811Y-92601172D01*
X168004802Y-92601169D01*
X167769616Y-92520429D01*
X167524335Y-92479500D01*
X167275665Y-92479500D01*
X167030383Y-92520429D01*
X166795197Y-92601169D01*
X166795188Y-92601172D01*
X166576493Y-92719524D01*
X166380257Y-92872261D01*
X166211833Y-93055217D01*
X166075826Y-93263393D01*
X165975936Y-93491118D01*
X165914892Y-93732175D01*
X165914890Y-93732187D01*
X165894357Y-93979994D01*
X160232021Y-93979994D01*
X158600382Y-92348355D01*
X158600380Y-92348352D01*
X158481509Y-92229481D01*
X158481508Y-92229480D01*
X158394696Y-92179360D01*
X158394696Y-92179359D01*
X158394692Y-92179358D01*
X158344577Y-92150423D01*
X158191849Y-92109499D01*
X158033735Y-92109499D01*
X158026139Y-92109499D01*
X158026123Y-92109500D01*
X149525097Y-92109500D01*
X149458058Y-92089815D01*
X149437416Y-92073181D01*
X145267590Y-87903355D01*
X145267588Y-87903352D01*
X145148717Y-87784481D01*
X145148716Y-87784480D01*
X145061904Y-87734360D01*
X145061904Y-87734359D01*
X145061900Y-87734358D01*
X145011785Y-87705423D01*
X144859057Y-87664499D01*
X144700943Y-87664499D01*
X144693347Y-87664499D01*
X144693331Y-87664500D01*
X140000097Y-87664500D01*
X139933058Y-87644815D01*
X139912416Y-87628181D01*
X138837370Y-86553135D01*
X138803885Y-86491812D01*
X138808869Y-86422120D01*
X138850741Y-86366187D01*
X138916205Y-86341770D01*
X138963371Y-86347524D01*
X138995575Y-86357988D01*
X138995581Y-86357989D01*
X139197683Y-86390000D01*
X139450000Y-86390000D01*
X139450000Y-85405686D01*
X139454394Y-85410080D01*
X139545606Y-85462741D01*
X139647339Y-85490000D01*
X139752661Y-85490000D01*
X139854394Y-85462741D01*
X139945606Y-85410080D01*
X139950000Y-85405686D01*
X139950000Y-86390000D01*
X140202317Y-86390000D01*
X140404417Y-86357990D01*
X140599031Y-86294755D01*
X140781349Y-86201859D01*
X140946894Y-86081582D01*
X140946895Y-86081582D01*
X141091582Y-85936895D01*
X141091582Y-85936894D01*
X141211859Y-85771349D01*
X141304755Y-85589029D01*
X141367990Y-85394413D01*
X141376609Y-85340000D01*
X140015686Y-85340000D01*
X140020080Y-85335606D01*
X140072741Y-85244394D01*
X140100000Y-85142661D01*
X140100000Y-85037339D01*
X140072741Y-84935606D01*
X140020080Y-84844394D01*
X140015686Y-84840000D01*
X141376609Y-84840000D01*
X141367990Y-84785586D01*
X141367989Y-84785580D01*
X141304755Y-84590970D01*
X141211859Y-84408650D01*
X141091582Y-84243105D01*
X141091582Y-84243104D01*
X140946895Y-84098417D01*
X140781349Y-83978140D01*
X140688370Y-83930765D01*
X140637574Y-83882790D01*
X140620779Y-83814969D01*
X140643316Y-83748835D01*
X140688370Y-83709795D01*
X140688920Y-83709515D01*
X140781610Y-83662287D01*
X140869456Y-83598464D01*
X140947213Y-83541971D01*
X140947215Y-83541968D01*
X140947219Y-83541966D01*
X141091966Y-83397219D01*
X141091968Y-83397215D01*
X141091971Y-83397213D01*
X141147228Y-83321157D01*
X141212287Y-83231610D01*
X141305220Y-83049219D01*
X141368477Y-82854534D01*
X141400500Y-82652352D01*
X141400500Y-82447648D01*
X141368477Y-82245466D01*
X141305220Y-82050781D01*
X141305218Y-82050778D01*
X141305218Y-82050776D01*
X141271503Y-81984607D01*
X141212287Y-81868390D01*
X141142053Y-81771720D01*
X141091971Y-81702786D01*
X140947213Y-81558028D01*
X140781614Y-81437715D01*
X140775006Y-81434348D01*
X140688917Y-81390483D01*
X140638123Y-81342511D01*
X140621328Y-81274690D01*
X140643865Y-81208555D01*
X140688917Y-81169516D01*
X140781610Y-81122287D01*
X140840159Y-81079749D01*
X140947213Y-81001971D01*
X140947215Y-81001968D01*
X140947219Y-81001966D01*
X141091966Y-80857219D01*
X141091968Y-80857215D01*
X141091971Y-80857213D01*
X141181446Y-80734059D01*
X141212287Y-80691610D01*
X141305220Y-80509219D01*
X141368477Y-80314534D01*
X141400500Y-80112352D01*
X141400500Y-79907648D01*
X141381623Y-79788464D01*
X141368477Y-79705465D01*
X141305218Y-79510776D01*
X141244904Y-79392405D01*
X141212287Y-79328390D01*
X141153467Y-79247430D01*
X141091971Y-79162786D01*
X140947213Y-79018028D01*
X140781614Y-78897715D01*
X140771983Y-78892808D01*
X140688917Y-78850483D01*
X140638123Y-78802511D01*
X140621328Y-78734690D01*
X140643865Y-78668555D01*
X140688917Y-78629516D01*
X140781610Y-78582287D01*
X140845293Y-78536019D01*
X140947213Y-78461971D01*
X140947215Y-78461968D01*
X140947219Y-78461966D01*
X141091966Y-78317219D01*
X141091968Y-78317215D01*
X141091971Y-78317213D01*
X141144732Y-78244590D01*
X141212287Y-78151610D01*
X141305220Y-77969219D01*
X141368477Y-77774534D01*
X141400500Y-77572352D01*
X141400500Y-77367648D01*
X141398900Y-77357546D01*
X141368477Y-77165465D01*
X141327432Y-77039143D01*
X141305220Y-76970781D01*
X141305218Y-76970778D01*
X141305218Y-76970776D01*
X141245072Y-76852734D01*
X141212287Y-76788390D01*
X141179477Y-76743230D01*
X141091971Y-76622786D01*
X140947213Y-76478028D01*
X140781614Y-76357715D01*
X140775006Y-76354348D01*
X140688917Y-76310483D01*
X140638123Y-76262511D01*
X140621328Y-76194690D01*
X140643865Y-76128555D01*
X140688917Y-76089516D01*
X140781610Y-76042287D01*
X140856427Y-75987930D01*
X140947213Y-75921971D01*
X140947215Y-75921968D01*
X140947219Y-75921966D01*
X141091966Y-75777219D01*
X141091968Y-75777215D01*
X141091971Y-75777213D01*
X141185848Y-75648000D01*
X141212287Y-75611610D01*
X141305220Y-75429219D01*
X141368477Y-75234534D01*
X141400500Y-75032352D01*
X141400500Y-74827648D01*
X141392257Y-74775606D01*
X141368477Y-74625465D01*
X141311296Y-74449481D01*
X141305220Y-74430781D01*
X141305218Y-74430778D01*
X141305218Y-74430776D01*
X141271503Y-74364607D01*
X141212287Y-74248390D01*
X141195992Y-74225962D01*
X141091971Y-74082786D01*
X140947213Y-73938028D01*
X140781614Y-73817715D01*
X140738413Y-73795703D01*
X140688917Y-73770483D01*
X140638123Y-73722511D01*
X140621328Y-73654690D01*
X140643865Y-73588555D01*
X140688917Y-73549516D01*
X140781610Y-73502287D01*
X140827086Y-73469247D01*
X140947213Y-73381971D01*
X140947215Y-73381968D01*
X140947219Y-73381966D01*
X141091966Y-73237219D01*
X141091968Y-73237215D01*
X141091971Y-73237213D01*
X141144732Y-73164590D01*
X141212287Y-73071610D01*
X141305220Y-72889219D01*
X141368477Y-72694534D01*
X141400500Y-72492352D01*
X141400500Y-72287648D01*
X141381623Y-72168464D01*
X141368477Y-72085465D01*
X141305218Y-71890776D01*
X141271503Y-71824607D01*
X141212287Y-71708390D01*
X141204556Y-71697749D01*
X141091971Y-71542786D01*
X140947213Y-71398028D01*
X140781614Y-71277715D01*
X140724388Y-71248557D01*
X140688917Y-71230483D01*
X140638123Y-71182511D01*
X140621328Y-71114690D01*
X140643865Y-71048555D01*
X140688917Y-71009516D01*
X140781610Y-70962287D01*
X140802770Y-70946913D01*
X140947213Y-70841971D01*
X140947215Y-70841968D01*
X140947219Y-70841966D01*
X141091966Y-70697219D01*
X141091968Y-70697215D01*
X141091971Y-70697213D01*
X141144732Y-70624590D01*
X141212287Y-70531610D01*
X141305220Y-70349219D01*
X141368477Y-70154534D01*
X141400500Y-69952352D01*
X141400500Y-69747648D01*
X141380602Y-69622020D01*
X141368477Y-69545465D01*
X141311296Y-69369481D01*
X141305220Y-69350781D01*
X141305218Y-69350778D01*
X141305218Y-69350776D01*
X141271503Y-69284607D01*
X141212287Y-69168390D01*
X141183182Y-69128330D01*
X141091971Y-69002786D01*
X140947219Y-68858034D01*
X140910929Y-68831668D01*
X140868264Y-68776339D01*
X140862285Y-68706726D01*
X140894890Y-68644931D01*
X140955728Y-68610573D01*
X140970562Y-68608060D01*
X141007483Y-68604091D01*
X141059411Y-68584723D01*
X141142331Y-68553796D01*
X141257546Y-68467546D01*
X141343796Y-68352331D01*
X141394091Y-68217483D01*
X141400500Y-68157873D01*
X141400499Y-67327422D01*
X141402741Y-67303952D01*
X141445522Y-67082020D01*
X141597915Y-66291449D01*
X141629932Y-66229350D01*
X141631949Y-66227284D01*
X146897417Y-60961819D01*
X146958740Y-60928334D01*
X146985098Y-60925500D01*
X149755386Y-60925500D01*
X149822425Y-60945185D01*
X149868180Y-60997989D01*
X149878124Y-61067147D01*
X149849099Y-61130703D01*
X149826510Y-61151075D01*
X149656179Y-61270342D01*
X149495342Y-61431179D01*
X149364865Y-61617517D01*
X149268734Y-61823673D01*
X149268730Y-61823682D01*
X149216127Y-62019999D01*
X149216128Y-62020000D01*
X150179314Y-62020000D01*
X150174920Y-62024394D01*
X150122259Y-62115606D01*
X150095000Y-62217339D01*
X150095000Y-62322661D01*
X150122259Y-62424394D01*
X150174920Y-62515606D01*
X150179314Y-62520000D01*
X149216128Y-62520000D01*
X149268730Y-62716317D01*
X149268734Y-62716326D01*
X149364865Y-62922482D01*
X149495342Y-63108820D01*
X149656179Y-63269657D01*
X149842517Y-63400134D01*
X150048673Y-63496265D01*
X150048682Y-63496269D01*
X150244999Y-63548872D01*
X150245000Y-63548871D01*
X150245000Y-62585686D01*
X150249394Y-62590080D01*
X150340606Y-62642741D01*
X150442339Y-62670000D01*
X150547661Y-62670000D01*
X150649394Y-62642741D01*
X150740606Y-62590080D01*
X150745000Y-62585686D01*
X150745000Y-63548872D01*
X150941317Y-63496269D01*
X150941326Y-63496265D01*
X151147482Y-63400134D01*
X151333820Y-63269657D01*
X151494657Y-63108820D01*
X151625134Y-62922482D01*
X151721265Y-62716326D01*
X151721269Y-62716317D01*
X151773872Y-62520000D01*
X150810686Y-62520000D01*
X150815080Y-62515606D01*
X150835637Y-62480000D01*
X156303505Y-62480000D01*
X156356239Y-62665349D01*
X156455368Y-62864425D01*
X156589391Y-63041900D01*
X156753738Y-63191721D01*
X156942820Y-63308797D01*
X156942822Y-63308798D01*
X157150195Y-63389135D01*
X157230000Y-63404052D01*
X157730000Y-63404052D01*
X157809804Y-63389135D01*
X158017177Y-63308798D01*
X158017179Y-63308797D01*
X158206261Y-63191721D01*
X158370608Y-63041900D01*
X158504631Y-62864425D01*
X158603760Y-62665349D01*
X158656495Y-62480000D01*
X157730000Y-62480000D01*
X157730000Y-63404052D01*
X157230000Y-63404052D01*
X157230000Y-62480000D01*
X156303505Y-62480000D01*
X150835637Y-62480000D01*
X150867741Y-62424394D01*
X150895000Y-62322661D01*
X150895000Y-62217339D01*
X150886046Y-62183922D01*
X157130000Y-62183922D01*
X157130000Y-62276078D01*
X157153852Y-62365095D01*
X157199930Y-62444905D01*
X157265095Y-62510070D01*
X157344905Y-62556148D01*
X157433922Y-62580000D01*
X157526078Y-62580000D01*
X157615095Y-62556148D01*
X157694905Y-62510070D01*
X157760070Y-62444905D01*
X157806148Y-62365095D01*
X157830000Y-62276078D01*
X157830000Y-62229999D01*
X163894357Y-62229999D01*
X163894357Y-62230000D01*
X163914884Y-62451535D01*
X163914885Y-62451537D01*
X163975769Y-62665523D01*
X163975775Y-62665538D01*
X164074938Y-62864683D01*
X164074943Y-62864691D01*
X164209020Y-63042238D01*
X164373437Y-63192123D01*
X164373439Y-63192125D01*
X164562595Y-63309245D01*
X164562596Y-63309245D01*
X164562599Y-63309247D01*
X164770060Y-63389618D01*
X164988757Y-63430500D01*
X164988759Y-63430500D01*
X165211241Y-63430500D01*
X165211243Y-63430500D01*
X165429940Y-63389618D01*
X165637401Y-63309247D01*
X165826562Y-63192124D01*
X165990981Y-63042236D01*
X166125058Y-62864689D01*
X166224229Y-62665528D01*
X166285115Y-62451536D01*
X166305643Y-62230000D01*
X166302356Y-62194532D01*
X166285115Y-62008464D01*
X166285114Y-62008462D01*
X166268460Y-61949930D01*
X166224229Y-61794472D01*
X166224224Y-61794461D01*
X166125061Y-61595316D01*
X166125056Y-61595308D01*
X165990979Y-61417761D01*
X165826562Y-61267876D01*
X165826560Y-61267874D01*
X165637404Y-61150754D01*
X165637398Y-61150752D01*
X165429940Y-61070382D01*
X165211243Y-61029500D01*
X164988757Y-61029500D01*
X164770060Y-61070382D01*
X164702647Y-61096498D01*
X164562601Y-61150752D01*
X164562595Y-61150754D01*
X164373439Y-61267874D01*
X164373437Y-61267876D01*
X164209020Y-61417761D01*
X164074943Y-61595308D01*
X164074938Y-61595316D01*
X163975775Y-61794461D01*
X163975769Y-61794476D01*
X163914885Y-62008462D01*
X163914884Y-62008464D01*
X163894357Y-62229999D01*
X157830000Y-62229999D01*
X157830000Y-62183922D01*
X157806148Y-62094905D01*
X157760070Y-62015095D01*
X157724975Y-61980000D01*
X157730000Y-61980000D01*
X158656495Y-61980000D01*
X158603760Y-61794650D01*
X158504631Y-61595574D01*
X158370608Y-61418099D01*
X158206261Y-61268278D01*
X158017179Y-61151202D01*
X158017177Y-61151201D01*
X157809799Y-61070864D01*
X157730000Y-61055946D01*
X157730000Y-61980000D01*
X157724975Y-61980000D01*
X157694905Y-61949930D01*
X157615095Y-61903852D01*
X157526078Y-61880000D01*
X157433922Y-61880000D01*
X157344905Y-61903852D01*
X157265095Y-61949930D01*
X157199930Y-62015095D01*
X157153852Y-62094905D01*
X157130000Y-62183922D01*
X150886046Y-62183922D01*
X150867741Y-62115606D01*
X150815080Y-62024394D01*
X150810686Y-62020000D01*
X151773872Y-62020000D01*
X151773872Y-62019999D01*
X151763154Y-61980000D01*
X156303505Y-61980000D01*
X157230000Y-61980000D01*
X157230000Y-61055946D01*
X157150200Y-61070864D01*
X156942822Y-61151201D01*
X156942820Y-61151202D01*
X156753738Y-61268278D01*
X156589391Y-61418099D01*
X156455368Y-61595574D01*
X156356239Y-61794650D01*
X156303505Y-61980000D01*
X151763154Y-61980000D01*
X151721269Y-61823682D01*
X151721265Y-61823673D01*
X151625134Y-61617517D01*
X151494657Y-61431179D01*
X151333820Y-61270342D01*
X151163490Y-61151075D01*
X151119865Y-61096498D01*
X151112673Y-61026999D01*
X151144195Y-60964645D01*
X151204425Y-60929231D01*
X151234614Y-60925500D01*
X156123331Y-60925500D01*
X156123347Y-60925501D01*
X156130943Y-60925501D01*
X156289054Y-60925501D01*
X156289057Y-60925501D01*
X156441785Y-60884577D01*
X156491904Y-60855639D01*
X156578716Y-60805520D01*
X156690520Y-60693716D01*
X156690520Y-60693714D01*
X156700728Y-60683507D01*
X156700730Y-60683504D01*
X159837150Y-57547083D01*
X159885044Y-57517322D01*
X161077015Y-57113566D01*
X161084694Y-57111240D01*
X161101496Y-57106739D01*
X161107971Y-57103718D01*
X161118657Y-57099330D01*
X161127033Y-57096341D01*
X161127744Y-57096074D01*
X161191802Y-57066776D01*
X161191810Y-57066769D01*
X161197475Y-57063411D01*
X161197631Y-57063675D01*
X161211022Y-57055664D01*
X161307734Y-57010568D01*
X161494139Y-56880047D01*
X161655047Y-56719139D01*
X161785568Y-56532734D01*
X161881739Y-56326496D01*
X161940635Y-56106692D01*
X161960468Y-55880000D01*
X161940635Y-55653308D01*
X161881739Y-55433504D01*
X161785568Y-55227266D01*
X161655047Y-55040861D01*
X161655045Y-55040858D01*
X161494141Y-54879954D01*
X161307734Y-54749432D01*
X161307732Y-54749431D01*
X161101497Y-54653261D01*
X161101488Y-54653258D01*
X160881697Y-54594366D01*
X160881693Y-54594365D01*
X160881692Y-54594365D01*
X160881691Y-54594364D01*
X160881686Y-54594364D01*
X160655002Y-54574532D01*
X160654998Y-54574532D01*
X160428313Y-54594364D01*
X160428302Y-54594366D01*
X160208511Y-54653258D01*
X160208502Y-54653261D01*
X160002267Y-54749431D01*
X160002265Y-54749432D01*
X159815858Y-54879954D01*
X159654954Y-55040858D01*
X159637725Y-55065464D01*
X159583147Y-55109088D01*
X159513648Y-55116280D01*
X159451294Y-55084757D01*
X159415882Y-55024526D01*
X159412861Y-55007591D01*
X159409091Y-54972516D01*
X159358797Y-54837671D01*
X159358793Y-54837664D01*
X159272547Y-54722455D01*
X159272544Y-54722452D01*
X159157335Y-54636206D01*
X159157328Y-54636202D01*
X159022482Y-54585908D01*
X159022483Y-54585908D01*
X158962883Y-54579501D01*
X158962881Y-54579500D01*
X158962873Y-54579500D01*
X158962864Y-54579500D01*
X157267129Y-54579500D01*
X157267123Y-54579501D01*
X157207516Y-54585908D01*
X157072671Y-54636202D01*
X157072664Y-54636206D01*
X156957455Y-54722452D01*
X156957452Y-54722455D01*
X156871206Y-54837664D01*
X156871202Y-54837671D01*
X156820908Y-54972517D01*
X156814501Y-55032116D01*
X156814500Y-55032135D01*
X156814500Y-56727870D01*
X156814501Y-56727876D01*
X156820908Y-56787483D01*
X156871202Y-56922328D01*
X156871206Y-56922335D01*
X156957452Y-57037544D01*
X156957455Y-57037547D01*
X157072664Y-57123793D01*
X157072671Y-57123797D01*
X157207517Y-57174091D01*
X157207516Y-57174091D01*
X157214444Y-57174835D01*
X157267127Y-57180500D01*
X158205902Y-57180499D01*
X158272941Y-57200183D01*
X158318696Y-57252987D01*
X158328640Y-57322146D01*
X158299615Y-57385702D01*
X158293583Y-57392180D01*
X155997584Y-59688181D01*
X155936261Y-59721666D01*
X155909903Y-59724500D01*
X146771670Y-59724500D01*
X146771654Y-59724499D01*
X146764058Y-59724499D01*
X146605943Y-59724499D01*
X146529579Y-59744961D01*
X146453214Y-59765423D01*
X146453209Y-59765426D01*
X146316290Y-59844475D01*
X146316282Y-59844481D01*
X140742259Y-65418504D01*
X140699764Y-65446297D01*
X140449359Y-65544283D01*
X140449358Y-65544283D01*
X139676596Y-65846668D01*
X139324701Y-65984366D01*
X139282258Y-66000974D01*
X139237073Y-66009500D01*
X138924500Y-66009500D01*
X138857461Y-65989815D01*
X138811706Y-65937011D01*
X138800500Y-65885500D01*
X138800500Y-65300096D01*
X138820185Y-65233057D01*
X138836814Y-65212420D01*
X146346950Y-57702283D01*
X146363038Y-57688721D01*
X147293061Y-57031251D01*
X147312228Y-57020129D01*
X147332734Y-57010568D01*
X147519139Y-56880047D01*
X147549373Y-56849811D01*
X147558101Y-56842139D01*
X147557998Y-56842016D01*
X147560015Y-56840316D01*
X147561524Y-56839045D01*
X147628155Y-56771037D01*
X147628866Y-56770318D01*
X147680047Y-56719139D01*
X147810568Y-56532734D01*
X147906739Y-56326496D01*
X147965635Y-56106692D01*
X147985468Y-55880000D01*
X147965635Y-55653308D01*
X147906739Y-55433504D01*
X147810568Y-55227266D01*
X147680047Y-55040861D01*
X147680045Y-55040858D01*
X147519141Y-54879954D01*
X147332734Y-54749432D01*
X147332732Y-54749431D01*
X147126497Y-54653261D01*
X147126488Y-54653258D01*
X146906697Y-54594366D01*
X146906693Y-54594365D01*
X146906692Y-54594365D01*
X146906691Y-54594364D01*
X146906686Y-54594364D01*
X146680002Y-54574532D01*
X146679998Y-54574532D01*
X146453313Y-54594364D01*
X146453302Y-54594366D01*
X146233511Y-54653258D01*
X146233502Y-54653261D01*
X146027267Y-54749431D01*
X146027265Y-54749432D01*
X145840858Y-54879954D01*
X145679954Y-55040858D01*
X145662725Y-55065464D01*
X145608147Y-55109088D01*
X145538648Y-55116280D01*
X145476294Y-55084757D01*
X145440882Y-55024526D01*
X145437861Y-55007591D01*
X145434091Y-54972516D01*
X145383797Y-54837671D01*
X145383793Y-54837664D01*
X145297547Y-54722455D01*
X145297544Y-54722452D01*
X145182335Y-54636206D01*
X145182328Y-54636202D01*
X145047482Y-54585908D01*
X145047483Y-54585908D01*
X144987883Y-54579501D01*
X144987881Y-54579500D01*
X144987873Y-54579500D01*
X144987864Y-54579500D01*
X143292129Y-54579500D01*
X143292123Y-54579501D01*
X143232516Y-54585908D01*
X143097671Y-54636202D01*
X143097664Y-54636206D01*
X142982455Y-54722452D01*
X142982452Y-54722455D01*
X142896206Y-54837664D01*
X142896202Y-54837671D01*
X142845908Y-54972517D01*
X142839501Y-55032116D01*
X142839500Y-55032135D01*
X142839500Y-56727870D01*
X142839501Y-56727876D01*
X142845908Y-56787483D01*
X142896202Y-56922328D01*
X142896206Y-56922335D01*
X142982452Y-57037544D01*
X142982455Y-57037547D01*
X143097664Y-57123793D01*
X143097671Y-57123797D01*
X143232517Y-57174091D01*
X143232516Y-57174091D01*
X143239444Y-57174835D01*
X143292127Y-57180500D01*
X144870902Y-57180499D01*
X144937941Y-57200184D01*
X144983696Y-57252987D01*
X144993640Y-57322146D01*
X144964615Y-57385702D01*
X144958583Y-57392180D01*
X137831286Y-64519478D01*
X137719481Y-64631282D01*
X137719477Y-64631287D01*
X137704319Y-64657544D01*
X137704318Y-64657546D01*
X137640423Y-64768215D01*
X137599499Y-64920943D01*
X137599499Y-64920945D01*
X137599499Y-65089046D01*
X137599500Y-65089059D01*
X137599500Y-68263330D01*
X137599499Y-68263348D01*
X137599499Y-68429054D01*
X137599498Y-68429054D01*
X137637529Y-68570984D01*
X137640423Y-68581785D01*
X137653302Y-68604091D01*
X137675645Y-68642790D01*
X137719479Y-68718715D01*
X137838349Y-68837585D01*
X137838355Y-68837590D01*
X137839688Y-68838923D01*
X137873173Y-68900246D01*
X137874703Y-68908671D01*
X137998196Y-69753602D01*
X137999500Y-69771535D01*
X137999500Y-69952351D01*
X138031523Y-70154535D01*
X138031523Y-70154538D01*
X138041698Y-70185852D01*
X138043693Y-70255694D01*
X138007612Y-70315526D01*
X137944911Y-70346354D01*
X137875497Y-70338389D01*
X137836086Y-70311851D01*
X136526819Y-69002584D01*
X136493334Y-68941261D01*
X136490500Y-68914903D01*
X136490500Y-65257118D01*
X136503323Y-65202202D01*
X136531086Y-65145997D01*
X137076798Y-64041212D01*
X137083901Y-64026218D01*
X137084215Y-64025526D01*
X137099622Y-63984136D01*
X137103449Y-63974994D01*
X137116739Y-63946496D01*
X137175635Y-63726692D01*
X137195468Y-63500000D01*
X137175635Y-63273308D01*
X137116739Y-63053504D01*
X137020568Y-62847266D01*
X136890047Y-62660861D01*
X136890045Y-62660858D01*
X136729141Y-62499954D01*
X136542734Y-62369432D01*
X136542732Y-62369431D01*
X136336497Y-62273261D01*
X136336488Y-62273258D01*
X136116697Y-62214366D01*
X136116693Y-62214365D01*
X136116692Y-62214365D01*
X136116691Y-62214364D01*
X136116686Y-62214364D01*
X135890002Y-62194532D01*
X135889998Y-62194532D01*
X135663313Y-62214364D01*
X135663302Y-62214366D01*
X135443511Y-62273258D01*
X135443502Y-62273261D01*
X135237267Y-62369431D01*
X135237265Y-62369432D01*
X135050858Y-62499954D01*
X134889954Y-62660858D01*
X134872725Y-62685464D01*
X134818147Y-62729088D01*
X134748648Y-62736280D01*
X134686294Y-62704757D01*
X134650882Y-62644526D01*
X134647861Y-62627591D01*
X134644091Y-62592516D01*
X134593797Y-62457671D01*
X134593793Y-62457664D01*
X134507547Y-62342455D01*
X134507544Y-62342452D01*
X134392335Y-62256206D01*
X134392328Y-62256202D01*
X134257482Y-62205908D01*
X134257483Y-62205908D01*
X134197883Y-62199501D01*
X134197881Y-62199500D01*
X134197873Y-62199500D01*
X134197864Y-62199500D01*
X132502129Y-62199500D01*
X132502123Y-62199501D01*
X132442516Y-62205908D01*
X132307671Y-62256202D01*
X132307664Y-62256206D01*
X132192455Y-62342452D01*
X132192452Y-62342455D01*
X132106206Y-62457664D01*
X132106202Y-62457671D01*
X132055908Y-62592517D01*
X132049501Y-62652116D01*
X132049500Y-62652135D01*
X132049500Y-64347870D01*
X132049501Y-64347876D01*
X132055908Y-64407483D01*
X132106202Y-64542328D01*
X132106206Y-64542335D01*
X132192452Y-64657544D01*
X132192455Y-64657547D01*
X132307664Y-64743793D01*
X132307671Y-64743797D01*
X132442517Y-64794091D01*
X132442516Y-64794091D01*
X132449444Y-64794835D01*
X132502127Y-64800500D01*
X134197872Y-64800499D01*
X134257483Y-64794091D01*
X134392331Y-64743796D01*
X134507546Y-64657546D01*
X134593796Y-64542331D01*
X134644091Y-64407483D01*
X134644090Y-64407483D01*
X134646802Y-64400215D01*
X134649811Y-64401337D01*
X134677085Y-64353434D01*
X134738993Y-64321044D01*
X134808585Y-64327266D01*
X134863766Y-64370124D01*
X134874370Y-64387742D01*
X135276676Y-65202202D01*
X135276677Y-65202203D01*
X135289500Y-65257119D01*
X135289500Y-69128330D01*
X135289499Y-69128348D01*
X135289499Y-69294054D01*
X135289498Y-69294054D01*
X135330424Y-69446789D01*
X135330425Y-69446790D01*
X135350340Y-69481283D01*
X135350341Y-69481284D01*
X135409477Y-69583712D01*
X135409481Y-69583717D01*
X135528349Y-69702585D01*
X135528355Y-69702590D01*
X137553670Y-71727905D01*
X137577962Y-71762313D01*
X138049674Y-72753784D01*
X138055631Y-72768737D01*
X138094779Y-72889219D01*
X138146385Y-72990500D01*
X138163802Y-73024683D01*
X138187715Y-73071613D01*
X138308028Y-73237213D01*
X138452786Y-73381971D01*
X138595111Y-73485374D01*
X138618390Y-73502287D01*
X138709840Y-73548883D01*
X138711080Y-73549515D01*
X138761876Y-73597490D01*
X138778671Y-73665311D01*
X138756134Y-73731446D01*
X138711081Y-73770484D01*
X138617401Y-73818217D01*
X138609410Y-73822633D01*
X137612898Y-74316600D01*
X137557826Y-74329500D01*
X136611670Y-74329500D01*
X136611654Y-74329499D01*
X136604058Y-74329499D01*
X136445943Y-74329499D01*
X136369579Y-74349961D01*
X136293214Y-74370423D01*
X136293209Y-74370426D01*
X136156290Y-74449475D01*
X136156282Y-74449481D01*
X135830158Y-74775606D01*
X135521286Y-75084478D01*
X135521284Y-75084480D01*
X135275765Y-75330000D01*
X135042584Y-75563181D01*
X134981261Y-75596666D01*
X134954903Y-75599500D01*
X133837119Y-75599500D01*
X133782203Y-75586677D01*
X133702416Y-75547266D01*
X132621204Y-75013197D01*
X132606255Y-75006115D01*
X132606231Y-75006104D01*
X132605569Y-75005803D01*
X132605559Y-75005799D01*
X132564133Y-74990375D01*
X132554996Y-74986551D01*
X132546654Y-74982661D01*
X132526496Y-74973261D01*
X132526492Y-74973260D01*
X132526488Y-74973258D01*
X132306697Y-74914366D01*
X132306693Y-74914365D01*
X132306692Y-74914365D01*
X132306691Y-74914364D01*
X132306686Y-74914364D01*
X132080002Y-74894532D01*
X132079998Y-74894532D01*
X131853313Y-74914364D01*
X131853302Y-74914366D01*
X131633511Y-74973258D01*
X131633502Y-74973261D01*
X131427267Y-75069431D01*
X131427265Y-75069432D01*
X131240858Y-75199954D01*
X131079954Y-75360858D01*
X131062725Y-75385464D01*
X131008147Y-75429088D01*
X130938648Y-75436280D01*
X130876294Y-75404757D01*
X130840882Y-75344526D01*
X130837861Y-75327591D01*
X130834091Y-75292516D01*
X130783797Y-75157671D01*
X130783793Y-75157664D01*
X130697547Y-75042455D01*
X130697544Y-75042452D01*
X130582335Y-74956206D01*
X130582328Y-74956202D01*
X130447482Y-74905908D01*
X130447483Y-74905908D01*
X130387883Y-74899501D01*
X130387881Y-74899500D01*
X130387873Y-74899500D01*
X130387864Y-74899500D01*
X128692129Y-74899500D01*
X128692123Y-74899501D01*
X128632516Y-74905908D01*
X128497671Y-74956202D01*
X128497664Y-74956206D01*
X128468310Y-74978181D01*
X128402846Y-75002598D01*
X128334573Y-74987746D01*
X128285168Y-74938341D01*
X128270000Y-74878914D01*
X128270000Y-54734176D01*
X128289685Y-54667137D01*
X128306319Y-54646495D01*
X128468776Y-54484038D01*
X131749500Y-54484038D01*
X131749500Y-54735962D01*
X131760147Y-54803186D01*
X131788910Y-54984785D01*
X131866760Y-55224383D01*
X131945413Y-55378747D01*
X131973313Y-55433504D01*
X131981132Y-55448848D01*
X132129201Y-55652649D01*
X132129205Y-55652654D01*
X132307345Y-55830794D01*
X132307350Y-55830798D01*
X132375073Y-55880001D01*
X132511155Y-55978870D01*
X132654184Y-56051747D01*
X132735616Y-56093239D01*
X132735618Y-56093239D01*
X132735621Y-56093241D01*
X132975215Y-56171090D01*
X133224038Y-56210500D01*
X133224039Y-56210500D01*
X133475961Y-56210500D01*
X133475962Y-56210500D01*
X133724785Y-56171090D01*
X133964379Y-56093241D01*
X134188845Y-55978870D01*
X134392656Y-55830793D01*
X134570793Y-55652656D01*
X134718870Y-55448845D01*
X134830352Y-55230048D01*
X134833239Y-55224383D01*
X134833239Y-55224382D01*
X134833241Y-55224379D01*
X134911090Y-54984785D01*
X134950500Y-54735962D01*
X134950500Y-54484038D01*
X150799500Y-54484038D01*
X150799500Y-54735962D01*
X150810147Y-54803186D01*
X150838910Y-54984785D01*
X150916760Y-55224383D01*
X150995413Y-55378747D01*
X151023313Y-55433504D01*
X151031132Y-55448848D01*
X151179201Y-55652649D01*
X151179205Y-55652654D01*
X151357345Y-55830794D01*
X151357350Y-55830798D01*
X151425073Y-55880001D01*
X151561155Y-55978870D01*
X151704184Y-56051747D01*
X151785616Y-56093239D01*
X151785618Y-56093239D01*
X151785621Y-56093241D01*
X152025215Y-56171090D01*
X152274038Y-56210500D01*
X152274039Y-56210500D01*
X152525961Y-56210500D01*
X152525962Y-56210500D01*
X152774785Y-56171090D01*
X153014379Y-56093241D01*
X153238845Y-55978870D01*
X153442656Y-55830793D01*
X153620793Y-55652656D01*
X153768870Y-55448845D01*
X153880352Y-55230048D01*
X153883239Y-55224383D01*
X153883239Y-55224382D01*
X153883241Y-55224379D01*
X153961090Y-54984785D01*
X154000500Y-54735962D01*
X154000500Y-54484038D01*
X169849500Y-54484038D01*
X169849500Y-54735962D01*
X169860147Y-54803186D01*
X169888910Y-54984785D01*
X169966760Y-55224383D01*
X170045413Y-55378747D01*
X170073313Y-55433504D01*
X170081132Y-55448848D01*
X170229201Y-55652649D01*
X170229205Y-55652654D01*
X170407345Y-55830794D01*
X170407350Y-55830798D01*
X170475073Y-55880001D01*
X170611155Y-55978870D01*
X170754184Y-56051747D01*
X170835616Y-56093239D01*
X170835618Y-56093239D01*
X170835621Y-56093241D01*
X171075215Y-56171090D01*
X171324038Y-56210500D01*
X171324039Y-56210500D01*
X171575961Y-56210500D01*
X171575962Y-56210500D01*
X171824785Y-56171090D01*
X172064379Y-56093241D01*
X172288845Y-55978870D01*
X172492656Y-55830793D01*
X172670793Y-55652656D01*
X172818870Y-55448845D01*
X172930352Y-55230048D01*
X172933239Y-55224383D01*
X172933239Y-55224382D01*
X172933241Y-55224379D01*
X173011090Y-54984785D01*
X173050500Y-54735962D01*
X173050500Y-54484038D01*
X173011090Y-54235215D01*
X172933241Y-53995621D01*
X172933239Y-53995618D01*
X172933239Y-53995616D01*
X172891747Y-53914184D01*
X172818870Y-53771155D01*
X172799952Y-53745117D01*
X172670798Y-53567350D01*
X172670794Y-53567345D01*
X172492654Y-53389205D01*
X172492649Y-53389201D01*
X172288848Y-53241132D01*
X172288847Y-53241131D01*
X172288845Y-53241130D01*
X172218747Y-53205413D01*
X172064383Y-53126760D01*
X171824785Y-53048910D01*
X171575962Y-53009500D01*
X171324038Y-53009500D01*
X171199626Y-53029205D01*
X171075214Y-53048910D01*
X170835616Y-53126760D01*
X170611151Y-53241132D01*
X170407350Y-53389201D01*
X170407345Y-53389205D01*
X170229205Y-53567345D01*
X170229201Y-53567350D01*
X170081132Y-53771151D01*
X169966760Y-53995616D01*
X169888910Y-54235214D01*
X169860147Y-54416814D01*
X169849500Y-54484038D01*
X154000500Y-54484038D01*
X153961090Y-54235215D01*
X153883241Y-53995621D01*
X153883239Y-53995618D01*
X153883239Y-53995616D01*
X153841747Y-53914184D01*
X153768870Y-53771155D01*
X153749952Y-53745117D01*
X153620798Y-53567350D01*
X153620794Y-53567345D01*
X153442654Y-53389205D01*
X153442649Y-53389201D01*
X153238848Y-53241132D01*
X153238847Y-53241131D01*
X153238845Y-53241130D01*
X153168747Y-53205413D01*
X153014383Y-53126760D01*
X152774785Y-53048910D01*
X152525962Y-53009500D01*
X152274038Y-53009500D01*
X152149626Y-53029205D01*
X152025214Y-53048910D01*
X151785616Y-53126760D01*
X151561151Y-53241132D01*
X151357350Y-53389201D01*
X151357345Y-53389205D01*
X151179205Y-53567345D01*
X151179201Y-53567350D01*
X151031132Y-53771151D01*
X150916760Y-53995616D01*
X150838910Y-54235214D01*
X150810147Y-54416814D01*
X150799500Y-54484038D01*
X134950500Y-54484038D01*
X134911090Y-54235215D01*
X134833241Y-53995621D01*
X134833239Y-53995618D01*
X134833239Y-53995616D01*
X134791747Y-53914184D01*
X134718870Y-53771155D01*
X134699952Y-53745117D01*
X134570798Y-53567350D01*
X134570794Y-53567345D01*
X134392654Y-53389205D01*
X134392649Y-53389201D01*
X134188848Y-53241132D01*
X134188847Y-53241131D01*
X134188845Y-53241130D01*
X134118747Y-53205413D01*
X133964383Y-53126760D01*
X133724785Y-53048910D01*
X133475962Y-53009500D01*
X133224038Y-53009500D01*
X133099626Y-53029205D01*
X132975214Y-53048910D01*
X132735616Y-53126760D01*
X132511151Y-53241132D01*
X132307350Y-53389201D01*
X132307345Y-53389205D01*
X132129205Y-53567345D01*
X132129201Y-53567350D01*
X131981132Y-53771151D01*
X131866760Y-53995616D01*
X131788910Y-54235214D01*
X131760147Y-54416814D01*
X131749500Y-54484038D01*
X128468776Y-54484038D01*
X130846495Y-52106319D01*
X130907818Y-52072834D01*
X130934176Y-52070000D01*
X173865824Y-52070000D01*
X173932863Y-52089685D01*
G37*
%TD.AperFunction*%
%TA.AperFunction,Conductor*%
G36*
X153720562Y-72653083D02*
G01*
X153773749Y-72698393D01*
X153789266Y-72732372D01*
X153815769Y-72825523D01*
X153815775Y-72825538D01*
X153914938Y-73024683D01*
X153914943Y-73024691D01*
X154049020Y-73202238D01*
X154213437Y-73352123D01*
X154213439Y-73352125D01*
X154402595Y-73469245D01*
X154402596Y-73469245D01*
X154402599Y-73469247D01*
X154610060Y-73549618D01*
X154828757Y-73590500D01*
X154828759Y-73590500D01*
X154920166Y-73590500D01*
X154987205Y-73610185D01*
X155032960Y-73662989D01*
X155042904Y-73732147D01*
X155013879Y-73795703D01*
X155007847Y-73802181D01*
X154516848Y-74293181D01*
X154455525Y-74326666D01*
X154429167Y-74329500D01*
X153121669Y-74329500D01*
X153121653Y-74329499D01*
X153114057Y-74329499D01*
X152955943Y-74329499D01*
X152833174Y-74362395D01*
X152803218Y-74370422D01*
X152803216Y-74370422D01*
X152803215Y-74370423D01*
X152803212Y-74370424D01*
X152803209Y-74370426D01*
X152797247Y-74373867D01*
X152797248Y-74373868D01*
X152666287Y-74449477D01*
X152666282Y-74449481D01*
X152554478Y-74561286D01*
X149183913Y-77931850D01*
X149122590Y-77965335D01*
X149052898Y-77960351D01*
X148996965Y-77918479D01*
X148972548Y-77853015D01*
X148978302Y-77805848D01*
X148988476Y-77774536D01*
X148988477Y-77774534D01*
X149020500Y-77572352D01*
X149020500Y-77367648D01*
X149018900Y-77357546D01*
X148988477Y-77165465D01*
X148947432Y-77039143D01*
X148925220Y-76970781D01*
X148925218Y-76970778D01*
X148925218Y-76970776D01*
X148865072Y-76852734D01*
X148832287Y-76788390D01*
X148799477Y-76743230D01*
X148711971Y-76622786D01*
X148567213Y-76478028D01*
X148401611Y-76357713D01*
X148308369Y-76310203D01*
X148257574Y-76262229D01*
X148240779Y-76194407D01*
X148263317Y-76128273D01*
X148308371Y-76089234D01*
X148401347Y-76041861D01*
X148566894Y-75921582D01*
X148566895Y-75921582D01*
X148711582Y-75776895D01*
X148711582Y-75776894D01*
X148831859Y-75611349D01*
X148924755Y-75429029D01*
X148987990Y-75234413D01*
X148996609Y-75180000D01*
X147635686Y-75180000D01*
X147640080Y-75175606D01*
X147692741Y-75084394D01*
X147720000Y-74982661D01*
X147720000Y-74877339D01*
X147692741Y-74775606D01*
X147640080Y-74684394D01*
X147635686Y-74680000D01*
X148996609Y-74680000D01*
X148987990Y-74625586D01*
X148924755Y-74430970D01*
X148831859Y-74248650D01*
X148711582Y-74083105D01*
X148711582Y-74083104D01*
X148566895Y-73938417D01*
X148401349Y-73818140D01*
X148308370Y-73770765D01*
X148257574Y-73722790D01*
X148240779Y-73654969D01*
X148263316Y-73588835D01*
X148308370Y-73549795D01*
X148401610Y-73502287D01*
X148401613Y-73502284D01*
X148402621Y-73501771D01*
X148410609Y-73497353D01*
X149407100Y-73003400D01*
X149462171Y-72990500D01*
X150845608Y-72990500D01*
X150899531Y-73002838D01*
X150944784Y-73024691D01*
X151846999Y-73460382D01*
X151858348Y-73466615D01*
X151862595Y-73469245D01*
X151862596Y-73469245D01*
X151862599Y-73469247D01*
X151870539Y-73472323D01*
X151871902Y-73472851D01*
X151881030Y-73476815D01*
X151901158Y-73486536D01*
X151914313Y-73492658D01*
X151914909Y-73492925D01*
X151936217Y-73500801D01*
X151978504Y-73516432D01*
X151978505Y-73516432D01*
X151978510Y-73516434D01*
X151978514Y-73516434D01*
X151984824Y-73518040D01*
X151984685Y-73518583D01*
X152001026Y-73522873D01*
X152070060Y-73549618D01*
X152288757Y-73590500D01*
X152288759Y-73590500D01*
X152511241Y-73590500D01*
X152511243Y-73590500D01*
X152729940Y-73549618D01*
X152937401Y-73469247D01*
X153126562Y-73352124D01*
X153290981Y-73202236D01*
X153425058Y-73024689D01*
X153524229Y-72825528D01*
X153550734Y-72732371D01*
X153588013Y-72673278D01*
X153651323Y-72643721D01*
X153720562Y-72653083D01*
G37*
%TD.AperFunction*%
%TD*%
%TA.AperFunction,Conductor*%
%TO.N,Net-(D4-A)*%
G36*
X172176491Y-63800905D02*
G01*
X172182816Y-63807244D01*
X172182805Y-63816199D01*
X172181987Y-63817805D01*
X171397087Y-65103605D01*
X171389852Y-65108881D01*
X171381005Y-65107495D01*
X171378828Y-65105782D01*
X171249401Y-64976355D01*
X171247043Y-64972967D01*
X170715968Y-63817185D01*
X170715627Y-63808237D01*
X170721714Y-63801669D01*
X170722105Y-63801497D01*
X171446220Y-63501153D01*
X171455173Y-63501149D01*
X172176491Y-63800905D01*
G37*
%TD.AperFunction*%
%TD*%
%TA.AperFunction,Conductor*%
%TO.N,Net-(D4-A)*%
G36*
X148887181Y-78942279D02*
G01*
X148888512Y-78943424D01*
X149019914Y-79074826D01*
X149023341Y-79083099D01*
X149022206Y-79088126D01*
X148476764Y-80234565D01*
X148470115Y-80240563D01*
X148463891Y-80241008D01*
X147326319Y-80012120D01*
X147318884Y-80007129D01*
X147317361Y-80003807D01*
X147098707Y-79222741D01*
X147099777Y-79213851D01*
X147106820Y-79208321D01*
X147108220Y-79208020D01*
X148878489Y-78940129D01*
X148887181Y-78942279D01*
G37*
%TD.AperFunction*%
%TD*%
%TA.AperFunction,Conductor*%
%TO.N,Net-(D5-A)*%
G36*
X174130875Y-75004842D02*
G01*
X175554018Y-75457042D01*
X175560865Y-75462814D01*
X175561626Y-75471736D01*
X175561290Y-75472658D01*
X175262853Y-76195509D01*
X175256528Y-76201848D01*
X175256510Y-76201856D01*
X174532742Y-76501246D01*
X174523787Y-76501241D01*
X174517458Y-76494906D01*
X174517096Y-76493901D01*
X174426480Y-76201848D01*
X174116161Y-75201695D01*
X174115635Y-75198228D01*
X174115635Y-75015994D01*
X174119062Y-75007721D01*
X174127335Y-75004294D01*
X174130875Y-75004842D01*
G37*
%TD.AperFunction*%
%TD*%
%TA.AperFunction,Conductor*%
%TO.N,Net-(D5-A)*%
G36*
X148171139Y-81888262D02*
G01*
X149208968Y-82422147D01*
X149211889Y-82424278D01*
X149340981Y-82553370D01*
X149344408Y-82561643D01*
X149340981Y-82569916D01*
X149338331Y-82571903D01*
X148171234Y-83211461D01*
X148162332Y-83212432D01*
X148158380Y-83210399D01*
X148096759Y-83161953D01*
X147330978Y-82559894D01*
X147326593Y-82552087D01*
X147329012Y-82543466D01*
X147330965Y-82541510D01*
X148158550Y-81889476D01*
X148167168Y-81887048D01*
X148171139Y-81888262D01*
G37*
%TD.AperFunction*%
%TD*%
%TA.AperFunction,Conductor*%
%TO.N,Net-(D6-A)*%
G36*
X170722414Y-88598608D02*
G01*
X171446212Y-88897437D01*
X171452551Y-88903762D01*
X171452562Y-88903787D01*
X171751382Y-89627562D01*
X171751371Y-89636517D01*
X171745032Y-89642842D01*
X171744321Y-89643109D01*
X170396226Y-90099748D01*
X170387290Y-90099156D01*
X170384199Y-90096939D01*
X170253060Y-89965800D01*
X170249633Y-89957527D01*
X170250251Y-89953773D01*
X170355482Y-89643109D01*
X170706890Y-88605677D01*
X170712790Y-88598942D01*
X170721726Y-88598350D01*
X170722414Y-88598608D01*
G37*
%TD.AperFunction*%
%TD*%
%TA.AperFunction,Conductor*%
%TO.N,Net-(D6-A)*%
G36*
X148494980Y-85142817D02*
G01*
X148503088Y-85146617D01*
X148506024Y-85152813D01*
X148673232Y-86296848D01*
X148671038Y-86305530D01*
X148669928Y-86306813D01*
X148537904Y-86438837D01*
X148529631Y-86442264D01*
X148525679Y-86441576D01*
X147000172Y-85894142D01*
X146993543Y-85888123D01*
X146993112Y-85879178D01*
X146993310Y-85878664D01*
X147295620Y-85146617D01*
X147316156Y-85096887D01*
X147322481Y-85090549D01*
X147327498Y-85089666D01*
X148494980Y-85142817D01*
G37*
%TD.AperFunction*%
%TD*%
%TA.AperFunction,Conductor*%
%TO.N,Net-(U2-+)*%
G36*
X162025930Y-82423427D02*
G01*
X162028193Y-82426612D01*
X162566335Y-83540980D01*
X162566847Y-83549920D01*
X162560887Y-83556604D01*
X162560291Y-83556871D01*
X161929492Y-83819132D01*
X161920537Y-83819144D01*
X161920508Y-83819132D01*
X161289708Y-83556871D01*
X161283385Y-83550531D01*
X161283397Y-83541576D01*
X161283656Y-83540997D01*
X161821807Y-82426612D01*
X161828491Y-82420652D01*
X161832343Y-82420000D01*
X162017657Y-82420000D01*
X162025930Y-82423427D01*
G37*
%TD.AperFunction*%
%TD*%
%TA.AperFunction,Conductor*%
%TO.N,Net-(U2-+)*%
G36*
X161905766Y-79534779D02*
G01*
X161905860Y-79534872D01*
X162590025Y-80220014D01*
X162593446Y-80228289D01*
X162590803Y-80235688D01*
X162028511Y-80923207D01*
X162020620Y-80927442D01*
X162019454Y-80927500D01*
X161830301Y-80927500D01*
X161822028Y-80924073D01*
X161821504Y-80923514D01*
X161218305Y-80235688D01*
X161218272Y-80235650D01*
X161215395Y-80227172D01*
X161218708Y-80219754D01*
X161889223Y-79534952D01*
X161897458Y-79531440D01*
X161905766Y-79534779D01*
G37*
%TD.AperFunction*%
%TD*%
%TA.AperFunction,Conductor*%
%TO.N,Net-(D1-A)*%
G36*
X138141506Y-71320128D02*
G01*
X139911776Y-71588020D01*
X139919443Y-71592646D01*
X139921593Y-71601339D01*
X139921292Y-71602742D01*
X139702639Y-72383804D01*
X139697109Y-72390847D01*
X139693680Y-72392120D01*
X138556107Y-72621008D01*
X138547320Y-72619281D01*
X138543235Y-72614566D01*
X137997792Y-71468124D01*
X137997333Y-71459183D01*
X138000083Y-71454828D01*
X138131488Y-71323423D01*
X138139760Y-71319997D01*
X138141506Y-71320128D01*
G37*
%TD.AperFunction*%
%TD*%
%TA.AperFunction,Conductor*%
%TO.N,Net-(D1-A)*%
G36*
X136617574Y-63801355D02*
G01*
X136623899Y-63807694D01*
X136623888Y-63816649D01*
X136623574Y-63817341D01*
X135993220Y-65093482D01*
X135986484Y-65099382D01*
X135982730Y-65100000D01*
X135797270Y-65100000D01*
X135788997Y-65096573D01*
X135786780Y-65093482D01*
X135156425Y-63817341D01*
X135155833Y-63808405D01*
X135161733Y-63801669D01*
X135162400Y-63801366D01*
X135885512Y-63500864D01*
X135894461Y-63500854D01*
X136617574Y-63801355D01*
G37*
%TD.AperFunction*%
%TD*%
%TA.AperFunction,Conductor*%
%TO.N,Net-(D2-A)*%
G36*
X138494320Y-68498423D02*
G01*
X138501953Y-68501162D01*
X140019827Y-69045857D01*
X140026456Y-69051876D01*
X140026887Y-69060821D01*
X140026689Y-69061335D01*
X139703843Y-69843111D01*
X139697518Y-69849450D01*
X139692497Y-69850333D01*
X138525020Y-69797181D01*
X138516911Y-69793381D01*
X138513975Y-69787185D01*
X138346767Y-68643150D01*
X138348961Y-68634469D01*
X138350064Y-68633193D01*
X138482096Y-68501161D01*
X138490368Y-68497735D01*
X138494320Y-68498423D01*
G37*
%TD.AperFunction*%
%TD*%
%TA.AperFunction,Conductor*%
%TO.N,Net-(D2-A)*%
G36*
X146684122Y-55882717D02*
G01*
X146684139Y-55882734D01*
X147235894Y-56435870D01*
X147239311Y-56444148D01*
X147235874Y-56452416D01*
X147234365Y-56453687D01*
X146059625Y-57284157D01*
X146050891Y-57286134D01*
X146044598Y-57282876D01*
X145913462Y-57151740D01*
X145910038Y-57143746D01*
X145880284Y-55891965D01*
X145883514Y-55883615D01*
X145891703Y-55879992D01*
X145891929Y-55879989D01*
X146675846Y-55879297D01*
X146684122Y-55882717D01*
G37*
%TD.AperFunction*%
%TD*%
%TA.AperFunction,Conductor*%
%TO.N,Net-(D3-A)*%
G36*
X140996802Y-65876569D02*
G01*
X141000385Y-65879015D01*
X141132004Y-66010634D01*
X141135431Y-66018907D01*
X141135220Y-66021122D01*
X140901723Y-67232428D01*
X140896792Y-67239903D01*
X140890909Y-67241894D01*
X139707604Y-67310227D01*
X139699147Y-67307282D01*
X139696115Y-67303012D01*
X139670875Y-67241894D01*
X139373180Y-66521017D01*
X139373189Y-66512063D01*
X139379528Y-66505738D01*
X139379731Y-66505656D01*
X140633563Y-66015026D01*
X140987849Y-65876392D01*
X140996802Y-65876569D01*
G37*
%TD.AperFunction*%
%TD*%
%TA.AperFunction,Conductor*%
%TO.N,Net-(D3-A)*%
G36*
X159927414Y-55578608D02*
G01*
X160651212Y-55877437D01*
X160657551Y-55883762D01*
X160657562Y-55883787D01*
X160956382Y-56607562D01*
X160956371Y-56616517D01*
X160950032Y-56622842D01*
X160949321Y-56623109D01*
X159601226Y-57079748D01*
X159592290Y-57079156D01*
X159589199Y-57076939D01*
X159458060Y-56945800D01*
X159454633Y-56937527D01*
X159455251Y-56933773D01*
X159560482Y-56623109D01*
X159911890Y-55585677D01*
X159917790Y-55578942D01*
X159926726Y-55578350D01*
X159927414Y-55578608D01*
G37*
%TD.AperFunction*%
%TD*%
%TA.AperFunction,Conductor*%
%TO.N,Net-(D7-A)*%
G36*
X160496155Y-94954857D02*
G01*
X160497378Y-94956295D01*
X161209881Y-95946251D01*
X161211933Y-95954968D01*
X161208668Y-95961349D01*
X160656238Y-96515162D01*
X160647970Y-96518599D01*
X160643472Y-96517706D01*
X159921453Y-96218231D01*
X159915124Y-96211896D01*
X159915027Y-96203196D01*
X160347028Y-95088844D01*
X160349661Y-95084805D01*
X160479610Y-94954856D01*
X160487882Y-94951430D01*
X160496155Y-94954857D01*
G37*
%TD.AperFunction*%
%TD*%
%TA.AperFunction,Conductor*%
%TO.N,Net-(D7-A)*%
G36*
X138642523Y-82108749D02*
G01*
X139687192Y-82543666D01*
X139693512Y-82550009D01*
X139693496Y-82558964D01*
X139692240Y-82561234D01*
X139148235Y-83328552D01*
X139140654Y-83333319D01*
X139136599Y-83333297D01*
X138574165Y-83231146D01*
X137998989Y-83126681D01*
X137992807Y-83123442D01*
X137861769Y-82992404D01*
X137858342Y-82984131D01*
X137861293Y-82976364D01*
X138629285Y-82111779D01*
X138637338Y-82107871D01*
X138642523Y-82108749D01*
G37*
%TD.AperFunction*%
%TD*%
%TA.AperFunction,Conductor*%
%TO.N,Net-(D8-A)*%
G36*
X139693680Y-80007879D02*
G01*
X139701115Y-80012870D01*
X139702639Y-80016195D01*
X139921292Y-80797257D01*
X139920222Y-80806148D01*
X139913179Y-80811678D01*
X139911776Y-80811979D01*
X138141511Y-81079870D01*
X138132818Y-81077720D01*
X138131487Y-81076575D01*
X138000085Y-80945173D01*
X137996658Y-80936900D01*
X137997791Y-80931877D01*
X138543236Y-79785431D01*
X138549883Y-79779435D01*
X138556104Y-79778990D01*
X139693680Y-80007879D01*
G37*
%TD.AperFunction*%
%TD*%
%TA.AperFunction,Conductor*%
%TO.N,Net-(D8-A)*%
G36*
X145631225Y-95320250D02*
G01*
X146979321Y-95776890D01*
X146986057Y-95782790D01*
X146986649Y-95791726D01*
X146986382Y-95792437D01*
X146687562Y-96516212D01*
X146681237Y-96522551D01*
X146681212Y-96522562D01*
X145957437Y-96821382D01*
X145948482Y-96821371D01*
X145942157Y-96815032D01*
X145941890Y-96814321D01*
X145842434Y-96520707D01*
X145485251Y-95466225D01*
X145485843Y-95457290D01*
X145488057Y-95454202D01*
X145619200Y-95323059D01*
X145627472Y-95319633D01*
X145631225Y-95320250D01*
G37*
%TD.AperFunction*%
%TD*%
%TA.AperFunction,Conductor*%
%TO.N,Net-(D9-A)*%
G36*
X135991003Y-87303427D02*
G01*
X135993220Y-87306518D01*
X136623574Y-88582658D01*
X136624166Y-88591594D01*
X136618266Y-88598330D01*
X136617574Y-88598644D01*
X135894490Y-88899134D01*
X135885536Y-88899144D01*
X135162425Y-88598644D01*
X135156100Y-88592305D01*
X135156111Y-88583350D01*
X135156415Y-88582678D01*
X135786780Y-87306517D01*
X135793516Y-87300618D01*
X135797270Y-87300000D01*
X135982730Y-87300000D01*
X135991003Y-87303427D01*
G37*
%TD.AperFunction*%
%TD*%
%TA.AperFunction,Conductor*%
%TO.N,Net-(D9-A)*%
G36*
X139693680Y-77467879D02*
G01*
X139701115Y-77472870D01*
X139702639Y-77476195D01*
X139921292Y-78257257D01*
X139920222Y-78266148D01*
X139913179Y-78271678D01*
X139911776Y-78271979D01*
X138141511Y-78539870D01*
X138132818Y-78537720D01*
X138131487Y-78536575D01*
X138000085Y-78405173D01*
X137996658Y-78396900D01*
X137997791Y-78391877D01*
X138543236Y-77245431D01*
X138549883Y-77239435D01*
X138556104Y-77238990D01*
X139693680Y-77467879D01*
G37*
%TD.AperFunction*%
%TD*%
%TA.AperFunction,Conductor*%
%TO.N,Net-(D10-A)*%
G36*
X138861352Y-74269394D02*
G01*
X139689312Y-74920805D01*
X139693696Y-74928614D01*
X139691273Y-74937234D01*
X139689312Y-74939195D01*
X138861352Y-75590605D01*
X138852732Y-75593028D01*
X138848922Y-75591893D01*
X137721876Y-75033223D01*
X137715985Y-75026478D01*
X137715372Y-75022740D01*
X137715372Y-74837259D01*
X137718799Y-74828986D01*
X137721876Y-74826776D01*
X138848923Y-74268105D01*
X138857856Y-74267502D01*
X138861352Y-74269394D01*
G37*
%TD.AperFunction*%
%TD*%
%TA.AperFunction,Conductor*%
%TO.N,Net-(D10-A)*%
G36*
X132396649Y-75466111D02*
G01*
X132397332Y-75466421D01*
X133673482Y-76096780D01*
X133679382Y-76103516D01*
X133680000Y-76107270D01*
X133680000Y-76292729D01*
X133676573Y-76301002D01*
X133673482Y-76303219D01*
X132397341Y-76933574D01*
X132388405Y-76934166D01*
X132381669Y-76928266D01*
X132381361Y-76927587D01*
X132080864Y-76204487D01*
X132080854Y-76195538D01*
X132381356Y-75472423D01*
X132387694Y-75466100D01*
X132396649Y-75466111D01*
G37*
%TD.AperFunction*%
%TD*%
%TA.AperFunction,Conductor*%
%TO.N,Net-(Q1-C)*%
G36*
X148171077Y-71728106D02*
G01*
X149298124Y-72286776D01*
X149304015Y-72293521D01*
X149304628Y-72297259D01*
X149304628Y-72482740D01*
X149301201Y-72491013D01*
X149298124Y-72493223D01*
X148171077Y-73051893D01*
X148162143Y-73052497D01*
X148158647Y-73050605D01*
X147330687Y-72399195D01*
X147326303Y-72391386D01*
X147328726Y-72382766D01*
X147330687Y-72380805D01*
X147441627Y-72293521D01*
X148158647Y-71729393D01*
X148167267Y-71726971D01*
X148171077Y-71728106D01*
G37*
%TD.AperFunction*%
%TD*%
%TA.AperFunction,Conductor*%
%TO.N,Net-(Q1-C)*%
G36*
X152136604Y-71754112D02*
G01*
X152136871Y-71754708D01*
X152399132Y-72385508D01*
X152399144Y-72394463D01*
X152399132Y-72394492D01*
X152136871Y-73025291D01*
X152130531Y-73031614D01*
X152121576Y-73031602D01*
X152120980Y-73031335D01*
X151006612Y-72493193D01*
X151000652Y-72486509D01*
X151000000Y-72482657D01*
X151000000Y-72297342D01*
X151003427Y-72289069D01*
X151006607Y-72286809D01*
X152120981Y-71748663D01*
X152129920Y-71748152D01*
X152136604Y-71754112D01*
G37*
%TD.AperFunction*%
%TD*%
M02*
